<svg width="60" height="60" viewBox="0 0 60 60" fill="none" xmlns="http://www.w3.org/2000/svg">
<path d="M30.2001 59.2996C14 59.2996 0.800049 46.1996 0.800049 29.9996C0.800049 13.6996 14 0.599609 30.2001 0.599609C46.4001 0.599609 59.6 13.7996 59.6 29.9996C59.6 46.1996 46.4001 59.2996 30.2001 59.2996Z" fill="url(#paint0_linear)"/>
<path d="M40.1001 18.6992H20.1001V43.6992H40.1001V18.6992Z" fill="url(#paint1_linear)" stroke="white" stroke-miterlimit="10"/>
<path d="M24.3 23.5996H35.4001" stroke="white" stroke-miterlimit="10"/>
<path d="M24.3 27.5H35.4001" stroke="white" stroke-miterlimit="10"/>
<path d="M24.3 31.2998H35.4001" stroke="white" stroke-miterlimit="10"/>
<path d="M24.3 35.1992H35.4001" stroke="white" stroke-miterlimit="10"/>
<path d="M24.3 39H35.4001" stroke="white" stroke-miterlimit="10"/>
<path d="M33.2001 16.5996H26.8001C26.3001 16.5996 25.9001 16.9996 25.9001 17.4996V18.6996H34.1001V17.4996C34.1001 16.9996 33.7001 16.5996 33.2001 16.5996Z" fill="url(#paint2_linear)" stroke="white" stroke-miterlimit="10"/>
<defs>
<linearGradient id="paint0_linear" x1="-31.3797" y1="30.6379" x2="48.7096" y2="29.7433" gradientUnits="userSpaceOnUse">
<stop stop-color="#D8BB58"/>
<stop offset="0.1464" stop-color="#ECD26E"/>
<stop offset="0.239" stop-color="#F4DB76"/>
<stop offset="0.4341" stop-color="#E4BD32"/>
<stop offset="0.8173" stop-color="#CEA53A"/>
<stop offset="0.8757" stop-color="#C99F33"/>
</linearGradient>
<linearGradient id="paint1_linear" x1="9.15461" y1="31.4923" x2="36.3971" y2="31.2493" gradientUnits="userSpaceOnUse">
<stop stop-color="#D8BB58"/>
<stop offset="0.1464" stop-color="#ECD26E"/>
<stop offset="0.239" stop-color="#F4DB76"/>
<stop offset="0.4341" stop-color="#E4BD32"/>
<stop offset="0.8173" stop-color="#CEA53A"/>
<stop offset="0.8757" stop-color="#C99F33"/>
</linearGradient>
<linearGradient id="paint2_linear" x1="21.4125" y1="17.6742" x2="32.5617" y2="17.1888" gradientUnits="userSpaceOnUse">
<stop stop-color="#D8BB58"/>
<stop offset="0.1464" stop-color="#ECD26E"/>
<stop offset="0.239" stop-color="#F4DB76"/>
<stop offset="0.4341" stop-color="#E4BD32"/>
<stop offset="0.8173" stop-color="#CEA53A"/>
<stop offset="0.8757" stop-color="#C99F33"/>
</linearGradient>
</defs>
</svg>
