<svg width="80" height="62" viewBox="0 0 80 62" fill="none" xmlns="http://www.w3.org/2000/svg">
<path d="M17.3331 61.3343C15.6189 61.3343 14.095 60.0009 14.095 58.0962C14.095 56.3819 15.4284 54.8581 17.3331 54.8581H62.476C64.1903 54.8581 65.7141 56.1914 65.7141 58.0962C65.7141 59.8105 64.3808 61.3343 62.476 61.3343H17.3331ZM29.9046 44.7628L15.0474 30.2866C14.2855 29.5247 14.2855 28.3819 15.0474 27.62C17.3331 25.3343 17.5236 21.5247 15.4284 18.8581C14.2855 17.5247 12.7617 16.7628 11.0474 16.5724C7.42838 16.3819 4.19028 19.0485 3.80933 22.4771C3.42838 25.5247 5.52362 28.3819 8.38076 29.3343C9.52362 29.7152 10.8569 29.7152 12.1903 29.3343C13.1427 28.9533 14.2855 29.7152 14.476 30.6676C15.6189 34.2866 16.5712 37.7152 17.3331 40.7628C18.095 43.4295 18.476 46.0962 19.0474 48.7628H60.9522C61.3331 46.0962 61.9046 43.4295 62.6665 40.7628C63.4284 37.5247 64.3808 34.2866 65.5236 30.6676C65.9046 29.7152 66.8569 29.1438 67.8093 29.3343C69.1427 29.7152 70.2855 29.7152 71.6189 29.3343C74.476 28.3819 76.5712 25.5247 76.1903 22.4771C75.8093 18.8581 72.5712 16.1914 69.1427 16.5724C67.4284 16.7628 65.9046 17.5247 64.7617 18.8581C62.6665 21.3343 62.8569 25.1438 65.1427 27.62C65.9046 28.3819 65.9046 29.5247 65.1427 30.2866L50.476 44.5724C49.5236 45.7152 47.4284 45.3343 47.0474 43.8105L40.5712 18.8581C40.3808 17.9057 40.9522 16.7628 41.9046 16.5724C43.2379 16.1914 44.5712 15.4295 45.3331 14.2866C47.2379 11.8105 47.0474 8.00093 44.7617 5.71522C43.6189 4.57236 41.9046 3.81045 40.1903 3.81045C38.476 3.81045 36.7617 4.57236 35.6189 5.71522C33.3331 8.00093 33.1427 11.8105 35.0474 14.2866C35.8093 15.4295 37.1427 16.1914 38.476 16.5724C39.4284 16.7628 39.9998 17.9057 39.8093 18.8581L33.3331 43.8105C32.9522 45.3343 31.0474 45.9057 29.9046 44.7628ZM30.2855 40.0009L35.6189 19.8105C34.095 19.0485 32.7617 18.0962 31.8093 16.7628C28.7617 12.7628 29.1427 6.85807 32.7617 3.23903C34.6665 1.33426 37.1427 0.191406 39.9998 0.191406C42.8569 0.191406 45.5236 1.33426 47.2379 3.23903C50.8569 6.85807 51.2379 12.7628 48.1903 16.7628C47.2379 18.0962 45.9046 19.0485 44.3808 19.8105L49.7141 40.0009L61.1427 28.9533C58.6665 25.1438 58.857 20.1914 61.7141 16.5724C63.6189 14.4771 66.095 13.1438 68.7617 12.9533C74.476 12.3819 79.4284 16.5724 79.9998 22.2866C80.3808 27.239 77.3331 31.62 72.7617 33.1438C71.4284 33.5247 70.095 33.7152 68.7617 33.5247C67.9998 36.3819 67.0474 39.239 66.476 41.9057C65.7141 44.9533 65.1427 48.0009 64.5712 51.239C64.3808 52.1914 63.6189 52.9533 62.6665 52.9533H17.3331C16.3808 52.9533 15.4284 52.1914 15.4284 51.239C15.0474 48.1914 14.476 45.1438 13.7141 42.0962C12.9522 39.4295 12.1903 36.7628 11.4284 33.7152C10.095 33.9057 8.76171 33.7152 7.42838 33.3343C2.85695 32.0009 -0.190669 27.4295 0.190284 22.4771C0.761712 16.7628 5.71409 12.5724 11.4284 13.1438C14.095 13.3343 16.5712 14.6676 18.476 16.7628C21.3331 20.1914 21.7141 25.3343 19.0474 29.1438L30.2855 40.0009Z" fill="url(#paint0_linear)"/>
<defs>
<linearGradient id="paint0_linear" x1="-43.5546" y1="31.4797" x2="65.2288" y2="29.8951" gradientUnits="userSpaceOnUse">
<stop stop-color="#D8BB58"/>
<stop offset="0.1464" stop-color="#ECD26E"/>
<stop offset="0.239" stop-color="#F4DB76"/>
<stop offset="0.4341" stop-color="#E9CC65"/>
<stop offset="0.8173" stop-color="#CEA53A"/>
<stop offset="0.8757" stop-color="#C99F33"/>
</linearGradient>
</defs>
</svg>
