<svg width="60" height="60" viewBox="0 0 60 60" fill="none" xmlns="http://www.w3.org/2000/svg">
<path d="M30.1 59.3C13.9 59.3 0.699951 46.1 0.699951 29.9C0.699951 13.7 13.9 0.5 30.1 0.5C46.2999 0.5 59.5 13.7 59.5 29.9C59.5 46.1 46.2999 59.3 30.1 59.3Z" fill="url(#paint0_linear)"/>
<path d="M47.3001 23.3997L43.9001 19.3997C42.8001 18.1997 41.0001 17.9997 39.7001 18.9997L38.0001 20.4997H37.9001C36.7001 20.0997 32.8001 18.8997 30.8001 19.1997C30.5001 19.1997 30.2001 19.2997 29.8001 19.4997H29.7001H29.6001C26.6001 18.5997 25.2001 19.0997 24.1001 19.5997H24.0001C23.4001 19.7997 22.9001 19.9997 22.3001 19.9997H21.5001C19.6001 19.9997 19.1001 19.9997 18.7001 19.6997C17.1001 18.4997 15.8001 18.5997 14.6001 19.8997L11.8001 23.6997C10.5001 25.0997 11.4001 27.0997 11.9001 27.8997L13.4001 30.3997C13.6001 30.5997 13.9001 30.7997 14.3001 30.9997L14.6001 31.0997L14.4001 31.3997L13.2001 32.5997C12.5001 33.2997 12.5001 34.3997 13.2001 35.0997L13.9001 35.7997C14.1001 35.9997 14.3001 36.0997 14.6001 36.1997L14.8001 36.2997V36.4997C14.6001 37.0997 14.8001 37.6997 15.2001 38.1997L15.9001 38.8997C16.2001 39.1997 16.7001 39.3997 17.1001 39.3997C17.3001 39.3997 17.6001 39.3997 17.8001 39.2997L18.0001 39.1997L18.1001 39.3997C18.2001 39.6997 18.3001 39.8997 18.5001 39.9997L19.2001 40.6997C19.7001 41.1997 20.5001 41.3997 21.2001 40.9997L21.4001 40.8997L21.5001 41.0997C21.6001 41.2997 21.7001 41.4997 21.9001 41.6997L22.6001 42.3997C23.3001 43.0997 24.4001 43.0997 25.1001 42.3997L25.7001 41.7997L26.8001 42.6997C27.1001 42.9997 27.4001 43.1997 27.8001 43.2997H27.9001C28.8001 43.7997 30.0001 43.5997 30.7001 42.7997C30.9001 42.5997 31.1001 42.2997 31.2001 42.0997V41.9997L31.3001 41.6997L31.8001 42.1997C32.1001 42.4997 32.4001 42.5997 32.8001 42.6997H32.9001C33.8001 43.1997 35.0001 42.9997 35.7001 42.1997C36.0001 41.8997 36.2001 41.4997 36.3001 41.0997L36.4001 40.7997L36.7001 40.8997C37.0001 40.9997 37.3001 41.0997 37.6001 41.0997C38.2001 41.0997 38.9001 40.7997 39.3001 40.3997C39.7001 39.9997 39.9001 39.3997 39.9001 38.6997C39.9001 38.5997 39.9001 38.4997 39.9001 38.3997V38.0997H40.2001C40.4001 38.0997 40.5001 38.0997 40.6001 38.0997C41.2001 38.0997 41.8001 37.7997 42.2001 37.3997C42.6001 36.9997 42.8001 36.3997 42.8001 35.6997C42.8001 35.0997 42.5001 34.4997 42.1001 34.0997L41.2001 33.2997L41.6001 33.1997C42.0001 33.0997 42.3001 32.8997 42.6001 32.5997L47.3001 27.8997C47.9001 27.3997 48.3001 26.5997 48.4001 25.7997C48.0001 24.7997 47.8001 23.9997 47.3001 23.3997ZM15.0001 35.0997C14.7001 35.0997 14.5001 34.9997 14.4001 34.7997L13.7001 34.0997C13.4001 33.7997 13.4001 33.1997 13.7001 32.8997L17.4001 29.2997C17.7001 28.9997 18.3001 28.9997 18.6001 29.2997L19.3001 29.9997C19.6001 30.2997 19.6001 30.6997 19.5001 30.9997V31.0997L15.5001 34.9997C15.2001 35.0997 15.1001 35.0997 15.0001 35.0997ZM17.6001 37.8997C17.4001 38.0997 17.2001 38.0997 17.0001 38.0997C16.7001 38.0997 16.5001 37.9997 16.4001 37.7997L15.7001 37.0997C15.4001 36.7997 15.4001 36.1997 15.7001 35.8997L16.0001 35.5997C16.1001 35.4997 16.2001 35.3997 16.3001 35.3997L20.0001 31.7997C20.1001 31.6997 20.1001 31.5997 20.2001 31.5997L20.6001 31.1997C20.8001 30.9997 21.0001 30.9997 21.2001 30.9997C21.4001 30.9997 21.7001 31.0997 21.8001 31.2997L22.5001 31.9997C22.7001 32.1997 22.7001 32.3997 22.7001 32.5997C22.7001 32.7997 22.6001 32.9997 22.4001 33.1997L17.6001 37.8997ZM20.9001 39.7997C20.7001 39.9997 20.5001 39.9997 20.3001 39.9997C20.1001 39.9997 19.8001 39.8997 19.7001 39.6997L19.0001 39.0997C18.8001 38.8997 18.7001 38.6997 18.8001 38.4997C18.8001 38.2997 18.9001 38.0997 19.1001 37.8997L22.4001 34.5997C22.7001 34.2997 23.3001 34.2997 23.6001 34.5997L24.3001 35.2997C24.6001 35.5997 24.6001 36.1997 24.3001 36.4997L20.9001 39.7997ZM24.3001 41.4997C24.1001 41.6997 23.9001 41.6997 23.7001 41.7997C23.4001 41.7997 23.2001 41.6997 23.1001 41.4997L22.4001 40.7997C22.2001 40.5997 22.1001 40.3997 22.2001 40.1997C22.2001 39.9997 22.3001 39.7997 22.5001 39.5997L24.1001 37.9997C24.3001 37.7997 24.5001 37.7997 24.7001 37.7997C24.9001 37.7997 25.2001 37.8997 25.3001 38.0997L26.0001 38.7997C26.3001 39.0997 26.3001 39.6997 26.0001 39.9997L24.3001 41.4997ZM41.1001 35.3997C41.1001 35.7997 41.0001 36.1997 40.7001 36.5997C40.4001 36.8997 40.0001 37.0997 39.6001 37.0997C39.5001 37.0997 39.4001 37.0997 39.3001 37.0997H39.2001C39.1001 36.9997 39.0001 36.9997 38.9001 36.8997C36.4001 34.5997 34.9001 33.0997 34.4001 32.4997H34.3001C34.2001 32.3997 34.1001 32.3997 34.0001 32.3997C33.7001 32.3997 33.4001 32.5997 33.4001 32.8997V33.0997L33.6001 33.3997L37.8001 37.2997C38.1001 37.5997 38.3001 37.9997 38.3001 38.3997C38.3001 38.7997 38.2001 39.1997 37.9001 39.5997C37.5001 39.9997 37.0001 40.1997 36.4001 40.0997H36.3001C36.2001 39.9997 36.1001 39.9997 36.0001 39.8997L35.8001 39.6997C35.7001 39.3997 35.5001 39.0997 35.2001 38.8997L31.4001 35.5997H31.3001C31.2001 35.5997 31.2001 35.5997 31.1001 35.5997C30.8001 35.5997 30.5001 35.7997 30.5001 36.0997C30.5001 36.2997 30.6001 36.3997 30.7001 36.4997L30.9001 36.5997L34.7001 39.9997V40.0997C34.7001 40.1997 34.7001 40.2997 34.7001 40.3997C34.7001 40.7997 34.6001 41.1997 34.3001 41.5997C33.9001 41.9997 33.4001 42.1997 32.8001 42.0997H32.7001C32.6001 41.9997 32.5001 41.9997 32.4001 41.8997L30.7001 40.2997C30.0001 39.4997 29.5001 38.9997 29.4001 38.8997C29.0001 38.4997 28.4001 38.7997 28.4001 39.1997C28.4001 39.3997 28.5001 39.5997 28.7001 39.6997H28.8001L29.7001 40.4997V40.5997C29.8001 41.0997 29.7001 41.6997 29.3001 42.0997C29.0001 42.3997 28.6001 42.5997 28.1001 42.5997C28.0001 42.5997 27.9001 42.5997 27.8001 42.5997H27.7001C27.6001 42.4997 27.5001 42.4997 27.5001 42.3997L26.0001 41.0997L26.4001 40.6997C27.1001 39.9997 27.1001 38.8997 26.4001 38.1997L25.7001 37.4997C25.5001 37.2997 25.3001 37.1997 25.1001 37.0997L24.9001 36.9997L25.0001 36.7997C25.3001 36.0997 25.2001 35.2997 24.7001 34.7997L24.0001 34.0997C23.8001 33.8997 23.6001 33.7997 23.4001 33.6997L23.2001 33.5997V33.3997C23.3001 33.1997 23.3001 32.9997 23.3001 32.6997C23.3001 32.1997 23.1001 31.7997 22.8001 31.4997L22.1001 30.7997C21.8001 30.4997 21.3001 30.2997 20.9001 30.2997C20.7001 30.2997 20.6001 30.2997 20.4001 30.3997L20.2001 30.4997L20.1001 30.2997C20.0001 29.9997 19.9001 29.7997 19.7001 29.5997L19.0001 28.8997C18.7001 28.5997 18.2001 28.3997 17.8001 28.3997C17.3001 28.3997 16.9001 28.5997 16.6001 28.8997L15.4001 30.0997H15.3001C15.2001 30.0997 15.2001 30.0997 15.1001 30.0997C14.7001 30.0997 14.2001 29.8997 13.9001 29.6997V29.5997L12.4001 27.0997C11.9001 26.0997 11.6001 25.2997 12.4001 24.4997L15.2001 20.6997C15.9001 19.8997 16.6001 19.6997 17.9001 20.6997C18.6001 21.1997 19.5001 21.1997 21.4001 21.1997H22.2001C23.1001 21.1997 23.8001 20.8997 24.4001 20.6997C25.1001 20.3997 25.9001 20.0997 27.2001 20.1997L28.0001 20.2997L27.3001 20.6997C25.8001 21.5997 24.8001 22.5997 24.3001 23.5997C23.8001 24.5997 24.0001 25.3997 24.3001 25.8997C25.2001 27.5997 27.2001 26.7997 28.7001 26.1997C30.1001 25.5997 31.1001 25.2997 31.5001 25.7997C33.9001 28.1997 38.7001 33.0997 39.2001 33.2997H39.3001L40.6001 34.5997C40.9001 34.5997 41.1001 34.9997 41.1001 35.3997ZM46.8001 25.5997C46.7001 26.1997 46.5001 26.6997 46.1001 26.9997L41.4001 31.6997C41.0001 31.9997 40.6001 32.0997 40.2001 32.0997C39.9001 32.0997 39.5001 31.9997 39.3001 31.8997L38.2001 30.8997C35.1001 27.6997 33.1001 25.6997 32.3001 24.7997C31.9001 24.3997 31.5001 24.2997 30.9001 24.2997C30.1001 24.2997 29.2001 24.6997 28.3001 24.9997C26.3001 25.7997 25.6001 25.8997 25.2001 25.1997C25.0001 24.7997 25.0001 24.3997 25.3001 23.8997C26.2001 22.0997 29.3001 20.4997 30.9001 20.2997C32.6001 20.0997 36.6001 21.1997 38.0001 21.6997L38.3001 21.7997L40.5001 19.9997C40.9001 19.6997 41.4001 19.4997 41.9001 19.5997C42.4001 19.5997 42.9001 19.8997 43.2001 20.2997L46.6001 24.2997C46.8001 24.4997 46.9001 24.9997 46.8001 25.5997Z" fill="white"/>
<defs>
<linearGradient id="paint0_linear" x1="-31.4798" y1="30.5894" x2="48.6095" y2="29.6963" gradientUnits="userSpaceOnUse">
<stop stop-color="#D8BB58"/>
<stop offset="0.1464" stop-color="#ECD26E"/>
<stop offset="0.239" stop-color="#F4DB76"/>
<stop offset="0.4341" stop-color="#E4BD32"/>
<stop offset="0.8173" stop-color="#CEA53A"/>
<stop offset="0.8757" stop-color="#C99F33"/>
</linearGradient>
</defs>
</svg>
