<svg width="198" height="84" viewBox="0 0 198 84" fill="none" xmlns="http://www.w3.org/2000/svg">
<path d="M97.9228 45.1113C97.9228 44.4592 98.0164 44.8318 97.8291 44.6455C97.8291 45.3908 97.8291 44.925 97.9228 45.1113Z" fill="url(#paint0_linear)"/>
<path d="M97.6426 44.6453H97.8299V44.459L97.6426 44.6453Z" fill="url(#paint1_linear)"/>
<path d="M98.1108 20.2381C98.0172 19.9586 97.9235 19.6791 97.7362 19.4928C97.0806 20.6107 96.425 21.8217 95.9567 23.0328C95.0201 25.3617 94.4581 26.2001 94.2708 29.3675C94.0835 32.1622 93.9898 33.5596 94.6454 36.4475C94.8328 37.379 95.2074 38.0311 95.2074 38.7764C95.2074 39.2422 95.2074 39.0559 95.3947 39.3353C96.144 40.2669 96.6123 42.3164 97.2679 43.4343C97.5489 43.9932 97.9235 44.0864 98.2045 44.5522L97.9235 45.1111C98.0172 45.9495 98.7664 47.0674 99.7967 48.2785C99.8904 48.2785 99.8904 48.1853 99.984 48.1853C100.359 48.1853 100.64 48.0921 101.014 47.999C101.014 47.9058 100.921 47.8127 100.921 47.6264C101.202 47.8127 101.202 47.8127 101.295 47.9058C101.483 47.9058 101.576 47.8127 101.764 47.8127C101.951 47.7195 102.045 47.7195 102.232 47.7195C102.513 47.5332 102.7 47.44 102.981 47.3469C102.981 47.2537 103.075 47.1606 103.262 47.0674C103.356 47.0674 103.449 46.9742 103.543 46.9742C103.637 46.9742 103.637 46.9742 103.73 46.8811C103.918 46.7879 104.011 46.7879 104.105 46.6948C104.105 46.6948 104.105 46.6948 104.199 46.6948C104.199 46.6948 104.199 46.6948 104.292 46.6948C104.386 46.6948 104.48 46.6016 104.667 46.5085C104.761 46.4153 104.854 46.3221 104.948 46.3221C105.042 46.3221 105.229 46.1358 105.885 45.7632C105.978 45.67 106.166 45.5769 106.166 45.5769C106.166 45.5769 106.259 45.5769 106.259 45.4837C106.259 45.4837 106.353 45.3906 106.447 45.2974C106.54 45.2043 106.634 45.2043 106.634 45.1111C106.634 45.1111 106.634 45.1111 106.634 45.0179C106.634 45.0179 106.634 45.0179 106.727 45.0179C106.821 45.0179 107.664 44.3658 107.664 44.2727L107.758 44.1795C108.039 44.0864 109.444 42.2232 109.35 41.9437C109.35 41.9437 109.35 41.8506 109.444 41.8506C109.444 41.8506 109.537 41.5711 109.631 41.1985C110.006 39.8943 110.006 39.3353 109.725 37.938C109.631 37.379 109.444 36.6338 109.35 36.4475C109.256 36.168 109.256 36.0748 109.35 36.0748C109.444 36.0748 109.537 35.5159 109.444 35.3296C109.35 35.2364 108.882 34.8638 108.413 34.4911C107.383 33.7459 107.383 33.7459 107.102 33.3733C107.008 33.1869 106.821 33.0938 106.821 33.0938C106.821 33.0938 106.728 33.0006 106.634 32.9075C106.54 32.8143 106.54 32.7212 106.447 32.7212C106.447 32.7212 106.353 32.7212 106.353 32.628C106.353 32.5348 106.072 32.069 105.791 31.6033C105.697 31.5101 105.604 31.3238 105.604 31.1375C105.51 30.9512 105.416 30.5785 105.323 30.3922C105.135 29.9264 104.854 29.3675 104.573 28.2496C104.48 27.877 104.292 27.5975 104.292 27.5043C104.292 27.4112 104.199 27.2249 104.105 26.9454C103.824 26.0138 103.075 24.2438 102.606 23.2191C102.513 23.0328 102.326 22.6601 102.326 22.4738C102.232 22.2875 102.138 22.1012 102.138 22.008C102.045 21.9149 102.045 21.8217 101.951 21.6354C101.857 21.5423 101.857 21.3559 101.764 21.3559C101.764 21.3559 101.67 21.1696 101.576 21.0765C101.483 20.9833 101.483 20.797 101.389 20.797C101.389 20.797 101.202 20.5175 101.014 20.2381C100.827 19.9586 100.733 19.7723 100.733 19.7723C100.733 19.7723 100.64 19.7723 100.64 19.6791C100.64 19.5859 99.6094 18.1886 99.5157 18.1886L99.4221 18.0954C99.4221 18.0023 99.0474 17.6296 98.9538 17.5365C98.9538 17.5365 98.8601 17.4433 98.7665 17.3502C98.2045 16.7912 96.425 15.6733 96.425 15.9528C96.425 16.046 96.6123 16.3254 96.7059 16.3254C96.7996 16.3254 97.8299 17.816 97.8299 17.9091C97.8299 18.0023 97.9235 18.0023 97.9235 18.0023C97.9235 18.0023 98.0172 18.0023 98.0172 18.0954C98.0172 18.1886 98.1108 18.2817 98.2045 18.4681C98.4855 18.8407 98.9538 19.8654 99.2347 20.4244C99.5157 21.1696 99.5157 21.1696 99.2347 21.5423C99.1411 21.6354 99.0474 21.8217 98.9538 22.008C98.9538 22.008 98.9538 21.9149 98.8601 21.9149C98.6728 22.2875 98.3918 22.6601 98.1108 23.1259C97.7362 23.6849 97.5489 24.1507 97.2679 24.6165C96.8933 25.1754 96.425 25.3617 96.2376 26.0138C96.2376 26.107 95.863 27.877 95.863 27.9701C95.863 28.6222 95.9567 28.4359 95.9567 28.9949C95.9567 29.3675 95.863 29.5538 95.863 30.2059C95.863 30.2991 95.863 30.4854 95.863 30.5785C95.7694 30.9512 95.6757 33.1869 95.7693 34.5843C95.7693 35.3296 95.9567 36.3543 96.144 37.379C94.1771 31.5101 95.1137 25.2686 98.1108 20.2381ZM95.7693 29.3675C95.7693 29.4606 95.7693 29.5538 95.7693 29.5538V29.3675C95.7693 29.2743 95.7693 29.3675 95.7693 29.3675Z" fill="url(#paint2_linear)"/>
<path d="M106.821 12.0402C111.597 9.61807 116.748 9.71122 121.993 10.736C125.271 11.3881 124.241 11.2949 126.77 12.5991C129.392 13.9033 130.985 15.8596 133.139 17.9091C133.888 18.5612 133.42 18.2817 133.794 19.027C132.577 19.027 132.577 17.6296 130.516 16.0459C126.957 13.3444 121.431 10.736 116.655 10.736C111.878 10.736 106.352 12.7854 103.074 15.9528C102.887 16.1391 102.793 16.2322 102.606 16.4186C102.793 16.4186 102.981 16.5117 103.168 16.6049C103.261 16.3254 103.542 16.2322 103.823 16.3254C103.823 16.3254 103.73 16.4186 103.636 16.4186C103.355 16.6049 103.261 16.7912 103.449 16.7912C103.542 16.7912 103.542 16.7912 103.542 16.8843C103.542 16.8843 103.636 16.9775 103.823 16.9775C103.917 16.9775 104.198 17.0707 104.479 17.1638C104.666 17.257 104.947 17.3501 105.135 17.3501C105.228 17.3501 105.322 17.4433 105.416 17.4433C105.416 17.4433 105.509 17.5364 105.697 17.5364C105.79 17.5364 106.165 17.7228 106.633 17.9091C107.008 18.0954 107.383 18.1886 107.383 18.1886H107.476C107.57 18.2817 108.038 18.468 108.132 18.468H108.225C108.319 18.5612 108.787 18.7475 108.881 18.7475C108.881 18.7475 108.975 18.7475 108.975 18.8407C108.975 18.8407 109.068 18.9338 109.256 18.9338C109.349 18.9338 109.537 19.027 109.537 19.027C109.537 19.027 109.537 19.1201 109.63 19.1201C109.63 19.1201 109.911 19.2133 110.099 19.3064C111.129 19.7722 111.691 19.9585 111.691 19.9585H111.784C111.784 19.9585 111.878 20.0517 111.972 20.0517C112.253 20.1449 113.658 20.797 113.751 20.8901C113.751 20.8901 113.845 20.9833 113.845 20.8901C114.126 20.8901 116.374 22.5669 117.029 23.2191C117.591 23.8712 118.06 24.4301 118.06 24.5233C118.06 24.6164 118.153 24.6164 118.153 24.6164C118.247 24.6164 118.247 24.6164 117.966 24.0575C117.685 23.4985 117.217 22.9396 116.655 22.2875C116.374 21.9148 116.093 21.6354 115.999 21.6354C115.999 21.6354 115.812 21.4491 115.625 21.3559C115.344 21.0764 115.344 21.0764 115.531 21.0764C116.093 21.0764 116.936 21.2627 117.31 21.3559C117.498 21.3559 117.591 21.4491 117.685 21.3559C117.779 21.3559 117.872 21.3559 117.872 21.3559C117.872 21.3559 118.06 21.4491 118.153 21.4491C118.247 21.4491 118.528 21.4491 118.715 21.5422C119.277 21.6354 119.465 21.7285 119.839 21.8217C120.027 21.8217 120.307 21.9148 120.401 22.008C120.495 22.008 120.869 22.1012 121.15 22.008C121.619 22.008 121.712 21.9149 121.993 21.6354C122.181 21.4491 122.368 21.2627 122.368 21.2627L122.462 21.1696C122.649 20.8901 123.211 20.4243 123.586 20.0517C123.867 19.8654 124.054 19.6791 124.054 19.5859C124.148 19.4928 124.522 19.3064 124.616 19.3064C124.709 19.3064 124.616 19.5859 123.96 20.4243C123.024 21.7285 123.024 21.8217 123.305 22.2875C123.398 22.4738 123.586 22.6601 123.586 22.7533C123.586 22.9396 123.867 23.1259 124.054 23.0327C124.054 23.0327 124.335 23.0327 124.616 23.1259L125.084 23.2191L125.365 22.9396C125.552 22.7533 125.927 22.2875 126.208 21.9148C126.489 21.4491 126.77 21.1696 126.864 21.1696C126.864 21.1696 126.957 21.1696 126.957 21.0764C126.957 21.0764 127.051 20.9833 127.051 21.0764C127.145 21.0764 127.051 21.5422 126.864 22.008C126.77 22.1012 126.77 22.3806 126.676 22.4738C126.676 22.5669 126.583 22.6601 126.583 22.6601C126.583 22.6601 126.489 22.7533 126.583 22.7533C126.583 22.7533 126.489 22.9396 126.395 23.1259C126.302 23.3122 126.208 23.4985 126.208 23.4985V23.5917C126.208 23.5917 126.021 23.8712 125.927 24.0575C125.74 24.4301 125.74 24.5233 125.833 24.989C125.927 25.3617 126.021 25.6411 126.489 26.3864C126.77 26.8522 127.051 27.318 127.145 27.4111C127.238 27.5043 127.238 27.5975 127.238 27.5975C127.238 27.5975 127.332 27.7838 127.426 27.8769C127.519 27.9701 127.613 28.1564 127.613 28.2496C127.613 28.3427 127.8 28.6222 127.894 28.8085C128.081 29.1811 128.362 29.7401 128.55 30.2059C128.643 30.3922 128.643 30.3922 128.55 30.3922C128.456 30.3922 128.362 30.299 128.362 30.299C128.269 30.2059 127.332 29.6469 127.238 29.7401H127.145C127.051 29.6469 126.583 29.4606 125.833 29.2743C124.709 28.9948 124.241 28.9017 124.241 29.088L124.335 29.1811C124.522 29.1811 126.021 29.6469 126.395 29.8332C126.489 29.9264 126.583 29.9264 126.583 29.9264C126.77 29.9264 129.299 31.7895 129.392 31.9759C129.392 31.9759 129.392 32.069 129.486 32.069C129.486 32.069 129.673 32.1622 129.767 32.2553C129.861 32.3485 130.048 32.5348 130.048 32.5348C130.142 32.5348 130.142 32.628 130.235 32.7211C130.329 32.8143 130.423 33.0006 130.797 33.3732C130.985 33.5595 131.078 33.6527 131.078 33.7458C131.078 33.7458 131.172 33.839 131.266 33.9322C131.828 34.4911 133.045 35.8885 133.045 35.9816C133.045 35.9816 133.045 36.0748 133.139 36.0748C133.139 36.0748 133.232 36.1679 133.326 36.1679C133.513 36.4474 133.982 37.0064 134.075 37.0064C134.075 37.0064 134.169 37.0995 134.263 37.1927C134.45 37.4721 135.199 38.2174 135.387 38.4037C135.48 38.4969 135.574 38.59 135.668 38.6832C135.668 38.7763 135.949 39.0558 136.323 39.4284C136.604 39.8011 136.885 40.0806 136.885 40.1737C136.885 40.2669 136.979 40.2669 137.073 40.1737C137.073 40.2669 137.166 40.2669 137.166 40.36C137.353 40.5463 137.541 40.7327 137.634 40.919C138.103 39.6148 138.477 38.3106 138.665 36.9132C139.508 31.7895 138.103 29.4606 138.103 27.8769L137.447 26.3864C137.353 26.0138 137.26 25.7343 137.073 25.2685C136.979 25.0822 136.885 24.8027 136.885 24.6164C136.698 24.1506 136.23 23.1259 135.855 22.3806C136.136 22.567 136.323 22.6601 136.511 22.9396C136.885 23.4054 136.698 23.4054 137.26 23.778C137.634 23.5917 137.447 23.5917 137.915 23.4985V23.2191C136.136 23.1259 136.698 21.0764 135.48 19.1201C134.825 18.1886 133.42 16.0459 132.671 15.3938C132.296 15.0212 132.109 15.0212 131.734 14.6486C130.048 12.9717 131.547 14.1828 129.111 12.4128C128.737 12.0402 128.737 12.0402 128.175 11.8538C124.709 10.3633 125.74 10.2702 124.99 10.8291L123.773 10.2702C122.274 9.71122 121.525 9.71122 120.214 9.43175L119.465 9.24544C120.401 9.24544 121.057 9.33859 122.181 9.33859C122.181 9.33859 122.087 9.24544 122.087 9.33859L121.712 9.15228C121.15 9.05912 120.682 9.05912 119.652 8.87281C118.715 8.68649 117.872 8.2207 117.029 8.2207L118.153 9.15228C114.969 9.15228 114.126 8.87281 110.942 9.71122C109.162 10.177 107.008 11.2017 105.416 12.1333C103.73 13.0649 102.325 14.1828 101.014 15.487C101.201 15.5801 101.482 15.7665 101.669 15.8596C102.981 14.2759 104.385 13.2512 106.821 12.0402ZM116.842 11.7607C116.655 11.8538 116.467 11.8538 116.28 11.8538C116.093 11.8538 115.625 11.947 115.063 11.947C114.22 12.0402 113.47 12.1333 112.815 12.2265C111.972 12.3196 111.223 12.5059 111.223 12.5059C111.223 12.5059 110.848 12.5991 110.473 12.7854C109.443 13.0649 108.319 13.5307 107.289 13.9965C106.821 14.1828 106.446 14.3691 106.259 14.5554C106.165 14.6486 105.884 14.7417 105.697 14.8349C105.509 14.928 105.228 15.1144 105.135 15.2075C104.947 15.3007 104.854 15.3938 104.76 15.3938C104.76 15.3938 104.666 15.3938 104.666 15.487C104.666 15.487 104.573 15.5801 104.479 15.6733C104.385 15.7665 104.292 15.7665 104.292 15.8596C104.292 15.8596 104.198 15.9528 104.104 16.0459C107.008 12.5059 112.159 11.7607 116.842 11.7607ZM135.574 22.1012C135.293 22.3806 135.387 22.2875 135.293 22.567C135.106 22.2875 134.918 22.008 134.825 21.8217C134.825 21.7285 134.637 21.6354 134.544 21.4491C134.45 21.2627 134.169 20.9833 133.982 20.6106C133.982 20.6106 133.982 20.6106 133.982 20.5175C135.012 20.8901 134.356 21.4491 135.574 22.1012ZM119.09 9.52491C118.341 9.52491 118.903 9.52491 118.715 9.43175C119.371 9.43175 118.809 9.43175 119.09 9.52491Z" fill="url(#paint3_linear)"/>
<path d="M138.853 22.6602L139.415 22.1012C137.167 20.6107 137.916 18.3749 136.698 17.5365C136.792 18.2818 136.979 18.1886 137.073 18.8407C136.698 18.5612 136.23 17.816 135.949 17.3502C133.889 14.1828 133.42 15.2076 131.828 13.5307C127.988 9.61813 128.644 11.4813 127.239 10.1771C126.677 9.80445 127.145 9.8976 126.302 9.71129C125.647 9.52497 125.647 9.80445 125.553 9.15234C124.897 9.2455 124.991 9.2455 124.804 9.61813C125.178 9.80445 125.553 9.8976 126.021 10.1771C127.239 10.8292 130.517 12.8786 131.173 13.8102C132.39 15.3939 133.139 14.5555 136.043 19.7723C136.324 20.3312 136.792 21.1697 137.167 22.1012C137.635 23.126 138.01 24.1507 138.01 24.9891L137.916 24.896C137.635 24.4302 137.541 24.4302 137.26 24.2439C137.26 24.5233 137.26 24.8028 137.354 25.0823C137.448 25.4549 137.541 25.7344 137.541 26.107C137.541 26.3865 137.541 26.7591 137.541 27.0386C137.541 27.4112 137.541 27.6907 137.541 28.0633C137.541 28.1565 137.541 28.1565 137.541 28.2496V28.3428C137.541 28.3428 137.541 28.3428 137.635 28.4359V28.5291L137.729 28.6223C137.822 28.7154 137.822 28.8086 137.916 28.9017C137.916 28.9017 137.916 28.9017 137.916 28.9949C137.916 28.3428 137.822 28.5291 137.822 27.9702C138.384 28.5291 138.01 28.8086 138.853 29.2744C138.853 26.6659 139.04 28.1565 138.853 24.896C139.134 25.1754 139.227 25.4549 139.508 25.9207C140.164 25.4549 139.602 24.337 139.227 23.6849L138.853 22.6602Z" fill="url(#paint4_linear)"/>
<path d="M138.571 45.577C138.103 45.2975 137.728 45.0181 137.635 45.0181C137.635 45.0181 137.541 45.0181 137.447 44.9249C137.26 44.8317 136.323 44.4591 136.23 44.4591C136.23 44.4591 136.136 44.4591 136.136 44.366C136.136 44.2728 135.293 44.0865 134.638 43.9002C134.544 43.9002 134.263 43.807 134.076 43.807C133.888 43.7138 133.607 43.7138 133.607 43.7138C133.514 43.7138 133.42 43.7138 133.42 43.7138C133.42 43.7138 133.045 43.6207 132.764 43.6207C132.483 43.5275 132.109 43.5275 132.015 43.5275C131.921 43.5275 131.734 43.4344 131.547 43.4344C131.359 43.4344 130.985 43.4344 130.798 43.3412C130.048 43.2481 129.393 43.2481 128.831 43.1549C128.55 43.1549 127.988 43.1549 127.519 43.1549C127.051 43.1549 126.302 43.1549 125.834 43.0617C125.365 43.0617 124.616 43.0617 124.335 43.0617C123.96 43.0617 123.398 43.0617 123.117 42.9686C122.743 42.9686 122.368 42.8754 122.181 42.8754C121.994 42.8754 121.806 42.8754 121.713 42.7823C121.713 42.7823 121.619 42.6891 121.525 42.7823C121.338 42.7823 120.12 42.5028 120.027 42.4096C120.027 42.4096 119.839 42.3165 119.558 42.2233C119.371 42.1302 118.715 41.7575 118.154 41.3849C117.592 41.0123 117.123 40.6396 117.03 40.6396C116.842 40.6396 116.468 40.826 116.374 40.9191C116.28 41.0123 115.812 41.1054 115.531 41.0123C115.344 40.9191 114.126 41.0123 113.658 41.1054C113.471 41.1054 113.19 41.1986 112.815 41.2918C112.534 41.3849 112.066 41.5712 111.691 41.7575C111.129 42.037 110.192 42.6891 110.192 42.7823C110.192 42.7823 110.192 42.8754 110.099 42.8754C110.005 42.8754 109.537 43.4344 109.35 43.6207C109.162 43.9002 107.476 45.4838 107.383 45.4838C107.289 45.4838 107.289 45.4838 107.289 45.577C107.289 45.6702 107.008 45.8565 106.446 46.2291C106.259 46.3223 106.071 46.5086 105.978 46.5086C105.884 46.6017 105.79 46.6017 105.603 46.6949C105.51 46.788 105.322 46.788 105.229 46.8812C105.135 46.9744 104.76 47.0675 104.386 47.2538C104.011 47.4401 103.636 47.5333 103.543 47.6265C103.262 47.7196 102.419 47.9991 101.482 48.2786C101.201 48.2786 100.92 48.3717 100.546 48.3717C99.5153 48.4649 96.4246 49.3964 95.488 49.8622C94.5514 50.328 93.9894 50.6075 93.5211 50.887C93.0528 51.1664 91.6479 52.1912 91.367 52.2843C91.2733 52.3775 91.086 52.4706 90.9923 52.5638C90.524 52.9364 90.4304 53.0296 90.1494 53.3091C89.9621 53.4954 89.6811 53.6817 89.5874 53.868C89.4938 53.9612 89.3065 54.1475 89.3065 54.1475C89.0255 54.427 87.6206 56.1969 87.4333 56.3833C87.4333 56.3833 87.2459 56.6627 87.1523 56.849C86.7776 57.5011 85.7474 59.2711 85.5601 59.7369C85.4664 59.9232 85.3728 60.1096 85.3728 60.1096V60.2027C85.3728 60.2959 85.3728 60.2959 85.3728 60.2959C85.3728 60.2959 85.2791 60.4822 85.1854 60.6685C85.0918 60.8548 85.0918 61.0411 84.9981 61.0411C84.9981 61.0411 84.9045 61.1343 84.9981 61.1343C84.9981 61.2275 84.9045 61.6932 84.8108 61.6932V61.7864C84.8108 61.7864 84.8108 61.9727 84.7171 62.159C84.6235 62.3453 84.6235 62.6248 84.5298 62.8111C84.5298 62.9974 84.4362 63.1838 84.4362 63.3701C84.2488 64.1153 84.1552 65.1401 84.0615 66.4443C84.0615 66.6306 84.0615 67.0032 84.0615 67.3758C84.0615 70.3569 84.8108 73.1516 86.122 75.5737C86.7776 76.7848 87.0586 77.2505 87.9016 78.2753C88.3699 78.8342 89.4938 80.0453 90.1494 80.6042C90.243 80.6974 90.3367 80.7905 90.4304 80.8837C90.524 80.9768 90.6177 80.9768 90.6177 80.9768C90.6177 80.9768 90.7113 80.9768 90.7113 81.07C90.7113 81.07 90.805 81.1632 90.8987 81.2563C90.9923 81.3495 91.1796 81.4426 91.1796 81.4426C91.2733 81.5358 91.2733 81.5358 91.1796 81.4426C91.086 81.3495 91.086 81.2563 90.9923 81.2563C90.805 81.1632 89.4001 79.6726 88.4635 78.5547C88.2762 78.2753 87.6206 77.3437 87.3396 76.8779C86.0284 74.6421 85.1854 72.0337 84.9981 69.5185C84.9981 69.0527 84.9045 68.5869 84.9045 68.4006C84.9045 68.2143 84.9045 68.1211 84.9045 68.0279C84.9045 68.0279 84.9045 67.8416 84.9045 67.7485C84.9045 67.6553 84.9045 67.3758 84.9045 67.2827C84.9045 66.9101 84.9045 66.5374 84.9981 66.258C84.9981 65.6059 85.2791 64.1153 85.2791 64.0222C85.2791 63.929 85.3728 63.5564 85.4664 63.3701C85.4664 63.2769 85.4664 63.1838 85.5601 63.1838C85.5601 63.1838 85.6537 63.0906 85.5601 63.0906C85.5601 62.9974 86.2157 60.948 86.3093 60.6685C86.3093 60.6685 86.403 60.389 86.5903 60.1096C86.8713 59.4575 87.4333 58.4327 87.8079 57.7806C87.9952 57.5011 88.0889 57.3148 88.0889 57.2217C88.0889 57.1285 88.9318 56.1038 88.9318 56.1038C88.9318 56.1038 89.2128 55.8243 89.4938 55.4517C90.4304 54.3338 92.0226 53.0296 93.0528 52.2843C93.9894 51.7254 94.1767 51.6322 95.207 51.0733C96.0499 50.6075 97.8294 50.0486 98.9534 49.7691C99.609 49.5828 100.265 49.4896 100.92 49.3964C102.325 50.7007 103.917 51.9117 104.948 52.5638C107.102 53.868 109.724 54.5201 112.159 55.3585C113.471 55.8243 114.969 55.9175 116.749 55.8243C119.652 55.7312 122.462 54.9859 125.084 54.0543C126.77 53.4022 128.269 52.4707 129.767 51.3528C131.828 49.7691 133.514 47.9059 134.825 45.8565C134.544 45.8565 133.888 45.8565 133.514 45.7633C133.701 45.4838 133.795 45.4838 133.982 45.4838C134.169 45.4838 134.357 45.4838 134.544 45.4838C134.825 45.4838 135.293 45.577 136.042 45.6701C136.417 45.7633 136.511 45.7633 137.073 45.8565C137.26 45.9496 137.541 45.9496 137.541 45.9496C137.635 45.9496 137.635 45.9496 137.635 46.0428L137.728 46.1359C137.822 46.1359 138.571 46.3223 138.571 46.4154C138.571 46.4154 138.665 46.5086 138.665 46.4154C138.665 46.4154 138.946 46.5086 139.133 46.6017C139.321 46.6949 139.602 46.788 139.602 46.6949C139.976 46.6949 139.321 46.1359 138.571 45.577ZM102.7 49.3964C102.793 49.3964 102.793 49.3964 102.887 49.3964L102.981 49.4896C102.793 49.4896 102.7 49.4896 102.7 49.3964ZM103.168 49.7691C103.824 49.9554 103.449 49.8622 103.917 50.2349C105.135 51.1664 106.352 51.8185 107.757 52.3775C108.319 52.5638 108.881 52.8433 109.35 53.1227C107.289 53.2159 103.73 50.7007 103.168 49.7691Z" fill="url(#paint5_linear)"/>
<path d="M61.9576 16.7913C61.583 16.4187 61.2084 16.1392 60.7401 15.7666C59.8971 15.1145 59.1479 14.5555 58.0239 13.9966C50.7185 10.2703 40.135 12.0403 35.1711 18.5613C31.2374 23.5918 30.7691 26.2934 30.3008 32.3486C30.3008 32.9075 30.3944 32.9075 30.4881 33.4665C30.5818 35.2365 30.4881 36.3544 30.8627 37.8449C31.7993 41.7575 32.7359 43.248 35.0774 46.1359C36.7633 48.1854 40.0414 50.1417 42.5702 51.1664C44.7243 52.0048 48.0024 52.6569 51.0932 52.6569C55.9634 52.6569 60.3654 51.8185 63.8308 49.3964C64.3928 49.0238 66.5469 47.347 66.5469 46.788C66.5469 45.4838 65.2357 43.1549 64.6738 42.1301C64.0181 41.0122 62.8006 38.9628 61.9576 38.2175C61.2084 38.3107 58.9605 39.9875 57.5556 40.5465C56.8064 40.9191 55.7761 41.1986 55.0268 41.3849C51.5614 42.2233 46.5975 41.5712 44.537 39.1491C44.1624 38.6833 43.5067 37.6586 43.5067 36.8202C44.537 36.8202 45.9419 36.6338 46.9721 36.5407C48.0961 36.4475 49.4073 36.3544 50.5312 36.2612C51.1868 36.1681 51.7488 36.1681 52.3107 36.0749C55.5888 35.7023 61.864 35.3296 64.6738 34.957C65.8913 34.7707 66.5469 34.4912 67.1089 33.5597C69.0757 30.4855 67.0152 23.4055 64.9547 20.3313C64.2991 19.3997 62.8942 17.5366 61.9576 16.7913ZM50.1566 29.0881C48.5644 29.2744 46.9721 29.4607 45.2863 29.4607C44.256 29.4607 42.8511 29.7402 42.8511 28.6223C42.8511 25.6413 44.9116 22.2876 47.9087 22.2876C49.22 22.2876 49.6883 22.1944 50.9058 22.8465C52.5917 23.7781 54.0902 25.7344 54.0902 28.0634C54.1839 28.8086 51.2805 28.9018 50.1566 29.0881Z" fill="#2A5D2E"/>
<path d="M171.352 26.666C173.038 26.9455 172.851 27.9703 172.851 29.3676C172.851 34.3981 172.57 39.3355 172.57 44.5523C172.57 45.6702 173.132 47.2538 173.506 47.9991C175.754 51.8186 180.156 52.1912 184.558 52.1912C188.585 52.1912 192.144 50.887 194.861 49.4896C197.483 48.0923 196.172 48.0923 196.827 43.5275C197.015 42.4097 197.389 40.267 196.921 39.3355C194.392 38.7765 187.274 42.6891 186.431 36.6339C186.244 35.4229 186.338 34.305 186.244 33.0939C186.057 31.2308 185.963 28.6224 186.431 26.7592H194.392C196.546 26.7592 195.61 26.3866 195.891 19.9587C195.891 19.2134 196.078 18.1887 196.172 17.5366L196.265 14.9282C195.048 14.0898 193.549 14.5556 192.332 14.6487L187.649 14.7419C185.869 14.7419 186.057 13.9035 186.057 12.2266C186.057 10.7361 186.057 8.96613 186.244 7.56877C186.431 6.35772 186.525 3.84247 186.338 2.91089C184.464 2.4451 181.748 2.25879 179.781 1.97932C172.944 1.23406 172.382 -1.18804 172.289 5.70562C172.289 6.91666 172.476 7.47561 172.476 8.50034C172.476 9.52507 172.476 10.4566 172.476 11.4814C172.476 12.413 172.476 13.9966 172.289 14.835C172.195 15.394 172.008 15.4872 171.258 15.5803C169.76 15.7666 169.385 15.6735 168.355 16.3256C168.449 18.934 168.636 21.3561 168.355 23.8713C167.98 27.5045 169.573 26.3866 171.352 26.666Z" fill="#2A5D2E"/>
<path d="M24.2131 14.09C19.8111 14.4626 15.9711 17.8163 14.9408 17.9094C14.8472 17.1642 14.6599 16.4189 14.5662 15.6736C14.4725 14.8352 14.4725 13.8105 14.0043 13.4379C13.4423 13.0652 10.2579 13.8105 9.32128 13.9968L2.01586 15.1147C1.17292 15.2079 0.236328 15.2079 0.236328 16.1394L1.17292 20.5178C1.4539 22.1947 1.4539 23.6852 1.82854 25.362C2.20317 27.8773 2.01586 46.6951 2.01586 49.6761C2.01586 50.8871 1.9222 51.2598 2.95245 51.5392C4.26368 51.9119 13.255 52.005 15.2218 51.6324C16.9077 51.3529 16.1584 49.4898 16.1584 47.9993C15.9711 44.8319 15.9711 41.5714 15.9711 38.2177C15.9711 35.3299 15.3155 31.3241 17.0013 29.6473C18.6872 28.1567 22.9955 28.7157 26.0863 28.7157C28.1468 28.7157 27.3039 24.8031 27.3039 22.1947C27.3039 20.1452 27.5849 18.282 27.6785 16.3257C27.7722 14.5557 28.5214 13.8105 24.2131 14.09Z" fill="#2A5D2E"/>
<path d="M163.203 14.0896C160.581 14.2759 157.209 15.9528 155.055 17.3501C154.68 17.6296 154.493 17.8159 153.931 17.9091C152.245 10.6428 155.898 13.5307 141.006 15.1143C140.257 15.2075 139.227 15.2075 139.227 16.1391L140.163 20.5175C140.444 22.1943 140.538 23.6848 140.819 25.3617C141.193 27.8769 141.1 46.6947 141.006 49.6758C141.006 50.8868 141.006 51.2594 141.943 51.5389C143.254 51.9115 152.339 52.0047 154.212 51.6321C155.898 51.3526 155.242 49.4894 155.149 47.9989C154.961 44.8316 154.961 41.5711 154.961 38.2174C154.961 35.3295 154.306 31.3237 156.085 29.6469C157.677 28.1564 162.079 28.7153 164.983 28.7153C167.043 28.7153 166.2 24.8027 166.2 22.1943C166.2 20.1448 166.481 18.2817 166.575 16.3254C166.856 14.5554 167.418 13.8101 163.203 14.0896Z" fill="#2A5D2E"/>
<path d="M92.3967 45.4837C95.3938 40.919 94.5508 34.9569 90.6171 30.9511L88.6503 28.9017C87.5264 27.5043 85.7468 26.2001 86.8708 23.6849C87.5264 22.1012 89.7742 21.0765 92.022 21.0765C93.1459 21.0765 93.6142 21.2628 94.6445 21.2628C94.7381 20.5175 94.8318 21.1696 94.8318 20.4244C94.8318 19.2133 93.0523 16.5117 92.584 15.5802C92.022 14.8349 90.1488 11.2949 89.4932 11.2949C83.6863 11.2949 79.0034 13.5307 75.4443 16.9775C73.4775 18.9338 72.0726 21.8217 72.0726 24.7096C72.0726 26.4796 72.4472 27.877 73.1028 29.088C74.2268 31.4169 75.257 31.7896 76.7556 33.6527C77.8795 35.1432 79.7527 36.6338 79.7527 38.8695C79.7527 40.8258 77.7858 41.9437 76.0999 42.3164C75.0697 42.5027 74.1331 42.689 73.1028 42.8753C72.7282 42.9685 72.1663 43.0616 71.5106 43.1548C71.2297 43.2479 70.3867 43.3411 70.3867 43.7137C70.3867 44.8316 72.4472 47.9058 73.1028 48.8374C73.4775 49.6758 75.819 53.1226 76.7556 53.1226C80.5019 53.1226 85.2786 51.2595 88.2757 49.21C90.1488 47.999 91.2727 47.1605 92.3967 45.4837Z" fill="#2A5D2E"/>
<path d="M108.226 67.2826C107.758 66.7237 107.196 66.2579 106.446 65.9784C105.697 65.699 104.761 65.5126 103.637 65.5126C103.262 65.5126 102.887 65.5126 102.419 65.6058C102.044 65.699 101.67 65.7921 101.389 65.8853V59.3643L97.4551 60.0164V79.5794H101.389V69.1458C101.67 69.0526 101.951 69.0526 102.232 68.9595C102.513 68.8663 102.887 68.8663 103.168 68.8663C104.011 68.8663 104.667 69.1458 104.948 69.6116C105.229 70.1705 105.416 71.0089 105.416 72.22V79.4863H109.35V71.7542C109.35 70.8226 109.256 69.9842 109.069 69.2389C108.975 68.4937 108.694 67.8416 108.226 67.2826Z" fill="#2A5D2E"/>
<path d="M125.647 67.4689C125.085 66.8168 124.336 66.351 123.493 65.9784C122.65 65.6057 121.713 65.4194 120.777 65.4194C119.84 65.4194 118.903 65.6057 118.061 65.9784C117.218 66.351 116.562 66.8168 115.906 67.4689C115.344 68.121 114.876 68.8663 114.502 69.7047C114.127 70.5431 114.033 71.5678 114.033 72.6857C114.033 73.8036 114.221 74.7352 114.502 75.6668C114.876 76.5983 115.251 77.3436 115.906 77.9957C116.468 78.6478 117.218 79.1136 118.061 79.4862C118.903 79.8588 119.84 80.0452 120.777 80.0452C121.807 80.0452 122.744 79.8588 123.586 79.4862C124.429 79.1136 125.085 78.6478 125.741 77.9957C126.303 77.3436 126.771 76.5983 127.146 75.6668C127.426 74.7352 127.614 73.8036 127.614 72.6857C127.614 71.5678 127.427 70.6362 127.052 69.7047C126.771 68.8663 126.303 68.121 125.647 67.4689ZM122.837 75.5736C122.369 76.3189 121.713 76.5983 120.777 76.5983C119.934 76.5983 119.184 76.2257 118.716 75.5736C118.248 74.8283 117.967 73.8968 117.967 72.6857C117.967 71.4747 118.248 70.5431 118.716 69.891C119.184 69.2389 119.934 68.8663 120.777 68.8663C121.62 68.8663 122.369 69.2389 122.837 69.891C123.305 70.5431 123.586 71.4747 123.586 72.6857C123.586 73.8968 123.399 74.8283 122.837 75.5736Z" fill="#2A5D2E"/>
<path d="M136.511 75.9463C136.324 75.76 136.23 75.4805 136.23 75.201C136.137 74.9216 136.137 74.6421 136.137 74.2694V59.3643L132.203 60.0164V75.1079C132.203 75.8531 132.297 76.5052 132.39 77.0642C132.578 77.6231 132.859 78.1821 133.233 78.5547C133.608 78.9273 134.17 79.2999 134.919 79.4863C135.669 79.6726 136.511 79.8589 137.635 79.8589L138.197 76.6915C137.729 76.6915 137.354 76.5984 137.073 76.4121C136.886 76.2257 136.699 76.1326 136.511 75.9463Z" fill="#2A5D2E"/>
<path d="M144.191 59.6436C143.536 59.6436 142.974 59.8299 142.599 60.2957C142.131 60.6683 141.943 61.2272 141.943 61.9725C141.943 62.7178 142.131 63.2767 142.599 63.6493C143.067 64.022 143.629 64.3014 144.191 64.3014C144.753 64.3014 145.409 64.1151 145.783 63.6493C146.252 63.2767 146.439 62.7178 146.439 61.9725C146.439 61.2272 146.252 60.6683 145.783 60.2957C145.315 59.8299 144.847 59.6436 144.191 59.6436Z" fill="#2A5D2E"/>
<path d="M146.158 65.8853H142.225V79.5794H146.158V65.8853Z" fill="#2A5D2E"/>
<path d="M159.738 66.1647C159.27 65.9784 158.896 65.7921 158.427 65.699C157.959 65.6058 157.491 65.5126 157.022 65.5126C156.086 65.5126 155.149 65.699 154.4 65.9784C153.651 66.3511 152.995 66.8169 152.433 67.3758C151.871 68.0279 151.496 68.7732 151.215 69.6116C150.934 70.5432 150.841 71.4747 150.841 72.5926C150.841 73.7105 151.028 74.6421 151.309 75.5737C151.59 76.4121 152.058 77.1573 152.714 77.8094C153.37 78.4615 154.119 78.9273 154.962 79.2068C155.805 79.5794 156.835 79.6726 157.959 79.6726C158.427 79.6726 158.896 79.6726 159.457 79.5794C159.926 79.5794 160.488 79.4863 160.956 79.3931C161.424 79.3 161.893 79.2068 162.361 79.1136C162.829 79.0205 163.204 78.9273 163.578 78.8342V59.3643L159.645 60.0164V66.1647H159.738ZM159.738 76.4121C159.551 76.4121 159.27 76.5052 158.989 76.5052C158.708 76.5052 158.334 76.5052 158.053 76.5052C157.022 76.5052 156.179 76.1326 155.617 75.3873C155.055 74.6421 154.775 73.7105 154.775 72.4995C154.775 69.9842 155.711 68.7732 157.584 68.7732C157.959 68.7732 158.427 68.8663 158.802 68.9595C159.176 69.0526 159.551 69.2389 159.738 69.3321V76.4121Z" fill="#2A5D2E"/>
<path d="M178.658 67.0032C178.189 66.5374 177.627 66.1648 176.784 65.8853C176.035 65.6059 175.099 65.5127 173.881 65.5127C173.413 65.5127 172.944 65.5127 172.57 65.6059C172.101 65.6059 171.727 65.699 171.259 65.7922C170.884 65.8853 170.509 65.8853 170.135 65.9785C169.76 66.0716 169.479 66.1648 169.292 66.1648L169.76 69.239C170.228 69.0527 170.79 68.9595 171.446 68.8664C172.101 68.7732 172.757 68.6801 173.413 68.6801C174.443 68.6801 175.099 68.8664 175.473 69.239C175.848 69.6116 176.035 70.1706 176.035 70.8227V71.1953C175.754 71.1021 175.473 71.1021 175.099 71.009C174.724 71.009 174.256 70.9158 173.787 70.9158C173.038 70.9158 172.289 71.009 171.633 71.1021C170.978 71.2885 170.322 71.4748 169.76 71.8474C169.198 72.22 168.823 72.5927 168.449 73.1516C168.168 73.7106 167.98 74.3627 167.98 75.2011C167.98 76.0395 168.074 76.6916 168.355 77.3437C168.636 77.9026 169.011 78.3684 169.573 78.7411C170.135 79.1137 170.697 79.3932 171.446 79.4863C172.195 79.6726 172.944 79.7658 173.881 79.7658C175.286 79.7658 176.503 79.6726 177.534 79.4863C178.564 79.3 179.313 79.2069 179.875 79.0205V70.9158C179.875 70.0774 179.782 69.3322 179.594 68.5869C179.407 68.1211 179.126 67.469 178.658 67.0032ZM176.222 76.6916C176.035 76.6916 175.754 76.7848 175.38 76.7848C175.005 76.7848 174.63 76.7848 174.256 76.7848C173.506 76.7848 172.944 76.6916 172.57 76.4121C172.195 76.1327 171.914 75.76 171.914 75.1079C171.914 74.8285 172.008 74.549 172.101 74.3627C172.195 74.1763 172.476 73.99 172.663 73.8969C172.851 73.8037 173.225 73.7106 173.506 73.6174C173.787 73.6174 174.162 73.5242 174.537 73.5242C174.818 73.5242 175.099 73.5242 175.38 73.6174C175.661 73.6174 175.942 73.7106 176.129 73.7106V76.6916H176.222Z" fill="#2A5D2E"/>
<path d="M192.987 65.8853C192.8 66.5374 192.613 67.2826 192.426 68.121C192.238 68.8663 191.957 69.7047 191.77 70.5431C191.489 71.3815 191.302 72.1268 191.021 72.8721C190.74 73.6173 190.552 74.3626 190.271 74.9215C189.99 74.2694 189.803 73.6173 189.522 72.8721C189.241 72.1268 188.96 71.2884 188.679 70.5431C188.398 69.7047 188.211 68.9595 187.93 68.121C187.649 67.3758 187.462 66.6305 187.274 65.8853H183.153C183.903 68.5868 184.745 71.0089 185.682 73.1515C186.619 75.2942 187.462 77.2505 188.305 79.0205C188.024 79.6726 187.743 80.2315 187.368 80.6041C186.993 80.9768 186.431 81.1631 185.776 81.1631C185.401 81.1631 185.12 81.1631 184.745 81.0699C184.464 80.9768 184.09 80.8836 183.715 80.7904L183.06 83.8646C183.434 83.9578 183.809 84.1441 184.371 84.2373C184.933 84.3304 185.495 84.4236 186.057 84.4236C186.806 84.4236 187.462 84.3304 188.024 84.1441C188.585 83.9578 189.054 83.6783 189.522 83.3989C189.99 83.0262 190.365 82.5604 190.74 82.0015C191.114 81.4425 191.489 80.7904 191.864 80.0452C192.894 77.9026 193.83 75.6668 194.673 73.3379C195.516 71.0089 196.359 68.5868 197.108 65.8853H192.987Z" fill="#2A5D2E"/>
<defs>
<linearGradient id="paint0_linear" x1="83.6861" y1="64.7683" x2="132.017" y2="-3.65453" gradientUnits="userSpaceOnUse">
<stop stop-color="#D7BA59"/>
<stop offset="0.1464" stop-color="#EBD16F"/>
<stop offset="0.239" stop-color="#F3DA77"/>
<stop offset="0.4341" stop-color="#E8CB66"/>
<stop offset="0.8173" stop-color="#CDA438"/>
<stop offset="0.8757" stop-color="#C79D31"/>
</linearGradient>
<linearGradient id="paint1_linear" x1="83.4712" y1="64.6161" x2="131.798" y2="-3.81066" gradientUnits="userSpaceOnUse">
<stop stop-color="#D7BA59"/>
<stop offset="0.1464" stop-color="#EBD16F"/>
<stop offset="0.239" stop-color="#F3DA77"/>
<stop offset="0.4341" stop-color="#E8CB66"/>
<stop offset="0.8173" stop-color="#CDA438"/>
<stop offset="0.8757" stop-color="#C79D31"/>
</linearGradient>
<linearGradient id="paint2_linear" x1="79.3166" y1="61.682" x2="127.645" y2="-6.74409" gradientUnits="userSpaceOnUse">
<stop stop-color="#D7BA59"/>
<stop offset="0.1464" stop-color="#EBD16F"/>
<stop offset="0.239" stop-color="#F3DA77"/>
<stop offset="0.4341" stop-color="#E8CB66"/>
<stop offset="0.8173" stop-color="#CDA438"/>
<stop offset="0.8757" stop-color="#C79D31"/>
</linearGradient>
<linearGradient id="paint3_linear" x1="89.8745" y1="69.1393" x2="138.203" y2="0.71335" gradientUnits="userSpaceOnUse">
<stop stop-color="#D7BA59"/>
<stop offset="0.1464" stop-color="#EBD16F"/>
<stop offset="0.239" stop-color="#F3DA77"/>
<stop offset="0.4341" stop-color="#E8CB66"/>
<stop offset="0.8173" stop-color="#CDA438"/>
<stop offset="0.8757" stop-color="#C79D31"/>
</linearGradient>
<linearGradient id="paint4_linear" x1="94.1798" y1="72.1799" x2="142.509" y2="3.75377" gradientUnits="userSpaceOnUse">
<stop stop-color="#D7BA59"/>
<stop offset="0.1464" stop-color="#EBD16F"/>
<stop offset="0.239" stop-color="#F3DA77"/>
<stop offset="0.4341" stop-color="#E8CB66"/>
<stop offset="0.8173" stop-color="#CDA438"/>
<stop offset="0.8757" stop-color="#C79D31"/>
</linearGradient>
<linearGradient id="paint5_linear" x1="97.4469" y1="74.4877" x2="145.776" y2="6.06167" gradientUnits="userSpaceOnUse">
<stop stop-color="#D7BA59"/>
<stop offset="0.1464" stop-color="#EBD16F"/>
<stop offset="0.239" stop-color="#F3DA77"/>
<stop offset="0.4341" stop-color="#E8CB66"/>
<stop offset="0.8173" stop-color="#CDA438"/>
<stop offset="0.8757" stop-color="#C79D31"/>
</linearGradient>
</defs>
</svg>
