<svg width="60" height="60" viewBox="0 0 60 60" fill="none" xmlns="http://www.w3.org/2000/svg">
<path d="M30.1 59.3C13.9 59.3 0.699951 46.1 0.699951 29.9C0.699951 13.7 13.9 0.5 30.1 0.5C46.2999 0.5 59.5 13.7 59.5 29.9C59.5 46.1 46.2999 59.3 30.1 59.3Z" fill="url(#paint0_linear)"/>
<path d="M23.2 25.9002C23.5 26.0002 23.9 26.0002 24.3 25.9002C24.4 25.8002 24.6 25.7002 24.7 25.6002C24.8 25.5002 24.9 25.2002 25 25.0002C25.1 24.7002 25.1 24.4002 25.1 23.9002C25.1 23.4002 25.1 23.1002 25 22.8002C24.9 22.5002 24.8 22.3002 24.7 22.1002C24.6 22.0002 24.5 21.9002 24.3 21.8002C24.1 21.7002 24 21.7002 23.8 21.7002C23.6 21.7002 23.4 21.7002 23.3 21.8002C23.2 21.9002 23 22.0002 22.9 22.1002C22.8 22.3002 22.7 22.5002 22.6 22.8002C22.5 23.1002 22.5 23.5002 22.5 23.9002C22.5 24.3002 22.5 24.7002 22.6 25.0002C22.7 25.3002 22.8 25.5002 22.9 25.6002C23 25.7002 23.1 25.8002 23.2 25.9002Z" fill="white"/>
<path d="M34.3999 34.7C34.3999 35.1 34.3999 35.5 34.4999 35.8C34.5999 36.1 34.6999 36.3 34.7999 36.4C34.8999 36.5 34.9999 36.6 35.1999 36.7C35.4999 36.8 35.8999 36.8 36.2999 36.7C36.4999 36.6 36.5999 36.5 36.6999 36.4C36.7999 36.2 36.8999 36 36.9999 35.8C37.0999 35.5 37.0999 35.2 37.0999 34.7C37.0999 34.3 37.0999 33.9 36.9999 33.6C36.8999 33.3 36.7999 33.1 36.6999 32.9C36.5999 32.8 36.4999 32.7 36.2999 32.6C36.0999 32.5 35.9999 32.5 35.7999 32.5C35.5999 32.5 35.3999 32.5 35.2999 32.6C35.1999 32.7 34.9999 32.8 34.8999 32.9C34.7999 33.1 34.6999 33.3 34.5999 33.6C34.4999 33.9 34.3999 34.3 34.3999 34.7Z" fill="white"/>
<path d="M19.6 40.8998H22.9C23.4 40.8998 23.8999 40.7998 24.2999 40.5998C24.6999 40.3998 25 40.0998 25.2 39.7998L29.2 34.5998L29.2999 35.2998C29.4 35.9998 29.5 36.6998 29.7 37.2998C30 38.0998 30.5 38.7998 31 39.3998C31.6 39.9998 32.3 40.3998 33 40.7998C34.5 41.3998 36.3 41.4998 37.9 40.7998C38.7 40.4998 39.3 39.9998 39.9 39.4998C40.5 38.8998 40.9 38.1998 41.2999 37.4998C41.5999 36.6998 41.7999 35.7998 41.7999 34.8998C41.7999 33.9998 41.5999 33.0998 41.2999 32.2998C41 31.4998 40.5 30.7998 40 30.1998C39.4 29.5998 38.7 29.1998 38 28.7998C37 28.3998 35.8 28.1998 34.7 28.3998L34.0999 28.4998L40.7 19.8998C41 19.4998 41.0999 18.8998 40.7999 18.4998C40.5999 17.9998 40.0999 17.6998 39.5999 17.6998H36.4C35.8 17.6998 35.1999 17.7998 34.7999 18.0998C34.5 18.2998 34.2 18.4998 34 18.7998L33.9 18.8998L29.7999 24.0998L29.7 23.3998C29.6 22.6998 29.4999 22.0998 29.2999 21.4998C28.9999 20.6998 28.5 19.9998 28 19.3998C27.4 18.7998 26.7 18.2998 26 17.9998C24.5 17.3998 22.5 17.3998 21 17.9998C20.2 18.2998 19.5 18.7998 19 19.3998C18.4 19.9998 18 20.6998 17.7 21.4998C17.4 22.2998 17.2 23.1998 17.2 24.0998C17.2 24.9998 17.4 25.8998 17.7 26.6998C18 27.4998 18.5 28.1998 19 28.7998C19.6 29.3998 20.3 29.7998 21 30.1998C22 30.5998 23.1999 30.7998 24.2999 30.5998L25 30.4998L18.4 38.9998C18.1 39.3998 17.9999 39.9998 18.2999 40.3998C18.6999 40.5998 19.1 40.8998 19.6 40.8998ZM37.7999 29.5998C38.4 29.8998 39 30.1998 39.5 30.6998C40 31.1998 40.2999 31.7998 40.5999 32.3998C40.8999 33.0998 41 33.7998 41 34.5998C41 35.3998 40.8999 36.0998 40.5999 36.7998C40.2999 37.4998 39.9 37.9998 39.4 38.4998C38.9 38.9998 38.4 39.2998 37.7 39.5998C37.1 39.8998 36.4 39.9998 35.7 39.9998C34.9 39.9998 34.1999 39.8998 33.5999 39.5998C32.9999 39.2998 32.4 38.9998 31.9 38.4998C31.4 37.9998 31.0999 37.3998 30.7999 36.7998C30.4999 36.0998 30.4 35.3998 30.4 34.5998C30.4 33.7998 30.4999 32.9998 30.7999 32.3998C31.0999 31.6998 31.4 31.0998 31.9 30.6998C32.4 30.1998 32.8999 29.7998 33.5999 29.5998C34.8999 29.0998 36.5 29.0998 37.7999 29.5998ZM39.9 20.6998V20.1998V20.6998ZM23.7999 29.1998C22.9999 29.1998 22.3 29.0998 21.7 28.7998C21.1 28.4998 20.5 28.1998 20 27.6998C19.5 27.1998 19.1999 26.6998 18.9 25.9998C18.6 25.2998 18.5 24.5998 18.5 23.7998C18.5 22.9998 18.6 22.1998 18.9 21.5998C19.1999 20.8998 19.5 20.2998 20 19.8998C20.5 19.3998 21 18.9998 21.7 18.7998C23 18.2998 24.5999 18.2998 25.9 18.7998C26.5 19.0998 27.1 19.3998 27.6 19.8998C28.1 20.3998 28.4 20.9998 28.7 21.5998C29 22.2998 29.1 22.9998 29.1 23.7998C29.1 24.5998 29 25.2998 28.7 25.9998C28.4 26.6998 28 27.1998 27.5 27.6998C27 28.1998 26.4999 28.4998 25.7999 28.7998C25.0999 29.0998 24.4999 29.1998 23.7999 29.1998ZM35 19.2998C35.2 19.0998 35.3999 18.8998 35.5999 18.7998C35.8999 18.5998 36.1999 18.4998 36.5999 18.4998H40.4L24.4 38.9998C24.2 39.1998 23.9999 39.3998 23.7999 39.4998C23.4999 39.5998 23.2 39.6998 22.9 39.6998H19L35 19.2998Z" fill="white"/>
<defs>
<linearGradient id="paint0_linear" x1="-31.4798" y1="30.5894" x2="48.6095" y2="29.6963" gradientUnits="userSpaceOnUse">
<stop stop-color="#D8BB58"/>
<stop offset="0.1464" stop-color="#ECD26E"/>
<stop offset="0.239" stop-color="#F4DB76"/>
<stop offset="0.4341" stop-color="#E4BD32"/>
<stop offset="0.8173" stop-color="#CEA53A"/>
<stop offset="0.8757" stop-color="#C99F33"/>
</linearGradient>
</defs>
</svg>
