<svg width="107" height="70" viewBox="0 0 107 70" fill="none" xmlns="http://www.w3.org/2000/svg">
<path d="M53.4998 69.9994C47.3998 69.9994 43.9998 66.4994 42.7998 65.0994H0.299805V12.8994H2.7998V62.5994H44.0998L44.4998 63.1994C44.5998 63.3994 47.4998 67.4994 53.4998 67.4994C59.4998 67.4994 62.3998 63.3994 62.4998 63.1994L62.8998 62.6994H63.5998H104.2V12.8994H106.7V65.0994H64.1998C62.9998 66.4994 59.5998 69.9994 53.4998 69.9994Z" fill="url(#paint0_linear)"/>
<path d="M53.4998 56.4998L52.8998 56.1998C50.7998 55.0998 45.1998 53.7998 30.0998 53.9998C20.9998 53.9998 12.7998 54.5998 12.6998 54.6998L11.2998 54.7998V0.899827L12.4998 0.799827C12.5998 0.799827 20.8998 0.0998273 30.0998 -0.000172677C41.8998 -0.200173 49.7998 0.599827 53.4998 2.29983C57.1998 0.599827 65.0998 -0.100173 76.8998 -0.000172677C86.0998 0.0998273 94.3998 0.799827 94.4998 0.799827L95.6998 0.899827V54.7998L94.2998 54.6998C94.1998 54.6998 85.8998 54.0998 76.7998 53.8998C61.7998 53.6998 56.0998 54.9998 53.9998 56.0998L53.4998 56.4998ZM32.9998 51.3998C43.1998 51.3998 50.0998 52.1998 53.4998 53.6998C57.1998 51.9998 65.0998 51.2998 76.8998 51.3998C83.8998 51.4998 90.3998 51.8998 93.1998 52.0998V3.19983C90.5998 2.99983 83.9998 2.59983 76.7998 2.49983C61.7998 2.29983 56.0998 3.59983 53.9998 4.69983L53.3998 4.99983L52.7998 4.69983C50.6998 3.59983 45.0998 2.29983 29.9998 2.49983C22.9998 2.59983 16.3998 2.99983 13.7998 3.19983V52.0998C16.4998 51.8998 23.0998 51.4998 30.0998 51.3998C31.0998 51.3998 32.0998 51.3998 32.9998 51.3998Z" fill="url(#paint1_linear)"/>
<path d="M53.5 61.4996L53 61.2996C50.6 60.1996 44.2 58.7996 27.1 58.9996C16.8 59.0996 7.4 59.7996 7.3 59.7996L6 59.8996V7.59961H8.5V57.1996C11.5 56.9996 19 56.5996 27.1 56.4996C40.6 56.2996 49.5 57.0996 53.6 58.7996C57.7 57.0996 66.6 56.3996 80.1 56.4996C88.2 56.5996 95.7 56.9996 98.7 57.1996V7.59961H101.2V59.7996L99.9 59.6996C99.8 59.6996 90.4 59.0996 80.1 58.8996C63 58.6996 56.6 59.9996 54.2 61.1996L53.5 61.4996Z" fill="url(#paint2_linear)"/>
<path d="M54.7002 3.7002H52.2002V55.1002H54.7002V3.7002Z" fill="url(#paint3_linear)"/>
<path d="M46.2996 14.7C45.2996 14.4 44.7996 13.3 45.0996 12.4C45.3996 11.4 46.4996 10.8 47.3996 11.2C48.3996 11.5 48.9996 12.6 48.5996 13.5C48.3996 14.3 47.5996 14.8 46.7996 14.8C46.6996 14.8 46.4996 14.7 46.2996 14.7ZM40.4996 13.8C39.4996 13.7 38.6996 12.8 38.7996 11.7C38.8996 10.7 39.7996 9.9 40.8996 10C41.8996 10.1 42.6996 11 42.5996 12.1C42.4996 13.1 41.6996 13.8 40.6996 13.8C40.5996 13.8 40.5996 13.8 40.4996 13.8ZM20.0996 11.6C20.0996 10.6 20.8996 9.7 21.8996 9.7C22.8996 9.7 23.7996 10.5 23.7996 11.5C23.7996 12.5 22.9996 13.4 21.9996 13.4C21.9996 13.4 21.9996 13.4 21.8996 13.4C20.8996 13.4 20.0996 12.6 20.0996 11.6ZM34.3996 13.4C33.3996 13.4 32.5996 12.5 32.5996 11.5C32.5996 10.5 33.4996 9.7 34.4996 9.7C35.4996 9.7 36.2996 10.6 36.2996 11.6C36.2996 12.6 35.4996 13.4 34.3996 13.4ZM26.2996 11.4C26.2996 10.4 27.0996 9.5 28.1996 9.5C29.1996 9.5 30.0996 10.3 30.0996 11.4C30.0996 12.4 29.2996 13.3 28.1996 13.3C27.1996 13.3 26.2996 12.4 26.2996 11.4Z" fill="url(#paint4_linear)"/>
<path d="M46.2996 24.5994C45.2996 24.2994 44.7996 23.1994 45.0996 22.2994C45.3996 21.2994 46.4996 20.7994 47.3996 21.0994C48.3996 21.3994 48.9996 22.4994 48.5996 23.3994C48.3996 24.1994 47.5996 24.6994 46.7996 24.6994C46.6996 24.6994 46.4996 24.5994 46.2996 24.5994ZM40.4996 23.6994C39.4996 23.5994 38.6996 22.6994 38.7996 21.5994C38.8996 20.5994 39.7996 19.7994 40.8996 19.8994C41.8996 19.9994 42.6996 20.8994 42.5996 21.9994C42.4996 22.9994 41.6996 23.6994 40.6996 23.6994C40.5996 23.6994 40.5996 23.6994 40.4996 23.6994ZM20.0996 21.4994C20.0996 20.4994 20.8996 19.5994 21.8996 19.5994C22.8996 19.5994 23.7996 20.3994 23.7996 21.3994C23.7996 22.3994 22.9996 23.2994 21.9996 23.2994C21.9996 23.2994 21.9996 23.2994 21.8996 23.2994C20.8996 23.2994 20.0996 22.4994 20.0996 21.4994ZM34.3996 23.2994C33.3996 23.2994 32.5996 22.3994 32.5996 21.3994C32.5996 20.3994 33.4996 19.5994 34.4996 19.5994C35.4996 19.5994 36.2996 20.4994 36.2996 21.4994C36.2996 22.4994 35.4996 23.2994 34.3996 23.2994ZM26.2996 21.2994C26.2996 20.2994 27.0996 19.3994 28.1996 19.3994C29.1996 19.3994 30.0996 20.1994 30.0996 21.2994C30.0996 22.2994 29.2996 23.1994 28.1996 23.1994C27.1996 23.1994 26.2996 22.2994 26.2996 21.2994Z" fill="url(#paint5_linear)"/>
<path d="M46.2996 34.4998C45.2996 34.1998 44.7996 33.0998 45.0996 32.1998C45.3996 31.1998 46.4996 30.6998 47.3996 30.9998C48.3996 31.2998 48.9996 32.3998 48.5996 33.2998C48.3996 34.0998 47.5996 34.5998 46.7996 34.5998C46.6996 34.4998 46.4996 34.4998 46.2996 34.4998ZM40.4996 33.4998C39.4996 33.3998 38.6996 32.4998 38.7996 31.3998C38.8996 30.3998 39.7996 29.5998 40.8996 29.6998C41.8996 29.7998 42.6996 30.6998 42.5996 31.7998C42.4996 32.7998 41.6996 33.4998 40.6996 33.4998C40.5996 33.4998 40.5996 33.4998 40.4996 33.4998ZM20.0996 31.2998C20.0996 30.2998 20.8996 29.3998 21.8996 29.3998C22.8996 29.3998 23.7996 30.1998 23.7996 31.1998C23.7996 32.1998 22.9996 33.0998 21.9996 33.0998C21.9996 33.0998 21.9996 33.0998 21.8996 33.0998C20.8996 33.1998 20.0996 32.3998 20.0996 31.2998ZM34.3996 33.0998C33.3996 33.0998 32.5996 32.1998 32.5996 31.1998C32.5996 30.1998 33.4996 29.3998 34.4996 29.3998C35.4996 29.3998 36.2996 30.2998 36.2996 31.2998C36.2996 32.2998 35.4996 33.0998 34.3996 33.0998ZM26.2996 31.1998C26.2996 30.1998 27.0996 29.2998 28.1996 29.2998C29.1996 29.2998 30.0996 30.0998 30.0996 31.1998C30.0996 32.1998 29.2996 33.0998 28.1996 33.0998C27.1996 32.9998 26.2996 32.1998 26.2996 31.1998Z" fill="url(#paint6_linear)"/>
<path d="M46.2996 44.2996C45.2996 43.9996 44.7996 42.8996 45.0996 41.9996C45.3996 40.9996 46.4996 40.4996 47.3996 40.7996C48.3996 41.0996 48.9996 42.1996 48.5996 43.0996C48.3996 43.8996 47.5996 44.3996 46.7996 44.3996C46.6996 44.3996 46.4996 44.3996 46.2996 44.2996ZM40.4996 43.3996C39.4996 43.2996 38.6996 42.3996 38.7996 41.2996C38.8996 40.2996 39.7996 39.4996 40.8996 39.5996C41.8996 39.6996 42.6996 40.5996 42.5996 41.6996C42.4996 42.6996 41.6996 43.3996 40.6996 43.3996C40.5996 43.3996 40.5996 43.3996 40.4996 43.3996ZM20.0996 41.1996C20.0996 40.1996 20.8996 39.2996 21.8996 39.2996C22.8996 39.2996 23.7996 40.0996 23.7996 41.0996C23.7996 42.0996 22.9996 42.9996 21.9996 42.9996C21.9996 42.9996 21.9996 42.9996 21.8996 42.9996C20.8996 42.9996 20.0996 42.1996 20.0996 41.1996ZM34.3996 42.9996C33.3996 42.9996 32.5996 42.0996 32.5996 41.0996C32.5996 40.0996 33.4996 39.2996 34.4996 39.2996C35.4996 39.2996 36.2996 40.1996 36.2996 41.1996C36.2996 42.1996 35.4996 42.9996 34.3996 42.9996ZM26.2996 40.9996C26.2996 39.9996 27.0996 39.0996 28.1996 39.0996C29.1996 39.0996 30.0996 39.8996 30.0996 40.9996C30.0996 41.9996 29.2996 42.8996 28.1996 42.8996C27.1996 42.8996 26.2996 42.0996 26.2996 40.9996Z" fill="url(#paint7_linear)"/>
<path d="M58.0995 13.4C57.7995 12.4 58.3995 11.4 59.2995 11.1C60.2995 10.8 61.2995 11.4 61.5995 12.3C61.8995 13.3 61.2995 14.3 60.3995 14.6C60.1995 14.7 59.9995 14.7 59.7995 14.7C58.9995 14.8 58.2995 14.3 58.0995 13.4ZM64.1995 12.1C64.0995 11.1 64.8995 10.1 65.8995 10C66.8995 9.9 67.8995 10.6 67.9995 11.7C68.0995 12.7 67.3995 13.7 66.2995 13.8C66.1995 13.8 66.1995 13.8 66.0995 13.8C65.0995 13.8 64.2995 13.1 64.1995 12.1ZM84.6995 13.4C83.6995 13.4 82.8995 12.5 82.8995 11.5C82.8995 10.5 83.7995 9.7 84.7995 9.7C85.7995 9.7 86.5995 10.6 86.5995 11.6C86.5995 12.6 85.7995 13.4 84.6995 13.4C84.7995 13.4 84.6995 13.4 84.6995 13.4ZM70.3995 11.6C70.3995 10.6 71.1995 9.7 72.1995 9.7C73.1995 9.7 74.0995 10.5 74.0995 11.5C74.0995 12.5 73.2995 13.4 72.2995 13.4C72.2995 13.4 72.2995 13.4 72.1995 13.4C71.2995 13.4 70.3995 12.6 70.3995 11.6ZM78.4995 13.3C77.4995 13.3 76.5995 12.5 76.5995 11.4C76.5995 10.4 77.3995 9.5 78.4995 9.5C79.4995 9.5 80.3995 10.3 80.3995 11.4C80.3995 12.4 79.5995 13.3 78.4995 13.3Z" fill="url(#paint8_linear)"/>
<path d="M58.0995 23.2994C57.7995 22.2994 58.3995 21.2994 59.2995 20.9994C60.2995 20.6994 61.2995 21.2994 61.5995 22.1994C61.8995 23.1994 61.2995 24.1994 60.3995 24.4994C60.1995 24.5994 59.9995 24.5994 59.7995 24.5994C58.9995 24.6994 58.2995 24.0994 58.0995 23.2994ZM64.1995 21.9994C64.0995 20.9994 64.8995 19.9994 65.8995 19.8994C66.8995 19.7994 67.8995 20.5994 67.9995 21.5994C68.0995 22.5994 67.3995 23.5994 66.2995 23.6994C66.1995 23.6994 66.1995 23.6994 66.0995 23.6994C65.0995 23.6994 64.2995 22.8994 64.1995 21.9994ZM84.6995 23.2994C83.6995 23.2994 82.8995 22.3994 82.8995 21.3994C82.8995 20.3994 83.7995 19.5994 84.7995 19.5994C85.7995 19.5994 86.5995 20.4994 86.5995 21.4994C86.5995 22.4994 85.7995 23.2994 84.6995 23.2994C84.7995 23.2994 84.6995 23.2994 84.6995 23.2994ZM70.3995 21.3994C70.3995 20.3994 71.1995 19.4994 72.1995 19.4994C73.1995 19.4994 74.0995 20.2994 74.0995 21.2994C74.0995 22.2994 73.2995 23.1994 72.2995 23.1994C72.2995 23.1994 72.2995 23.1994 72.1995 23.1994C71.2995 23.2994 70.3995 22.4994 70.3995 21.3994ZM78.4995 23.1994C77.4995 23.1994 76.5995 22.3994 76.5995 21.2994C76.5995 20.2994 77.3995 19.3994 78.4995 19.3994C79.4995 19.3994 80.3995 20.1994 80.3995 21.2994C80.3995 22.2994 79.5995 23.1994 78.4995 23.1994Z" fill="url(#paint9_linear)"/>
<path d="M58.0995 33.2002C57.7995 32.2002 58.3995 31.2002 59.2995 30.9002C60.2995 30.6002 61.2995 31.2002 61.5995 32.1002C61.8995 33.1002 61.2995 34.1002 60.3995 34.4002C60.1995 34.5002 59.9995 34.5002 59.7995 34.5002C58.9995 34.5002 58.2995 34.0002 58.0995 33.2002ZM64.1995 31.9002C64.0995 30.9002 64.8995 29.9002 65.8995 29.8002C66.8995 29.7002 67.8995 30.5002 67.9995 31.5002C68.0995 32.5002 67.3995 33.5002 66.2995 33.6002C66.1995 33.6002 66.1995 33.6002 66.0995 33.6002C65.0995 33.5002 64.2995 32.8002 64.1995 31.9002ZM84.6995 33.2002C83.6995 33.2002 82.8995 32.3002 82.8995 31.3002C82.8995 30.3002 83.7995 29.5002 84.7995 29.5002C85.7995 29.5002 86.5995 30.4002 86.5995 31.4002C86.5995 32.4002 85.7995 33.2002 84.6995 33.2002C84.7995 33.2002 84.6995 33.2002 84.6995 33.2002ZM70.3995 31.3002C70.3995 30.3002 71.1995 29.4002 72.1995 29.4002C73.1995 29.4002 74.0995 30.2002 74.0995 31.2002C74.0995 32.2002 73.2995 33.1002 72.2995 33.1002C72.2995 33.1002 72.2995 33.1002 72.1995 33.1002C71.2995 33.1002 70.3995 32.3002 70.3995 31.3002ZM78.4995 33.0002C77.4995 33.0002 76.5995 32.2002 76.5995 31.1002C76.5995 30.1002 77.3995 29.2002 78.4995 29.2002C79.4995 29.2002 80.3995 30.0002 80.3995 31.1002C80.3995 32.2002 79.5995 33.0002 78.4995 33.0002Z" fill="url(#paint10_linear)"/>
<path d="M58.0995 43.0996C57.7995 42.0996 58.3995 41.0996 59.2995 40.7996C60.2995 40.4996 61.2995 41.0996 61.5995 41.9996C61.8995 42.9996 61.2995 43.9996 60.3995 44.2996C60.1995 44.3996 59.9995 44.3996 59.7995 44.3996C58.9995 44.3996 58.2995 43.8996 58.0995 43.0996ZM64.1995 41.6996C64.0995 40.6996 64.8995 39.6996 65.8995 39.5996C66.8995 39.4996 67.8995 40.2996 67.9995 41.2996C68.0995 42.2996 67.3995 43.2996 66.2995 43.3996C66.1995 43.3996 66.1995 43.3996 66.0995 43.3996C65.0995 43.3996 64.2995 42.6996 64.1995 41.6996ZM84.6995 42.9996C83.6995 42.9996 82.8995 42.0996 82.8995 41.0996C82.8995 40.0996 83.7995 39.2996 84.7995 39.2996C85.7995 39.2996 86.5995 40.1996 86.5995 41.1996C86.5995 42.1996 85.7995 42.9996 84.6995 42.9996C84.7995 42.9996 84.6995 42.9996 84.6995 42.9996ZM70.3995 41.1996C70.3995 40.1996 71.1995 39.2996 72.1995 39.2996C73.1995 39.2996 74.0995 40.0996 74.0995 41.0996C74.0995 42.0996 73.2995 42.9996 72.2995 42.9996C72.2995 42.9996 72.2995 42.9996 72.1995 42.9996C71.2995 42.9996 70.3995 42.1996 70.3995 41.1996ZM78.4995 42.8996C77.4995 42.8996 76.5995 42.0996 76.5995 40.9996C76.5995 39.9996 77.3995 39.0996 78.4995 39.0996C79.4995 39.0996 80.3995 39.8996 80.3995 40.9996C80.3995 42.0996 79.5995 42.8996 78.4995 42.8996Z" fill="url(#paint11_linear)"/>
<defs>
<linearGradient id="paint0_linear" x1="-57.9302" y1="42.1189" x2="86.9487" y2="39.1085" gradientUnits="userSpaceOnUse">
<stop stop-color="#D8BB58"/>
<stop offset="0.1464" stop-color="#ECD26E"/>
<stop offset="0.239" stop-color="#F4DB76"/>
<stop offset="0.4341" stop-color="#E9CC65"/>
<stop offset="0.8173" stop-color="#CEA53A"/>
<stop offset="0.8757" stop-color="#C99F33"/>
</linearGradient>
<linearGradient id="paint1_linear" x1="-34.8902" y1="28.8976" x2="80.0504" y2="26.984" gradientUnits="userSpaceOnUse">
<stop stop-color="#D8BB58"/>
<stop offset="0.1464" stop-color="#ECD26E"/>
<stop offset="0.239" stop-color="#F4DB76"/>
<stop offset="0.4341" stop-color="#E9CC65"/>
<stop offset="0.8173" stop-color="#CEA53A"/>
<stop offset="0.8757" stop-color="#C99F33"/>
</linearGradient>
<linearGradient id="paint2_linear" x1="-46.1005" y1="35.1816" x2="83.5337" y2="32.6284" gradientUnits="userSpaceOnUse">
<stop stop-color="#D8BB58"/>
<stop offset="0.1464" stop-color="#ECD26E"/>
<stop offset="0.239" stop-color="#F4DB76"/>
<stop offset="0.4341" stop-color="#E9CC65"/>
<stop offset="0.8173" stop-color="#CEA53A"/>
<stop offset="0.8757" stop-color="#C99F33"/>
</linearGradient>
<linearGradient id="paint3_linear" x1="50.832" y1="30.0028" x2="54.2376" y2="30.001" gradientUnits="userSpaceOnUse">
<stop stop-color="#D8BB58"/>
<stop offset="0.1464" stop-color="#ECD26E"/>
<stop offset="0.239" stop-color="#F4DB76"/>
<stop offset="0.4341" stop-color="#E9CC65"/>
<stop offset="0.8173" stop-color="#CEA53A"/>
<stop offset="0.8757" stop-color="#C99F33"/>
</linearGradient>
<linearGradient id="paint4_linear" x1="4.43372" y1="12.2121" x2="43.2871" y2="9.87216" gradientUnits="userSpaceOnUse">
<stop stop-color="#D8BB58"/>
<stop offset="0.1464" stop-color="#ECD26E"/>
<stop offset="0.239" stop-color="#F4DB76"/>
<stop offset="0.4341" stop-color="#E9CC65"/>
<stop offset="0.8173" stop-color="#CEA53A"/>
<stop offset="0.8757" stop-color="#C99F33"/>
</linearGradient>
<linearGradient id="paint5_linear" x1="4.43372" y1="22.1116" x2="43.2871" y2="19.7716" gradientUnits="userSpaceOnUse">
<stop stop-color="#D8BB58"/>
<stop offset="0.1464" stop-color="#ECD26E"/>
<stop offset="0.239" stop-color="#F4DB76"/>
<stop offset="0.4341" stop-color="#E9CC65"/>
<stop offset="0.8173" stop-color="#CEA53A"/>
<stop offset="0.8757" stop-color="#C99F33"/>
</linearGradient>
<linearGradient id="paint6_linear" x1="4.43372" y1="32.0119" x2="43.2871" y2="29.672" gradientUnits="userSpaceOnUse">
<stop stop-color="#D8BB58"/>
<stop offset="0.1464" stop-color="#ECD26E"/>
<stop offset="0.239" stop-color="#F4DB76"/>
<stop offset="0.4341" stop-color="#E9CC65"/>
<stop offset="0.8173" stop-color="#CEA53A"/>
<stop offset="0.8757" stop-color="#C99F33"/>
</linearGradient>
<linearGradient id="paint7_linear" x1="4.43372" y1="41.8118" x2="43.2871" y2="39.4718" gradientUnits="userSpaceOnUse">
<stop stop-color="#D8BB58"/>
<stop offset="0.1464" stop-color="#ECD26E"/>
<stop offset="0.239" stop-color="#F4DB76"/>
<stop offset="0.4341" stop-color="#E9CC65"/>
<stop offset="0.8173" stop-color="#CEA53A"/>
<stop offset="0.8757" stop-color="#C99F33"/>
</linearGradient>
<linearGradient id="paint8_linear" x1="42.3815" y1="12.1674" x2="81.1664" y2="9.79633" gradientUnits="userSpaceOnUse">
<stop stop-color="#D8BB58"/>
<stop offset="0.1464" stop-color="#ECD26E"/>
<stop offset="0.239" stop-color="#F4DB76"/>
<stop offset="0.4341" stop-color="#E9CC65"/>
<stop offset="0.8173" stop-color="#CEA53A"/>
<stop offset="0.8757" stop-color="#C99F33"/>
</linearGradient>
<linearGradient id="paint9_linear" x1="42.3815" y1="22.066" x2="81.1663" y2="19.6941" gradientUnits="userSpaceOnUse">
<stop stop-color="#D8BB58"/>
<stop offset="0.1464" stop-color="#ECD26E"/>
<stop offset="0.239" stop-color="#F4DB76"/>
<stop offset="0.4341" stop-color="#E9CC65"/>
<stop offset="0.8173" stop-color="#CEA53A"/>
<stop offset="0.8757" stop-color="#C99F33"/>
</linearGradient>
<linearGradient id="paint10_linear" x1="42.3815" y1="31.9123" x2="81.1711" y2="29.58" gradientUnits="userSpaceOnUse">
<stop stop-color="#D8BB58"/>
<stop offset="0.1464" stop-color="#ECD26E"/>
<stop offset="0.239" stop-color="#F4DB76"/>
<stop offset="0.4341" stop-color="#E9CC65"/>
<stop offset="0.8173" stop-color="#CEA53A"/>
<stop offset="0.8757" stop-color="#C99F33"/>
</linearGradient>
<linearGradient id="paint11_linear" x1="42.3815" y1="41.8118" x2="81.1711" y2="39.4795" gradientUnits="userSpaceOnUse">
<stop stop-color="#D8BB58"/>
<stop offset="0.1464" stop-color="#ECD26E"/>
<stop offset="0.239" stop-color="#F4DB76"/>
<stop offset="0.4341" stop-color="#E9CC65"/>
<stop offset="0.8173" stop-color="#CEA53A"/>
<stop offset="0.8757" stop-color="#C99F33"/>
</linearGradient>
</defs>
</svg>
