<svg width="80" height="21" viewBox="0 0 80 21" fill="none" xmlns="http://www.w3.org/2000/svg">
<path d="M74.0462 8.48243C73.7933 8.48243 73.4982 8.55268 73.4982 8.27169C73.4982 7.54111 73.976 6.72623 74.7067 6.72623C75.0299 6.72623 75.1282 6.71218 75.4374 6.85268C75.8449 7.07747 76.2103 7.55516 76.2103 8.11714C76.2103 8.34193 75.5077 8.35598 75.2266 8.38408C74.8472 8.45433 74.4397 8.48243 74.0462 8.48243ZM75.4795 14.1585C76.6599 14.1585 77.7139 13.9477 78.571 13.3576C78.6975 13.2733 79.2175 12.8519 79.2175 12.7254C79.2175 12.4163 78.8943 11.8403 78.7678 11.6014C78.6694 11.4328 78.5711 11.2642 78.4727 11.1097C78.3743 10.9411 78.2479 10.7585 78.1214 10.6461C77.9949 10.6742 77.7139 10.8568 77.5874 10.9271C77.4047 11.0395 77.2642 11.1378 77.0534 11.2221C76.6037 11.4188 76.2243 11.489 75.7184 11.5171C75.2126 11.5312 74.7629 11.4188 74.3835 11.2361C74.0322 11.0676 73.6528 10.7163 73.6528 10.3229C74.2289 10.3229 76.2946 10.0841 77.0394 10.0419L78.7678 9.85929C79.3439 9.76094 79.5407 9.36755 79.5407 8.77747C79.5407 7.89235 79.2596 6.96507 78.8099 6.30474C78.0511 5.18078 76.8567 4.29565 75.4374 4.29565C74.4256 4.29565 73.8354 4.32375 72.9501 4.77334C71.3903 5.56012 70.4629 7.24607 70.4629 8.96012V9.494C70.5332 10.8849 70.7439 11.5031 71.5871 12.5849C71.9946 13.0766 72.7956 13.5543 73.3998 13.7932C73.9478 14.0039 74.7207 14.1585 75.4795 14.1585Z" fill="white"/>
<path d="M11.0782 8.48239C10.8253 8.48239 10.5021 8.55264 10.5021 8.27164C10.5021 7.54107 11.008 6.72619 11.7387 6.72619C12.0619 6.72619 12.1603 6.71214 12.4694 6.85264C12.8769 7.07743 13.2423 7.55512 13.2423 8.1171C13.2423 8.34189 12.5397 8.35594 12.2586 8.38404C11.8792 8.45429 11.4858 8.48239 11.0782 8.48239ZM12.5116 14.1584C13.692 14.1584 14.7459 13.9477 15.6031 13.3576C15.7295 13.2733 16.2495 12.8518 16.2495 12.7254C16.2495 12.4163 15.9263 11.8402 15.7998 11.6014C15.6452 11.3345 15.3501 10.8287 15.1534 10.646C14.9707 10.6741 14.4227 11.0675 14.0995 11.2221C13.9168 11.3064 13.6779 11.3766 13.4952 11.4328C12.6661 11.6295 11.4576 11.489 10.9518 10.8989C10.8534 10.7725 10.6988 10.5336 10.6988 10.3369C10.9518 10.3369 11.275 10.2948 11.5279 10.2667C11.809 10.2386 12.1041 10.2245 12.3851 10.1964C12.5397 10.1824 12.6802 10.1683 12.8067 10.1543C13.6076 10.07 15.1112 9.98569 15.7998 9.8733C16.0949 9.83115 16.2495 9.74685 16.3759 9.53611C16.8537 8.79148 16.3478 7.07743 15.842 6.31875C15.6593 6.06586 15.3361 5.61628 15.1112 5.43363C15.0129 5.34933 14.9286 5.27909 14.8161 5.19479C14.6194 5.02619 14.4367 4.89975 14.1697 4.7733C12.4132 3.86008 9.84163 4.30966 8.64719 5.88322C7.69163 7.09148 7.59327 7.76586 7.4668 9.24107C7.4668 9.36751 7.4949 9.38156 7.52301 9.52206C7.55111 9.95759 7.52301 10.2105 7.62137 10.5898C7.84621 11.5311 8.07105 11.8964 8.64719 12.613C9.0547 13.1047 9.85569 13.5824 10.4599 13.8212C10.9799 14.0039 11.7527 14.1584 12.5116 14.1584Z" fill="white"/>
<path d="M64.4489 3.74802L64.477 4.99844C63.0436 4.99844 63.5495 5.39182 63.5495 7.9067C63.9289 8.15959 63.7743 8.0191 64.2802 8.0191C64.3505 8.0191 64.4067 8.03315 64.4629 8.0472C64.5613 8.0753 64.6175 8.0753 64.6456 8.24389C64.6456 8.28604 64.6456 8.30009 64.6456 8.34224C64.6456 8.41249 64.6456 8.49678 64.6456 8.56703V13.4422C64.6737 13.7373 64.8002 13.8637 65.0672 13.9059C65.9665 14.0323 66.9502 13.9059 67.8354 13.9059C68.4818 13.9059 68.243 13.5125 68.243 12.5009C68.243 12.0654 68.1727 11.4191 68.1727 11.1803L68.1024 9.85959C68.1024 9.5505 68.1024 9.22736 68.1024 8.91827L68.0743 7.991L69.6763 8.0191C70.0276 8.0191 69.9292 7.45711 69.9292 6.97943C69.9292 6.85298 69.9292 6.71249 69.9292 6.58604C69.9292 6.40339 69.9011 6.40339 69.873 6.22075C69.8449 4.84389 70.0979 4.90009 69.2688 4.90009L68.1868 4.94224C67.8354 4.94224 67.9057 5.05463 67.9057 4.01497C67.9057 3.50918 68.0041 3.05959 68.51 2.891C69.1564 2.65216 69.8168 2.891 69.8168 2.37116C69.8168 1.99182 69.6341 1.61249 69.592 1.23315C69.5217 0.867858 69.4655 0.432321 69.3671 0.0670319C68.7629 -0.0734639 67.5263 0.15133 66.9783 0.305875C66.0227 0.572817 65.1655 1.1629 64.7721 2.06207C64.5472 2.45546 64.4489 3.15794 64.4489 3.74802Z" fill="white"/>
<path d="M41.8532 4.18336C41.8532 4.42221 41.8532 4.7875 41.797 4.99824C41.7689 5.13874 41.7267 5.16684 41.544 5.18089C41.1927 5.22303 41.0944 5.19494 40.8414 5.36353C40.8695 6.00981 40.9117 6.58585 40.8414 7.18998C40.743 8.00485 41.1365 7.72386 41.5721 7.80816C41.9796 7.87841 41.9234 8.11725 41.9234 8.46849C41.9234 9.70485 41.8532 10.885 41.8532 12.1635C41.8532 12.4445 41.9796 12.8239 42.078 13.0065C42.6261 13.9338 43.68 14.0321 44.7479 14.0321C45.7316 14.0321 46.5888 13.723 47.2352 13.3858C47.8676 13.0487 47.5584 13.0487 47.713 11.9387C47.7692 11.6718 47.8395 11.152 47.7411 10.9131C47.1368 10.7726 45.4084 11.728 45.1976 10.2668C45.1414 9.98585 45.1695 9.70485 45.1414 9.40981C45.0852 8.94618 45.0712 8.32799 45.1976 7.86436H47.1368C47.6708 7.86436 47.4319 7.76601 47.4881 6.20651C47.4881 6.02386 47.5444 5.78502 47.5584 5.63047L47.5865 4.98419C47.2914 4.77345 46.9401 4.89989 46.631 4.91394L45.5068 4.94204C45.0852 4.94204 45.1274 4.7313 45.1274 4.33791C45.1274 3.97262 45.1274 3.53708 45.1836 3.21394C45.2398 2.93295 45.2538 2.31477 45.2117 2.07593C44.762 1.96353 44.1015 1.92138 43.6238 1.85113C41.9515 1.71064 41.8391 1.1065 41.811 2.79246C41.811 3.07345 41.8672 3.21394 41.8672 3.46684C41.8532 3.70568 41.8532 3.94452 41.8532 4.18336Z" fill="white"/>
<path d="M54.4438 13.9479C55.1183 13.9479 56.0317 13.976 56.7062 13.9058C56.9873 13.8777 56.9311 13.8777 57.0857 13.7653C57.0857 12.1636 57.0154 10.5339 57.0154 8.84795C57.0154 8.51076 57.0154 8.17357 57.0154 7.83638C57.0154 7.66778 57.0154 7.49919 57.0154 7.33059C57.0154 7.1058 57.0716 7.0496 57.0716 6.82481C57.0716 6.47357 57.0716 6.13638 57.0716 5.78514C57.0716 5.41985 57.0997 5.16696 57.0997 4.77357C57.0997 4.02894 57.2262 3.01737 57.2262 2.30084L57.2824 0.797536C57.2824 0.671089 57.3105 0.586792 57.0857 0.586792H53.7131C53.3618 0.586792 53.4602 0.923982 53.4883 1.19092C53.5445 1.44382 53.5866 1.76696 53.5866 2.01985C53.6148 2.30084 53.6429 2.59588 53.6569 2.84877L53.7131 4.57687C53.685 5.2372 53.7131 6.65621 53.7131 7.35869V10.1405C53.7131 10.4917 53.6569 10.6884 53.6569 11.0397C53.6569 11.6438 53.6569 12.262 53.6569 12.8661C53.6429 13.7372 53.5164 13.9479 54.4438 13.9479Z" fill="white"/>
<path d="M0.21582 5.26519L0.440657 6.31891C0.510918 6.72635 0.510918 7.09164 0.595232 7.49907C0.693598 8.11725 0.651441 12.6834 0.651441 13.3999C0.651441 13.6949 0.623337 13.7933 0.876278 13.8635C1.19948 13.9619 3.36353 13.9759 3.84131 13.8916C4.24883 13.8354 4.06615 13.3718 4.06615 13.0065C4.00994 12.2478 4.00994 11.447 4.00994 10.6462C4.00994 9.92965 3.85536 8.97428 4.26288 8.56684C4.67039 8.1875 5.72432 8.34205 6.45503 8.34205C6.96092 8.34205 6.75013 7.40073 6.75013 6.76849C6.75013 6.26271 6.82039 5.81312 6.8485 5.33544C6.8485 4.88585 7.03118 4.68916 5.99131 4.7594C4.93739 4.8437 4.00994 5.67263 3.757 5.68668C3.72889 5.51808 3.68673 5.32139 3.65863 5.13874C3.63053 4.94205 3.63053 4.68916 3.53216 4.59081C3.40569 4.49246 2.63281 4.68916 2.40798 4.7313L0.651441 4.99825C0.454709 5.0404 0.21582 5.05445 0.21582 5.26519Z" fill="white"/>
<path d="M33.8145 5.26503L34.0393 6.31874C34.1096 6.72618 34.1377 7.09147 34.1939 7.49891C34.2922 8.11709 34.2641 12.6832 34.2501 13.3997C34.2501 13.6948 34.2501 13.7931 34.4749 13.8634C34.7981 13.9617 36.9903 13.9758 37.4399 13.8915C37.8475 13.8353 37.6929 13.3716 37.6648 13.0063C37.6086 12.2477 37.6086 11.4468 37.6086 10.646C37.6086 9.92949 37.454 8.97412 37.8896 8.56668C38.269 8.18734 39.3511 8.34188 40.0537 8.34188C40.5596 8.34188 40.3488 7.40056 40.3488 6.76833C40.3488 6.26255 40.419 5.81296 40.4471 5.33527C40.4752 4.88569 40.6298 4.68899 39.5899 4.75924C38.9576 4.80139 38.1285 5.20883 37.6367 5.56007C37.5383 5.63031 37.5102 5.68651 37.3556 5.68651C36.9481 3.93031 37.8334 4.63279 34.236 5.01213C34.0674 5.04023 33.8145 5.05428 33.8145 5.26503Z" fill="white"/>
<path d="M17.5843 7.30272C17.5843 7.72421 17.6826 8.07545 17.8372 8.35644C18.1183 8.91842 18.3712 9.01677 18.7225 9.46635C19.0036 9.81759 19.4532 10.1829 19.4532 10.7449C19.4532 11.2226 18.9755 11.4895 18.5679 11.5878C18.315 11.644 18.0902 11.6721 17.8372 11.7143C17.7388 11.7424 17.6124 11.7564 17.4578 11.7845C17.3875 11.7986 17.1768 11.8267 17.1768 11.925C17.1768 12.192 17.6826 12.9507 17.8232 13.1754C17.9215 13.3721 18.4696 14.2151 18.7085 14.2151C19.6078 14.2151 20.7741 13.7515 21.4908 13.2738C21.9124 12.9928 22.1934 12.7961 22.4745 12.3887C23.2052 11.2928 23.0085 9.83164 22.0529 8.84817L21.5751 8.34239C21.2941 7.99115 20.8725 7.68206 21.1536 7.06387C21.3081 6.68454 21.8562 6.43164 22.4042 6.43164C22.6853 6.43164 22.7836 6.47379 23.0366 6.47379C23.0647 6.3052 23.0928 6.44569 23.0928 6.26305C23.0928 5.96801 22.6712 5.30768 22.5447 5.08288C22.4183 4.90024 21.9686 4.04321 21.7859 4.04321C20.3807 4.04321 19.2424 4.5771 18.3993 5.43412C17.9075 5.91181 17.5843 6.61429 17.5843 7.30272Z" fill="white"/>
<path d="M58.7439 4.9423C58.6877 5.15305 58.9266 7.20429 58.9266 7.73817C58.9266 7.94892 58.9266 8.14561 58.9266 8.35635C58.9266 8.60925 58.9828 8.70759 58.9828 8.91834L58.9266 10.9696C58.9266 11.4192 58.9828 11.9671 58.9266 12.4026C58.8001 13.9059 58.8001 13.8919 59.5027 13.9059C59.9805 13.92 61.99 14.0464 62.2429 13.8076C62.3694 13.6811 62.2991 13.5266 62.2991 13.2878V11.3489C62.2991 10.8853 62.271 10.534 62.271 10.0564C62.271 9.62082 62.271 9.19933 62.271 8.76379C62.271 8.13156 62.3413 7.40098 62.3413 6.8671C62.3413 6.71255 62.3413 6.68445 62.3694 6.57206L62.4678 5.04065C62.4678 4.85801 62.2851 4.90016 62.1727 4.90016C61.5965 4.90016 61.0906 4.9704 60.4442 4.9704C59.9946 4.9704 59.0671 4.77371 58.7439 4.9423Z" fill="white"/>
<path d="M58.7432 2.53987C58.7432 3.60764 59.6004 4.19772 60.6964 4.19772C61.8206 4.19772 62.5092 3.66384 62.5092 2.53987C62.5092 1.5845 61.6098 0.89607 60.7807 0.89607H60.4997C59.5722 0.88202 58.7432 1.62665 58.7432 2.53987Z" fill="white"/>
<path d="M75.1283 17.4602C75.5077 17.4602 75.6763 17.5024 75.7747 17.966H74.6224C74.6926 17.8396 74.6926 17.7412 74.8051 17.6288C74.8753 17.5445 75.0018 17.4602 75.1283 17.4602ZM76.4773 19.933L76.407 19.371C76.3508 19.1743 76.407 19.2586 76.3087 19.2164L76.1822 19.2024C75.9573 19.2164 76.126 19.3007 75.3531 19.3007C74.9456 19.3007 74.6505 19.0619 74.6224 18.7247H76.2243C76.7302 18.7247 76.674 18.8371 76.674 18.1065C76.674 17.5445 76.393 17.0387 75.9152 16.7999C75.3812 16.533 74.7629 16.6313 74.3132 16.9404C73.7371 17.3338 73.5403 18.2892 73.7371 18.9495C73.9619 19.7503 74.4959 20.0735 75.325 20.1297C75.7325 20.1718 76.1541 20.0032 76.4773 19.933Z" fill="white"/>
<path d="M67.2314 18.6684H67.7373V19.3568H67.1612C66.7115 19.3568 66.7115 18.6684 67.2314 18.6684ZM66.2056 16.8139C66.2337 16.9263 66.2618 17.0808 66.2618 17.1792C66.318 17.4461 66.2618 17.4882 66.4445 17.5163L66.6413 17.5023C66.8942 17.4461 67.4984 17.3758 67.6671 17.6147C67.7373 17.713 67.7373 17.8395 67.7373 17.994C67.5406 17.8957 65.8965 17.7552 65.8965 19.0758C65.8965 20.4668 67.8076 20.1577 68.6367 19.975C68.6367 17.6709 69.0723 16.1395 66.2056 16.8139Z" fill="white"/>
<path d="M59.6708 15.9429C59.6708 16.9123 59.6006 18.2751 59.727 19.1602C59.8535 20.3263 61.2306 20.2421 61.8349 19.9189C61.8349 19.7644 61.7787 19.6239 61.7646 19.5115C61.6662 19.0478 61.7084 19.3007 60.9355 19.3007C60.7107 19.3007 60.6123 19.09 60.6123 18.8792V17.5586C61.863 17.5586 61.7225 17.685 61.7225 16.9123C61.7225 16.6313 61.0901 16.7297 60.6123 16.7297C60.6123 15.7883 60.6826 15.7743 60.2329 15.8586C60.0221 15.9007 59.8535 15.9007 59.6708 15.9429Z" fill="white"/>
<path d="M69.6484 16.8421C69.6484 17.2214 70.3511 18.9073 70.5337 19.3288C70.9131 20.214 70.7586 20.0594 71.5174 20.0594C71.6438 20.0594 71.8687 19.4693 71.9389 19.3007C72.234 18.5842 72.5151 17.8677 72.7399 17.123C72.8664 16.6454 72.8383 16.7297 71.9811 16.7297C71.8265 16.7297 71.8546 16.8983 71.7844 17.2073L71.2504 18.809C71.152 18.7247 71.0677 18.4437 71.0256 18.3032L70.7023 17.2214C70.5197 16.6313 70.7305 16.7297 69.803 16.7297C69.7187 16.7297 69.6484 16.7999 69.6484 16.8421Z" fill="white"/>
<path d="M78.0371 15.3389C78.0371 16.505 78.0371 17.6571 78.0371 18.8232C78.0371 19.4695 78.0933 19.8207 78.5711 20.0174C78.6413 20.0596 79.2034 20.172 79.2737 20.1298C79.3439 20.0877 79.4283 19.4695 79.4002 19.4273C79.2175 19.1464 78.9224 19.5538 78.9224 18.7108V15.7745C78.9505 15.2546 79.1472 15.086 78.0371 15.3389Z" fill="white"/>
<path d="M62.959 16.9123V19.9611C63.2119 20.1156 63.0573 20.0735 63.7178 20.0735C63.8162 20.0735 63.8443 20.0173 63.9145 19.9611V17.5165C64.7998 17.3057 64.8701 17.9099 64.9966 17.2214C65.0528 17.0809 65.0668 16.9404 65.0949 16.7999C64.9122 16.7578 64.7717 16.7157 64.589 16.6876C63.8443 16.6173 63.5211 16.7859 62.959 16.9123Z" fill="white"/>
<path d="M33.4912 6.65612H33.5474V6.83876H33.4912V6.65612ZM33.2382 5.15281L33.3928 7.4148C33.3928 7.4148 33.3928 7.41479 33.4209 7.42884L33.4912 7.55529C33.4912 7.40075 33.4631 7.4429 33.4631 7.3024C33.5896 7.42885 33.5193 7.49909 33.716 7.62554C33.716 6.97926 33.7722 7.34455 33.716 6.55777C33.7863 6.61397 33.8144 6.68422 33.8706 6.81066C34.0252 6.68422 33.8987 6.41727 33.8003 6.26273L33.6739 6.09413L33.8003 5.95364C33.2523 5.58835 33.449 5.04041 33.1539 4.82967C33.168 4.99827 33.2101 4.99827 33.2382 5.15281C33.1399 5.08256 33.0415 4.91397 32.9572 4.78752C32.4513 4.0148 32.353 4.26769 31.9454 3.86025C31.018 2.90488 31.1726 3.35446 30.8353 3.04537C30.7088 2.94703 30.8072 2.97513 30.6105 2.91893C30.4559 2.87678 30.4559 2.93298 30.4278 2.79248C30.2732 2.80653 30.3013 2.80653 30.2451 2.90488C30.3435 2.96108 30.4278 2.97513 30.5402 3.03132C30.8353 3.19992 31.6222 3.69165 31.7909 3.91645C32.086 4.30984 32.2686 4.08504 32.9713 5.34951C33.1258 5.61645 33.449 6.24868 33.449 6.61397C33.449 6.61397 33.449 6.58587 33.449 6.59992L33.4209 6.58587C33.3507 6.45942 33.3647 6.47347 33.2664 6.41727C33.2664 6.61397 33.3226 6.71232 33.3366 6.88091C33.3366 7.04951 33.3366 7.26025 33.3366 7.4148L33.2382 5.15281Z" fill="white"/>
<path d="M23.7679 11.5316C23.7679 11.363 23.7966 11.4613 23.7393 11.4192C23.7393 11.6018 23.7393 11.4894 23.7679 11.5316Z" fill="white"/>
<path d="M23.7403 11.4329V11.3907L23.6973 11.4188L23.7403 11.4329Z" fill="white"/>
<path d="M33.141 4.82965L33.1123 4.7594L33.141 4.82965Z" fill="white"/>
<path d="M33.3931 7.41502L32.7888 6.09436C32.8591 6.13651 32.9153 6.17866 32.9856 6.2489C33.0839 6.3613 33.0418 6.3613 33.1683 6.4456C33.2666 6.3894 33.2245 6.40345 33.3228 6.37535V6.3051C32.9013 6.277 33.0277 5.78527 32.7467 5.32163C32.5921 5.09684 32.2408 4.56295 32.0722 4.42246C31.9738 4.33816 31.9457 4.32411 31.8473 4.23981C31.4398 3.83238 31.7911 4.12742 31.215 3.69188C31.1166 3.60758 31.1166 3.59353 30.9901 3.55138C30.1611 3.18609 30.414 3.158 30.2173 3.31254L29.9222 3.17204C29.5709 3.0456 29.3741 3.03155 29.065 2.97535L28.8823 2.91915C29.1071 2.91915 29.2617 2.94725 29.5287 2.94725C29.5287 2.94725 29.5006 2.9332 29.5006 2.94725L29.4022 2.9051C29.2758 2.877 29.1493 2.89105 28.8964 2.83485C28.6715 2.79271 28.4748 2.68031 28.264 2.66626L28.545 2.89105C27.7722 2.89105 27.5614 2.83485 26.8166 3.03155C26.395 3.158 25.8611 3.41089 25.4816 3.60758C24.4558 4.15552 23.7251 5.09684 23.2895 6.19271C23.0647 6.76874 22.9382 6.95138 22.882 7.72411C22.8258 8.39849 22.8117 8.74973 22.9803 9.45221C23.0365 9.69105 23.1068 9.8456 23.1068 10.0142C23.1068 10.1266 23.1068 10.0704 23.163 10.1547C23.3457 10.3795 23.4581 10.8712 23.6127 11.1382C23.683 11.2646 23.7673 11.2927 23.8375 11.4051L23.7673 11.5456C23.8235 12.0795 24.9758 13.063 25.5238 13.4142C26.0578 13.7233 26.6761 13.9059 27.2522 14.0886C27.5754 14.201 27.9267 14.215 28.3624 14.201C29.065 14.1869 29.7395 14.0043 30.3718 13.7654C30.7794 13.6109 31.1447 13.372 31.496 13.1192C32.6062 12.2762 33.2807 11.0539 33.5055 9.63486C33.7163 8.37039 33.3931 7.80841 33.3931 7.41502ZM28.8682 2.89105C28.6856 2.89105 28.812 2.89105 28.7699 2.86295C28.9385 2.86295 28.812 2.86295 28.8682 2.89105ZM24.498 12.1497C24.5964 12.2059 24.5682 12.1638 24.5964 12.2902C24.5261 12.234 24.5261 12.2621 24.498 12.1497ZM24.7228 12.3886C24.8493 12.4167 24.9055 12.515 24.9758 12.6134C24.8493 12.5853 24.765 12.4869 24.7228 12.3886ZM25.0179 12.6836C25.1725 12.7258 25.0882 12.7117 25.2006 12.796C25.4957 13.0208 25.7767 13.1754 26.1281 13.3158C26.2545 13.372 26.4091 13.4282 26.5075 13.4985C26.0297 13.5125 25.1725 12.9084 25.0179 12.6836ZM31.6366 9.77535C31.5382 10.0282 31.4398 10.2109 31.3133 10.4497C31.2431 10.5762 31.1869 10.6464 31.1166 10.7448L30.8637 11.0398C30.6669 11.2506 30.6388 11.2646 30.4562 11.4051C30.3999 11.4613 30.3999 11.4754 30.3297 11.5315C29.6973 12.0233 29.599 11.8968 29.2758 12.0092C29.079 12.0795 29.346 11.9811 29.1774 12.0935C28.9807 12.22 29.1212 12.1216 29.0509 12.0935C28.9526 12.0514 29.2477 11.9671 28.7277 12.1778C28.545 12.2481 28.5029 12.1778 28.2781 12.1778C28.3062 12.2481 28.3202 12.2621 28.3202 12.2621C28.3202 12.2621 28.3202 12.2621 28.3062 12.2902C28.1235 12.2902 28.0532 12.2902 27.9548 12.2621C27.5473 12.2059 27.8003 12.4307 27.3225 12.2481C27.0414 12.1497 26.9712 12.2902 26.5637 12.0373C25.9173 11.6158 25.8892 11.6018 25.3552 10.9696C25.299 10.8853 25.2287 10.8431 25.1584 10.7448C25.0039 10.534 24.9758 10.4778 24.9055 10.1828C24.8352 9.9861 24.8071 9.71915 24.6526 9.60676C24.6526 10.0142 24.8352 10.3654 24.9336 10.8291C24.8071 10.7307 24.7088 10.4919 24.6385 10.3373C24.4839 9.98609 24.4558 9.98609 24.3575 9.7894C24.2872 9.63486 24.2029 9.39601 24.1748 9.18527C24.1045 8.93238 24.1045 8.76378 24.0483 8.48279C23.9781 7.99105 24.0764 8.01915 24.1748 7.83651C24.3013 7.58361 24.5542 6.54395 25.0741 6.26295C25.0179 6.74064 24.5964 6.75469 24.5964 7.30262C24.6947 7.20428 24.6526 7.20428 24.7509 7.11998C24.7509 7.51337 24.1467 8.2299 24.3996 8.73568C24.5964 8.58114 24.4558 8.38444 24.6526 8.2018C24.7228 8.21585 24.6807 8.21585 24.7228 8.258C24.779 8.28609 24.765 8.2861 24.765 8.2861C24.779 8.2861 24.7931 8.30014 24.8212 8.30014C24.8493 8.21585 24.9477 8.0332 25.0039 7.90676C25.2849 7.23238 25.0741 7.66791 25.3833 7.13403C25.4816 6.97948 25.5097 6.89519 25.6362 6.75469C25.7065 6.65634 25.833 6.57204 25.9313 6.48775L26.2545 6.2489C26.3248 6.19271 26.5075 6.06626 26.6058 6.02411C26.8307 5.91171 26.8307 5.99601 26.9852 5.78527C26.8307 5.81337 26.8869 5.84147 26.7323 5.85552C26.915 5.61667 27.8424 5.46213 28.2921 5.43403C28.7699 5.40593 29.5709 5.60262 29.9784 5.79932C30.8777 6.2489 31.5101 7.02163 31.7911 8.0894C31.8473 8.34229 31.8895 8.66543 31.8895 8.98857C31.8754 9.32576 31.7771 9.39601 31.6366 9.77535ZM26.1562 4.01502L25.4254 4.40841C25.3271 4.49271 25.2428 4.61915 25.1022 4.6613C25.7767 3.64973 27.1398 3.43899 28.3483 3.43899V3.46709C27.2522 3.46709 26.9852 3.67783 26.1562 4.01502ZM24.5964 5.08279C24.6526 4.91419 24.8914 4.73155 25.0741 4.6894C25.0179 4.7456 24.6666 5.04064 24.5964 5.08279ZM28.9104 3.64973V3.62163H29.1071V3.64973H28.9104ZM29.3179 3.70593C29.5006 3.69188 29.599 3.71998 29.7254 3.76213C29.8519 3.80428 30.0065 3.84643 30.0486 3.93072L29.3179 3.70593ZM31.6084 4.50676C30.7513 3.84642 29.4163 3.21419 28.264 3.21419C27.1117 3.21419 25.7767 3.71998 24.9758 4.47866C24.1186 5.27948 24.4418 4.99849 23.7673 6.13651C23.6689 6.277 23.6408 6.3894 23.5705 6.51585C23.4722 6.65634 23.3738 6.69849 23.3176 6.85304C23.3176 6.88114 23.2192 7.30262 23.2192 7.31667C23.2192 7.47122 23.2473 7.42907 23.2473 7.56957C23.2473 7.65386 23.2192 7.71006 23.2192 7.85056C23.1911 8.0613 23.2192 8.2861 23.2192 8.49684L23.2473 7.71006C23.2473 7.71006 23.3176 7.78031 23.3176 7.79436C23.3738 7.89271 23.2895 8.0332 23.2895 8.2861C23.2895 8.51089 23.3176 8.58114 23.3176 8.79188L23.3457 8.98857V8.97452C23.3738 9.25552 23.6267 10.2811 23.9218 10.4357C23.8656 10.239 23.7954 10.2249 23.7392 10.0282C23.6408 9.74725 23.3879 9.12907 23.3879 8.86213C23.3879 8.70758 23.4581 8.80593 23.4581 8.58114C23.4581 8.41254 23.4019 8.37039 23.4019 8.258C23.43 8.15965 23.4581 8.0613 23.4581 7.89271C23.683 7.89271 23.5565 7.93485 23.5284 8.1175C23.5284 8.13155 23.5846 8.96047 23.5565 9.29766H23.6548C23.6548 9.55056 23.7813 9.62081 23.8516 9.9018C23.8516 9.958 23.8516 10.0844 23.8516 10.1125C23.9078 10.2109 24.0343 10.2109 24.1045 10.3795C24.1748 10.52 24.231 10.6464 24.3013 10.7729C24.0764 10.7167 24.231 10.534 23.9781 10.3795C23.9781 10.6745 24.1326 10.801 23.9781 11.096C23.8797 11.0258 23.683 10.6605 23.6267 10.52C23.5284 10.3092 23.43 10.0985 23.3457 9.8737C22.7696 8.35634 23.0506 6.60014 23.9218 5.29353L24.3294 4.7737C24.3996 4.6894 24.3996 4.67535 24.4839 4.59105C24.9336 4.09932 25.2849 3.84642 25.8892 3.53733C27.0415 2.9613 28.3062 2.97535 29.5568 3.21419C30.3578 3.36874 30.1049 3.35469 30.7091 3.66378C31.3415 3.98692 31.7349 4.45056 32.2408 4.97039C32.4235 5.13899 32.3111 5.06874 32.3954 5.25138C32.1143 5.22328 32.1143 4.90014 31.6084 4.50676ZM32.4797 5.57452C32.7326 5.64477 32.5499 5.78527 32.8591 5.93981C32.7888 6.02411 32.8029 5.98196 32.7888 6.08031C32.6624 5.99601 32.5359 5.75717 32.4797 5.57452Z" fill="white"/>
</svg>
