<svg width="98" height="16" viewBox="0 0 98 16" fill="none" xmlns="http://www.w3.org/2000/svg">
<path d="M43.8622 4.90005L45.8602 3.30005H39.0098V12.8H45.8602V11.2H41.0078V8.80005H45.1942V7.20005H41.0078V4.90005H43.8622Z" fill="white"/>
<path d="M33.8718 7.00005H31.4932V4.90005H35.299L37.2971 3.30005H29.4951V12.8H33.5864C35.8699 12.8 37.2019 11.7 37.2019 9.80005C37.2019 8.00005 36.0602 7.00005 33.8718 7.00005ZM33.4912 11.2H31.4932V8.60005H33.4912C34.7281 8.60005 35.299 9.00005 35.299 9.90005C35.3941 10.8 34.7281 11.2 33.4912 11.2Z" fill="white"/>
<path d="M51.3787 3.30005H47.668V12.8H49.666V10.1H51.3787C53.7573 10.1 55.1845 8.80005 55.1845 6.70005C55.1845 4.60005 53.7573 3.30005 51.3787 3.30005ZM51.3787 8.50005H49.666V4.90005H51.3787C52.6155 4.90005 53.2816 5.60005 53.2816 6.70005C53.2816 7.80005 52.6155 8.50005 51.3787 8.50005Z" fill="white"/>
<path d="M26.1648 10.6998C25.6891 10.9998 25.0231 11.1998 24.4522 11.1998C22.6444 11.1998 21.4075 9.89983 21.4075 8.09983C21.4075 6.29983 22.6444 4.99983 24.4522 4.99983C25.1182 4.99983 25.6891 5.19983 26.2599 5.59983L27.6871 4.49983L27.592 4.29983C26.7357 3.49983 25.6891 3.19983 24.4522 3.19983C23.1201 3.19983 21.8833 3.69983 21.0269 4.59983C20.1706 5.49983 19.5998 6.79983 19.6949 8.09983C19.6949 9.39983 20.1706 10.6998 21.0269 11.5998C21.9784 12.4998 23.2153 12.9998 24.4522 12.9998C25.8794 12.9998 27.1163 12.4998 27.8774 11.5998L26.6405 10.5998L26.1648 10.6998Z" fill="white"/>
<path d="M78.7808 3.29983V12.7998H80.7789V8.89983H84.9653V12.7998H86.9633V3.29983H84.9653V7.19983H80.7789V3.29983H78.7808ZM75.3556 12.7998H77.4488L73.6429 3.29983H71.6449L67.7439 12.7998H69.742L70.5031 10.8998H74.6895L75.3556 12.7998ZM71.074 9.29983L72.5963 5.49983L74.0235 9.29983H71.074ZM91.2449 8.89983H92.4818L95.4313 12.6998H97.9051L93.909 7.79983L97.4293 3.19983H95.1458L92.2915 7.29983H91.2449V3.29983H89.2468V12.7998H91.2449V8.89983ZM61.274 6.99983V4.89983H66.4119V3.29983H59.3711V12.7998H63.4624C65.7458 12.7998 67.0779 11.6998 67.0779 9.79983C66.9827 7.99983 65.841 6.99983 63.6526 6.99983H61.274ZM61.274 11.1998V8.59983H63.2721C64.509 8.59983 65.0798 8.99983 65.0798 9.89983C65.0798 10.7998 64.509 11.1998 63.2721 11.1998H61.274Z" fill="white"/>
<path d="M13.5102 3.19983C13.8908 3.69983 14.1763 4.19983 14.3665 4.79983L7.6112 10.0998L4.75684 8.19983V5.89983L7.6112 7.79983L13.5102 3.19983Z" fill="white"/>
<path d="M1.80867 8.05552C1.80867 7.95552 1.80867 7.85552 1.80867 7.75552L0.0960514 7.65552C0.0960514 7.75552 0.0960514 7.95552 0.0960514 8.05552C0.000905789 10.1555 0.857216 12.1555 2.2844 13.5555L3.52129 12.2555C2.47469 11.2555 1.80867 9.75552 1.80867 8.05552Z" fill="white"/>
<path d="M7.51621 1.95552C7.61136 1.95552 7.7065 1.95552 7.80165 1.95552L7.8968 0.155518C7.80165 0.155518 7.7065 0.155518 7.61136 0.155518C5.51815 0.155518 3.61524 1.05552 2.2832 2.45552L3.5201 3.75552C4.47155 2.65552 5.99388 1.95552 7.51621 1.95552Z" fill="white"/>
<path d="M7.51632 14.0554C7.42118 14.0554 7.32603 14.0554 7.23089 14.0554L7.13574 15.8554C7.23089 15.8554 7.42118 15.8554 7.51632 15.8554C9.60953 15.8554 11.5124 14.9554 12.8445 13.5554L11.6076 12.2554C10.561 13.4554 9.1338 14.0554 7.51632 14.0554Z" fill="white"/>
<path d="M10.8467 2.99998L12.2739 1.89998C10.9418 0.799975 9.32437 0.0999756 7.5166 0.0999756V1.99998C8.7535 1.99998 9.89524 2.39998 10.8467 2.99998Z" fill="white"/>
<path d="M15.0335 7.99998C15.0335 7.49998 15.0335 7.09998 14.9384 6.59998L13.3209 7.89998C13.3209 7.89998 13.3209 7.99998 13.3209 8.09998C13.3209 9.89998 12.5597 11.5 11.418 12.6L12.5597 14C14.082 12.4 15.0335 10.3 15.0335 7.99998Z" fill="white"/>
<path d="M7.51691 14.1C5.80429 14.1 4.28196 13.3 3.23536 12.1L1.90332 13.3C3.23536 14.9 5.23342 15.9 7.51691 15.9V14.1Z" fill="white"/>
<path d="M3.71068 3.49995L2.47379 2.19995C0.951456 3.59995 0 5.69995 0 7.99995H1.71262C1.80777 6.29995 2.47379 4.59995 3.71068 3.49995Z" fill="white"/>
</svg>
