<svg width="75" height="80" viewBox="0 0 75 80" fill="none" xmlns="http://www.w3.org/2000/svg">
<path d="M73.1429 19.0476C73.3333 19.619 73.7143 20.1905 73.7143 20.7619C74.0952 21.7143 74.2857 22.8571 74.2857 23.8095V69.3333C74.2857 72.1905 73.1429 74.8571 71.2381 76.9524C69.3333 78.8571 66.6667 80 63.619 80H10.6667C7.80952 80 5.14286 78.8571 3.04762 76.9524C1.14286 75.0476 0 72.381 0 69.3333V23.8095C0 20.9524 1.14286 18.2857 3.04762 16.1905C4.95238 14.2857 7.61905 13.1429 10.6667 13.1429H36.381C37.3333 10.2857 38.8571 7.61905 40.9524 5.52381H41.1429C44.5714 2.09524 49.1429 0 54.2857 0C59.4286 0 64.1905 2.09524 67.619 5.52381C71.0476 8.95238 73.1429 13.7143 73.1429 18.8571V19.0476ZM54.2857 9.71429C56.7619 9.71429 59.0476 10.6667 60.7619 12.381C62.4762 14.0952 63.4286 16.381 63.4286 18.8571C63.4286 21.3333 62.4762 23.619 60.7619 25.3333C59.0476 27.0476 56.7619 28 54.2857 28C51.8095 28 49.5238 27.0476 47.8095 25.3333C46.0952 23.619 45.1429 21.3333 45.1429 18.8571C45.1429 16.381 46.0952 14.0952 47.8095 12.381C49.5238 10.6667 51.8095 9.71429 54.2857 9.71429ZM58.2857 14.8571C57.3333 13.9048 55.8095 13.1429 54.2857 13.1429C52.7619 13.1429 51.2381 13.7143 50.2857 14.8571C49.3333 15.8095 48.5714 17.3333 48.5714 18.8571C48.5714 20.381 49.1429 21.9048 50.2857 22.8571C51.2381 23.8095 52.7619 24.5714 54.2857 24.5714C55.8095 24.5714 57.3333 24 58.2857 22.8571C59.2381 21.9048 60 20.381 60 18.8571C60 17.3333 59.4286 15.8095 58.2857 14.8571ZM35.4286 18.8571H10.6667C9.33333 18.8571 8 19.4286 7.2381 20.381C6.28571 21.1429 5.71429 22.4762 5.71429 23.8095V69.3333C5.71429 70.6667 6.28571 72 7.2381 72.7619C8 73.7143 9.33333 74.2857 10.6667 74.2857H63.619C64.9524 74.2857 66.2857 73.7143 67.0476 72.7619C68 71.8095 68.5714 70.6667 68.5714 69.3333V31.0476C66.6667 33.3333 64.1905 35.0476 61.3333 36.1905L55.619 43.2381C55.0476 44 53.9048 44 53.1429 43.4286L52.9524 43.2381L47.2381 36.1905C43.8095 34.8571 40.9524 32.381 38.8571 29.5238C36.7619 26.4762 35.4286 22.6667 35.4286 18.8571ZM65.1429 8C62.2857 5.14286 58.4762 3.42857 54.2857 3.42857C50.0952 3.42857 46.2857 5.14286 43.4286 7.80952C40.5714 10.6667 38.8571 14.4762 38.8571 18.6667C38.8571 21.9048 39.8095 24.9524 41.5238 27.4286C43.2381 29.9048 45.7143 32 48.7619 33.1429C48.9524 33.3333 49.3333 33.3333 49.5238 33.7143L54.2857 39.4286L58.8571 33.7143C59.0476 33.5238 59.2381 33.3333 59.619 33.1429C62.4762 32 65.1429 30.0952 66.8571 27.4286C68.5714 24.9524 69.5238 21.9048 69.5238 18.6667C69.7143 14.4762 68 10.6667 65.1429 8ZM42.6667 40.381C43.4286 39.619 44.381 39.619 45.1429 40.381C45.9048 41.1429 45.9048 42.0952 45.1429 42.8571L40.381 47.619L50.0952 57.3333L60.9524 46.4762C61.7143 45.7143 62.6667 45.7143 63.4286 46.4762C64.1905 47.2381 64.1905 48.1905 63.4286 48.9524L52.5714 59.8095L56.1905 63.4286C56.7619 64 56.7619 65.1429 56.1905 65.9048C55.4286 66.6667 54.4762 66.6667 53.7143 65.9048L48.9524 61.1429L38.0952 50.2857L18.2857 69.5238C17.5238 70.2857 16.5714 70.2857 15.8095 69.5238C15.0476 68.9524 15.0476 67.8095 15.8095 67.0476L35.4286 47.4286L27.2381 39.2381L14.0952 52.381C13.5238 53.1429 12.381 53.1429 11.619 52.381C10.8571 51.619 10.8571 50.6667 11.619 49.9048L24.7619 36.7619L16.381 28.381C15.8095 27.619 15.8095 26.6667 16.381 25.9048C17.1429 25.1429 18.0952 25.1429 18.8571 25.9048L28.381 35.4286L37.7143 44.7619L42.6667 40.381Z" fill="url(#paint0_linear)"/>
<defs>
<linearGradient id="paint0_linear" x1="-40.6547" y1="40.938" x2="60.5288" y2="39.8903" gradientUnits="userSpaceOnUse">
<stop stop-color="#D8BB58"/>
<stop offset="0.1464" stop-color="#ECD26E"/>
<stop offset="0.239" stop-color="#F4DB76"/>
<stop offset="0.4341" stop-color="#E9CC65"/>
<stop offset="0.8173" stop-color="#CEA53A"/>
<stop offset="0.8757" stop-color="#C99F33"/>
</linearGradient>
</defs>
</svg>
