<svg width="522" height="443" viewBox="0 0 522 443" fill="none" xmlns="http://www.w3.org/2000/svg">
<path d="M515.807 443C516.23 440.746 518.253 438.164 519.099 435.958C520.039 433.328 520.792 430.652 521.262 427.929C522.203 422.577 522.203 417.037 521.497 411.638C520.086 401.074 516.089 389.806 510.023 380.98C509.694 380.51 509.365 380.041 509.036 379.571C495.587 360.697 482.185 341.777 467.608 323.748L467.561 323.701C460.319 314.828 449.268 305.109 444.143 294.827C443.86 294.217 435.302 280.742 433.75 278.113C433.233 277.315 432.716 276.47 432.481 276.235C431.728 275.484 425.286 265.108 424.91 265.108C424.628 265.108 414.423 248.066 410.144 241.962C409.392 240.835 407.84 237.737 406.711 235.953C403.89 231.633 402.902 230.084 402.244 228.769C401.962 228.159 399.188 224.685 398.294 223.182C397.401 221.774 396.366 220.6 395.99 220.6C395.614 220.6 395.332 220.318 395.332 219.943C395.332 218.065 373.7 196.139 371.867 196.139C371.725 196.139 370.879 195.529 370.08 194.825C367.117 192.29 353.574 185.012 351.787 185.012C351.176 185.012 350.753 184.637 350.753 184.261C350.753 182.383 355.643 183.839 365.612 188.581C372.525 191.914 376.898 194.496 377.368 195.576C377.509 195.952 377.98 196.186 378.403 196.186C379.202 196.186 388.137 202.853 388.513 203.745C388.654 204.121 389.407 204.731 390.159 205.06C391.335 205.717 391.429 205.482 390.817 203.37C389.548 198.628 387.996 193.51 386.444 189.144C385.551 186.703 384.657 184.026 384.422 183.228C384.187 182.43 383.623 180.693 383.011 179.378C382.4 178.111 381.977 176.702 381.977 176.28C381.977 175.857 381.695 174.871 381.224 174.12C380.848 173.463 378.826 168.721 376.757 163.603C373.653 155.81 373.042 153.603 373.042 149.519C373.042 145.152 373.324 144.26 375.77 140.598C377.274 138.391 378.732 136.373 379.108 136.279C379.39 136.138 379.72 135.668 379.72 135.246C379.72 134.823 380.754 133.227 381.93 131.678C383.199 130.128 384.14 128.485 384.14 128.063C384.14 127.64 384.422 127.264 384.751 127.264C385.127 127.264 385.786 126.513 386.303 125.574C386.726 124.682 387.808 122.898 388.607 121.724C391.57 117.217 392.98 113.649 392.087 113.039C391.57 112.757 391.099 112.804 390.958 113.18C390.817 113.602 390.441 113.931 390.065 113.931C389.689 113.931 386.444 116.889 382.776 120.551C379.155 124.166 374.688 128.063 372.901 129.142C371.961 129.706 370.644 131.114 369.468 130.927C368.857 130.833 368.34 130.504 367.822 130.222C366.224 129.33 364.531 128.579 362.791 127.969C361.38 127.499 359.875 127.077 358.841 126.091C356.913 124.307 356.208 120.41 355.173 118.062C354.609 116.748 354.185 115.809 354.515 114.4C355.502 109.94 361.474 105.574 364.39 102.522C371.443 95.1979 372.948 93.3199 371.961 92.9443C371.067 92.6626 366.929 93.8364 366.224 94.5876C365.989 94.8692 363.684 96.3716 361.004 97.921C356.678 100.503 351.129 104.353 348.59 106.513C348.072 106.888 347.555 107.264 347.32 107.264C345.768 107.311 343.229 110.269 341.583 110.879C338.668 112.006 335.47 112.241 332.413 111.865C327.758 111.302 323.385 109.517 319.106 107.733C312.146 104.823 305.186 101.489 297.945 99.5173C292.584 98.0618 286.377 94.165 280.781 94.165C279.088 93.7425 279.088 93.7894 281.533 96.982C282.944 98.7661 284.261 100.409 284.59 100.597C284.825 100.832 287.035 103.931 289.574 107.64C294.324 114.682 297.757 121.067 299.732 126.56C301.801 132.288 301.801 132.476 300.531 132.476C299.873 132.476 299.355 132.053 299.355 131.443C299.355 129.941 296.017 123.931 291.314 116.889C274.292 91.5358 247.3 78.2022 222.518 62.0046C194.539 43.6943 165.948 28.3418 136.417 12.7545C113.14 0.406814 82.8565 -7.29291 59.8146 10.3601C60.1438 10.2662 60.52 10.1254 60.8492 10.0315C82.7624 2.70734 102.23 7.68399 120.1 22.8017C133.595 34.2105 141.966 50.5489 147.421 67.3099C160.822 108.297 159.318 157.829 181.889 195.247C184.476 199.567 184.476 199.567 192.94 208.158C197.172 212.478 200.981 216.891 201.357 218.018C202.157 220.224 200.934 225.295 199.57 225.295C199.147 225.295 198.959 226.704 199.335 229.145C201.31 242.291 201.216 256.798 196.608 269.381C190.73 285.437 177.516 297.973 162.703 306.471C147.091 315.391 128.987 321.542 111.447 325.204C94.8946 328.631 78.06 330.462 61.4135 333.138C47.1652 335.439 32.6817 338.913 20.9727 347.833C18.8096 349.477 16.7876 351.261 14.9066 353.232C8.22922 360.04 3.85598 368.538 0 377.177C3.76193 372.951 6.58337 367.928 10.2513 363.655C30.2365 340.368 59.7206 338.256 88.2642 334.828C103.03 333.044 121.981 330.227 127.294 328.96C128.094 328.725 132.138 327.927 136.229 327.035C152.922 323.42 168.581 316.471 182.359 306.33C188.896 301.541 194.962 296.048 201.874 291.869C216.17 283.231 233.945 280.555 250.168 284.545C252.802 285.203 255.905 286.095 258.633 285.343C261.407 284.592 263.429 282.01 266.627 283.09C267.614 283.512 272.128 287.456 276.596 291.916C289.762 304.874 304.575 311.166 322.491 315.25C359.593 323.654 397.166 328.021 432.104 343.983C449.833 352.106 466.62 362.247 481.997 374.172C492.389 382.247 503.064 392.717 509.788 404.267C516.513 415.816 518.3 429.15 515.854 442.249C515.948 442.296 515.901 442.671 515.807 443Z" fill="white"/>
</svg>
