<svg width="77" height="98" viewBox="0 0 77 98" fill="none" xmlns="http://www.w3.org/2000/svg">
<path d="M43.19 66.7999C61.3933 66.7999 76.15 52.0432 76.15 33.8399C76.15 15.6366 61.3933 0.879883 43.19 0.879883C24.9867 0.879883 10.23 15.6366 10.23 33.8399C10.23 52.0432 24.9867 66.7999 43.19 66.7999Z" fill="white"/>
<path d="M17.95 50.3998C17.95 49.5298 18.08 50.0498 17.82 49.8398C17.82 50.7498 17.82 50.1898 17.95 50.3998Z" fill="url(#paint0_linear)"/>
<path d="M17.56 49.8099L17.82 49.8399V49.6699L17.56 49.8099Z" fill="url(#paint1_linear)"/>
<path d="M18.14 18.7796C18 18.4496 17.86 18.1196 17.7 17.7996C17.69 17.7796 17.69 17.7596 17.68 17.7396C16.82 19.1696 16.06 20.6696 15.44 22.2496C14.25 25.2596 13.6 26.2396 13.33 30.2896C13.07 33.8596 12.93 35.6696 13.86 39.3496C14.12 40.5696 14.52 41.3796 14.52 42.2896C14.52 42.8496 14.52 42.5996 14.78 43.0596C15.7 44.2096 16.36 46.8396 17.15 48.2296C17.55 48.9296 17.94 49.0296 18.34 49.6596L17.94 50.3896C18.04 51.4796 19.03 52.9296 20.36 54.3996C20.43 54.3696 20.5 54.3396 20.59 54.3296C21.03 54.2796 21.46 54.1696 21.89 54.0396C21.85 53.9696 21.81 53.8596 21.76 53.6096C22.12 53.8196 22.17 53.7896 22.21 53.9496C22.4 53.8896 22.59 53.8396 22.78 53.7796C22.98 53.7096 23.18 53.6496 23.39 53.6096C23.4 53.5996 23.41 53.5896 23.42 53.5796C23.73 53.3896 24.06 53.2596 24.4 53.1396C24.42 52.9896 24.52 52.8496 24.7 52.7596H24.71C24.72 52.7496 24.73 52.7496 24.74 52.7396C24.85 52.6896 24.95 52.6296 25.06 52.5796C25.12 52.5596 25.18 52.5296 25.25 52.5096C25.45 52.4396 25.64 52.3396 25.67 52.2896C25.68 52.2696 25.7 52.2596 25.72 52.2396C25.75 52.2196 25.78 52.2096 25.81 52.1896C25.83 52.1796 25.85 52.1696 25.87 52.1696C25.96 52.1596 26.15 52.0596 26.29 51.9496C26.42 51.8496 26.58 51.7496 26.63 51.7496C26.71 51.7396 27.04 51.5196 27.83 50.9996C27.98 50.8996 28.15 50.8096 28.21 50.7996C28.27 50.7896 28.31 50.7396 28.3 50.6996C28.29 50.6496 28.42 50.5596 28.56 50.4996C28.72 50.4396 28.83 50.3496 28.82 50.2996C28.82 50.2796 28.83 50.2596 28.84 50.2396C28.87 50.2296 28.89 50.2296 28.92 50.2196C28.91 50.2096 28.91 50.2096 28.9 50.1996C28.91 50.1996 28.91 50.1896 28.91 50.1896C29.04 50.1696 30.07 49.2996 30.09 49.1896C30.1 49.1496 30.15 49.0996 30.2 49.0896C30.56 49.0296 32.33 46.5696 32.27 46.2096C32.26 46.1596 32.29 46.0996 32.34 46.0696C32.38 46.0396 32.51 45.6796 32.63 45.2596C33.11 43.5396 33.14 42.9196 32.78 41.1396C32.62 40.3696 32.43 39.5096 32.36 39.2296C32.26 38.9196 32.25 38.7396 32.31 38.7296C32.48 38.6996 32.54 38.0196 32.39 37.7496C32.32 37.6096 31.74 37.1196 31.1 36.6496C29.83 35.7196 29.83 35.7196 29.4 35.2196C29.24 35.0296 29.08 34.8596 29.03 34.8396C28.99 34.8196 28.9 34.6896 28.84 34.5496C28.78 34.4096 28.69 34.3096 28.64 34.3196C28.59 34.3296 28.54 34.2796 28.54 34.2196C28.52 34.1096 28.16 33.4596 27.83 32.9296C27.76 32.8296 27.63 32.5696 27.54 32.3396C27.44 32.1096 27.26 31.6796 27.13 31.3796C26.87 30.7796 26.59 30.0096 26.13 28.6996C25.98 28.2396 25.81 27.8096 25.76 27.7296C25.73 27.6496 25.61 27.3296 25.51 27.0196C25.11 25.8496 24.23 23.6296 23.6 22.2696C23.48 21.9996 23.29 21.5796 23.19 21.3496C23.09 21.1196 22.96 20.8796 22.91 20.8096C22.85 20.7296 22.75 20.5296 22.68 20.3596C22.61 20.1796 22.51 19.9896 22.47 19.9496C22.42 19.8996 22.32 19.7196 22.26 19.5396C22.19 19.3596 22.09 19.1696 22.05 19.1296C22 19.0796 21.81 18.7796 21.63 18.4296C21.45 18.0996 21.27 17.8296 21.23 17.8396C21.18 17.8496 21.14 17.7896 21.13 17.7096C21.1 17.5496 19.82 15.7796 19.71 15.7496C19.66 15.7396 19.62 15.6896 19.61 15.6396C19.6 15.5496 19.16 15.0696 19.01 14.9596C18.98 14.9396 18.86 14.8196 18.75 14.6996C18.06 13.9296 15.76 12.5096 15.82 12.8896C15.83 12.9696 16.11 13.3096 16.18 13.3596C16.3 13.4196 17.58 15.2296 17.6 15.3596C17.61 15.4296 17.67 15.4796 17.72 15.4696C17.78 15.4596 17.83 15.5196 17.84 15.6096C17.85 15.6996 17.94 15.8896 18.05 16.0396C18.39 16.5596 19.05 17.8696 19.31 18.5296C19.69 19.4696 19.69 19.4896 19.37 19.9596C19.27 20.1096 19.12 20.3496 18.98 20.5696C18.95 20.5296 18.93 20.4796 18.9 20.4396C18.64 20.8996 18.34 21.4296 17.97 22.0396C17.44 22.7696 17.31 23.3696 16.92 23.9996C16.39 24.7696 15.87 24.9396 15.6 25.7496C15.6 25.8896 15.07 28.1296 15.07 28.1996C15.07 29.0396 15.2 28.7596 15.2 29.4896C15.2 29.9396 15.07 30.2196 15.07 30.9896C15.05 31.1696 15.04 31.3496 15.03 31.5196C14.86 32.0396 14.77 34.8696 14.89 36.6496C14.95 37.5996 15.14 38.8896 15.4 40.1896C13.13 33.0796 14.37 25.0896 18.14 18.7796ZM15.22 30.3396C15.21 30.4396 15.19 30.5196 15.18 30.5696L15.19 30.2896C15.19 30.2996 15.21 30.3196 15.22 30.3396Z" fill="url(#paint2_linear)"/>
<path d="M29.15 8.33953C35.21 5.28953 41.8 5.39953 48.39 6.65953C52.61 7.45953 51.29 7.38953 54.45 9.03953C57.74 10.7495 59.85 13.1995 62.49 15.8595C63.41 16.7295 62.89 16.3495 63.28 17.3295C61.7 17.2995 61.7 15.5795 59.06 13.5195C54.58 10.0595 47.6 6.76953 41.54 6.76953C35.48 6.76953 28.49 9.42953 24.28 13.4095C24.07 13.6095 23.88 13.7895 23.7 13.9595C23.94 14.0095 24.18 14.0695 24.42 14.1395C24.53 13.8295 24.9 13.6495 25.23 13.7395C25.18 13.7795 25.12 13.8195 25.05 13.8695C24.67 14.1195 24.54 14.3995 24.83 14.3495C24.91 14.3395 24.98 14.3595 24.99 14.4095C25 14.4595 25.13 14.5295 25.29 14.5595C25.44 14.5895 25.81 14.7095 26.09 14.8295C26.38 14.9395 26.73 15.0695 26.87 15.1095C27.01 15.1595 27.15 15.2095 27.19 15.2395C27.22 15.2595 27.36 15.3295 27.51 15.3695C27.65 15.4095 28.16 15.6295 28.64 15.8395C29.12 16.0495 29.55 16.2095 29.6 16.1995C29.65 16.1895 29.71 16.2095 29.74 16.2495C29.81 16.3495 30.45 16.6495 30.56 16.6395C30.61 16.6295 30.67 16.6495 30.7 16.6895C30.77 16.7995 31.41 17.0895 31.53 17.0695C31.58 17.0595 31.63 17.0895 31.64 17.1395C31.65 17.1895 31.8 17.2495 31.96 17.2895C32.13 17.3295 32.27 17.3995 32.28 17.4395C32.29 17.4895 32.33 17.5195 32.38 17.5095C32.44 17.4995 32.68 17.5895 32.93 17.6995C34.22 18.2695 34.92 18.5595 35 18.5495C35.06 18.5395 35.11 18.5695 35.12 18.6095C35.13 18.6595 35.26 18.7295 35.41 18.7695C35.78 18.8695 37.6 19.7095 37.65 19.8095C37.68 19.8495 37.73 19.8795 37.78 19.8695C38.09 19.8195 41 21.9595 41.82 22.8395C42.57 23.6495 43.13 24.3495 43.16 24.5495C43.17 24.6295 43.25 24.6695 43.34 24.6595C43.5 24.6295 43.5 24.5995 43.11 23.9095C42.74 23.2395 42.16 22.4895 41.4 21.6895C41 21.2695 40.64 20.9095 40.61 20.8895C40.57 20.8695 40.36 20.6895 40.14 20.4895C39.76 20.1295 39.76 20.1195 39.98 20.1395C40.64 20.1895 41.72 20.3495 42.28 20.4795C42.46 20.5295 42.69 20.5495 42.8 20.5295C42.9 20.5095 43.01 20.5395 43.05 20.5795C43.09 20.6195 43.26 20.6695 43.44 20.6795C43.61 20.6795 43.92 20.7295 44.12 20.7895C44.8 20.9495 45.09 21.0195 45.55 21.1195C45.8 21.1795 46.13 21.2495 46.28 21.3095C46.43 21.3495 46.85 21.3695 47.22 21.3495C47.87 21.2895 47.91 21.2795 48.34 20.8695C48.6 20.6295 48.82 20.4395 48.84 20.4295C48.87 20.4295 48.93 20.3695 48.99 20.3095C49.27 19.9795 49.91 19.3595 50.41 18.9395C50.72 18.6795 50.99 18.4395 51.01 18.3995C51.08 18.2895 51.59 18.0495 51.71 18.0695C51.84 18.0995 51.69 18.3695 50.94 19.4595C49.77 21.1395 49.74 21.2395 50.16 21.7795C50.31 21.9895 50.46 22.2395 50.48 22.3295C50.51 22.5095 50.85 22.7595 51.02 22.7295C51.08 22.7195 51.38 22.7895 51.68 22.8795L52.24 23.0395L52.6 22.7195C52.81 22.5395 53.3 21.9495 53.69 21.3995C54.08 20.8495 54.44 20.3995 54.49 20.3895C54.54 20.3795 54.58 20.3395 54.59 20.2795C54.6 20.2295 54.66 20.2095 54.73 20.2395C54.86 20.2995 54.75 20.7895 54.46 21.4295C54.38 21.5995 54.28 21.8495 54.25 21.9795C54.2 22.1195 54.13 22.2295 54.09 22.2295C54.05 22.2395 54.02 22.2895 54.03 22.3495C54.04 22.4095 53.95 22.6395 53.82 22.8695C53.7 23.0995 53.6 23.3195 53.61 23.3795C53.62 23.4395 53.59 23.4995 53.56 23.5295C53.51 23.5495 53.36 23.8395 53.22 24.1595C52.98 24.6795 52.96 24.7995 53.05 25.3695C53.14 25.8995 53.26 26.1695 53.83 27.1095C54.21 27.7295 54.56 28.2995 54.63 28.3695C54.7 28.4595 54.76 28.5695 54.77 28.6295C54.78 28.6895 54.87 28.8595 54.97 29.0095C55.07 29.1695 55.19 29.3795 55.23 29.4795C55.27 29.5795 55.45 29.9095 55.61 30.1995C55.9 30.7295 56.21 31.3595 56.48 31.9395C56.6 32.1995 56.6 32.2395 56.43 32.1695C56.33 32.1395 56.22 32.0795 56.19 32.0295C56.12 31.9195 54.83 31.2495 54.73 31.2695C54.67 31.2795 54.61 31.2595 54.58 31.2195C54.5 31.0995 53.88 30.8495 52.92 30.5695C51.54 30.1695 50.88 30.0895 50.92 30.3295C50.93 30.3795 50.99 30.4195 51.07 30.3995C51.3 30.3595 53.19 31.0095 53.63 31.2795C53.75 31.3595 53.87 31.4195 53.89 31.4095C54.13 31.3695 57.38 33.7495 57.42 33.9895C57.43 34.0395 57.47 34.0695 57.52 34.0595C57.57 34.0495 57.73 34.1795 57.87 34.3495C58.02 34.5195 58.19 34.6995 58.27 34.7595C58.35 34.8095 58.44 34.9195 58.49 34.9895C58.6 35.1495 58.76 35.3295 59.22 35.8195C59.4 36.0295 59.55 36.2095 59.55 36.2395C59.55 36.2695 59.66 36.3995 59.78 36.5295C60.46 37.2195 62.07 39.0295 62.08 39.1195C62.09 39.1695 62.13 39.2095 62.17 39.1995C62.22 39.1895 62.32 39.2695 62.41 39.3795C62.67 39.7295 63.27 40.3995 63.39 40.4795C63.42 40.4995 63.51 40.5995 63.59 40.6895C63.85 40.9895 64.76 42.0395 64.98 42.2695C65.1 42.3895 65.23 42.5495 65.28 42.6195C65.33 42.6895 65.69 43.1295 66.08 43.5995C66.47 44.0695 66.8 44.4795 66.8 44.5295C66.82 44.6595 66.97 44.6495 67.07 44.5395C67.1 44.6195 67.14 44.6895 67.18 44.7695C67.4 44.9895 67.62 45.2195 67.82 45.4595C68.38 43.8295 68.83 42.1395 69.12 40.3595C70.17 33.8595 68.46 30.8795 68.46 28.8195L67.62 26.9795C67.48 26.5495 67.32 26.1195 67.12 25.6095C67.03 25.3795 66.9 25.0295 66.82 24.8195C66.58 24.1995 65.97 22.9395 65.46 21.9695C65.77 22.1695 66.01 22.3395 66.35 22.6695C66.88 23.2295 66.61 23.2595 67.27 23.7195C67.8 23.4395 67.53 23.5095 68.06 23.3695V22.9895C65.82 22.8095 66.48 20.2995 65.03 17.8095C64.24 16.6195 62.39 13.8595 61.47 13.0895C60.94 12.6695 60.81 12.5995 60.28 12.1095C58.17 9.93953 60.02 11.5195 56.99 9.20953C56.46 8.78953 56.46 8.71953 55.8 8.43953C51.45 6.54953 52.77 6.40953 51.72 7.17953L50.1 6.40953C48.26 5.74953 47.2 5.67953 45.62 5.35953L44.7 5.08953C45.89 5.08953 46.68 5.25953 48.13 5.25953C48.13 5.25953 48 5.18953 48 5.22953L47.47 5.01953C46.81 4.84953 46.15 4.91953 44.83 4.63953C43.64 4.39953 42.59 3.79953 41.54 3.76953L42.99 4.91953C38.91 4.91953 37.85 4.60953 33.9 5.68953C31.66 6.31953 28.89 7.64953 26.92 8.72953C24.82 9.85953 22.96 11.2995 21.34 12.9695C21.63 13.1195 21.91 13.2795 22.17 13.4695C24.35 11.1695 26.17 9.84953 29.15 8.33953ZM41.93 7.91953V8.00953C41.72 8.00953 41.51 7.99953 41.27 7.99953C41.09 7.99953 40.48 8.05953 39.72 8.15953C38.63 8.22953 37.71 8.35953 36.89 8.54953C35.81 8.70953 34.93 8.84953 34.84 8.89953C34.8 8.92953 34.38 9.05953 33.91 9.20953C32.59 9.59953 31.13 10.1795 29.85 10.7995C29.26 11.0795 28.82 11.3095 28.5 11.5195C28.36 11.6095 28.05 11.7895 27.83 11.9195C27.6 12.0495 27.27 12.2695 27.06 12.3995C26.86 12.5295 26.65 12.6495 26.58 12.6595C26.52 12.6695 26.48 12.7195 26.49 12.7595C26.5 12.8095 26.38 12.8995 26.23 12.9595C26.08 13.0195 25.96 13.0995 25.97 13.1495C25.98 13.1995 25.86 13.2795 25.71 13.3395C29.44 8.91953 36.02 7.91953 41.93 7.91953ZM65.65 21.0595C65.29 21.4695 65.36 21.3195 65.29 21.6895C65.07 21.2795 64.87 20.9495 64.75 20.7695C64.7 20.6895 64.55 20.4795 64.45 20.3095C64.3 20.0795 64.01 19.6595 63.7 19.2395C63.69 19.2195 63.69 19.1995 63.68 19.1795C64.99 19.5295 64.07 20.2995 65.65 21.0595ZM44.7 5.08953C43.78 5.08953 44.44 5.08953 44.17 4.90953C45.1 4.90953 44.44 4.90953 44.7 5.08953Z" fill="url(#paint3_linear)"/>
<path d="M69.87 21.8295L70.53 21.0995C67.63 19.1795 68.68 16.3395 67.1 15.2295C67.23 16.1395 67.5 16.0995 67.63 16.9395C67.1 16.5595 66.58 15.6795 66.18 15.0195C63.54 10.9995 63.02 12.2595 60.91 10.1195C56.03 5.11953 56.83 7.49953 55.11 5.84953C54.45 5.32953 54.98 5.49953 53.92 5.21953C53.13 5.00953 53.13 5.28953 53 4.51953C52.21 4.58953 52.34 4.58953 52.08 5.07953C52.61 5.35953 53 5.42953 53.66 5.77953C55.24 6.64953 59.33 9.23953 60.25 10.4295C61.83 12.4595 62.75 11.3395 66.44 17.9795C66.81 18.6495 67.39 19.7295 67.89 20.8895C68.44 22.1595 68.91 23.5095 68.94 24.5195C68.93 24.5395 68.81 24.4395 68.81 24.4095C68.47 23.8295 68.38 23.7995 68.02 23.5795C68.03 23.9895 68.07 24.3095 68.14 24.6295C68.23 25.0495 68.34 25.4395 68.42 25.9495C68.42 26.3495 68.42 26.7495 68.42 27.1395C68.42 27.5795 68.42 28.0195 68.42 28.4595C68.42 28.5495 68.42 28.6295 68.44 28.7195C68.45 28.7595 68.46 28.7895 68.49 28.8195C68.51 28.8395 68.53 28.8695 68.55 28.8895C68.58 28.9095 68.59 28.9495 68.61 28.9795C68.64 29.0295 68.67 29.0795 68.7 29.1195C68.76 29.2195 68.83 29.3195 68.89 29.4195C68.91 29.4495 68.93 29.4795 68.94 29.4995C68.94 28.6995 68.81 28.9095 68.81 28.2095C69.47 28.9095 69.07 29.2195 70.13 29.8895C70.13 26.5295 70.39 28.4195 70.13 24.2595C70.53 24.5695 70.66 24.9195 70.92 25.5495C71.71 24.9195 71.05 23.4895 70.52 22.6795L69.87 21.8295Z" fill="url(#paint4_linear)"/>
<path d="M69.44 51.0494C68.86 50.6494 68.36 50.3194 68.31 50.3294C68.26 50.3394 68.16 50.2994 68.08 50.2394C67.87 50.0894 66.66 49.6194 66.55 49.6394C66.49 49.6494 66.43 49.6194 66.4 49.5794C66.37 49.5194 65.38 49.2194 64.51 48.9994C64.4 48.9694 64.09 48.8894 63.82 48.8294C63.55 48.7594 63.28 48.7094 63.21 48.7194C63.13 48.7294 63.03 48.7094 62.97 48.6794C62.91 48.6394 62.53 48.5794 62.12 48.5194C61.71 48.4594 61.27 48.3894 61.16 48.3594C61.05 48.3294 60.78 48.2994 60.56 48.2794C60.34 48.2594 59.89 48.2194 59.56 48.1894C58.61 48.0894 57.82 48.0294 57.12 47.9994C56.76 47.9894 56.03 47.9594 55.49 47.9394C54.95 47.9194 53.99 47.8894 53.37 47.8794C52.75 47.8594 51.88 47.8494 51.45 47.8394C51.01 47.8194 50.3 47.7894 49.86 47.7594C49.42 47.7194 48.86 47.6794 48.62 47.6594C48.37 47.6494 48.13 47.5994 48.06 47.5594C48 47.5194 47.9 47.4994 47.83 47.5094C47.65 47.5394 46.1 47.1394 45.96 47.0194C45.93 46.9994 45.67 46.8794 45.38 46.7794C45.1 46.6694 44.31 46.1894 43.63 45.7094C42.96 45.2294 42.3 44.8194 42.16 44.7794C41.9 44.7294 41.41 44.9594 41.31 45.1694C41.24 45.3094 40.55 45.3994 40.28 45.3094C40.06 45.2294 38.48 45.2994 37.93 45.3994C37.75 45.4394 37.29 45.5494 36.9 45.6694C36.53 45.7794 35.9 46.0294 35.52 46.2394C34.79 46.6394 33.65 47.4594 33.67 47.5894C33.68 47.6294 33.63 47.6694 33.58 47.6794C33.49 47.6894 32.82 48.3794 32.66 48.6194C32.39 49.0194 30.32 50.9694 30.14 50.9994C30.08 50.9994 30.01 51.0394 30 51.0894C29.99 51.1794 29.6 51.4594 28.92 51.8894C28.68 52.0394 28.41 52.2094 28.34 52.2694C28.26 52.3294 28.06 52.4294 27.89 52.4894C27.71 52.5594 27.49 52.6594 27.39 52.7294C27.29 52.7994 26.8 52.9994 26.29 53.2094C25.78 53.4094 25.28 53.5994 25.18 53.6494C24.79 53.8194 23.76 54.1594 22.6 54.5294C22.23 54.5694 21.83 54.6194 21.36 54.6794C20.09 54.8494 16.1 56.0394 14.97 56.5994C13.83 57.1694 13.03 57.5794 12.53 57.8894C11.9 58.2694 10.1 59.4994 9.84001 59.7294C9.72001 59.8394 9.50001 60.0194 9.37001 60.1294C8.76001 60.6294 8.65001 60.7394 8.27001 61.0994C8.05001 61.3194 7.73001 61.6294 7.57001 61.7994C7.40001 61.9694 7.22001 62.1594 7.17001 62.2094C6.79001 62.5394 4.98001 64.7994 4.82001 65.1094C4.80001 65.1394 4.62001 65.4294 4.40001 65.7594C3.89001 66.5494 2.67001 68.8394 2.43001 69.4794C2.33001 69.7594 2.21001 69.9994 2.18001 70.0094C2.12001 69.9994 2.11001 70.0694 2.13001 70.1294C2.15001 70.1894 2.14001 70.2594 2.11001 70.2694C2.07001 70.2794 1.99001 70.4794 1.93001 70.7194C1.86001 70.9594 1.77001 71.1594 1.73001 71.1694C1.69001 71.1794 1.67001 71.2294 1.68001 71.2694C1.71001 71.3694 1.53001 71.9494 1.45001 72.0194C1.41001 72.0494 1.41001 72.0994 1.41001 72.1394C1.42001 72.1794 1.37001 72.3994 1.30001 72.6294C1.23001 72.8594 1.13001 73.2094 1.09001 73.4194C1.05001 73.6194 0.98001 73.9394 0.93001 74.1194C0.71001 75.0694 0.530011 76.3894 0.420011 77.9994C0.400011 78.1794 0.390011 78.7194 0.400011 79.1994C0.440011 82.9994 1.32001 86.5494 3.00001 89.6494C3.86001 91.2194 4.20001 91.7694 5.26001 93.1394C5.86001 93.8994 7.26001 95.3494 8.11001 96.0694C8.23001 96.1694 8.38001 96.3094 8.46001 96.3994C8.54001 96.4794 8.64001 96.5394 8.68001 96.5294C8.71001 96.5194 8.76001 96.5594 8.78001 96.6094C8.80001 96.6694 8.92001 96.7694 9.05001 96.8494C9.19001 96.9294 9.36001 97.0494 9.45001 97.1194C9.58001 97.2494 9.58001 97.2394 9.48001 97.0694C9.41001 96.9694 9.34001 96.8794 9.30001 96.8594C9.01001 96.7594 7.23001 94.8094 6.11001 93.3694C5.85001 93.0394 5.04001 91.7794 4.69001 91.1794C3.06001 88.3794 1.99001 84.9994 1.71001 81.8394C1.66001 81.2794 1.61001 80.6594 1.59001 80.4594C1.57001 80.2594 1.57001 80.0494 1.58001 79.9894C1.60001 79.9294 1.60001 79.7394 1.59001 79.5794C1.57001 79.4094 1.57001 79.1294 1.57001 78.9694C1.59001 78.4994 1.62001 78.0394 1.65001 77.6194C1.70001 76.7794 1.96001 74.8394 2.04001 74.7294C2.09001 74.6494 2.18001 74.1794 2.22001 73.8694C2.23001 73.7294 2.27001 73.6094 2.31001 73.5994C2.35001 73.5894 2.37001 73.5394 2.36001 73.4894C2.32001 73.3494 3.15001 70.7294 3.34001 70.4094C3.36001 70.3794 3.51001 70.0594 3.66001 69.6994C4.02001 68.8694 4.73001 67.5494 5.23001 66.7894C5.45001 66.4594 5.63001 66.1694 5.64001 66.1294C5.70001 66.0094 6.68001 64.6894 6.73001 64.6794C6.75001 64.6694 7.10001 64.2994 7.48001 63.8494C8.65001 62.4794 10.67 60.6994 12.03 59.8294C13.21 59.0794 13.45 58.9394 14.82 58.2294C15.87 57.6894 18.19 56.8694 19.58 56.5394C20.38 56.3594 21.25 56.1994 22.05 56.0794C23.85 57.7794 25.85 59.3294 27.18 60.1694C29.95 61.7794 33.24 62.7194 36.27 63.6994C37.98 64.2594 39.83 64.3594 42.07 64.2894C45.76 64.1794 49.32 63.2794 52.61 61.9794C54.72 61.1394 56.69 59.9194 58.54 58.5494C61.12 56.5694 63.24 54.1894 64.93 51.5194C64.6 51.4894 63.69 51.4894 63.23 51.3794C63.5 51.0094 63.56 50.9694 63.85 51.0094C64.03 51.0294 64.35 51.0494 64.56 51.0494C64.94 51.0494 65.5 51.1094 66.41 51.2594C66.89 51.3394 67 51.3594 67.75 51.5494C68.02 51.6194 68.3 51.6694 68.38 51.6494C68.47 51.6394 68.54 51.6594 68.55 51.7194C68.56 51.7694 68.61 51.8094 68.67 51.7994C68.82 51.7694 69.72 52.0494 69.78 52.1294C69.81 52.1694 69.87 52.1894 69.93 52.1794C69.99 52.1694 70.27 52.2594 70.55 52.3794C70.84 52.4894 71.1 52.5594 71.12 52.5294C71.2 52.4594 70.44 51.7694 69.44 51.0494ZM23.92 55.9194C24 55.9194 24.09 55.9094 24.16 55.9094C24.2 55.9594 24.24 56.0094 24.28 56.0594C24.15 56.0294 24.03 55.9794 23.92 55.9194ZM24.54 56.4094C25.33 56.6194 24.94 56.5794 25.46 56.9994C27.04 58.1894 28.49 58.9894 30.34 59.7594C31 60.0394 31.79 60.3194 32.32 60.7394C29.81 60.7494 25.33 57.5994 24.54 56.4094Z" fill="url(#paint5_linear)"/>
<defs>
<linearGradient id="paint0_linear" x1="-0.140551" y1="75.5085" x2="61.5887" y2="-11.4223" gradientUnits="userSpaceOnUse">
<stop stop-color="#D6BA5A"/>
<stop offset="0.1464" stop-color="#EBD270"/>
<stop offset="0.239" stop-color="#F3DA78"/>
<stop offset="0.4341" stop-color="#E8CB68"/>
<stop offset="0.8173" stop-color="#CDA537"/>
<stop offset="0.8757" stop-color="#C69C30"/>
</linearGradient>
<linearGradient id="paint1_linear" x1="-0.412219" y1="75.316" x2="61.3179" y2="-11.615" gradientUnits="userSpaceOnUse">
<stop stop-color="#D6BA5A"/>
<stop offset="0.1464" stop-color="#EBD270"/>
<stop offset="0.239" stop-color="#F3DA78"/>
<stop offset="0.4341" stop-color="#E8CB68"/>
<stop offset="0.8173" stop-color="#CDA537"/>
<stop offset="0.8757" stop-color="#C69C30"/>
</linearGradient>
<linearGradient id="paint2_linear" x1="-5.68139" y1="71.5736" x2="56.0477" y2="-15.3569" gradientUnits="userSpaceOnUse">
<stop stop-color="#D6BA5A"/>
<stop offset="0.1464" stop-color="#EBD270"/>
<stop offset="0.239" stop-color="#F3DA78"/>
<stop offset="0.4341" stop-color="#E8CB68"/>
<stop offset="0.8173" stop-color="#CDA537"/>
<stop offset="0.8757" stop-color="#C69C30"/>
</linearGradient>
<linearGradient id="paint3_linear" x1="7.70853" y1="81.0817" x2="69.4377" y2="-5.84877" gradientUnits="userSpaceOnUse">
<stop stop-color="#D6BA5A"/>
<stop offset="0.1464" stop-color="#EBD270"/>
<stop offset="0.239" stop-color="#F3DA78"/>
<stop offset="0.4341" stop-color="#E8CB68"/>
<stop offset="0.8173" stop-color="#CDA537"/>
<stop offset="0.8757" stop-color="#C69C30"/>
</linearGradient>
<linearGradient id="paint4_linear" x1="13.1677" y1="84.9583" x2="74.8968" y2="-1.97216" gradientUnits="userSpaceOnUse">
<stop stop-color="#D6BA5A"/>
<stop offset="0.1464" stop-color="#EBD270"/>
<stop offset="0.239" stop-color="#F3DA78"/>
<stop offset="0.4341" stop-color="#E8CB68"/>
<stop offset="0.8173" stop-color="#CDA537"/>
<stop offset="0.8757" stop-color="#C69C30"/>
</linearGradient>
<linearGradient id="paint5_linear" x1="17.3113" y1="87.9005" x2="79.0404" y2="0.969989" gradientUnits="userSpaceOnUse">
<stop stop-color="#D6BA5A"/>
<stop offset="0.1464" stop-color="#EBD270"/>
<stop offset="0.239" stop-color="#F3DA78"/>
<stop offset="0.4341" stop-color="#E8CB68"/>
<stop offset="0.8173" stop-color="#CDA537"/>
<stop offset="0.8757" stop-color="#C69C30"/>
</linearGradient>
</defs>
</svg>
