<svg width="93" height="70" viewBox="0 0 93 70" fill="none" xmlns="http://www.w3.org/2000/svg">
<path d="M51 70H41.1C39.6 70 38.4 69 38 67.6H3.8C1.7 67.6 0 65.9 0 63.8C0 61.7 1.7 60 3.8 60H88.4C90.5 60 92.2 61.7 92.2 63.8C92.2 65.9 90.5 67.6 88.4 67.6H54.2C53.8 69 52.5 70 51 70ZM3.8 61.8C2.7 61.8 1.8 62.7 1.8 63.8C1.8 64.9 2.7 65.8 3.8 65.8H39.7V66.7C39.7 67.5 40.4 68.2 41.2 68.2H51C51.8 68.2 52.5 67.5 52.5 66.7V65.8H88.4C89.5 65.8 90.4 64.9 90.4 63.8C90.4 62.7 89.5 61.8 88.4 61.8H3.8Z" fill="url(#paint0_linear)"/>
<path d="M45.4998 56.3996C45.1998 56.0996 44.7998 55.8996 44.4998 55.5996C41.3998 52.8996 37.4998 49.5996 24.8998 51.3996C21.4998 51.8996 18.4998 52.0996 16.0998 52.0996C8.1998 52.0996 4.9998 50.1996 4.7998 50.0996L5.7998 48.5996C5.7998 48.5996 7.09981 49.3996 9.99981 49.8996C14.8998 50.7996 20.6998 50.2996 24.5998 49.6996C30.4998 48.8996 35.0998 48.9996 38.7998 50.1996C41.9998 51.1996 43.8998 52.8996 45.5998 54.2996C45.8998 54.5996 46.2998 54.8996 46.5998 55.0996L45.4998 56.3996Z" fill="url(#paint1_linear)"/>
<path d="M45.1996 55.9996C44.7996 55.1996 40.8996 47.7996 28.1996 47.5996C21.6996 47.4996 16.7996 45.8996 13.6996 44.4996C10.3996 42.9996 8.69961 41.5996 8.59961 41.4996L9.79961 40.0996C9.79961 40.0996 11.4996 41.4996 14.5996 42.8996C17.3996 44.1996 22.0996 45.6996 28.2996 45.7996C33.6996 45.8996 38.2996 47.1996 41.9996 49.6996C45.2996 51.9996 46.6996 54.4996 46.9996 55.1996L45.1996 55.9996Z" fill="url(#paint2_linear)"/>
<path d="M88.3998 57.3999C88.0998 57.2999 55.8998 51.8999 46.3998 56.3999L45.9998 56.5999L45.5998 56.3999C36.1998 51.8999 3.89981 57.3999 3.59981 57.3999L3.2998 55.5999C3.3998 55.5999 11.5998 54.1999 20.9998 53.3999C33.2998 52.2999 41.6998 52.6999 45.9998 54.5999C50.2998 52.7999 58.7998 52.3999 70.9998 53.3999C80.2998 54.1999 88.5998 55.5999 88.6998 55.5999L88.3998 57.3999Z" fill="url(#paint3_linear)"/>
<path d="M46.6 56.4L45.5 55C45.8 54.7 46.1 54.5 46.5 54.2C48.2 52.8 50.1 51.1 53.3 50.1C57 48.9 61.6 48.7 67.5 49.6C71.4 50.2 77.2 50.6 82.1 49.8C85 49.3 86.3 48.5 86.3 48.5L87.3 50C87.1 50.1 81.7 53.4 67.2 51.3C54.7 49.5 50.8 52.8 47.6 55.5C47.3 55.8 47 56.1 46.6 56.4Z" fill="url(#paint4_linear)"/>
<path d="M46.8998 55.9996L45.2998 55.1996C45.5998 54.4996 46.9998 51.9996 50.2998 49.6996C53.8998 47.1996 58.4998 45.8996 63.9998 45.7996C70.0998 45.6996 74.7998 44.1996 77.6998 42.8996C80.7998 41.4996 82.3998 40.0996 82.4998 40.0996L83.6998 41.4996C83.5998 41.5996 81.8998 42.9996 78.5998 44.4996C75.5998 45.8996 70.5998 47.4996 64.0998 47.5996C51.1998 47.8996 47.2998 55.1996 46.8998 55.9996Z" fill="url(#paint5_linear)"/>
<path d="M46.1002 28.6L9.7002 14.3L46.1002 0L82.4002 14.3L58.9002 23.5L58.3002 21.8L77.5002 14.3L46.1002 1.9L14.7002 14.3L46.1002 26.6L53.2002 23.8L53.9002 25.5L46.1002 28.6Z" fill="url(#paint6_linear)"/>
<path d="M46.0996 39.7996C40.8996 39.7996 35.8996 38.7996 32.1996 37.0996C28.2996 35.1996 26.0996 32.6996 26.0996 29.8996V20.0996H27.8996V29.8996C27.8996 31.8996 29.7996 33.8996 32.9996 35.3996C36.4996 36.9996 41.1996 37.9996 46.0996 37.9996C48.6996 37.9996 51.1996 37.7996 53.4996 37.2996L53.8996 39.0996C51.3996 39.5996 48.7996 39.7996 46.0996 39.7996Z" fill="url(#paint7_linear)"/>
<path d="M59.2996 37.4004L58.5996 35.7004C62.1996 34.1004 64.2996 32.0004 64.2996 29.9004V19.9004H66.0996V29.9004C66.0996 31.4004 65.3996 32.9004 64.1996 34.2004C62.9996 35.4004 61.3996 36.5004 59.2996 37.4004Z" fill="url(#paint8_linear)"/>
<path d="M55.0997 41.1999C55.0997 40.4999 55.6997 39.7999 56.4997 39.7999C57.1997 39.7999 57.8997 40.3999 57.8997 41.1999C57.8997 41.9999 57.2997 42.5999 56.4997 42.5999C55.7997 42.5999 55.0997 41.9999 55.0997 41.1999ZM55.0997 36.6999C55.0997 35.8999 55.6997 35.2999 56.4997 35.2999C57.1997 35.2999 57.8997 35.8999 57.8997 36.6999C57.8997 37.3999 57.2997 38.0999 56.4997 38.0999C55.7997 38.0999 55.0997 37.4999 55.0997 36.6999ZM55.0997 32.1999C55.0997 31.4999 55.6997 30.7999 56.4997 30.7999C57.1997 30.7999 57.8997 31.3999 57.8997 32.1999C57.8997 32.9999 57.2997 33.5999 56.4997 33.5999C55.7997 33.4999 55.0997 32.8999 55.0997 32.1999ZM55.0997 27.6999C55.0997 26.9999 55.6997 26.2999 56.4997 26.2999C57.1997 26.2999 57.8997 26.8999 57.8997 27.6999C57.8997 28.4999 57.2997 29.0999 56.4997 29.0999C55.7997 28.9999 55.0997 28.3999 55.0997 27.6999ZM55.2997 24.2999C54.6997 23.7999 54.6997 22.8999 55.1997 22.3999C55.6997 21.7999 56.5997 21.7999 57.0997 22.2999C57.6997 22.7999 57.6997 23.6999 57.1997 24.1999C56.8997 24.4999 56.5997 24.6999 56.1997 24.6999C55.8997 24.5999 55.5997 24.4999 55.2997 24.2999ZM51.9997 21.2999C51.3997 20.7999 51.3997 19.8999 51.8997 19.3999C52.3997 18.7999 53.2997 18.7999 53.7997 19.2999C54.3997 19.7999 54.3997 20.6999 53.8997 21.1999C53.5997 21.4999 53.2997 21.6999 52.8997 21.6999C52.4997 21.5999 52.1997 21.4999 51.9997 21.2999ZM48.5997 18.2999C47.9997 17.7999 47.9997 16.8999 48.4997 16.3999C48.9997 15.7999 49.8997 15.7999 50.3997 16.2999C50.9997 16.7999 50.9997 17.6999 50.4997 18.1999C50.1997 18.4999 49.8997 18.6999 49.4997 18.6999C49.0997 18.5999 48.7997 18.4999 48.5997 18.2999ZM45.1997 15.2999C44.5997 14.7999 44.5997 13.8999 45.0997 13.3999C45.5997 12.7999 46.4997 12.7999 46.9997 13.2999C47.5997 13.7999 47.5997 14.6999 47.0997 15.1999C46.7997 15.4999 46.4997 15.6999 46.0997 15.6999C45.6997 15.5999 45.3997 15.4999 45.1997 15.2999Z" fill="url(#paint9_linear)"/>
<defs>
<linearGradient id="paint0_linear" x1="-50.4587" y1="65.1172" x2="73.8254" y2="52.3394" gradientUnits="userSpaceOnUse">
<stop stop-color="#D8BB58"/>
<stop offset="0.1464" stop-color="#ECD26E"/>
<stop offset="0.239" stop-color="#F4DB76"/>
<stop offset="0.4341" stop-color="#E9CC65"/>
<stop offset="0.8173" stop-color="#CEA53A"/>
<stop offset="0.8757" stop-color="#C99F33"/>
</linearGradient>
<linearGradient id="paint1_linear" x1="-18.0763" y1="52.5911" x2="38.6624" y2="49.2005" gradientUnits="userSpaceOnUse">
<stop stop-color="#D8BB58"/>
<stop offset="0.1464" stop-color="#ECD26E"/>
<stop offset="0.239" stop-color="#F4DB76"/>
<stop offset="0.4341" stop-color="#E9CC65"/>
<stop offset="0.8173" stop-color="#CEA53A"/>
<stop offset="0.8757" stop-color="#C99F33"/>
</linearGradient>
<linearGradient id="paint2_linear" x1="-12.4157" y1="48.236" x2="39.8561" y2="46.8283" gradientUnits="userSpaceOnUse">
<stop stop-color="#D8BB58"/>
<stop offset="0.1464" stop-color="#ECD26E"/>
<stop offset="0.239" stop-color="#F4DB76"/>
<stop offset="0.4341" stop-color="#E9CC65"/>
<stop offset="0.8173" stop-color="#CEA53A"/>
<stop offset="0.8757" stop-color="#C99F33"/>
</linearGradient>
<linearGradient id="paint3_linear" x1="-43.4374" y1="55.1514" x2="68.1263" y2="32.0807" gradientUnits="userSpaceOnUse">
<stop stop-color="#D8BB58"/>
<stop offset="0.1464" stop-color="#ECD26E"/>
<stop offset="0.239" stop-color="#F4DB76"/>
<stop offset="0.4341" stop-color="#E9CC65"/>
<stop offset="0.8173" stop-color="#CEA53A"/>
<stop offset="0.8757" stop-color="#C99F33"/>
</linearGradient>
<linearGradient id="paint4_linear" x1="22.6239" y1="52.5426" x2="79.3677" y2="49.1947" gradientUnits="userSpaceOnUse">
<stop stop-color="#D8BB58"/>
<stop offset="0.1464" stop-color="#ECD26E"/>
<stop offset="0.239" stop-color="#F4DB76"/>
<stop offset="0.4341" stop-color="#E9CC65"/>
<stop offset="0.8173" stop-color="#CEA53A"/>
<stop offset="0.8757" stop-color="#C99F33"/>
</linearGradient>
<linearGradient id="paint5_linear" x1="24.2845" y1="48.236" x2="76.5563" y2="46.8283" gradientUnits="userSpaceOnUse">
<stop stop-color="#D8BB58"/>
<stop offset="0.1464" stop-color="#ECD26E"/>
<stop offset="0.239" stop-color="#F4DB76"/>
<stop offset="0.4341" stop-color="#E9CC65"/>
<stop offset="0.8173" stop-color="#CEA53A"/>
<stop offset="0.8757" stop-color="#C99F33"/>
</linearGradient>
<linearGradient id="paint6_linear" x1="-30.0867" y1="14.6353" x2="68.8681" y2="11.8304" gradientUnits="userSpaceOnUse">
<stop stop-color="#D8BB58"/>
<stop offset="0.1464" stop-color="#ECD26E"/>
<stop offset="0.239" stop-color="#F4DB76"/>
<stop offset="0.4341" stop-color="#E9CC65"/>
<stop offset="0.8173" stop-color="#CEA53A"/>
<stop offset="0.8757" stop-color="#C99F33"/>
</linearGradient>
<linearGradient id="paint7_linear" x1="10.8854" y1="30.1806" x2="48.7461" y2="29.5848" gradientUnits="userSpaceOnUse">
<stop stop-color="#D8BB58"/>
<stop offset="0.1464" stop-color="#ECD26E"/>
<stop offset="0.239" stop-color="#F4DB76"/>
<stop offset="0.4341" stop-color="#E9CC65"/>
<stop offset="0.8173" stop-color="#CEA53A"/>
<stop offset="0.8757" stop-color="#C99F33"/>
</linearGradient>
<linearGradient id="paint8_linear" x1="54.4951" y1="28.8556" x2="64.7116" y2="28.8068" gradientUnits="userSpaceOnUse">
<stop stop-color="#D8BB58"/>
<stop offset="0.1464" stop-color="#ECD26E"/>
<stop offset="0.239" stop-color="#F4DB76"/>
<stop offset="0.4341" stop-color="#E9CC65"/>
<stop offset="0.8173" stop-color="#CEA53A"/>
<stop offset="0.8757" stop-color="#C99F33"/>
</linearGradient>
<linearGradient id="paint9_linear" x1="37.5324" y1="28.116" x2="55.4635" y2="28.0273" gradientUnits="userSpaceOnUse">
<stop stop-color="#D8BB58"/>
<stop offset="0.1464" stop-color="#ECD26E"/>
<stop offset="0.239" stop-color="#F4DB76"/>
<stop offset="0.4341" stop-color="#E9CC65"/>
<stop offset="0.8173" stop-color="#CEA53A"/>
<stop offset="0.8757" stop-color="#C99F33"/>
</linearGradient>
</defs>
</svg>
