<svg width="24" height="24" viewBox="0 0 24 24" fill="none" xmlns="http://www.w3.org/2000/svg">
<path fill-rule="evenodd" clip-rule="evenodd" d="M8.41152 5.18477L8.15143 4.92468C7.98623 4.75948 7.71911 4.75948 7.55392 4.92468L4.78428 7.70837L3.43461 6.3587C3.26942 6.19351 3.00229 6.19351 2.8371 6.3587L2.52429 6.67152C2.35909 6.83671 2.35909 7.10383 2.52429 7.26903L4.4328 9.17755C4.598 9.34274 4.86512 9.34274 5.03031 9.17755L5.03734 9.17052L8.40801 5.78579C8.57671 5.61709 8.57671 5.34996 8.41152 5.18477ZM9.36405 7.68369H20.1895C20.3055 7.68369 20.4004 7.58879 20.4004 7.4728V6.62926C20.4004 6.51327 20.3055 6.41837 20.1895 6.41837H9.36405C9.24807 6.41837 9.15317 6.51327 9.15317 6.62926V7.4728C9.15317 7.58879 9.24807 7.68369 9.36405 7.68369ZM20.4004 12.2529V13.0965C20.4004 13.2124 20.3055 13.3073 20.1895 13.3073H9.36405C9.24807 13.3073 9.15317 13.2124 9.15317 13.0965V12.2529C9.15317 12.1369 9.24807 12.042 9.36405 12.042H20.1895C20.3055 12.042 20.4004 12.1369 20.4004 12.2529ZM20.4004 18.7201V17.8766C20.4004 17.7606 20.3055 17.6657 20.1895 17.6657H9.36405C9.24807 17.6657 9.15317 17.7606 9.15317 17.8766V18.7201C9.15317 18.8361 9.24807 18.931 9.36405 18.931H20.1895C20.3055 18.931 20.4004 18.8361 20.4004 18.7201ZM3.54357 18.1577C3.54357 17.4583 4.10944 16.8924 4.80888 16.8924C5.50832 16.8924 6.06014 17.4583 6.06014 18.1577C6.06014 18.8572 5.50832 19.423 4.80888 19.423C4.10944 19.423 3.54357 18.8572 3.54357 18.1577ZM8.16549 10.5483L8.42558 10.8084C8.59078 10.9736 8.59078 11.2407 8.4291 11.4095L5.04438 14.7942L5.0514 14.8012C4.88621 14.9664 4.61909 14.9664 4.45389 14.8012L2.54538 12.8927C2.38018 12.7275 2.38018 12.4604 2.54538 12.2952L2.85116 11.9824C3.01635 11.8172 3.28348 11.8172 3.44867 11.9824L4.79834 13.332L7.56798 10.5483C7.73317 10.3831 8.00029 10.3831 8.16549 10.5483Z" fill="url(#paint0_linear)"/>
<defs>
<linearGradient id="paint0_linear" x1="-7.45055" y1="12.2834" x2="17.065" y2="11.9469" gradientUnits="userSpaceOnUse">
<stop stop-color="#D8BB58"/>
<stop offset="0.1464" stop-color="#ECD26E"/>
<stop offset="0.239" stop-color="#F4DB76"/>
<stop offset="0.4341" stop-color="#E9CC65"/>
<stop offset="0.8173" stop-color="#CEA53A"/>
<stop offset="0.8757" stop-color="#C99F33"/>
</linearGradient>
</defs>
</svg>
