<svg width="99" height="43" viewBox="0 0 99 43" fill="none" xmlns="http://www.w3.org/2000/svg">
<path d="M48.9361 22.502C48.9361 22.1514 48.9748 22.3462 48.8975 22.2683C48.8975 22.6579 48.8975 22.4241 48.9361 22.502Z" fill="white"/>
<path d="M48.7812 22.2673H48.8969V22.229L48.7812 22.2673Z" fill="white"/>
<path d="M49.0142 9.95811C48.9754 9.84125 48.8979 9.68542 48.8591 9.56855C48.8591 9.56855 48.8591 9.56855 48.8591 9.5296C48.5101 10.1139 48.1999 10.6983 47.9672 11.3216C47.5019 12.5292 47.2305 12.9188 47.1529 14.516C47.0366 15.9184 46.9978 16.6585 47.3468 18.0999C47.4631 18.5674 47.6182 18.918 47.6182 19.2686C47.6182 19.5023 47.6182 19.3855 47.7346 19.5802C48.0836 20.0477 48.355 21.0606 48.6652 21.6449C48.8203 21.9176 48.9754 21.9565 49.1305 22.2292L48.9754 22.5019C49.0142 22.9304 49.402 23.5148 49.9448 24.0991C49.9836 24.0991 49.9836 24.0602 50.0224 24.0602C50.2163 24.0212 50.3714 23.9822 50.5265 23.9433C50.5265 23.9043 50.4877 23.8654 50.4877 23.7875C50.6428 23.8654 50.6428 23.8654 50.6816 23.9043C50.7591 23.8654 50.8367 23.8654 50.9142 23.8264C50.9918 23.7875 51.0694 23.7875 51.1469 23.7485C51.2632 23.6706 51.4183 23.6316 51.5347 23.5927C51.5347 23.5148 51.5735 23.4758 51.651 23.4369C51.6898 23.4369 51.7286 23.3979 51.7673 23.359C51.8061 23.359 51.8061 23.359 51.8449 23.32C51.9224 23.281 52 23.2421 52 23.2421C52 23.2421 52 23.2421 52 23.2031H52.0388C52.0388 23.2031 52.0388 23.2031 52.0775 23.2031C52.1163 23.2031 52.1939 23.1642 52.2327 23.1252C52.2714 23.0863 52.349 23.0473 52.349 23.0473C52.3878 23.0473 52.5041 22.9694 52.8143 22.7357C52.8919 22.6967 52.9306 22.6577 52.9694 22.6577C53.0082 22.6577 53.0082 22.6188 53.0082 22.6188C53.0082 22.6188 53.047 22.5798 53.1245 22.5409C53.2021 22.5019 53.2409 22.463 53.2409 22.463C53.2409 22.463 53.2409 22.463 53.2409 22.424H53.2796C53.3184 22.424 53.7449 22.0734 53.7449 22.0345L53.7837 21.9955C53.9388 21.9565 54.6368 20.9826 54.598 20.8658C54.598 20.8658 54.598 20.8268 54.6368 20.8268C54.6368 20.8268 54.7144 20.671 54.7531 20.5152C54.947 19.814 54.947 19.5802 54.8307 18.879C54.7531 18.5674 54.6756 18.2168 54.6756 18.1389C54.6368 18.022 54.6368 17.9441 54.6368 17.9441C54.7144 17.9441 54.7144 17.6714 54.6756 17.5545C54.6368 17.5156 54.4042 17.3208 54.1715 17.126C53.6674 16.7754 53.6674 16.7754 53.5123 16.5417C53.4347 16.4638 53.396 16.3858 53.3572 16.3858C53.3572 16.3858 53.3184 16.3079 53.2796 16.269C53.2409 16.23 53.2021 16.1911 53.2021 16.1911C53.2021 16.1911 53.1633 16.1911 53.1633 16.1521C53.1633 16.1132 53.0082 15.8405 52.8919 15.6457C52.8531 15.6067 52.8143 15.4899 52.7755 15.4119C52.7368 15.334 52.6592 15.1393 52.6204 15.0224C52.5041 14.7886 52.4265 14.477 52.2327 13.9706C52.1551 13.7758 52.1163 13.62 52.0775 13.581C52.0775 13.5421 52 13.4252 51.9612 13.3083C51.8061 12.8409 51.4571 11.9449 51.2245 11.4384C51.1857 11.3216 51.1081 11.1657 51.0694 11.0878C51.0306 11.0099 50.9918 10.8931 50.953 10.8541C50.9143 10.8151 50.8755 10.7372 50.8755 10.6593C50.8367 10.5814 50.7979 10.5035 50.7979 10.5035C50.7979 10.4645 50.7591 10.4256 50.7204 10.3477C50.6816 10.2698 50.6428 10.1918 50.6428 10.1918C50.6428 10.1529 50.5653 10.036 50.4877 9.91916C50.4101 9.80229 50.3326 9.68542 50.3326 9.68542L50.2938 9.64647C50.2938 9.56855 49.7897 8.86735 49.7509 8.86735C49.7122 8.86735 49.7122 8.82839 49.7122 8.82839C49.7122 8.78944 49.5183 8.59466 49.4795 8.5557C49.4795 8.5557 49.402 8.51674 49.3632 8.43883C49.0917 8.12719 48.1611 7.5818 48.1999 7.73763C48.1999 7.77658 48.3162 7.89345 48.355 7.93241C48.3938 7.97136 48.8979 8.67257 48.8979 8.71152C48.8979 8.75048 48.9366 8.75048 48.9366 8.75048C48.9754 8.75048 48.9754 8.78944 48.9754 8.78944C48.9754 8.82839 49.0142 8.9063 49.053 8.94526C49.1693 9.14004 49.4407 9.68542 49.5571 9.91916C49.7122 10.3087 49.7122 10.3087 49.5958 10.5035C49.5571 10.5814 49.4795 10.6593 49.4407 10.7372L49.402 10.6983C49.2856 10.8931 49.1693 11.0878 49.053 11.3216C48.8591 11.5943 48.7815 11.867 48.6264 12.1007C48.4325 12.4123 48.1999 12.4903 48.1223 12.8019C48.1223 12.8409 47.9284 13.7368 47.9284 13.7758C47.9284 14.1264 47.9672 14.0095 47.9672 14.2822C47.9672 14.477 47.9284 14.5549 47.9284 14.8666C47.9284 14.9445 47.9284 15.0224 47.9284 15.0613C47.8509 15.2561 47.8121 16.3858 47.8897 17.0871C47.9284 17.4766 48.006 17.983 48.0835 18.4895C47.0366 15.6067 47.5019 12.4513 49.0142 9.95811ZM47.8509 14.5549C47.8509 14.5939 47.8509 14.6328 47.8509 14.6328V14.5549C47.8509 14.516 47.8509 14.516 47.8509 14.5549Z" fill="white"/>
<path d="M53.357 5.7894C55.7611 4.58176 58.3592 4.62072 60.9572 5.12714C62.6246 5.43879 62.1205 5.39983 63.3614 6.06209C64.6798 6.72434 65.4941 7.69824 66.5411 8.789C66.8901 9.13961 66.6962 8.98378 66.8513 9.37334C66.2309 9.37334 66.2309 8.67214 65.1839 7.85406C63.4002 6.4906 60.647 5.1661 58.2429 5.1661C55.8387 5.1661 53.0855 6.21791 51.4181 7.8151C51.3406 7.89302 51.263 7.97093 51.1855 8.04884C51.263 8.04884 51.3794 8.0878 51.4569 8.12675C51.4957 8.00988 51.6508 7.93197 51.7671 7.97093C51.7284 7.97093 51.7284 8.00988 51.6896 8.00988C51.5345 8.12675 51.4957 8.20466 51.612 8.20466C51.6508 8.20466 51.6896 8.20466 51.6896 8.24362C51.6896 8.24362 51.7284 8.28258 51.8059 8.32153C51.8835 8.32153 51.9998 8.39944 52.1161 8.4384C52.2325 8.47736 52.3876 8.51631 52.4263 8.55527C52.4651 8.55527 52.5427 8.59422 52.5427 8.59422C52.5427 8.59422 52.6202 8.63318 52.659 8.63318C52.6978 8.63318 52.9304 8.75005 53.1243 8.82796C53.3182 8.90587 53.4733 8.98378 53.5121 8.98378H53.5509C53.5896 9.02274 53.8223 9.13961 53.8611 9.13961H53.8999C53.9386 9.17856 54.1713 9.29543 54.2101 9.29543C54.2101 9.29543 54.2488 9.29543 54.2488 9.33439C54.2488 9.33439 54.3264 9.37334 54.3652 9.4123C54.4427 9.4123 54.4815 9.45126 54.4815 9.49021L54.5203 9.52917C54.5591 9.52917 54.6366 9.56812 54.7529 9.60708C55.257 9.84081 55.5285 9.95768 55.5673 9.95768C55.606 9.95768 55.606 9.95768 55.606 9.99664C55.606 9.99664 55.6448 10.0356 55.7224 10.0746C55.8775 10.1135 56.5755 10.4641 56.6142 10.5031L56.653 10.542C56.7693 10.5031 57.9326 11.3601 58.2429 11.7107C58.5531 12.0223 58.747 12.295 58.7857 12.373C58.7857 12.4119 58.8245 12.4119 58.8633 12.4119C58.9408 12.4119 58.9408 12.373 58.7857 12.1003C58.6306 11.8276 58.398 11.5549 58.1265 11.2043C57.9714 11.0484 57.8163 10.8926 57.8163 10.8926C57.8163 10.8926 57.7 10.8147 57.6224 10.7368C57.4673 10.581 57.4673 10.581 57.5449 10.581C57.8163 10.6199 58.2429 10.6589 58.4367 10.6978C58.5143 10.6978 58.5918 10.7368 58.6306 10.7368C58.6694 10.7368 58.7082 10.7368 58.747 10.7368C58.747 10.7368 58.8245 10.7758 58.9021 10.7758C58.9796 10.7758 59.0959 10.7758 59.1735 10.8147C59.4449 10.8926 59.5613 10.8926 59.7552 10.9316C59.8715 10.9705 59.9878 10.9705 60.0266 11.0095C60.1041 11.0095 60.2593 11.0484 60.4144 11.0095C60.6858 10.9705 60.6858 10.9705 60.8409 10.8147C60.9572 10.7368 61.0348 10.6589 61.0348 10.6589L61.0736 10.6199C61.1899 10.5031 61.4226 10.2304 61.6164 10.0746C61.7328 9.95768 61.8491 9.87977 61.8491 9.84081C61.8879 9.80186 62.0818 9.68499 62.1205 9.72395C62.1593 9.72395 62.1205 9.84082 61.8103 10.2693C61.345 10.9316 61.345 10.9705 61.5001 11.2043C61.5777 11.2822 61.6164 11.3991 61.6164 11.438C61.6164 11.5159 61.7715 11.5938 61.8103 11.5938C61.8491 11.5938 61.9654 11.6328 62.0818 11.6328L62.3144 11.7107L62.4695 11.5938C62.5471 11.5159 62.741 11.2822 62.8961 11.0874C63.0512 10.8537 63.2063 10.6978 63.2063 10.6978L63.2451 10.6589C63.2451 10.6199 63.2838 10.6199 63.2838 10.6589C63.3226 10.6978 63.2838 10.8926 63.1675 11.1264C63.1287 11.2043 63.09 11.2822 63.09 11.3601C63.09 11.3991 63.0512 11.438 63.0124 11.477L62.9736 11.5159C62.9736 11.5549 62.9348 11.6328 62.8961 11.7107C62.8573 11.7886 62.8185 11.9055 62.8185 11.9055C62.8185 11.9444 62.8185 11.9444 62.7797 11.9444C62.7797 11.9444 62.7022 12.0613 62.6634 12.1782C62.5859 12.373 62.5471 12.4509 62.5859 12.6456C62.6246 12.8404 62.6634 12.9573 62.8961 13.3469C63.0512 13.5806 63.1675 13.8143 63.2063 13.8533C63.2451 13.8922 63.2451 13.9312 63.2451 13.9701C63.2451 14.0091 63.2838 14.0481 63.3226 14.126C63.3614 14.2039 63.4002 14.2818 63.439 14.3207C63.439 14.3597 63.5165 14.4766 63.5941 14.5934C63.7104 14.7882 63.8267 15.0609 63.9431 15.2946C63.9818 15.4115 63.9818 15.4115 63.9043 15.3726C63.8655 15.3726 63.8267 15.3336 63.8267 15.3336C63.7879 15.2946 63.2838 15.022 63.2451 15.022C63.2063 15.022 63.2063 15.022 63.2063 14.983C63.1675 14.944 62.9349 14.8272 62.5471 14.7103C62.0042 14.5545 61.7328 14.5155 61.7715 14.6324C61.7715 14.6324 61.8103 14.6714 61.8491 14.6714C61.9267 14.6714 62.7022 14.9051 62.8573 15.022C62.8961 15.0609 62.9349 15.0609 62.9736 15.0609C63.0512 15.0609 64.3696 15.9959 64.3696 16.0738L64.4084 16.1127C64.4084 16.1127 64.4859 16.1517 64.5635 16.2296C64.6023 16.3075 64.6798 16.3854 64.7186 16.3854C64.7574 16.3854 64.7961 16.4633 64.7961 16.4633C64.8349 16.5412 64.9125 16.5802 65.0676 16.8139C65.1451 16.8918 65.1839 16.9698 65.1839 16.9698C65.1839 16.9698 65.2227 17.0477 65.2615 17.0866C65.5329 17.3593 66.1533 18.0995 66.1533 18.0995L66.1921 18.1384C66.1921 18.1384 66.2697 18.1774 66.2697 18.2163C66.386 18.3722 66.6187 18.6059 66.6574 18.6449C66.6574 18.6449 66.6962 18.6838 66.735 18.7228C66.8513 18.8396 67.2003 19.2682 67.2779 19.3461C67.3166 19.385 67.3942 19.4629 67.3942 19.5019C67.433 19.5408 67.5493 19.6967 67.7044 19.8915C67.8595 20.0862 67.9758 20.2421 67.9758 20.281C67.9758 20.32 68.0534 20.32 68.0922 20.281C68.0922 20.32 68.1309 20.3589 68.1309 20.3589C68.2085 20.4368 68.2861 20.5537 68.4024 20.6316C68.635 19.9694 68.7901 19.3071 68.9065 18.6059C69.333 16.0348 68.635 14.8272 68.635 14.0091L68.2861 13.2689C68.2473 13.1131 68.1697 12.9183 68.0922 12.7236C68.0534 12.6456 68.0146 12.4898 67.9758 12.4119C67.8983 12.1782 67.6268 11.6717 67.433 11.2822C67.5493 11.3601 67.6656 11.438 67.782 11.5549C67.9758 11.7886 67.8983 11.7886 68.1309 11.9834C68.3248 11.8665 68.2473 11.9055 68.4412 11.8276V11.6717C67.5493 11.5938 67.8207 10.6199 67.2391 9.60708C66.9289 9.13961 66.1921 8.04884 65.8431 7.73719C65.6492 7.58137 65.5717 7.54241 65.3778 7.34763C64.5635 6.4906 65.2615 7.1139 64.0594 6.17895C63.8655 6.02313 63.8655 5.98417 63.5941 5.86731C61.8879 5.12714 62.392 5.04923 61.9654 5.36088L61.345 5.08819C60.6082 4.81549 60.1817 4.8155 59.5613 4.65967L59.2123 4.5428C59.6776 4.5428 59.9878 4.62072 60.5695 4.62072C60.5695 4.62072 60.5307 4.58176 60.5307 4.62072L60.3368 4.5428C60.0654 4.46489 59.8327 4.50385 59.2898 4.38698C58.8245 4.30907 58.398 4.03638 57.9714 4.03638L58.5531 4.50385C56.9244 4.50385 56.5367 4.38698 54.9468 4.8155C54.055 5.04923 52.9692 5.59461 52.1937 6.02313C51.3794 6.4906 50.6426 7.03598 49.9834 7.69824C50.0997 7.77615 50.2161 7.8151 50.3324 7.89302C51.4569 6.91912 52.1937 6.41269 53.357 5.7894ZM58.398 5.63357C58.3204 5.67253 58.2429 5.67253 58.1265 5.67253C58.049 5.67253 57.8163 5.71148 57.5061 5.75044C57.0796 5.78939 56.7306 5.82835 56.3816 5.90626C55.955 5.98417 55.606 6.02313 55.5673 6.06209C55.5673 6.06209 55.3734 6.14 55.2183 6.17895C54.7142 6.33478 54.1325 6.56851 53.6284 6.80225C53.3958 6.91912 53.2407 6.99703 53.0855 7.07494C53.0468 7.1139 52.8917 7.19181 52.8141 7.23076C52.7365 7.26972 52.5814 7.38659 52.5039 7.42554C52.4263 7.4645 52.3488 7.54241 52.31 7.54241C52.2712 7.54241 52.2712 7.58137 52.2712 7.58137C52.2712 7.58137 52.2325 7.62032 52.1549 7.65928C52.1161 7.69824 52.0386 7.69824 52.0386 7.73719C52.0386 7.73719 51.9998 7.77615 51.9222 7.8151C53.4733 6.02313 56.0714 5.63357 58.398 5.63357ZM67.782 10.8537C67.6268 11.0095 67.6656 10.9705 67.6268 11.0874C67.5493 10.9316 67.4717 10.7758 67.433 10.7368C67.3942 10.6978 67.3554 10.6199 67.3166 10.542C67.2391 10.4641 67.1227 10.2693 67.0064 10.1135C67.0064 10.1135 67.0064 10.1135 67.0064 10.0746C67.5105 10.2304 67.1615 10.542 67.782 10.8537ZM59.5225 4.50385C59.1735 4.50385 59.4062 4.50385 59.3286 4.42594C59.6776 4.42594 59.4062 4.42594 59.5225 4.50385Z" fill="white"/>
<path d="M69.4493 11.1646L69.7207 10.8919C68.5574 10.1128 68.984 9.02202 68.3635 8.55455C68.4023 8.90515 68.5186 8.90515 68.5574 9.2168C68.3635 9.06097 68.1309 8.71037 67.9758 8.43768C66.9288 6.84049 66.7349 7.34691 65.8818 6.48988C63.943 4.50313 64.2532 5.43807 63.594 4.81478C63.3225 4.62 63.5552 4.65895 63.1286 4.58104C62.8184 4.50313 62.8184 4.62 62.7797 4.30835C62.4694 4.34731 62.5082 4.34731 62.4307 4.54209C62.6245 4.65895 62.7797 4.69791 63.0511 4.81478C63.6715 5.16538 65.3002 6.17823 65.6492 6.64571C66.2696 7.46378 66.6574 6.99631 68.0921 9.64531C68.2472 9.918 68.4799 10.3465 68.6738 10.814C68.9064 11.3204 69.0615 11.8658 69.1003 12.2554L69.0615 12.2164C68.9064 11.9827 68.9064 11.9827 68.7513 11.9048C68.7513 12.0606 68.7901 12.1774 68.7901 12.3333C68.8289 12.4891 68.8676 12.6449 68.9064 12.8787C68.9064 13.0345 68.9064 13.1903 68.9064 13.3461C68.9064 13.5019 68.9064 13.6967 68.9064 13.8526C68.9064 13.8915 68.9064 13.9305 68.9064 13.9694V14.0084C68.9064 14.0084 68.9064 14.0473 68.9452 14.0473C68.9452 14.0473 68.9452 14.0863 68.984 14.0863L69.0227 14.1252C69.0615 14.1642 69.0615 14.2032 69.1003 14.2421C69.1003 14.2421 69.1003 14.2811 69.1391 14.2811C69.1391 13.9694 69.1003 14.0473 69.1003 13.7746C69.3717 14.0473 69.2166 14.1642 69.6044 14.4369C69.6044 13.1124 69.7207 13.8526 69.6044 12.2164C69.7595 12.3333 69.7983 12.4891 69.9146 12.7228C70.2248 12.4891 69.9534 11.9048 69.7595 11.5931L69.4493 11.1646Z" fill="white"/>
<path d="M69.2945 22.7746C69.0619 22.6187 68.868 22.5019 68.8292 22.5019C68.8292 22.5019 68.7517 22.5019 68.7517 22.4629C68.6741 22.385 68.2088 22.2292 68.1312 22.2292C68.0925 22.2292 68.0925 22.2292 68.0537 22.1902C68.0537 22.1513 67.6659 22.0344 67.3169 21.9565C67.2781 21.9565 67.1618 21.9175 67.0455 21.8786C66.9292 21.8396 66.8128 21.8396 66.8128 21.8396C66.774 21.8396 66.7353 21.8396 66.7353 21.8396C66.6965 21.8396 66.5802 21.8007 66.3863 21.7617C66.2312 21.7228 66.0373 21.7228 65.9985 21.6838C65.9597 21.6838 65.8434 21.6448 65.7659 21.6448C65.6883 21.6448 65.4944 21.6059 65.3781 21.6059C64.9903 21.5669 64.6801 21.528 64.4087 21.528C64.2536 21.528 63.9821 21.528 63.7495 21.489C63.5168 21.489 63.1678 21.489 62.8964 21.4501C62.6637 21.4501 62.3147 21.4501 62.1208 21.4501C61.9657 21.4501 61.6555 21.4501 61.5004 21.4111C61.3453 21.4111 61.1126 21.3722 60.9963 21.3722C60.88 21.3722 60.8024 21.3332 60.7636 21.3332C60.7249 21.3332 60.6861 21.2942 60.6861 21.2942C60.6085 21.2942 59.9881 21.1384 59.9493 21.0995C59.9493 21.0995 59.833 21.0605 59.7167 21.0215C59.6003 20.9826 59.2901 20.7878 59.0187 20.593C58.7473 20.3983 58.4758 20.2424 58.437 20.2424C58.3207 20.2424 58.1268 20.3203 58.0881 20.3983C58.0493 20.4372 57.7778 20.4762 57.7003 20.4372C57.6227 20.3983 57.0023 20.4372 56.7696 20.4762C56.6921 20.4762 56.4982 20.5541 56.3819 20.593C56.2268 20.632 55.9941 20.7489 55.839 20.8268C55.5676 20.9826 55.1022 21.2942 55.1022 21.3722C55.1022 21.3722 55.1022 21.4111 55.0635 21.4111C55.0247 21.4111 54.7533 21.6838 54.7145 21.8007C54.5981 21.9565 53.7838 22.7356 53.7063 22.7356C53.6675 22.7356 53.6675 22.7746 53.6675 22.7746C53.6675 22.8135 53.5124 22.9304 53.241 23.0862C53.1634 23.1641 53.0471 23.2031 53.0083 23.242C52.9695 23.281 52.892 23.3199 52.8144 23.3199C52.7369 23.3589 52.6593 23.3979 52.6205 23.3979C52.5817 23.4368 52.3879 23.5147 52.194 23.5926C52.0001 23.6706 51.8062 23.7485 51.7674 23.7485C51.6123 23.8264 51.2246 23.9432 50.7592 24.0991C50.6041 24.0991 50.449 24.138 50.2551 24.138C49.751 24.2159 48.1612 24.6834 47.7347 24.9171C47.2693 25.1509 46.9591 25.3067 46.7652 25.4236C46.5326 25.5794 45.7958 26.0469 45.7183 26.1637C45.6795 26.2027 45.6019 26.2806 45.5244 26.3196C45.2917 26.5143 45.2529 26.5533 45.0978 26.7091C45.0203 26.787 44.9039 26.9039 44.8264 26.9818C44.7488 27.0597 44.6713 27.1376 44.6713 27.1376C44.5162 27.2545 43.8182 28.1505 43.7406 28.3063C43.7406 28.3063 43.6631 28.4232 43.5855 28.579C43.3917 28.8906 42.8876 29.7866 42.81 30.0593C42.7712 30.1762 42.7324 30.2541 42.6937 30.2541V30.2931C42.6937 30.332 42.6937 30.332 42.6937 30.332C42.6937 30.332 42.6549 30.4099 42.6161 30.5268C42.5773 30.6047 42.5386 30.6826 42.5386 30.7216C42.5386 30.7216 42.4998 30.7605 42.5386 30.7605C42.5386 30.7995 42.461 31.0332 42.461 31.0722V31.1111C42.461 31.1111 42.461 31.228 42.4222 31.3059C42.3835 31.3838 42.3447 31.5396 42.3447 31.6176C42.3447 31.6955 42.3059 31.8123 42.2671 31.8903C42.1896 32.2798 42.112 32.7862 42.0732 33.4485C42.0732 33.5264 42.0732 33.7212 42.0732 33.916C42.0732 35.4352 42.4222 36.8377 43.0814 38.0842C43.4304 38.7075 43.5468 38.9413 43.9733 39.4867C44.206 39.7983 44.7488 40.3826 45.0978 40.6553C45.1366 40.6943 45.2142 40.7332 45.2529 40.7722C45.2917 40.8112 45.3305 40.8112 45.3305 40.8112C45.3305 40.8112 45.3693 40.8112 45.3693 40.8501C45.3693 40.8891 45.408 40.928 45.4856 40.928C45.5244 40.967 45.6019 41.0059 45.6407 41.0449C45.6795 41.0838 45.6795 41.0838 45.6407 41.0059C45.6019 40.967 45.6019 40.928 45.5632 40.928C45.4468 40.8891 44.7488 40.1099 44.2835 39.5256C44.1672 39.4087 43.857 38.9023 43.7406 38.6686C43.0814 37.5389 42.6549 36.2144 42.5773 34.9678C42.5773 34.734 42.5386 34.5003 42.5386 34.4224C42.5386 34.3445 42.5386 34.2666 42.5386 34.2276C42.5386 34.1887 42.5386 34.1107 42.5386 34.0718C42.5386 33.9939 42.5386 33.877 42.5386 33.838C42.5386 33.6433 42.5773 33.4874 42.5773 33.2927C42.6161 32.9421 42.6937 32.2019 42.7324 32.1629C42.7324 32.124 42.7712 31.9292 42.81 31.8123C42.81 31.7734 42.8488 31.6955 42.8488 31.6955C42.8488 31.6955 42.8876 31.6565 42.8488 31.6565C42.8488 31.6176 43.159 30.5657 43.2365 30.4489C43.2365 30.4489 43.3141 30.2931 43.3529 30.1762C43.508 29.8645 43.7794 29.3192 43.9733 29.0075C44.0509 28.8906 44.1284 28.7738 44.1284 28.7348C44.1672 28.6959 44.555 28.1505 44.555 28.1505C44.555 28.1505 44.7101 27.9947 44.8652 27.8388C45.3305 27.2935 46.106 26.5922 46.6489 26.2416C47.1142 25.93 47.1918 25.891 47.7347 25.6183C48.1612 25.3846 49.0531 25.073 49.6347 24.9561C49.9449 24.8782 50.2939 24.8392 50.6041 24.7613C51.3021 25.4236 52.1164 26.0469 52.6205 26.3975C53.7063 27.0208 55.0247 27.4103 56.2268 27.7999C56.886 28.0336 57.6227 28.0726 58.5146 28.0336C59.9881 27.9947 61.3841 27.6441 62.6637 27.0987C63.478 26.7481 64.2923 26.2806 64.9903 25.7352C65.9985 24.9561 66.8516 24.0212 67.5108 22.9304C67.3945 22.9304 67.0067 22.9304 66.8516 22.8914C66.9679 22.7356 66.9679 22.7356 67.0843 22.7356C67.1618 22.7356 67.2781 22.7356 67.3557 22.7356C67.5108 22.7356 67.7435 22.7746 68.0925 22.8135C68.2863 22.8525 68.3251 22.8525 68.6353 22.9304C68.7517 22.9693 68.868 22.9693 68.868 22.9693C68.9068 22.9693 68.9455 22.9693 68.9455 23.0083L68.9843 23.0473C69.0619 23.0473 69.4109 23.1641 69.4109 23.1641L69.4496 23.2031C69.4884 23.2031 69.566 23.242 69.6823 23.281C69.7986 23.32 69.915 23.3589 69.915 23.3589C69.9925 23.3199 69.6823 23.0473 69.2945 22.7746ZM51.3021 24.6834C51.3409 24.6834 51.3797 24.6834 51.3797 24.6834C51.3797 24.7224 51.4184 24.7224 51.4184 24.7613C51.3797 24.7224 51.3409 24.7224 51.3021 24.6834ZM51.5348 24.8782C51.845 24.9561 51.6899 24.9561 51.8838 25.1119C52.5042 25.5794 53.0858 25.891 53.8226 26.2027C54.094 26.3196 54.4043 26.4364 54.5981 26.5922C53.6287 26.6312 51.845 25.3846 51.5348 24.8782Z" fill="white"/>
<path d="M30.9053 8.16521C30.7114 7.97043 30.5563 7.8146 30.2849 7.65878C29.8584 7.30818 29.5094 7.03549 28.9277 6.76279C25.2827 4.89291 19.9703 5.78889 17.4498 9.06119C15.4722 11.5933 15.2783 12.9957 15.0068 16.0733C15.0068 16.3459 15.0456 16.3849 15.1232 16.6576C15.1619 17.5536 15.1232 18.099 15.317 18.8781C15.7824 20.8259 16.2477 21.605 17.4498 23.0853C18.2641 24.0982 19.9315 25.111 21.2111 25.6175C22.2969 26.046 23.9255 26.3576 25.4766 26.3576C27.9195 26.3576 30.1298 25.9291 31.8748 24.6825C32.1462 24.5267 33.2319 23.6307 33.2319 23.358C33.2319 22.7347 32.5727 21.5271 32.3013 21.0207C31.9911 20.4753 31.3707 19.4235 30.9441 19.0339C30.5951 19.1118 29.4318 19.9299 28.7726 20.2415C28.4236 20.3974 27.8807 20.5921 27.5317 20.6701C25.8256 21.0986 23.3051 20.7869 22.2581 19.5403C22.0642 19.3066 21.754 18.7612 21.754 18.3717C22.2581 18.3717 22.9561 18.2937 23.4602 18.2158C24.0418 18.1769 24.6623 18.1379 25.2439 18.06C25.5541 18.0211 25.8643 18.0211 26.1358 17.9821C27.8032 17.8263 30.9441 17.6315 32.3401 17.3978C32.9605 17.3198 33.2707 17.164 33.5422 16.6966C34.5503 15.1383 33.5034 11.5544 32.4564 9.99613C32.0299 9.48971 31.3707 8.55477 30.9053 8.16521ZM24.9725 14.3982C24.1969 14.515 23.3439 14.5929 22.5295 14.5929C22.0254 14.5929 21.3275 14.7488 21.3275 14.1644C21.3275 12.6451 22.3744 10.97 23.8867 10.97C24.5459 10.97 24.7786 10.9311 25.399 11.2427C26.2133 11.7102 27.0276 12.6841 27.0276 13.8528C26.9889 14.2813 25.5154 14.3202 24.9725 14.3982Z" fill="white"/>
<path d="M85.7355 13.1911C86.5498 13.3469 86.4722 13.8534 86.4722 14.5935C86.4722 17.1646 86.3171 19.6188 86.3171 22.2678C86.3171 22.8522 86.5886 23.6702 86.7825 24.0209C87.9458 25.9686 90.1173 26.1634 92.2888 26.1634C94.3052 26.1634 96.0889 25.5401 97.4461 24.8C98.7645 24.0988 98.1053 24.0988 98.4543 21.7614C98.5706 21.1771 98.7257 20.1253 98.493 19.6188C97.2522 19.3461 93.6459 21.3329 93.2194 18.2554C93.1031 17.671 93.1806 17.0867 93.1031 16.4634C92.9867 15.4895 92.948 14.204 93.2194 13.2301H97.2522C98.3379 13.2301 97.8726 13.0353 97.9889 9.80194C97.9889 9.41238 98.1053 8.94491 98.144 8.59431L98.1828 7.2698C97.5624 6.84129 96.8256 7.07502 96.2052 7.11398L93.8786 7.19189C92.9867 7.19189 93.1031 6.76338 93.1031 5.9453C93.1031 5.20514 93.1031 4.2702 93.2194 3.60795C93.3357 3.02361 93.3745 1.73806 93.2582 1.23164C92.3275 0.9979 90.9704 0.881032 89.9622 0.764164C86.511 0.374605 86.2784 -0.871985 86.2008 2.63405C86.2008 3.21839 86.3171 3.49108 86.3171 4.03646C86.3171 4.54289 86.3171 5.04932 86.3171 5.55574C86.3171 6.02321 86.3171 6.80233 86.2008 7.2698C86.162 7.58145 86.0457 7.62041 85.6967 7.65936C84.96 7.73728 84.7661 7.69832 84.2232 8.04892C84.262 9.37342 84.3783 10.5811 84.2232 11.8666C84.0293 13.6196 84.8436 13.0353 85.7355 13.1911Z" fill="white"/>
<path d="M11.982 6.80122C9.81053 6.95704 7.87169 8.71006 7.32881 8.74902C7.29004 8.39841 7.21248 8.00885 7.13493 7.61929C7.09615 7.19078 7.09616 6.68435 6.86349 6.45062C6.59206 6.25584 5.00221 6.6454 4.53689 6.76226L0.891866 7.3466C0.465321 7.38556 0 7.42451 0 7.85303L0.465322 10.0346C0.620429 10.8916 0.620429 11.6318 0.775536 12.4888C0.96942 13.7743 0.891866 23.2796 0.891866 24.7599C0.891866 25.3832 0.85309 25.578 1.35719 25.7338C2.01639 25.9286 6.5145 25.9675 7.5227 25.8117C8.33701 25.6948 7.98802 24.7209 7.98802 23.9808C7.87169 22.3836 7.87169 20.7474 7.87169 19.0334C7.87169 17.5531 7.56148 15.5663 8.37579 14.7093C9.1901 13.9302 11.4004 14.2418 12.9127 14.2418C13.9596 14.2418 13.5331 12.294 13.5331 10.9695C13.5331 9.91769 13.6882 8.98275 13.727 7.9699C13.7658 7.07391 14.1148 6.6454 11.982 6.80122Z" fill="white"/>
<path d="M81.6253 6.80207C80.3069 6.87998 78.6007 7.73701 77.5537 8.47717C77.3598 8.633 77.2823 8.71091 76.9721 8.74987C76.1578 5.08801 77.9803 6.52938 70.4964 7.34745C70.1474 7.38641 69.6045 7.42536 69.6045 7.85388L70.0698 10.0354C70.2249 10.8924 70.2637 11.6326 70.38 12.4896C70.5739 13.7752 70.5351 23.2804 70.4964 24.7608C70.4964 25.384 70.4964 25.5788 70.9617 25.7347C71.6209 25.9294 76.1578 25.9684 77.1272 25.8126C77.9803 25.6957 77.6313 24.7218 77.5925 23.9816C77.4762 22.3844 77.4762 20.7483 77.4762 19.0342C77.4762 17.5539 77.166 15.5672 78.0578 14.7101C78.8334 13.931 81.0824 14.2427 82.5559 14.2427C83.6029 14.2427 83.1764 12.2949 83.1764 10.9704C83.1764 9.91854 83.3315 8.9836 83.3703 7.97075C83.4478 7.07476 83.758 6.64624 81.6253 6.80207Z" fill="white"/>
<path d="M46.1444 22.7359C47.6567 20.4375 47.2302 17.399 45.2526 15.3732L44.2444 14.3214C43.6627 13.5813 42.7709 12.958 43.3525 11.6724C43.6627 10.8933 44.826 10.3479 45.9506 10.3479C46.5322 10.3479 46.7261 10.4258 47.269 10.4258C47.3078 10.0752 47.3853 10.3479 47.3853 9.99733C47.3853 9.37403 46.4934 8.01058 46.222 7.5431C45.9506 7.15355 45.0199 5.36157 44.6709 5.36157C41.7627 5.36157 39.3973 6.49129 37.6523 8.24431C36.6441 9.25716 35.9849 10.6985 35.9849 12.1789C35.9849 13.0359 36.1788 13.7761 36.489 14.3993C37.0707 15.568 37.5748 15.8018 38.3115 16.6977C38.8932 17.4379 39.8238 18.1781 39.8238 19.3467C39.8238 20.3206 38.8156 20.905 38.0013 21.0998C37.4972 21.2166 36.9931 21.2945 36.489 21.3725C36.2951 21.4114 36.0237 21.4504 35.7135 21.5283C35.5584 21.5672 35.1318 21.6062 35.1318 21.801C35.1318 22.3853 36.1788 23.9435 36.489 24.411C36.6829 24.8395 37.8462 26.5926 38.3115 26.5926C40.1728 26.5926 42.577 25.6187 44.0893 24.6058C45.0199 23.9825 45.6016 23.5929 46.1444 22.7359Z" fill="white"/>
<path d="M54.0937 33.7598C53.861 33.4871 53.5896 33.2534 53.2018 33.0975C52.814 32.9417 52.3487 32.8638 51.8058 32.8638C51.612 32.8638 51.4181 32.9027 51.2242 32.9417C51.0303 32.9807 50.8364 33.0196 50.7201 33.0586V29.7473L48.7812 30.059V39.9538H50.7201V34.6947C50.8364 34.6558 50.9915 34.6168 51.1466 34.5779C51.3017 34.5389 51.4568 34.5389 51.6507 34.5389C52.0773 34.5389 52.3875 34.6558 52.5426 34.9285C52.6977 35.2012 52.7753 35.6297 52.7753 36.253V39.9148H54.7141V36.0192C54.7141 35.5518 54.6753 35.1232 54.559 34.7337C54.4814 34.3831 54.3263 34.0325 54.0937 33.7598Z" fill="white"/>
<path d="M62.8182 33.8376C62.508 33.5259 62.159 33.2922 61.7324 33.0974C61.3059 32.9026 60.8793 32.8247 60.3752 32.8247C59.8711 32.8247 59.4446 32.9026 59.0181 33.0974C58.5915 33.2922 58.2425 33.5259 57.9323 33.8376C57.6221 34.1492 57.3894 34.5388 57.2343 34.9673C57.0792 35.3958 56.9629 35.9022 56.9629 36.4476C56.9629 36.993 57.0404 37.4994 57.1955 37.9279C57.3507 38.3954 57.5833 38.785 57.8935 39.0966C58.2037 39.4083 58.5527 39.6809 58.9793 39.8368C59.4058 40.0316 59.8711 40.1095 60.3752 40.1095C60.8793 40.1095 61.3447 40.0316 61.7712 39.8368C62.1978 39.642 62.5468 39.4083 62.857 39.0966C63.1672 38.785 63.3998 38.3954 63.555 37.9279C63.7101 37.4605 63.7876 36.993 63.7876 36.4476C63.7876 35.9022 63.7101 35.3958 63.555 34.9673C63.3611 34.5388 63.1284 34.1492 62.8182 33.8376ZM61.4222 37.9279C61.1896 38.2785 60.8406 38.4733 60.3752 38.4733C59.9487 38.4733 59.5997 38.2785 59.3283 37.9279C59.0956 37.5773 58.9793 37.1099 58.9793 36.4866C58.9793 35.8633 59.0956 35.3958 59.3283 35.0452C59.5609 34.6946 59.9099 34.5388 60.3752 34.5388C60.8018 34.5388 61.1508 34.6946 61.4222 35.0452C61.6549 35.3958 61.7712 35.8633 61.7712 36.4866C61.7712 37.0709 61.6549 37.5773 61.4222 37.9279Z" fill="white"/>
<path d="M68.286 38.1228C68.2085 38.0449 68.1697 37.8891 68.1309 37.7722C68.0922 37.6164 68.0922 37.4606 68.0922 37.3048V29.7473L66.1533 30.059V37.6943C66.1533 38.0449 66.1921 38.3955 66.2697 38.7072C66.3472 39.0188 66.5023 39.2526 66.6962 39.4473C66.8901 39.6421 67.2003 39.7979 67.5493 39.9148C67.8983 40.0317 68.3636 40.1096 68.9453 40.1096L69.2167 38.4734C68.984 38.4734 68.7901 38.4345 68.635 38.3566C68.4799 38.2787 68.3636 38.2007 68.286 38.1228Z" fill="white"/>
<path d="M72.0861 29.8633C71.7759 29.8633 71.5045 29.9801 71.2718 30.1749C71.0392 30.3697 70.9229 30.6814 70.9229 31.032C70.9229 31.3826 71.0392 31.6942 71.2718 31.889C71.5045 32.0838 71.7759 32.2006 72.0861 32.2006C72.3964 32.2006 72.6678 32.0838 72.9004 31.889C73.1331 31.6942 73.2494 31.3826 73.2494 31.032C73.2494 30.6814 73.1331 30.3697 72.9004 30.1749C72.7066 29.9801 72.4351 29.8633 72.0861 29.8633Z" fill="white"/>
<path d="M73.055 33.0198H71.1162V39.9539H73.055V33.0198Z" fill="white"/>
<path d="M79.919 33.1754C79.6864 33.0975 79.4925 33.0196 79.2598 32.9417C79.0272 32.9027 78.7945 32.8638 78.5231 32.8638C78.019 32.8638 77.5924 32.9417 77.2046 33.0975C76.8169 33.2533 76.5067 33.4871 76.2352 33.8377C75.9638 34.1493 75.7699 34.5389 75.6148 35.0064C75.4597 35.4738 75.4209 35.9803 75.4209 36.5256C75.4209 37.071 75.4985 37.5775 75.6536 38.006C75.8087 38.4345 76.0413 38.824 76.3515 39.1357C76.6618 39.4473 77.0495 39.6811 77.4761 39.8369C77.9026 39.9927 78.4455 40.0706 78.9884 40.0706C79.221 40.0706 79.4537 40.0706 79.7251 40.0317C79.9966 39.9927 80.2292 39.9927 80.5007 39.9538C80.7333 39.9148 81.0048 39.8759 81.1987 39.8369C81.4313 39.7979 81.6252 39.72 81.8191 39.6811V29.7473L79.8802 30.059L79.919 33.1754ZM79.919 38.3955C79.8415 38.3955 79.6864 38.4345 79.57 38.4345C79.4149 38.4345 79.2598 38.4734 79.0659 38.4734C78.5231 38.4734 78.1353 38.2787 77.8638 37.9281C77.5924 37.5775 77.4761 37.071 77.4761 36.4477C77.4761 35.2011 77.9414 34.5389 78.872 34.5389C79.0659 34.5389 79.2598 34.5778 79.4537 34.6168C79.6476 34.6558 79.8027 34.7337 79.919 34.8116V38.3955Z" fill="white"/>
<path d="M89.3804 33.6038C89.1477 33.3701 88.8375 33.1753 88.4497 33.0195C88.062 32.9026 87.5966 32.8247 87.015 32.8247C86.7823 32.8247 86.5497 32.8247 86.3558 32.8637C86.1231 32.9026 85.9292 32.9026 85.7354 32.9416C85.5415 32.9805 85.3476 33.0195 85.1925 33.0584C85.0374 33.0974 84.8823 33.1364 84.7659 33.1753L84.9986 34.7725C85.2313 34.6946 85.5027 34.6167 85.8517 34.5777C86.1619 34.5388 86.5109 34.4998 86.8211 34.4998C87.3252 34.4998 87.6742 34.6167 87.8681 34.8115C88.062 35.0062 88.1783 35.2789 88.1783 35.6295V35.8243C88.062 35.7854 87.9069 35.7464 87.713 35.7464C87.5191 35.7074 87.2864 35.7074 87.0538 35.7074C86.666 35.7074 86.317 35.7464 85.968 35.8243C85.619 35.9022 85.3088 36.0191 85.0374 36.1749C84.7659 36.3307 84.5333 36.5645 84.3782 36.8372C84.2231 37.1099 84.1455 37.4605 84.1455 37.85C84.1455 38.2785 84.2231 38.6291 84.3394 38.9018C84.4945 39.1745 84.6884 39.4083 84.9598 39.603C85.2313 39.7978 85.5415 39.9147 85.8905 39.9926C86.2395 40.0705 86.666 40.1095 87.0925 40.1095C87.7905 40.1095 88.411 40.0705 88.9151 39.9926C89.4192 39.9147 89.8069 39.8368 90.0784 39.7589V35.6685C90.0784 35.24 90.0396 34.8504 89.9233 34.4998C89.7682 34.1492 89.6131 33.8765 89.3804 33.6038ZM88.1395 38.5512C88.0232 38.5512 87.9069 38.5902 87.713 38.5902C87.5191 38.5902 87.364 38.5902 87.1701 38.5902C86.8211 38.5902 86.5109 38.5123 86.317 38.3954C86.1231 38.2785 86.0068 38.0448 86.0068 37.7721C86.0068 37.6163 86.0456 37.4994 86.1231 37.3825C86.2007 37.2657 86.2782 37.1878 86.3946 37.1488C86.5109 37.1099 86.666 37.0319 86.8211 37.0319C86.9762 36.993 87.1701 36.993 87.3252 36.993C87.4415 36.993 87.5966 36.993 87.7518 37.0319C87.9069 37.0319 88.0232 37.0709 88.1007 37.0709V38.5512H88.1395Z" fill="white"/>
<path d="M96.5933 33.0197C96.5158 33.3703 96.3994 33.7209 96.2831 34.1494C96.1668 34.5389 96.0504 34.9675 95.9341 35.357C95.8178 35.7466 95.7015 36.1751 95.5851 36.5647C95.4688 36.9542 95.3525 37.3048 95.2361 37.6165C95.1198 37.3048 94.9647 36.9542 94.8484 36.5647C94.6932 36.1751 94.5769 35.7855 94.4606 35.357C94.3443 34.9675 94.1891 34.5389 94.0728 34.1494C93.9565 33.7598 93.8402 33.3703 93.7626 33.0197H91.7074C92.0952 34.3831 92.5217 35.5908 92.9483 36.6815C93.4136 37.7723 93.8402 38.7462 94.3055 39.6422C94.1892 39.9928 94.0341 40.2265 93.8402 40.4213C93.6463 40.6161 93.3748 40.694 93.0259 40.694C92.832 40.694 92.6769 40.694 92.5217 40.655C92.3666 40.6161 92.1728 40.5771 91.9789 40.4992L91.6299 42.0574C91.785 42.1354 92.0177 42.1743 92.2503 42.2522C92.5218 42.2912 92.7932 42.3301 93.1034 42.3301C93.4524 42.3301 93.8014 42.2912 94.0728 42.2133C94.3443 42.1354 94.5769 41.9795 94.8096 41.8237C95.0422 41.6289 95.2361 41.4342 95.43 41.1225C95.6239 40.8498 95.779 40.4992 95.9729 40.1096C96.477 39.0189 96.9423 37.8892 97.3688 36.7205C97.7954 35.5518 98.2219 34.3052 98.6097 32.9807H96.5933V33.0197Z" fill="white"/>
</svg>
