<svg width="42" height="42" viewBox="0 0 42 42" fill="none" xmlns="http://www.w3.org/2000/svg">
<path d="M40.5631 11.366L29.8631 0.24757C29.7107 0.0894141 29.5006 0 29.281 0H13.3333C11.5486 0 10.0966 1.45146 10.0966 3.23548V14.5385H3.63356C2.29825 14.5385 1.21191 15.6245 1.21191 16.9595V29.0791C1.21191 30.414 2.29825 31.5 3.63356 31.5H10.0966V38.7702C10.0966 40.5511 11.5486 42 13.3333 42H37.5521C39.3368 42 40.7889 40.5519 40.7889 38.772V11.9261C40.7889 11.7173 40.7079 11.5165 40.5631 11.366ZM29.4812 2.18047L38.265 11.3077H29.4812V2.18047ZM3.63356 29.8846C3.18895 29.8846 2.82736 29.5233 2.82736 29.0791V16.9595C2.82736 16.5153 3.18903 16.1538 3.63356 16.1538H25.4442C25.8888 16.1538 26.2504 16.5153 26.2504 16.9595V29.0791C26.2504 29.5233 25.8887 29.8846 25.4442 29.8846H3.63356ZM39.1734 38.772C39.1734 39.6612 38.4461 40.3846 37.552 40.3846H13.3333C12.4393 40.3846 11.7119 39.6605 11.7119 38.7703V31.5H25.4442C26.7795 31.5 27.8658 30.414 27.8658 29.0791V16.9595C27.8658 15.6245 26.7795 14.5385 25.4442 14.5385H11.7119V3.23548C11.7119 2.34207 12.4393 1.61536 13.3333 1.61536H27.8658V12.1154C27.8658 12.5614 28.2274 12.923 28.6734 12.923H39.1734V38.772Z" fill="url(#paint0_linear)"/>
<path d="M10.8675 20.4981C10.5994 20.1494 10.2665 19.923 9.86895 19.8189C9.61023 19.7495 9.05496 19.7148 8.20306 19.7148H5.95508V26.6528H7.35593V24.0357H8.26934C8.90353 24.0357 9.38784 24.0025 9.72228 23.9363C9.96837 23.8826 10.2105 23.773 10.4488 23.6073C10.687 23.4417 10.8834 23.2137 11.038 22.9235C11.1926 22.6333 11.2699 22.2751 11.2699 21.8492C11.2698 21.2971 11.1357 20.8467 10.8675 20.4981ZM9.66781 22.4077C9.56216 22.5623 9.41622 22.6758 9.23001 22.7484C9.0438 22.821 8.67474 22.8573 8.12259 22.8573H7.35593V20.8885H8.03268C8.5375 20.8885 8.8735 20.9043 9.04068 20.9359C9.26783 20.9769 9.4556 21.0794 9.60383 21.2435C9.75214 21.4076 9.8263 21.6158 9.8263 21.8682C9.82638 22.0732 9.77347 22.2531 9.66781 22.4077Z" fill="url(#paint1_linear)"/>
<path d="M18.0042 21.6103C17.8528 21.167 17.6319 20.7923 17.3417 20.4863C17.0514 20.1802 16.7027 19.9673 16.2958 19.8473C15.9929 19.759 15.5527 19.7148 14.9754 19.7148H12.415V26.6528H15.0511C15.5686 26.6528 15.9818 26.6039 16.291 26.506C16.7044 26.3736 17.0325 26.189 17.2754 25.9523C17.5972 25.64 17.8449 25.2314 18.0184 24.7266C18.1604 24.3133 18.2314 23.8211 18.2314 23.2501C18.2314 22.6001 18.1557 22.0536 18.0042 21.6103ZM16.6412 24.4593C16.5465 24.7701 16.4243 24.9933 16.2744 25.1289C16.1246 25.2646 15.9361 25.3608 15.7089 25.4176C15.5354 25.4618 15.253 25.4839 14.8618 25.4839H13.8159V20.8885H14.4453C15.0163 20.8885 15.3997 20.9106 15.5953 20.9548C15.8572 21.0116 16.0733 21.1204 16.2437 21.2814C16.4141 21.4423 16.5465 21.6663 16.6412 21.9534C16.7359 22.2405 16.7832 22.6522 16.7832 23.1886C16.7832 23.7249 16.7359 24.1485 16.6412 24.4593Z" fill="url(#paint2_linear)"/>
<path d="M24.185 20.8885V19.7148H19.4287V26.6528H20.8296V23.7044H23.7259V22.5307H20.8296V20.8885H24.185Z" fill="url(#paint3_linear)"/>
<defs>
<linearGradient id="paint0_linear" x1="-20.4475" y1="21.4924" x2="33.4595" y2="20.926" gradientUnits="userSpaceOnUse">
<stop stop-color="#D8BB58"/>
<stop offset="0.1464" stop-color="#ECD26E"/>
<stop offset="0.239" stop-color="#F4DB76"/>
<stop offset="0.4341" stop-color="#E9CC65"/>
<stop offset="0.8173" stop-color="#CEA53A"/>
<stop offset="0.8757" stop-color="#C99F33"/>
</linearGradient>
<linearGradient id="paint1_linear" x1="3.04642" y1="23.2652" x2="10.2859" y2="23.2033" gradientUnits="userSpaceOnUse">
<stop stop-color="#D8BB58"/>
<stop offset="0.1464" stop-color="#ECD26E"/>
<stop offset="0.239" stop-color="#F4DB76"/>
<stop offset="0.4341" stop-color="#E9CC65"/>
<stop offset="0.8173" stop-color="#CEA53A"/>
<stop offset="0.8757" stop-color="#C99F33"/>
</linearGradient>
<linearGradient id="paint2_linear" x1="9.2319" y1="23.2652" x2="17.1544" y2="23.1911" gradientUnits="userSpaceOnUse">
<stop stop-color="#D8BB58"/>
<stop offset="0.1464" stop-color="#ECD26E"/>
<stop offset="0.239" stop-color="#F4DB76"/>
<stop offset="0.4341" stop-color="#E9CC65"/>
<stop offset="0.8173" stop-color="#CEA53A"/>
<stop offset="0.8757" stop-color="#C99F33"/>
</linearGradient>
<linearGradient id="paint3_linear" x1="16.8257" y1="23.2652" x2="23.3045" y2="23.2156" gradientUnits="userSpaceOnUse">
<stop stop-color="#D8BB58"/>
<stop offset="0.1464" stop-color="#ECD26E"/>
<stop offset="0.239" stop-color="#F4DB76"/>
<stop offset="0.4341" stop-color="#E9CC65"/>
<stop offset="0.8173" stop-color="#CEA53A"/>
<stop offset="0.8757" stop-color="#C99F33"/>
</linearGradient>
</defs>
</svg>
