<svg width="1920" height="364" viewBox="0 0 1920 364" fill="none" xmlns="http://www.w3.org/2000/svg">
<mask id="mask0" mask-type="alpha" maskUnits="userSpaceOnUse" x="0" y="0" width="1920" height="364">
<rect width="1920" height="364" fill="#E0E0E0"/>
</mask>
<g mask="url(#mask0)">
<path d="M987.119 505C987.589 502.497 989.836 499.629 990.777 497.179C991.822 494.259 992.658 491.286 993.18 488.262C994.225 482.318 994.225 476.165 993.441 470.169C991.874 458.437 987.433 445.922 980.693 436.12C980.327 435.598 979.961 435.077 979.595 434.555C964.652 413.594 949.761 392.581 933.564 372.558L933.512 372.506C925.465 362.651 913.187 351.857 907.492 340.438C907.178 339.76 897.669 324.795 895.945 321.875C895.37 320.989 894.795 320.05 894.534 319.79C893.698 318.955 886.54 307.432 886.122 307.432C885.808 307.432 874.47 288.504 869.716 281.725C868.88 280.474 867.156 277.033 865.902 275.051C862.767 270.254 861.669 268.533 860.938 267.073C860.624 266.395 857.542 262.537 856.549 260.868C855.556 259.304 854.407 258.001 853.989 258.001C853.571 258.001 853.257 257.688 853.257 257.271C853.257 255.185 829.223 230.834 827.185 230.834C827.028 230.834 826.088 230.156 825.2 229.374C821.908 226.559 806.86 218.476 804.875 218.476C804.196 218.476 803.725 218.059 803.725 217.642C803.725 215.556 809.159 217.173 820.236 222.439C827.917 226.141 832.776 229.009 833.298 230.209C833.455 230.626 833.977 230.886 834.448 230.886C835.336 230.886 845.263 238.291 845.681 239.281C845.838 239.698 846.674 240.376 847.51 240.741C848.816 241.471 848.921 241.211 848.241 238.864C846.831 233.598 845.106 227.914 843.382 223.065C842.39 220.354 841.397 217.381 841.136 216.495C840.874 215.609 840.247 213.679 839.568 212.219C838.889 210.812 838.419 209.247 838.419 208.778C838.419 208.309 838.105 207.214 837.583 206.379C837.165 205.649 834.918 200.383 832.619 194.699C829.171 186.044 828.491 183.593 828.491 179.057C828.491 174.207 828.805 173.217 831.522 169.15C833.194 166.699 834.813 164.457 835.231 164.352C835.545 164.196 835.911 163.675 835.911 163.205C835.911 162.736 837.06 160.963 838.366 159.242C839.777 157.522 840.822 155.697 840.822 155.228C840.822 154.758 841.136 154.341 841.501 154.341C841.919 154.341 842.651 153.507 843.226 152.464C843.696 151.473 844.897 149.492 845.786 148.188C849.077 143.183 850.645 139.22 849.652 138.542C849.077 138.229 848.555 138.281 848.398 138.698C848.241 139.168 847.823 139.533 847.405 139.533C846.987 139.533 843.382 142.818 839.307 146.885C835.284 150.9 830.32 155.228 828.335 156.427C827.29 157.052 825.827 158.617 824.52 158.408C823.841 158.304 823.266 157.939 822.692 157.626C820.915 156.635 819.034 155.801 817.101 155.123C815.534 154.602 813.862 154.133 812.712 153.038C810.57 151.056 809.786 146.728 808.637 144.121C808.01 142.661 807.539 141.618 807.905 140.054C809.002 135.1 815.638 130.251 818.877 126.862C826.715 118.728 828.387 116.642 827.29 116.225C826.297 115.912 821.699 117.216 820.915 118.05C820.654 118.363 818.094 120.031 815.116 121.752C810.309 124.62 804.143 128.895 801.322 131.294C800.747 131.711 800.172 132.128 799.911 132.128C798.187 132.18 795.365 135.465 793.537 136.143C790.297 137.395 786.744 137.655 783.348 137.238C778.176 136.613 773.316 134.631 768.562 132.65C760.829 129.417 753.096 125.715 745.05 123.525C739.093 121.908 732.196 117.581 725.979 117.581C724.098 117.111 724.098 117.163 726.815 120.709C728.382 122.691 729.845 124.516 730.211 124.724C730.472 124.985 732.928 128.426 735.749 132.545C741.026 140.367 744.841 147.458 747.035 153.559C749.334 159.92 749.334 160.129 747.923 160.129C747.192 160.129 746.617 159.66 746.617 158.982C746.617 157.313 742.907 150.639 737.683 142.818C718.768 114.661 688.777 99.8521 661.242 81.8629C630.154 61.5273 598.387 44.4766 565.574 27.1653C539.711 13.4518 506.063 4.90043 480.461 24.506C480.826 24.4018 481.244 24.2453 481.61 24.141C505.958 16.0068 527.589 21.5339 547.444 38.3238C562.439 50.9945 571.74 69.1401 577.801 87.755C592.692 133.275 591.02 188.286 616.099 229.844C618.973 234.641 618.973 234.641 628.378 244.183C633.08 248.98 637.312 253.881 637.73 255.133C638.618 257.583 637.26 263.215 635.745 263.215C635.275 263.215 635.066 264.779 635.484 267.491C637.678 282.09 637.573 298.202 632.453 312.177C625.922 330.009 611.24 343.932 594.782 353.369C577.435 363.276 557.319 370.107 537.83 374.174C519.438 377.981 500.733 380.014 482.237 382.986C466.406 385.541 450.313 389.4 437.303 399.307C434.9 401.132 432.653 403.113 430.563 405.303C423.144 412.864 418.284 422.302 414 431.896C418.18 427.203 421.315 421.624 425.39 416.879C447.596 391.016 480.356 388.67 512.071 384.863C528.478 382.882 549.534 379.753 555.438 378.346C556.326 378.085 560.82 377.198 565.365 376.208C583.914 372.193 601.313 364.476 616.622 353.213C623.884 347.894 630.624 341.794 638.305 337.153C654.189 327.559 673.939 324.587 691.965 329.019C694.891 329.749 698.339 330.739 701.369 329.905C704.452 329.071 706.699 326.203 710.252 327.402C711.349 327.872 716.365 332.252 721.329 337.205C735.958 351.596 752.417 358.584 772.324 363.12C813.548 372.454 855.295 377.303 894.116 395.031C913.814 404.052 932.467 415.315 949.552 428.559C961.099 437.527 972.96 449.155 980.431 461.982C987.903 474.809 989.888 489.618 987.171 504.166C987.276 504.218 987.224 504.635 987.119 505Z" fill="url(#paint0_linear)"/>
</g>
<defs>
<linearGradient id="paint0_linear" x1="96.5808" y1="264.769" x2="886.539" y2="254.384" gradientUnits="userSpaceOnUse">
<stop stop-color="#D8BB58"/>
<stop offset="0.1464" stop-color="#ECD26E"/>
<stop offset="0.239" stop-color="#F4DB76"/>
<stop offset="0.4341" stop-color="#E9CC65"/>
<stop offset="0.8173" stop-color="#CEA53A"/>
<stop offset="0.8757" stop-color="#C99F33"/>
</linearGradient>
</defs>
</svg>
