<svg width="481" height="351" viewBox="0 0 481 351" fill="none" xmlns="http://www.w3.org/2000/svg">
<g filter="url(#filter0_d)">
<path d="M0 0H481V351H0V0Z" fill="url(#paint0_linear)"/>
</g>
<g clip-path="url(#clip0)">
<path d="M215.156 439C215.419 437.601 216.674 435.998 217.199 434.628C217.783 432.996 218.25 431.335 218.542 429.645C219.126 426.322 219.126 422.883 218.688 419.531C217.812 412.974 215.331 405.979 211.566 400.5C211.362 400.208 211.158 399.917 210.953 399.625C202.606 387.909 194.287 376.164 185.239 364.972L185.21 364.943C180.715 359.435 173.856 353.402 170.675 347.019C170.5 346.64 165.188 338.276 164.224 336.644C163.903 336.148 163.582 335.624 163.436 335.478C162.969 335.012 158.971 328.571 158.737 328.571C158.562 328.571 152.228 317.991 149.572 314.202C149.105 313.503 148.142 311.579 147.442 310.472C145.69 307.79 145.077 306.829 144.669 306.013C144.494 305.634 142.772 303.477 142.217 302.544C141.662 301.67 141.02 300.941 140.787 300.941C140.553 300.941 140.378 300.766 140.378 300.533C140.378 299.368 126.952 285.757 125.814 285.757C125.726 285.757 125.201 285.378 124.705 284.941C122.866 283.367 114.46 278.85 113.351 278.85C112.971 278.85 112.709 278.616 112.709 278.383C112.709 277.218 115.744 278.121 121.932 281.065C126.222 283.134 128.937 284.737 129.229 285.407C129.316 285.64 129.608 285.786 129.871 285.786C130.367 285.786 135.913 289.925 136.146 290.478C136.234 290.712 136.701 291.09 137.168 291.294C137.897 291.702 137.956 291.557 137.576 290.245C136.788 287.302 135.825 284.125 134.862 281.414C134.307 279.899 133.753 278.238 133.607 277.742C133.461 277.247 133.111 276.168 132.731 275.352C132.352 274.565 132.089 273.691 132.089 273.429C132.089 273.166 131.914 272.554 131.622 272.088C131.389 271.68 130.133 268.736 128.849 265.56C126.923 260.722 126.543 259.352 126.543 256.816C126.543 254.106 126.719 253.552 128.236 251.279C129.17 249.909 130.075 248.656 130.309 248.597C130.484 248.51 130.688 248.219 130.688 247.956C130.688 247.694 131.33 246.703 132.06 245.741C132.848 244.779 133.432 243.759 133.432 243.497C133.432 243.235 133.607 243.002 133.811 243.002C134.045 243.002 134.453 242.535 134.774 241.952C135.037 241.399 135.708 240.291 136.204 239.563C138.043 236.765 138.919 234.55 138.364 234.171C138.043 233.996 137.751 234.025 137.664 234.258C137.576 234.521 137.343 234.725 137.109 234.725C136.876 234.725 134.862 236.561 132.585 238.834C130.338 241.078 127.565 243.497 126.456 244.167C125.872 244.517 125.055 245.392 124.325 245.275C123.946 245.217 123.625 245.013 123.304 244.838C122.311 244.284 121.26 243.818 120.181 243.439C119.305 243.147 118.371 242.885 117.729 242.273C116.532 241.166 116.094 238.746 115.452 237.289C115.102 236.473 114.839 235.89 115.044 235.016C115.657 232.247 119.363 229.537 121.173 227.642C125.551 223.096 126.485 221.93 125.872 221.697C125.318 221.522 122.749 222.251 122.311 222.717C122.165 222.892 120.735 223.824 119.071 224.786C116.386 226.389 112.942 228.779 111.366 230.12C111.045 230.353 110.724 230.586 110.578 230.586C109.615 230.615 108.039 232.451 107.017 232.83C105.207 233.53 103.223 233.675 101.326 233.442C98.436 233.092 95.7215 231.985 93.0655 230.877C88.7458 229.07 84.426 227.001 79.9312 225.777C76.6038 224.874 72.7511 222.455 69.2778 222.455C68.2271 222.192 68.227 222.221 69.7448 224.203C70.6204 225.311 71.4377 226.331 71.642 226.447C71.7879 226.593 73.1597 228.517 74.7358 230.819C77.6837 235.191 79.8144 239.155 81.0403 242.564C82.3245 246.12 82.3246 246.237 81.5365 246.237C81.1279 246.237 80.8068 245.974 80.8068 245.596C80.8068 244.663 78.7345 240.932 75.8158 236.561C65.2499 220.822 48.4964 212.545 33.1146 202.49C15.7482 191.124 -1.99777 181.594 -20.3274 171.918C-34.7752 164.253 -53.5719 159.473 -67.8737 170.431C-67.6694 170.373 -67.4359 170.285 -67.2315 170.227C-53.6302 165.681 -41.5467 168.77 -30.4555 178.155C-22.0787 185.237 -16.8833 195.379 -13.4976 205.784C-5.1792 231.227 -6.11319 261.975 7.89675 285.203C9.50205 287.885 9.50205 287.885 14.7558 293.218C17.3826 295.899 19.7468 298.639 19.9803 299.338C20.4765 300.708 19.7176 303.856 18.8712 303.856C18.6085 303.856 18.4918 304.73 18.7253 306.246C19.9511 314.406 19.8928 323.412 17.0324 331.223C13.384 341.19 5.18232 348.972 -4.0117 354.247C-13.7019 359.785 -24.939 363.603 -35.8259 365.876C-46.0999 368.003 -56.549 369.14 -66.8813 370.801C-75.7251 372.229 -84.7148 374.386 -91.9824 379.924C-93.3251 380.944 -94.5801 382.051 -95.7476 383.275C-99.8922 387.501 -102.607 392.776 -105 398.139C-102.665 395.516 -100.914 392.398 -98.6372 389.745C-86.2325 375.29 -67.932 373.978 -50.2153 371.851C-41.0505 370.743 -29.288 368.994 -25.9898 368.207C-25.4936 368.062 -22.9835 367.566 -20.4442 367.012C-10.0827 364.768 -0.363274 360.455 8.18862 354.16C12.2457 351.187 16.0108 347.777 20.3014 345.183C29.1743 339.82 40.2072 338.159 50.2768 340.637C51.9113 341.045 53.8377 341.598 55.5305 341.132C57.2526 340.666 58.5076 339.063 60.4924 339.733C61.1053 339.995 63.9073 342.443 66.6801 345.212C74.8526 353.256 84.0466 357.162 95.167 359.697C118.196 364.914 141.517 367.625 163.203 377.534C174.206 382.576 184.626 388.871 194.171 396.274C200.621 401.287 207.246 407.786 211.42 414.956C215.594 422.125 216.703 430.402 215.185 438.534C215.244 438.563 215.215 438.796 215.156 439Z" fill="white"/>
</g>
<defs>
<filter id="filter0_d" x="-20" y="-16" width="521" height="391" filterUnits="userSpaceOnUse" color-interpolation-filters="sRGB">
<feFlood flood-opacity="0" result="BackgroundImageFix"/>
<feColorMatrix in="SourceAlpha" type="matrix" values="0 0 0 0 0 0 0 0 0 0 0 0 0 0 0 0 0 0 127 0"/>
<feOffset dy="4"/>
<feGaussianBlur stdDeviation="10"/>
<feColorMatrix type="matrix" values="0 0 0 0 0 0 0 0 0 0 0 0 0 0 0 0 0 0 0.06 0"/>
<feBlend mode="normal" in2="BackgroundImageFix" result="effect1_dropShadow"/>
<feBlend mode="normal" in="SourceGraphic" in2="effect1_dropShadow" result="shape"/>
</filter>
<linearGradient id="paint0_linear" x1="-263.239" y1="179.615" x2="391.842" y2="169.605" gradientUnits="userSpaceOnUse">
<stop stop-color="#D8BB58"/>
<stop offset="0.1464" stop-color="#ECD26E"/>
<stop offset="0.239" stop-color="#F4DB76"/>
<stop offset="0.4341" stop-color="#E9CC65"/>
<stop offset="0.8173" stop-color="#CEA53A"/>
<stop offset="0.8757" stop-color="#C99F33"/>
</linearGradient>
<clipPath id="clip0">
<rect width="481" height="306" fill="white" transform="translate(0 63)"/>
</clipPath>
</defs>
</svg>
