<svg width="93" height="70" viewBox="0 0 93 70" fill="none" xmlns="http://www.w3.org/2000/svg">
<path d="M58.9002 4.80078C54.5002 4.80078 50.2002 5.70078 46.2002 7.40078C43.1002 8.70078 40.2002 10.5008 37.7002 12.7008C37.8002 12.7008 38.0002 12.7008 38.1002 12.7008C38.5002 12.4008 39.0002 12.2008 39.6002 12.2008C39.9002 12.1008 40.2002 12.0008 40.6002 12.0008C40.7002 12.0008 40.7002 12.0008 40.8002 12.0008C42.6002 10.7008 44.6002 9.60078 46.7002 8.70078C50.6002 7.10078 54.6002 6.20078 58.9002 6.20078C61.4002 6.20078 63.9002 6.50078 66.3002 7.10078L66.6002 5.80078C64.1002 5.10078 61.5002 4.80078 58.9002 4.80078Z" fill="url(#paint0_linear)"/>
<path d="M89.3 25.4004L88 25.9004C89.4 29.5004 90.2 33.4004 90.2 37.4004C90.2 41.6004 89.4 45.7004 87.7 49.6004C86.1 53.3004 83.9 56.7004 81 59.5004C78.1 62.3004 74.8 64.6004 71.1 66.2004C67.2 67.8004 63.2 68.7004 58.9 68.7004C54.6 68.7004 50.6 67.9004 46.7 66.2004C43 64.6004 39.6 62.4004 36.8 59.5004C33.9 56.6004 31.7 53.3004 30.1 49.6004C28.8 46.6004 28.1 43.5004 27.8 40.3004C27.5 40.7004 27.1 41.1004 26.5 41.3004C26.9 44.4004 27.6 47.3004 28.8 50.2004C30.4 54.1004 32.8 57.6004 35.8 60.6004C38.8 63.6004 42.3 65.9004 46.2 67.6004C50.2 69.3004 54.5 70.2004 58.9 70.2004C63.3 70.2004 67.6 69.3004 71.6 67.6004C75.5 66.0004 79 63.6004 82 60.6004C85 57.6004 87.3 54.1004 89 50.2004C90.7 46.2004 91.6 41.9004 91.6 37.5004C91.5 33.3004 90.8 29.2004 89.3 25.4004Z" fill="url(#paint1_linear)"/>
<path d="M64.1996 69.1999C64.1996 69.0999 63.0996 67.4999 60.4996 62.5999C59.5996 60.9999 58.8996 59.8999 58.3996 59.0999C57.1996 57.4999 56.5996 56.5999 56.5996 53.2999C56.5996 48.6999 58.3996 47.3999 61.4996 45.2999C61.7996 45.0999 62.0996 44.8999 62.4996 44.5999C65.2996 42.6999 67.3996 42.7999 70.0996 42.8999C71.1996 42.9999 72.4996 42.9999 73.9996 42.9999C75.3996 42.8999 76.2996 42.8999 76.9996 42.9999C78.6996 42.9999 78.8996 42.9999 83.4996 41.7999C85.9996 41.0999 87.4996 40.2999 87.9996 39.3999C88.4996 38.4999 88.1996 37.2999 87.7996 35.7999L87.6996 35.5999C87.4996 35.0999 87.2996 34.8999 87.1996 34.8999C86.8996 34.7999 86.1996 34.7999 84.8996 35.4999C83.8996 35.9999 82.7996 36.7999 81.9996 37.2999L81.7996 37.4999C80.2996 38.4999 78.9996 39.1999 77.7996 39.5999C75.8996 40.1999 74.1996 40.0999 72.6996 39.3999L72.9996 37.9999C75.0996 38.9999 77.6996 38.3999 80.7996 36.1999L80.9996 35.9999C82.8996 34.5999 85.5996 32.7999 87.4996 33.3999C87.9996 33.5999 88.5996 33.9999 88.8996 34.9999L88.9996 35.1999C89.4996 36.7999 89.8996 38.3999 89.0996 39.7999C88.3996 41.0999 86.6996 42.0999 83.7996 42.8999C78.9996 44.1999 78.7996 44.1999 76.8996 44.1999C76.2996 44.1999 75.3996 44.1999 73.9996 44.1999C72.4996 44.2999 71.1996 44.1999 69.9996 44.0999C67.3996 43.9999 65.5996 43.8999 63.1996 45.4999C62.8996 45.6999 62.4996 45.9999 62.1996 46.1999C59.1996 48.1999 57.8996 49.1999 57.8996 53.0999C57.8996 55.9999 58.2996 56.5999 59.3996 58.0999C59.9996 58.8999 60.6996 59.9999 61.5996 61.6999C64.0996 66.4999 65.1996 68.1999 65.1996 68.1999L64.1996 69.1999Z" fill="url(#paint2_linear)"/>
<path d="M72.4998 34.6004L71.2998 33.9004C71.5998 33.5004 71.8998 33.1004 72.0998 32.6004C72.3998 32.1004 72.7998 31.6004 73.0998 31.1004C73.3998 30.6004 73.7998 30.2004 74.2998 29.9004L74.9998 31.1004C74.6998 31.3004 74.3998 31.5004 74.2998 31.8004C73.9998 32.3004 73.5998 32.9004 73.2998 33.4004C72.9998 33.8004 72.6998 34.2004 72.4998 34.6004Z" fill="url(#paint3_linear)"/>
<path d="M41.7999 64.2L40.5999 63.6L41.1999 63.9L40.5999 63.6C40.5999 63.5 41.4999 61.6 40.2999 60.1C39.4999 59.1 38.8999 57.7 38.4999 56C38.1999 54.5 37.9999 52.8 37.9999 51.1C37.9999 48.4 35.2999 47.3 32.4999 46.1L32.1999 46C30.4999 45.3 29.6999 44.9 29.3999 44.2C28.9999 43.4 29.2999 42.6 29.8999 40.9C30.8999 38.2 34.0999 37.6 36.6999 37.2C37.0999 37.1 37.3999 37.1 37.7999 37L38.0999 38.3C37.6999 38.4 37.3999 38.4 36.9999 38.5C34.5999 38.9 31.8999 39.4 31.1999 41.3C30.7999 42.5 30.4999 43.3 30.5999 43.6C30.6999 43.9 31.5999 44.2 32.6999 44.7L32.8999 44.8C35.8999 46.1 39.2999 47.5 39.2999 51.1C39.2999 54.6 39.9999 57.6 41.2999 59.2C43.0999 61.5 41.8999 64.1 41.7999 64.2Z" fill="url(#paint4_linear)"/>
<path d="M57.4996 39.5003C56.8996 39.5003 56.4996 39.0003 56.4996 38.4003C56.4996 37.8003 56.9996 37.4003 57.5996 37.4003C58.1996 37.4003 58.5996 37.9003 58.5996 38.5003C58.5996 39.1003 58.0996 39.5003 57.4996 39.5003C57.5996 39.5003 57.5996 39.5003 57.4996 39.5003ZM59.9996 38.5003C59.9996 37.9003 60.3996 37.5003 60.9996 37.4003C61.5996 37.4003 61.9996 37.8003 62.0996 38.4003C62.0996 39.0003 61.6996 39.4003 61.0996 39.5003C60.4996 39.5003 59.9996 39.1003 59.9996 38.5003ZM54.0996 39.3003C53.4996 39.3003 53.0996 38.8003 53.1996 38.2003C53.1996 37.6003 53.6996 37.2003 54.2996 37.3003C54.8996 37.3003 55.2996 37.8003 55.1996 38.4003C55.0996 38.9003 54.6996 39.3003 54.0996 39.3003ZM63.3996 38.3003C63.2996 37.7003 63.6996 37.2003 64.2996 37.2003C64.8996 37.1003 65.3996 37.5003 65.3996 38.1003C65.4996 38.7003 65.0996 39.2003 64.4996 39.2003H64.3996C63.8996 39.2003 63.4996 38.8003 63.3996 38.3003ZM50.5996 38.9003C49.9996 38.8003 49.5996 38.3003 49.6996 37.7003C49.7996 37.1003 50.2996 36.7003 50.8996 36.8003C51.4996 36.9003 51.8996 37.4003 51.7996 38.0003C51.6996 38.5003 51.2996 38.9003 50.7996 38.9003C50.6996 38.9003 50.5996 38.9003 50.5996 38.9003ZM66.7996 37.9003C66.6996 37.3003 66.9996 36.8003 67.5996 36.7003C68.1996 36.6003 68.6996 36.9003 68.7996 37.5003C68.8996 38.1003 68.5996 38.6003 67.9996 38.7003C67.8996 38.7003 67.8996 38.7003 67.7996 38.7003C67.2996 38.7003 66.8996 38.4003 66.7996 37.9003ZM47.1996 38.4003C46.5996 38.3003 46.2996 37.8003 46.3996 37.2003C46.4996 36.6003 46.9996 36.3003 47.5996 36.4003C48.1996 36.5003 48.4996 37.0003 48.3996 37.6003C48.2996 38.1003 47.8996 38.4003 47.3996 38.4003C47.2996 38.4003 47.1996 38.4003 47.1996 38.4003ZM70.1996 37.1003C69.9996 36.6003 70.2996 36.0003 70.8996 35.8003C71.3996 35.6003 71.9996 35.9003 72.1996 36.5003C72.3996 37.0003 72.0996 37.6003 71.4996 37.8003C71.3996 37.8003 71.2996 37.8003 71.1996 37.8003C70.6996 37.9003 70.2996 37.6003 70.1996 37.1003ZM43.7996 37.6003C43.1996 37.5003 42.8996 36.9003 42.9996 36.4003C43.0996 35.8003 43.6996 35.5003 44.1996 35.6003C44.7996 35.7003 45.0996 36.3003 44.9996 36.8003C44.8996 37.3003 44.4996 37.6003 43.9996 37.6003C43.8996 37.7003 43.7996 37.7003 43.7996 37.6003ZM40.3996 36.7003C39.8996 36.5003 39.4996 36.0003 39.6996 35.4003C39.8996 34.9003 40.3996 34.5003 40.9996 34.7003C41.4996 34.9003 41.8996 35.4003 41.6996 36.0003C41.5996 36.4003 41.1996 36.7003 40.6996 36.7003C40.5996 36.8003 40.4996 36.8003 40.3996 36.7003ZM73.3996 36.1003C73.1996 35.6003 73.3996 35.0003 73.8996 34.8003C74.3996 34.6003 74.9996 34.8003 75.1996 35.3003C75.3996 35.8003 75.1996 36.4003 74.6996 36.6003C74.5996 36.7003 74.3996 36.7003 74.2996 36.7003C73.9996 36.7003 73.5996 36.4003 73.3996 36.1003ZM36.9996 35.6003C36.4996 35.4003 36.1996 34.8003 36.3996 34.3003C36.5996 33.8003 37.1996 33.5003 37.6996 33.7003C38.1996 33.9003 38.4996 34.5003 38.2996 35.0003C38.0996 35.4003 37.7996 35.7003 37.2996 35.7003C37.2996 35.7003 37.1996 35.7003 36.9996 35.6003Z" fill="url(#paint5_linear)"/>
<path d="M79.4998 33.3004L78.9998 32.9004C78.8998 32.8004 75.8998 30.2004 72.8998 26.4004C71.0998 24.2004 69.6998 22.0004 68.6998 19.9004C67.3998 17.3004 66.7998 14.8004 66.7998 12.6004C66.7998 5.60039 72.4998 -0.0996094 79.4998 -0.0996094C86.4998 -0.0996094 92.1998 5.60039 92.1998 12.6004C92.1998 14.9004 91.4998 17.4004 90.2998 20.1004C89.2998 22.2004 87.8998 24.4004 86.0998 26.6004C83.0998 30.3004 80.0998 32.8004 79.9998 32.9004L79.4998 33.3004ZM79.4998 1.40039C73.2998 1.40039 68.1998 6.50039 68.1998 12.7004C68.1998 17.3004 71.3998 22.2004 73.9998 25.6004C76.2998 28.4004 78.4998 30.7004 79.4998 31.5004C80.3998 30.7004 82.6998 28.5004 84.9998 25.7004C87.6998 22.4004 90.7998 17.4004 90.7998 12.6004C90.7998 6.40039 85.6998 1.40039 79.4998 1.40039Z" fill="url(#paint6_linear)"/>
<path d="M79.5002 19.4008C75.8002 19.4008 72.7002 16.4008 72.7002 12.6008C72.7002 8.90078 75.7002 5.80078 79.5002 5.80078C83.2002 5.80078 86.3002 8.80078 86.3002 12.6008C86.3002 16.4008 83.2002 19.4008 79.5002 19.4008ZM79.5002 7.30078C76.5002 7.30078 74.1002 9.70078 74.1002 12.7008C74.1002 15.7008 76.5002 18.1008 79.5002 18.1008C82.5002 18.1008 84.9002 15.7008 84.9002 12.7008C84.9002 9.70078 82.5002 7.30078 79.5002 7.30078Z" fill="url(#paint7_linear)"/>
<path d="M9.31383 20.4672L2.65527 23.2061L3.11175 24.3158L9.77031 21.5769L9.31383 20.4672Z" fill="url(#paint8_linear)"/>
<path d="M20.2996 44.5998C19.9996 44.5998 19.6996 44.4998 19.4996 44.2998C19.1996 43.9998 19.0996 43.4998 19.1996 42.9998L25.9996 25.4998L27.0996 25.8998L20.2996 43.3998L26.1996 40.9998C26.4996 40.8998 26.7996 40.5998 26.9996 40.2998L40.7996 19.2998L41.7996 19.8998L27.9996 40.9998C27.6996 41.4998 27.1996 41.8998 26.6996 42.0998L20.7996 44.4998C20.5996 44.5998 20.3996 44.5998 20.2996 44.5998Z" fill="url(#paint9_linear)"/>
<path d="M8.5 33.1C7.8 33.1 7.1 32.8 6.6 32.2C6 31.5 5.8 30.6 6.1 29.7L6.5 28.4L0 21.6L5.3 19.4C5.8 19.2 6.4 19.2 6.9 19.4L14.8 22.5C15.1 22.6 15.5 22.6 15.8 22.4C18.2 21.1 26.8 16.7 36.6 12.7C39.6 11.5 42.6 10.5 45.4 9.80004C47.1 9.40004 48.7 9.10004 50.2 8.90004C51.1 8.80004 52 9.00004 52.9 9.30004C53.4 9.40004 53.9 9.60004 54.3 9.60004C55 9.60004 55.6 9.60004 56.1 9.60004C57.5 9.50004 58.6 9.50004 59.3 10.3C59.7 10.8 59.9 11.4 59.7 12.1C59.4 13.6 57.5 15.4 54.3 17.5C50.8 19.8 45.8 22.2 39.5 24.8C39.1 25 38.7 25.1 38.2 25.3L37.8 24C38.2 23.8 38.6 23.7 39 23.5C52.7 17.9 58.1 13.7 58.6 11.6C58.7 11.3 58.6 11 58.4 10.8C58.1 10.4 57.4 10.5 56.1 10.5C55.6 10.5 54.9 10.5 54.2 10.5C53.7 10.5 53.1 10.3 52.5 10.2C51.7 10 51 9.80004 50.3 9.90004C48.8 10.1 47.2 10.4 45.6 10.8C42.8 11.5 39.9 12.4 37 13.7C27.3 17.7 18.7 22.1 16.3 23.4C15.7 23.7 15 23.8 14.3 23.5L6.4 20.4C6.2 20.3 5.9 20.3 5.7 20.4L2 22L7.7 28.2L7.1 30.2C7 30.7 7.1 31.2 7.4 31.6C7.7 32 8.2 32.1 8.7 32.1C12.5 31.5 18.4 30.3 25.1 28.4L25.4 29.5C18.6 31.4 12.7 32.6 8.8 33.2C8.8 33.1 8.6 33.1 8.5 33.1Z" fill="url(#paint10_linear)"/>
<path d="M20.2998 21.3998L7.99981 15.8998C7.59981 15.6998 7.2998 15.2998 7.2998 14.7998C7.2998 14.2998 7.59981 13.8998 7.99981 13.6998L13.8998 11.2998C14.3998 11.0998 14.9998 10.9998 15.5998 11.0998L33.9998 14.9998L32.2998 15.6998C27.4998 17.7998 23.2998 19.7998 20.5998 21.1998L20.2998 21.3998ZM15.0998 12.1998C14.8998 12.1998 14.6998 12.1998 14.3998 12.2998L8.49981 14.6998L20.2998 19.8998C22.6998 18.6998 26.1998 16.9998 30.1998 15.1998L15.4998 11.9998C15.3998 12.1998 15.1998 12.1998 15.0998 12.1998Z" fill="url(#paint11_linear)"/>
<path d="M53.2 9.30476L49.1309 10.9785L49.5873 12.0883L53.6565 10.4145L53.2 9.30476Z" fill="url(#paint12_linear)"/>
<path d="M17.8003 24.8001C17.6003 24.4001 17.8003 23.8001 18.3003 23.7001C18.7003 23.5001 19.3003 23.7001 19.4003 24.2001C19.6003 24.6001 19.4003 25.2001 18.9003 25.3001C18.8003 25.3001 18.7003 25.4001 18.6003 25.4001C18.2003 25.3001 17.9003 25.1001 17.8003 24.8001ZM20.5003 23.6001C20.3003 23.2001 20.5003 22.6001 21.0003 22.5001C21.4003 22.3001 22.0003 22.5001 22.1003 23.0001C22.3003 23.4001 22.1003 24.0001 21.6003 24.1001C21.5003 24.1001 21.4003 24.2001 21.3003 24.2001C20.9003 24.2001 20.6003 24.0001 20.5003 23.6001ZM23.2003 22.5001C23.0003 22.1001 23.2003 21.5001 23.7003 21.4001C24.1003 21.2001 24.7003 21.4001 24.8003 21.9001C25.0003 22.3001 24.8003 22.9001 24.3003 23.0001C24.2003 23.0001 24.1003 23.1001 24.0003 23.1001C23.6003 23.1001 23.3003 22.9001 23.2003 22.5001ZM25.8003 21.4001C25.6003 21.0001 25.8003 20.4001 26.3003 20.3001C26.7003 20.1001 27.3003 20.3001 27.4003 20.8001C27.6003 21.2001 27.4003 21.8001 26.9003 21.9001C26.8003 21.9001 26.7003 22.0001 26.6003 22.0001C26.3003 22.0001 26.0003 21.8001 25.8003 21.4001ZM28.5003 20.3001C28.3003 19.9001 28.5003 19.3001 29.0003 19.2001C29.4003 19.0001 30.0003 19.2001 30.1003 19.7001C30.3003 20.1001 30.1003 20.7001 29.6003 20.8001C29.5003 20.8001 29.4003 20.9001 29.3003 20.9001C29.0003 20.9001 28.7003 20.7001 28.5003 20.3001ZM31.2003 19.2001C31.0003 18.8001 31.2003 18.2001 31.7003 18.1001C32.1003 17.9001 32.7003 18.1001 32.8003 18.6001C33.0003 19.0001 32.8003 19.6001 32.3003 19.7001C32.2003 19.7001 32.1003 19.8001 32.0003 19.8001C31.7003 19.8001 31.4003 19.6001 31.2003 19.2001ZM33.9003 18.1001C33.7003 17.7001 33.9003 17.1001 34.4003 17.0001C34.8003 16.8001 35.4003 17.0001 35.5003 17.5001C35.7003 17.9001 35.5003 18.5001 35.0003 18.6001C34.9003 18.6001 34.8003 18.7001 34.7003 18.7001C34.4003 18.7001 34.1003 18.4001 33.9003 18.1001ZM36.6003 17.0001C36.4003 16.6001 36.6003 16.0001 37.1003 15.9001C37.5003 15.7001 38.1003 15.9001 38.2003 16.4001C38.4003 16.8001 38.2003 17.4001 37.7003 17.5001C37.6003 17.5001 37.5003 17.6001 37.4003 17.6001C37.1003 17.5001 36.8003 17.3001 36.6003 17.0001ZM39.3003 15.9001C39.1003 15.5001 39.3003 14.9001 39.8003 14.8001C40.2003 14.6001 40.8003 14.8001 40.9003 15.3001C41.1003 15.7001 40.9003 16.3001 40.4003 16.4001C40.3003 16.4001 40.2003 16.5001 40.1003 16.5001C39.8003 16.4001 39.4003 16.2001 39.3003 15.9001ZM42.0003 14.8001C41.8003 14.4001 42.0003 13.8001 42.5003 13.7001C42.9003 13.5001 43.5003 13.7001 43.6003 14.2001C43.8003 14.6001 43.6003 15.2001 43.1003 15.3001C43.0003 15.3001 42.9003 15.4001 42.8003 15.4001C42.5003 15.3001 42.1003 15.1001 42.0003 14.8001ZM44.7003 13.7001C44.5003 13.3001 44.7003 12.7001 45.2003 12.6001C45.6003 12.4001 46.2003 12.6001 46.3003 13.1001C46.5003 13.5001 46.3003 14.1001 45.8003 14.2001C45.7003 14.2001 45.6003 14.3001 45.5003 14.3001C45.1003 14.2001 44.8003 14.0001 44.7003 13.7001Z" fill="url(#paint13_linear)"/>
<defs>
<linearGradient id="paint0_linear" x1="21.884" y1="8.84341" x2="61.1871" y2="7.24013" gradientUnits="userSpaceOnUse">
<stop stop-color="#D8BB58"/>
<stop offset="0.1464" stop-color="#ECD26E"/>
<stop offset="0.239" stop-color="#F4DB76"/>
<stop offset="0.4341" stop-color="#E9CC65"/>
<stop offset="0.8173" stop-color="#CEA53A"/>
<stop offset="0.8757" stop-color="#C99F33"/>
</linearGradient>
<linearGradient id="paint1_linear" x1="-9.12757" y1="48.3257" x2="79.5305" y2="46.8891" gradientUnits="userSpaceOnUse">
<stop stop-color="#D8BB58"/>
<stop offset="0.1464" stop-color="#ECD26E"/>
<stop offset="0.239" stop-color="#F4DB76"/>
<stop offset="0.4341" stop-color="#E9CC65"/>
<stop offset="0.8173" stop-color="#CEA53A"/>
<stop offset="0.8757" stop-color="#C99F33"/>
</linearGradient>
<linearGradient id="paint2_linear" x1="38.5644" y1="51.6617" x2="83.4516" y2="51.2025" gradientUnits="userSpaceOnUse">
<stop stop-color="#D8BB58"/>
<stop offset="0.1464" stop-color="#ECD26E"/>
<stop offset="0.239" stop-color="#F4DB76"/>
<stop offset="0.4341" stop-color="#E9CC65"/>
<stop offset="0.8173" stop-color="#CEA53A"/>
<stop offset="0.8757" stop-color="#C99F33"/>
</linearGradient>
<linearGradient id="paint3_linear" x1="69.2749" y1="32.3055" x2="74.3148" y2="32.2613" gradientUnits="userSpaceOnUse">
<stop stop-color="#D8BB58"/>
<stop offset="0.1464" stop-color="#ECD26E"/>
<stop offset="0.239" stop-color="#F4DB76"/>
<stop offset="0.4341" stop-color="#E9CC65"/>
<stop offset="0.8173" stop-color="#CEA53A"/>
<stop offset="0.8757" stop-color="#C99F33"/>
</linearGradient>
<linearGradient id="paint4_linear" x1="22.0669" y1="50.9189" x2="39.8657" y2="50.8236" gradientUnits="userSpaceOnUse">
<stop stop-color="#D8BB58"/>
<stop offset="0.1464" stop-color="#ECD26E"/>
<stop offset="0.239" stop-color="#F4DB76"/>
<stop offset="0.4341" stop-color="#E9CC65"/>
<stop offset="0.8173" stop-color="#CEA53A"/>
<stop offset="0.8757" stop-color="#C99F33"/>
</linearGradient>
<linearGradient id="paint5_linear" x1="15.0264" y1="36.6378" x2="67.7814" y2="32.7305" gradientUnits="userSpaceOnUse">
<stop stop-color="#D8BB58"/>
<stop offset="0.1464" stop-color="#ECD26E"/>
<stop offset="0.239" stop-color="#F4DB76"/>
<stop offset="0.4341" stop-color="#E9CC65"/>
<stop offset="0.8173" stop-color="#CEA53A"/>
<stop offset="0.8757" stop-color="#C99F33"/>
</linearGradient>
<linearGradient id="paint6_linear" x1="52.899" y1="16.992" x2="87.4972" y2="16.6986" gradientUnits="userSpaceOnUse">
<stop stop-color="#D8BB58"/>
<stop offset="0.1464" stop-color="#ECD26E"/>
<stop offset="0.239" stop-color="#F4DB76"/>
<stop offset="0.4341" stop-color="#E9CC65"/>
<stop offset="0.8173" stop-color="#CEA53A"/>
<stop offset="0.8757" stop-color="#C99F33"/>
</linearGradient>
<linearGradient id="paint7_linear" x1="65.2573" y1="12.7602" x2="83.7813" y2="12.5537" gradientUnits="userSpaceOnUse">
<stop stop-color="#D8BB58"/>
<stop offset="0.1464" stop-color="#ECD26E"/>
<stop offset="0.239" stop-color="#F4DB76"/>
<stop offset="0.4341" stop-color="#E9CC65"/>
<stop offset="0.8173" stop-color="#CEA53A"/>
<stop offset="0.8757" stop-color="#C99F33"/>
</linearGradient>
<linearGradient id="paint8_linear" x1="-0.755194" y1="25.2729" x2="8.02638" y2="20.9543" gradientUnits="userSpaceOnUse">
<stop stop-color="#D8BB58"/>
<stop offset="0.1464" stop-color="#ECD26E"/>
<stop offset="0.239" stop-color="#F4DB76"/>
<stop offset="0.4341" stop-color="#E9CC65"/>
<stop offset="0.8173" stop-color="#CEA53A"/>
<stop offset="0.8757" stop-color="#C99F33"/>
</linearGradient>
<linearGradient id="paint9_linear" x1="6.77318" y1="32.2464" x2="37.6076" y2="31.9388" gradientUnits="userSpaceOnUse">
<stop stop-color="#D8BB58"/>
<stop offset="0.1464" stop-color="#ECD26E"/>
<stop offset="0.239" stop-color="#F4DB76"/>
<stop offset="0.4341" stop-color="#E9CC65"/>
<stop offset="0.8173" stop-color="#CEA53A"/>
<stop offset="0.8757" stop-color="#C99F33"/>
</linearGradient>
<linearGradient id="paint10_linear" x1="-32.7152" y1="21.3222" x2="48.6558" y2="19.0925" gradientUnits="userSpaceOnUse">
<stop stop-color="#D8BB58"/>
<stop offset="0.1464" stop-color="#ECD26E"/>
<stop offset="0.239" stop-color="#F4DB76"/>
<stop offset="0.4341" stop-color="#E9CC65"/>
<stop offset="0.8173" stop-color="#CEA53A"/>
<stop offset="0.8757" stop-color="#C99F33"/>
</linearGradient>
<linearGradient id="paint11_linear" x1="-7.31242" y1="16.3514" x2="29.029" y2="15.3049" gradientUnits="userSpaceOnUse">
<stop stop-color="#D8BB58"/>
<stop offset="0.1464" stop-color="#ECD26E"/>
<stop offset="0.239" stop-color="#F4DB76"/>
<stop offset="0.4341" stop-color="#E9CC65"/>
<stop offset="0.8173" stop-color="#CEA53A"/>
<stop offset="0.8757" stop-color="#C99F33"/>
</linearGradient>
<linearGradient id="paint12_linear" x1="47.1375" y1="12.4624" x2="52.5783" y2="9.95991" gradientUnits="userSpaceOnUse">
<stop stop-color="#D8BB58"/>
<stop offset="0.1464" stop-color="#ECD26E"/>
<stop offset="0.239" stop-color="#F4DB76"/>
<stop offset="0.4341" stop-color="#E9CC65"/>
<stop offset="0.8173" stop-color="#CEA53A"/>
<stop offset="0.8757" stop-color="#C99F33"/>
</linearGradient>
<linearGradient id="paint13_linear" x1="2.04242" y1="19.1127" x2="41.0508" y2="18.1448" gradientUnits="userSpaceOnUse">
<stop stop-color="#D8BB58"/>
<stop offset="0.1464" stop-color="#ECD26E"/>
<stop offset="0.239" stop-color="#F4DB76"/>
<stop offset="0.4341" stop-color="#E9CC65"/>
<stop offset="0.8173" stop-color="#CEA53A"/>
<stop offset="0.8757" stop-color="#C99F33"/>
</linearGradient>
</defs>
</svg>
