<svg width="86" height="70" viewBox="0 0 86 70" fill="none" xmlns="http://www.w3.org/2000/svg">
<path d="M31.7998 44.1004C29.5998 44.1004 27.7998 42.3004 27.7998 40.1004V39.1004H29.1998V40.1004C29.1998 41.6004 30.3998 42.8004 31.8998 42.8004C33.3998 42.8004 34.5998 41.6004 34.5998 40.1004V39.1004C34.5998 37.6004 33.3998 36.4004 31.8998 36.4004C31.7998 36.4004 31.6998 36.4004 31.5998 36.4004C29.4998 36.3004 27.7998 34.5004 27.7998 32.4004V31.4004C27.7998 29.2004 29.5998 27.4004 31.7998 27.4004C33.9998 27.4004 35.7998 29.2004 35.7998 31.4004V32.4004H34.3998V31.4004C34.3998 29.9004 33.1998 28.7004 31.6998 28.7004C30.1998 28.7004 28.9998 29.9004 28.9998 31.4004V32.4004C28.9998 33.8004 30.0998 35.0004 31.4998 35.1004C31.5998 35.1004 31.5998 35.1004 31.6998 35.1004C33.8998 35.1004 35.6998 36.9004 35.6998 39.1004V40.1004C35.7998 42.3004 33.9998 44.1004 31.7998 44.1004Z" fill="url(#paint0_linear)"/>
<path d="M32.4996 25.9004H31.0996V28.0004H32.4996V25.9004Z" fill="url(#paint1_linear)"/>
<path d="M32.4996 43.4004H31.0996V45.5004H32.4996V43.4004Z" fill="url(#paint2_linear)"/>
<path d="M50.0994 37.4002C50.1994 37.4002 50.2994 37.4002 50.3994 37.4002C50.4994 37.4002 50.4994 37.4002 50.5994 37.4002C50.8994 37.4002 51.1994 37.5002 51.4994 37.6002C51.5994 37.0002 51.5994 36.4002 51.5994 35.8002C51.5994 33.5002 51.1994 31.2002 50.3994 29.0002C49.5994 26.9002 48.4994 25.0002 47.0994 23.2002L45.8994 24.0002C48.5994 27.3002 50.0994 31.4002 50.0994 35.7002C50.0994 36.3002 50.0994 36.8002 50.0994 37.4002Z" fill="url(#paint3_linear)"/>
<path d="M15.7 47.1998C13.3 43.7998 12 39.8998 12 35.6998C12 33.3998 12.4 31.1998 13.2 28.9998C13.9 26.8998 15 24.9998 16.4 23.2998L17.5 24.1998C16.2 25.7998 15.2 27.5998 14.5 29.4998C13.8 31.4998 13.4 33.5998 13.4 35.6998C13.4 39.5998 14.6 43.2998 16.8 46.3998L15.7 47.1998Z" fill="url(#paint4_linear)"/>
<path d="M15.8994 35.6997C15.8994 35.0997 16.3994 34.6997 16.8994 34.6997C17.4994 34.6997 17.8994 35.1997 17.8994 35.6997C17.8994 36.2997 17.3994 36.6997 16.8994 36.6997C16.2994 36.6997 15.8994 36.2997 15.8994 35.6997ZM17.0994 33.2997C16.4994 33.1997 16.1994 32.5997 16.2994 32.0997C16.3994 31.4997 16.9994 31.1997 17.4994 31.2997C18.0994 31.3997 18.3994 31.9997 18.2994 32.4997C18.1994 32.9997 17.7994 33.2997 17.2994 33.2997C17.1994 33.2997 17.0994 33.2997 17.0994 33.2997ZM17.9994 29.9997C17.4994 29.6997 17.2994 29.0997 17.4994 28.5997C17.7994 28.0997 18.3994 27.8997 18.8994 28.0997C19.3994 28.3997 19.5994 28.9997 19.3994 29.4997C19.1994 29.8997 18.8994 30.0997 18.4994 30.0997C18.2994 30.0997 18.0994 30.0997 17.9994 29.9997ZM19.5994 27.0997C19.1994 26.6997 19.0994 26.0997 19.4994 25.6997C19.8994 25.2997 20.4994 25.1997 20.8994 25.5997C21.2994 25.9997 21.3994 26.5997 20.9994 26.9997C20.7994 27.1997 20.4994 27.3997 20.1994 27.3997C20.0994 27.2997 19.7994 27.1997 19.5994 27.0997ZM21.8994 24.4997C21.5994 24.0997 21.5994 23.3997 22.0994 23.0997C22.4994 22.7997 23.1994 22.7997 23.4994 23.2997C23.7994 23.6997 23.7994 24.3997 23.2994 24.6997C23.0994 24.7997 22.8994 24.8997 22.6994 24.8997C22.3994 24.8997 22.0994 24.7997 21.8994 24.4997ZM24.6994 22.5997C24.4994 22.0997 24.6994 21.4997 25.1994 21.1997C25.6994 20.9997 26.2994 21.1997 26.5994 21.6997C26.7994 22.1997 26.5994 22.7997 26.0994 23.0997C25.9994 23.1997 25.7994 23.1997 25.6994 23.1997C25.2994 23.1997 24.8994 22.9997 24.6994 22.5997Z" fill="url(#paint5_linear)"/>
<path d="M25.5002 54.8004L24.6002 53.8004C25.5002 52.9004 26.8002 52.4004 28.1002 52.4004H31.6002C32.6002 52.4004 33.4002 51.6004 33.4002 50.6004C33.4002 49.6004 32.6002 48.8004 31.6002 48.8004H21.6002C19.8002 48.8004 18.1002 49.3004 16.6002 50.2004L9.90019 54.3004L9.2002 53.1004L15.9002 49.0004C17.6002 48.0004 19.6002 47.4004 21.6002 47.4004H31.6002C33.3002 47.4004 34.7002 48.8004 34.7002 50.5004C34.7002 52.2004 33.3002 53.6004 31.6002 53.6004H28.0002C27.1002 53.8004 26.2002 54.1004 25.5002 54.8004Z" fill="url(#paint6_linear)"/>
<path d="M13.7996 63.8L13.5996 62.5L37.7996 58.7C40.6996 58.3 43.2996 57 45.4996 55L49.8996 50.9C50.7996 50.1 50.8996 48.7 50.0996 47.7C49.2996 46.8 47.8996 46.7 46.8996 47.5L42.2996 51.4C41.2996 52.3 39.9996 52.7 38.5996 52.7H33.5996V51.3H38.5996C39.5996 51.3 40.5996 50.9 41.3996 50.3L45.9996 46.4C46.6996 45.8 47.6996 45.5 48.5996 45.6C49.5996 45.7 50.3996 46.1 51.0996 46.8C52.3996 48.3 52.2996 50.5 50.7996 51.8L46.2996 56C43.9996 58.2 41.0996 59.6 37.8996 60.1L13.7996 63.8Z" fill="url(#paint7_linear)"/>
<path d="M7.19981 70.0002L0.799805 56.0002L9.19981 52.2002L15.5998 66.2002L7.19981 70.0002ZM2.59981 56.7002L7.7998 68.2002L13.6998 65.5002L8.49981 54.0002L2.59981 56.7002Z" fill="url(#paint8_linear)"/>
<path d="M43.3998 22.4998H33.3998C31.6998 22.4998 30.2998 21.0998 30.2998 19.3998C30.2998 17.6998 31.6998 16.2998 33.3998 16.2998H36.8998C37.7998 16.2998 38.6998 15.8998 39.3998 15.2998L40.2998 16.2998C39.3998 17.1998 38.0998 17.6998 36.7998 17.6998H33.2998C32.2998 17.6998 31.4998 18.4998 31.4998 19.4998C31.4998 20.4998 32.2998 21.2998 33.2998 21.2998H43.2998C45.0998 21.2998 46.7998 20.7998 48.2998 19.8998L54.9998 15.7998L55.6998 16.9998L48.9998 21.0998C47.2998 21.9998 45.3998 22.4998 43.3998 22.4998Z" fill="url(#paint9_linear)"/>
<path d="M16.5999 24.4002C16.4999 24.4002 16.3999 24.4002 16.2999 24.4002C15.2999 24.3002 14.4999 23.9002 13.7999 23.2002C12.4999 21.7002 12.5999 19.5002 14.0999 18.2002L18.4999 14.1002C20.7999 11.9002 23.6999 10.5002 26.8999 10.0002L51.0999 6.2002L51.2999 7.5002L27.0999 11.3002C24.1999 11.7002 21.5999 13.0002 19.3999 15.0002L14.9999 19.1002C14.0999 19.9002 13.9999 21.3002 14.7999 22.3002C15.5999 23.2002 16.9999 23.3002 17.9999 22.5002L22.5999 18.6002C23.5999 17.7002 24.8999 17.3002 26.2999 17.3002H31.2999V18.7002H26.2999C25.2999 18.7002 24.2999 19.1002 23.4999 19.7002L18.9999 23.5002C18.2999 24.1002 17.4999 24.4002 16.5999 24.4002Z" fill="url(#paint10_linear)"/>
<path d="M55.6998 17.8L49.2998 3.8L57.6998 0L63.9998 14L55.6998 17.8ZM51.0998 4.5L56.3998 16L62.2998 13.3L56.9998 1.8L51.0998 4.5Z" fill="url(#paint11_linear)"/>
<path d="M79.0996 38.5002H75.9996V36.7002H41.3996V50.2002C41.3996 50.5002 41.3996 50.8002 41.3996 51.0002V51.3002L41.5996 51.1002C41.8996 50.8002 42.1996 50.7002 42.4996 50.6002H42.5996V50.4002V50.3002V38.0002H74.6996V38.5002V50.3002C74.6996 52.9002 74.0996 55.5002 72.8996 57.8002C71.7996 60.0002 70.0996 61.8002 68.1996 63.3002H49.1996C47.1996 61.9002 45.5996 60.0002 44.4996 57.8002C44.3996 57.7002 44.3996 57.6002 44.3996 57.5002L44.2996 57.2002H44.1996C43.8996 57.3002 43.5996 57.4002 43.2996 57.4002H43.0996L43.2996 57.8002C43.3996 58.0002 43.4996 58.2002 43.5996 58.4002C44.5996 60.3002 45.8996 61.9002 47.4996 63.3002H34.5996V63.9002C34.5996 67.3002 37.3996 70.1002 40.7996 70.1002H76.5996C79.9996 70.1002 82.7996 67.3002 82.7996 63.9002V63.3002H70.0996C71.6996 61.9002 72.9996 60.2002 73.9996 58.4002C75.1996 56.2002 75.7996 53.8002 75.9996 51.3002H79.0996C82.5996 51.3002 85.3996 48.5002 85.3996 45.0002V44.8002C85.2996 41.3002 82.4996 38.5002 79.0996 38.5002ZM84.0996 44.7002V45.0002C84.0996 47.8002 81.7996 50.0002 79.0996 50.0002H75.9996V39.7002H79.0996C81.7996 39.7002 84.0996 42.0002 84.0996 44.7002ZM48.7996 64.5002H68.4996H81.3996C81.0996 67.0002 78.9996 68.8002 76.4996 68.8002H40.7996C38.2996 68.8002 36.1996 67.0002 35.8996 64.5002H48.7996Z" fill="url(#paint12_linear)"/>
<path d="M58.1997 55.8007C59.5997 55.6007 60.8997 55.0007 61.8997 53.9007C62.9997 52.8007 63.5997 51.5007 63.7997 50.2007C63.9997 48.8007 63.5997 47.5007 62.6997 46.6007C61.7997 45.7007 60.4997 45.3007 59.0997 45.5007C57.6997 45.7007 56.3997 46.3007 55.3997 47.4007C54.2997 48.5007 53.6997 49.8007 53.4997 51.1007C53.2997 52.5007 53.6997 53.8007 54.5997 54.7007C55.3997 55.5007 56.3997 55.9007 57.4997 55.9007C57.7997 55.8007 57.9997 55.8007 58.1997 55.8007ZM62.1997 47.9007C62.9997 49.3007 62.5997 51.4007 60.9997 53.0007C60.0997 53.9007 59.0997 54.4007 57.9997 54.5007C57.1997 54.6007 56.4997 54.5007 55.8997 54.1007L62.1997 47.9007ZM55.0997 53.3007C54.6997 52.7007 54.5997 52.0007 54.6997 51.2007C54.7997 50.1007 55.3997 49.1007 56.1997 48.2007C57.0997 47.3007 58.0997 46.8007 59.1997 46.6007C59.3997 46.6007 59.4997 46.6007 59.6997 46.6007C60.2997 46.6007 60.7997 46.7007 61.2997 47.0007L55.0997 53.3007Z" fill="url(#paint13_linear)"/>
<path d="M46.4 32.4006C46.9 32.4006 47.3 32.0006 47.3 31.5006C47.3 31.0006 46.9 30.6006 46.4 30.6006C45.9 30.6006 45.5 31.0006 45.5 31.5006C45.5 32.0006 45.9 32.4006 46.4 32.4006Z" fill="url(#paint14_linear)"/>
<path d="M46.4 29.9006C46.9 29.9006 47.3 29.5006 47.3 29.0006C47.3 28.5006 46.9 28.1006 46.4 28.1006C45.9 28.1006 45.5 28.5006 45.5 29.0006C45.5 29.5006 45.9 29.9006 46.4 29.9006Z" fill="url(#paint15_linear)"/>
<path d="M46.4 34.8C46.9 34.8 47.3 34.4 47.3 33.9C47.3 33.4 46.9 33 46.4 33C45.9 33 45.5 33.4 45.5 33.9C45.5 34.5 45.9 34.8 46.4 34.8Z" fill="url(#paint16_linear)"/>
<path d="M58.6998 27.4006C59.1998 27.4006 59.5998 27.0006 59.5998 26.5006C59.5998 26.0006 59.1998 25.6006 58.6998 25.6006C58.1998 25.6006 57.7998 26.0006 57.7998 26.5006C57.7998 27.0006 58.1998 27.4006 58.6998 27.4006Z" fill="url(#paint17_linear)"/>
<path d="M58.6998 25.0002C59.1998 25.0002 59.5998 24.6002 59.5998 24.1002C59.5998 23.6002 59.1998 23.2002 58.6998 23.2002C58.1998 23.2002 57.7998 23.6002 57.7998 24.1002C57.7998 24.6002 58.1998 25.0002 58.6998 25.0002Z" fill="url(#paint18_linear)"/>
<path d="M58.6998 34.8C59.1998 34.8 59.5998 34.4 59.5998 33.9C59.5998 33.4 59.1998 33 58.6998 33C58.1998 33 57.7998 33.4 57.7998 33.9C57.7998 34.5 58.1998 34.8 58.6998 34.8Z" fill="url(#paint19_linear)"/>
<path d="M58.6998 29.9006C59.1998 29.9006 59.5998 29.5006 59.5998 29.0006C59.5998 28.5006 59.1998 28.1006 58.6998 28.1006C58.1998 28.1006 57.7998 28.5006 57.7998 29.0006C57.7998 29.5006 58.1998 29.9006 58.6998 29.9006Z" fill="url(#paint20_linear)"/>
<path d="M58.6998 32.4006C59.1998 32.4006 59.5998 32.0006 59.5998 31.5006C59.5998 31.0006 59.1998 30.6006 58.6998 30.6006C58.1998 30.6006 57.7998 31.0006 57.7998 31.5006C57.7998 32.0006 58.1998 32.4006 58.6998 32.4006Z" fill="url(#paint21_linear)"/>
<path d="M70.9996 27.4006C71.4996 27.4006 71.8996 27.0006 71.8996 26.5006C71.8996 26.0006 71.4996 25.6006 70.9996 25.6006C70.4996 25.6006 70.0996 26.0006 70.0996 26.5006C70.0996 27.0006 70.4996 27.4006 70.9996 27.4006Z" fill="url(#paint22_linear)"/>
<path d="M70.9996 29.9006C71.4996 29.9006 71.8996 29.5006 71.8996 29.0006C71.8996 28.5006 71.4996 28.1006 70.9996 28.1006C70.4996 28.1006 70.0996 28.5006 70.0996 29.0006C70.0996 29.5006 70.4996 29.9006 70.9996 29.9006Z" fill="url(#paint23_linear)"/>
<path d="M70.9996 34.8C71.4996 34.8 71.8996 34.4 71.8996 33.9C71.8996 33.4 71.4996 33 70.9996 33C70.4996 33 70.0996 33.4 70.0996 33.9C70.0996 34.5 70.4996 34.8 70.9996 34.8Z" fill="url(#paint24_linear)"/>
<path d="M70.9996 32.4006C71.4967 32.4006 71.8996 31.9976 71.8996 31.5006C71.8996 31.0035 71.4967 30.6006 70.9996 30.6006C70.5026 30.6006 70.0996 31.0035 70.0996 31.5006C70.0996 31.9976 70.5026 32.4006 70.9996 32.4006Z" fill="url(#paint25_linear)"/>
<defs>
<linearGradient id="paint0_linear" x1="23.4216" y1="35.9462" x2="34.3192" y2="35.888" gradientUnits="userSpaceOnUse">
<stop stop-color="#D8BB58"/>
<stop offset="0.1464" stop-color="#ECD26E"/>
<stop offset="0.239" stop-color="#F4DB76"/>
<stop offset="0.4341" stop-color="#E9CC65"/>
<stop offset="0.8173" stop-color="#CEA53A"/>
<stop offset="0.8757" stop-color="#C99F33"/>
</linearGradient>
<linearGradient id="paint1_linear" x1="30.3334" y1="26.975" x2="32.2404" y2="26.9608" gradientUnits="userSpaceOnUse">
<stop stop-color="#D8BB58"/>
<stop offset="0.1464" stop-color="#ECD26E"/>
<stop offset="0.239" stop-color="#F4DB76"/>
<stop offset="0.4341" stop-color="#E9CC65"/>
<stop offset="0.8173" stop-color="#CEA53A"/>
<stop offset="0.8757" stop-color="#C99F33"/>
</linearGradient>
<linearGradient id="paint2_linear" x1="30.3334" y1="44.475" x2="32.2404" y2="44.4608" gradientUnits="userSpaceOnUse">
<stop stop-color="#D8BB58"/>
<stop offset="0.1464" stop-color="#ECD26E"/>
<stop offset="0.239" stop-color="#F4DB76"/>
<stop offset="0.4341" stop-color="#E9CC65"/>
<stop offset="0.8173" stop-color="#CEA53A"/>
<stop offset="0.8757" stop-color="#C99F33"/>
</linearGradient>
<linearGradient id="paint3_linear" x1="42.78" y1="30.569" x2="50.5445" y2="30.5348" gradientUnits="userSpaceOnUse">
<stop stop-color="#D8BB58"/>
<stop offset="0.1464" stop-color="#ECD26E"/>
<stop offset="0.239" stop-color="#F4DB76"/>
<stop offset="0.4341" stop-color="#E9CC65"/>
<stop offset="0.8173" stop-color="#CEA53A"/>
<stop offset="0.8757" stop-color="#C99F33"/>
</linearGradient>
<linearGradient id="paint4_linear" x1="8.98999" y1="35.53" x2="16.4822" y2="35.5108" gradientUnits="userSpaceOnUse">
<stop stop-color="#D8BB58"/>
<stop offset="0.1464" stop-color="#ECD26E"/>
<stop offset="0.239" stop-color="#F4DB76"/>
<stop offset="0.4341" stop-color="#E9CC65"/>
<stop offset="0.8173" stop-color="#CEA53A"/>
<stop offset="0.8757" stop-color="#C99F33"/>
</linearGradient>
<linearGradient id="paint5_linear" x1="10.0016" y1="29.094" x2="24.681" y2="28.9808" gradientUnits="userSpaceOnUse">
<stop stop-color="#D8BB58"/>
<stop offset="0.1464" stop-color="#ECD26E"/>
<stop offset="0.239" stop-color="#F4DB76"/>
<stop offset="0.4341" stop-color="#E9CC65"/>
<stop offset="0.8173" stop-color="#CEA53A"/>
<stop offset="0.8757" stop-color="#C99F33"/>
</linearGradient>
<linearGradient id="paint6_linear" x1="-4.7553" y1="51.1872" x2="29.9304" y2="49.8543" gradientUnits="userSpaceOnUse">
<stop stop-color="#D8BB58"/>
<stop offset="0.1464" stop-color="#ECD26E"/>
<stop offset="0.239" stop-color="#F4DB76"/>
<stop offset="0.4341" stop-color="#E9CC65"/>
<stop offset="0.8173" stop-color="#CEA53A"/>
<stop offset="0.8757" stop-color="#C99F33"/>
</linearGradient>
<linearGradient id="paint7_linear" x1="-7.41866" y1="54.9041" x2="44.8695" y2="53.6751" gradientUnits="userSpaceOnUse">
<stop stop-color="#D8BB58"/>
<stop offset="0.1464" stop-color="#ECD26E"/>
<stop offset="0.239" stop-color="#F4DB76"/>
<stop offset="0.4341" stop-color="#E9CC65"/>
<stop offset="0.8173" stop-color="#CEA53A"/>
<stop offset="0.8757" stop-color="#C99F33"/>
</linearGradient>
<linearGradient id="paint8_linear" x1="-7.29986" y1="61.3089" x2="12.8594" y2="61.122" gradientUnits="userSpaceOnUse">
<stop stop-color="#D8BB58"/>
<stop offset="0.1464" stop-color="#ECD26E"/>
<stop offset="0.239" stop-color="#F4DB76"/>
<stop offset="0.4341" stop-color="#E9CC65"/>
<stop offset="0.8173" stop-color="#CEA53A"/>
<stop offset="0.8757" stop-color="#C99F33"/>
</linearGradient>
<linearGradient id="paint9_linear" x1="16.399" y1="18.9842" x2="50.9463" y2="17.6252" gradientUnits="userSpaceOnUse">
<stop stop-color="#D8BB58"/>
<stop offset="0.1464" stop-color="#ECD26E"/>
<stop offset="0.239" stop-color="#F4DB76"/>
<stop offset="0.4341" stop-color="#E9CC65"/>
<stop offset="0.8173" stop-color="#CEA53A"/>
<stop offset="0.8757" stop-color="#C99F33"/>
</linearGradient>
<linearGradient id="paint10_linear" x1="-8.12374" y1="15.5136" x2="44.1643" y2="14.2832" gradientUnits="userSpaceOnUse">
<stop stop-color="#D8BB58"/>
<stop offset="0.1464" stop-color="#ECD26E"/>
<stop offset="0.239" stop-color="#F4DB76"/>
<stop offset="0.4341" stop-color="#E9CC65"/>
<stop offset="0.8173" stop-color="#CEA53A"/>
<stop offset="0.8757" stop-color="#C99F33"/>
</linearGradient>
<linearGradient id="paint11_linear" x1="41.2549" y1="9.1087" x2="61.278" y2="8.92431" gradientUnits="userSpaceOnUse">
<stop stop-color="#D8BB58"/>
<stop offset="0.1464" stop-color="#ECD26E"/>
<stop offset="0.239" stop-color="#F4DB76"/>
<stop offset="0.4341" stop-color="#E9CC65"/>
<stop offset="0.8173" stop-color="#CEA53A"/>
<stop offset="0.8757" stop-color="#C99F33"/>
</linearGradient>
<linearGradient id="paint12_linear" x1="6.79806" y1="53.7918" x2="75.9796" y2="52.6185" gradientUnits="userSpaceOnUse">
<stop stop-color="#D8BB58"/>
<stop offset="0.1464" stop-color="#ECD26E"/>
<stop offset="0.239" stop-color="#F4DB76"/>
<stop offset="0.4341" stop-color="#E9CC65"/>
<stop offset="0.8173" stop-color="#CEA53A"/>
<stop offset="0.8757" stop-color="#C99F33"/>
</linearGradient>
<linearGradient id="paint13_linear" x1="47.757" y1="50.798" x2="61.9238" y2="50.6407" gradientUnits="userSpaceOnUse">
<stop stop-color="#D8BB58"/>
<stop offset="0.1464" stop-color="#ECD26E"/>
<stop offset="0.239" stop-color="#F4DB76"/>
<stop offset="0.4341" stop-color="#E9CC65"/>
<stop offset="0.8173" stop-color="#CEA53A"/>
<stop offset="0.8757" stop-color="#C99F33"/>
</linearGradient>
<linearGradient id="paint14_linear" x1="44.5149" y1="31.5217" x2="46.9666" y2="31.4944" gradientUnits="userSpaceOnUse">
<stop stop-color="#D8BB58"/>
<stop offset="0.1464" stop-color="#ECD26E"/>
<stop offset="0.239" stop-color="#F4DB76"/>
<stop offset="0.4341" stop-color="#E9CC65"/>
<stop offset="0.8173" stop-color="#CEA53A"/>
<stop offset="0.8757" stop-color="#C99F33"/>
</linearGradient>
<linearGradient id="paint15_linear" x1="44.5149" y1="29.0217" x2="46.9666" y2="28.9944" gradientUnits="userSpaceOnUse">
<stop stop-color="#D8BB58"/>
<stop offset="0.1464" stop-color="#ECD26E"/>
<stop offset="0.239" stop-color="#F4DB76"/>
<stop offset="0.4341" stop-color="#E9CC65"/>
<stop offset="0.8173" stop-color="#CEA53A"/>
<stop offset="0.8757" stop-color="#C99F33"/>
</linearGradient>
<linearGradient id="paint16_linear" x1="44.5149" y1="33.9211" x2="46.9666" y2="33.8938" gradientUnits="userSpaceOnUse">
<stop stop-color="#D8BB58"/>
<stop offset="0.1464" stop-color="#ECD26E"/>
<stop offset="0.239" stop-color="#F4DB76"/>
<stop offset="0.4341" stop-color="#E9CC65"/>
<stop offset="0.8173" stop-color="#CEA53A"/>
<stop offset="0.8757" stop-color="#C99F33"/>
</linearGradient>
<linearGradient id="paint17_linear" x1="56.8147" y1="26.5217" x2="59.2664" y2="26.4944" gradientUnits="userSpaceOnUse">
<stop stop-color="#D8BB58"/>
<stop offset="0.1464" stop-color="#ECD26E"/>
<stop offset="0.239" stop-color="#F4DB76"/>
<stop offset="0.4341" stop-color="#E9CC65"/>
<stop offset="0.8173" stop-color="#CEA53A"/>
<stop offset="0.8757" stop-color="#C99F33"/>
</linearGradient>
<linearGradient id="paint18_linear" x1="56.8147" y1="24.1213" x2="59.2664" y2="24.094" gradientUnits="userSpaceOnUse">
<stop stop-color="#D8BB58"/>
<stop offset="0.1464" stop-color="#ECD26E"/>
<stop offset="0.239" stop-color="#F4DB76"/>
<stop offset="0.4341" stop-color="#E9CC65"/>
<stop offset="0.8173" stop-color="#CEA53A"/>
<stop offset="0.8757" stop-color="#C99F33"/>
</linearGradient>
<linearGradient id="paint19_linear" x1="56.8147" y1="33.9211" x2="59.2664" y2="33.8938" gradientUnits="userSpaceOnUse">
<stop stop-color="#D8BB58"/>
<stop offset="0.1464" stop-color="#ECD26E"/>
<stop offset="0.239" stop-color="#F4DB76"/>
<stop offset="0.4341" stop-color="#E9CC65"/>
<stop offset="0.8173" stop-color="#CEA53A"/>
<stop offset="0.8757" stop-color="#C99F33"/>
</linearGradient>
<linearGradient id="paint20_linear" x1="56.8147" y1="29.0217" x2="59.2664" y2="28.9944" gradientUnits="userSpaceOnUse">
<stop stop-color="#D8BB58"/>
<stop offset="0.1464" stop-color="#ECD26E"/>
<stop offset="0.239" stop-color="#F4DB76"/>
<stop offset="0.4341" stop-color="#E9CC65"/>
<stop offset="0.8173" stop-color="#CEA53A"/>
<stop offset="0.8757" stop-color="#C99F33"/>
</linearGradient>
<linearGradient id="paint21_linear" x1="56.8147" y1="31.5217" x2="59.2664" y2="31.4944" gradientUnits="userSpaceOnUse">
<stop stop-color="#D8BB58"/>
<stop offset="0.1464" stop-color="#ECD26E"/>
<stop offset="0.239" stop-color="#F4DB76"/>
<stop offset="0.4341" stop-color="#E9CC65"/>
<stop offset="0.8173" stop-color="#CEA53A"/>
<stop offset="0.8757" stop-color="#C99F33"/>
</linearGradient>
<linearGradient id="paint22_linear" x1="69.1145" y1="26.5217" x2="71.5662" y2="26.4944" gradientUnits="userSpaceOnUse">
<stop stop-color="#D8BB58"/>
<stop offset="0.1464" stop-color="#ECD26E"/>
<stop offset="0.239" stop-color="#F4DB76"/>
<stop offset="0.4341" stop-color="#E9CC65"/>
<stop offset="0.8173" stop-color="#CEA53A"/>
<stop offset="0.8757" stop-color="#C99F33"/>
</linearGradient>
<linearGradient id="paint23_linear" x1="69.1145" y1="29.0217" x2="71.5662" y2="28.9944" gradientUnits="userSpaceOnUse">
<stop stop-color="#D8BB58"/>
<stop offset="0.1464" stop-color="#ECD26E"/>
<stop offset="0.239" stop-color="#F4DB76"/>
<stop offset="0.4341" stop-color="#E9CC65"/>
<stop offset="0.8173" stop-color="#CEA53A"/>
<stop offset="0.8757" stop-color="#C99F33"/>
</linearGradient>
<linearGradient id="paint24_linear" x1="69.1145" y1="33.9211" x2="71.5662" y2="33.8938" gradientUnits="userSpaceOnUse">
<stop stop-color="#D8BB58"/>
<stop offset="0.1464" stop-color="#ECD26E"/>
<stop offset="0.239" stop-color="#F4DB76"/>
<stop offset="0.4341" stop-color="#E9CC65"/>
<stop offset="0.8173" stop-color="#CEA53A"/>
<stop offset="0.8757" stop-color="#C99F33"/>
</linearGradient>
<linearGradient id="paint25_linear" x1="69.1145" y1="31.5217" x2="71.5662" y2="31.4944" gradientUnits="userSpaceOnUse">
<stop stop-color="#D8BB58"/>
<stop offset="0.1464" stop-color="#ECD26E"/>
<stop offset="0.239" stop-color="#F4DB76"/>
<stop offset="0.4341" stop-color="#E9CC65"/>
<stop offset="0.8173" stop-color="#CEA53A"/>
<stop offset="0.8757" stop-color="#C99F33"/>
</linearGradient>
</defs>
</svg>
