<svg width="24" height="24" viewBox="0 0 24 24" fill="none" xmlns="http://www.w3.org/2000/svg">
<path d="M24 0H0V24H24V0Z" fill="white"/>
<path fill-rule="evenodd" clip-rule="evenodd" d="M3.7 3H20.3C20.7 3 21 3.3 21 3.7V20.3C21 20.7 20.7 21 20.3 21H3.7C3.3 21 3 20.7 3 20.3V3.7C3 3.3 3.3 3 3.7 3ZM7.2 12.9C6.9 12.9 6.6 13 6.4 13.2C6.2 13.4 6 13.7 6 14C6 14.3 6.1 14.6 6.3 14.8C6.5 15 6.8 15.1 7.1 15.1C7.4 15.1 7.7 15 7.9 14.8C8.1 14.6 8.2 14.3 8.2 14C8.2 13.7 8.1 13.4 7.9 13.2C7.8 13 7.5 12.9 7.2 12.9ZM7.5 13.8C7.4 13.7 7.4 13.7 7.3 13.7C7.2 13.7 7.1 13.7 7.1 13.8C6.9 13.9 6.9 14 6.9 14C6.9 14.1 6.9 14.2 7 14.2C7.1 14.3 7.1 14.3 7.2 14.3C7.3 14.3 7.4 14.3 7.4 14.2C7.5 14.1 7.5 14.1 7.5 14C7.6 14 7.5 13.9 7.5 13.8ZM7.2 16C6.9 16 6.6 16.1 6.4 16.3C6.2 16.6 6 16.9 6 17.2C6 17.5 6.1 17.8 6.3 18C6.5 18.2 6.8 18.3 7.1 18.3C7.4 18.3 7.7 18.2 7.9 18C8.1 17.8 8.2 17.5 8.2 17.2C8.2 16.9 8.1 16.6 7.9 16.4C7.8 16.1 7.5 16 7.2 16ZM7.5 16.9C7.4 16.8 7.4 16.8 7.3 16.8C7.2 16.8 7.1 16.8 7.1 16.9C7 17 7 17 7 17.1C7 17.2 7 17.3 7.1 17.3C7.2 17.4 7.2 17.4 7.3 17.4C7.4 17.4 7.5 17.4 7.5 17.3C7.6 17.2 7.6 17.2 7.6 17.1C7.6 17.1 7.5 17 7.5 16.9ZM10.4 16C10.1 16 9.8 16.1 9.6 16.3C9.4 16.5 9.3 16.8 9.3 17.1C9.3 17.4 9.4 17.7 9.6 17.9C9.8 18.1 10.1 18.2 10.4 18.2C10.7 18.2 11 18.1 11.2 17.9C11.4 17.7 11.5 17.4 11.5 17.1C11.5 16.8 11.4 16.5 11.2 16.3C11 16.1 10.7 16 10.4 16ZM10.7 16.9C10.6 16.8 10.6 16.8 10.5 16.8C10.4 16.8 10.3 16.8 10.3 16.9C10.2 17 10.2 17 10.2 17.1C10.2 17.2 10.2 17.3 10.3 17.3C10.4 17.4 10.4 17.4 10.5 17.4C10.6 17.4 10.7 17.4 10.7 17.3C10.8 17.2 10.8 17.2 10.8 17.1C10.8 17.1 10.7 17 10.7 16.9ZM10.4 12.9C10.1 12.9 9.8 13 9.6 13.2C9.4 13.4 9.3 13.7 9.3 14C9.3 14.3 9.4 14.6 9.6 14.8C9.8 15 10.1 15.1 10.4 15.1C10.7 15.1 11 15 11.2 14.8C11.4 14.6 11.5 14.3 11.5 14C11.5 13.7 11.4 13.4 11.2 13.2C11 13 10.7 12.9 10.4 12.9ZM10.7 13.8C10.6 13.7 10.6 13.7 10.5 13.7C10.4 13.7 10.3 13.7 10.3 13.8C10.2 13.9 10.2 13.9 10.2 14C10.2 14.1 10.2 14.2 10.3 14.2C10.4 14.3 10.4 14.3 10.5 14.3C10.6 14.3 10.7 14.3 10.7 14.2C10.8 14.1 10.8 14.1 10.8 14C10.8 14 10.7 13.9 10.7 13.8ZM10.4 9.7C10.1 9.7 9.8 9.8 9.6 10C9.4 10.2 9.3 10.5 9.3 10.8C9.3 11.1 9.4 11.4 9.6 11.6C9.8 11.8 10.1 11.9 10.4 11.9C10.7 11.9 11 11.8 11.2 11.6C11.4 11.4 11.5 11.1 11.5 10.8C11.5 10.5 11.4 10.2 11.2 10C11 9.9 10.7 9.7 10.4 9.7ZM10.7 10.7C10.6 10.6 10.6 10.6 10.5 10.6C10.4 10.6 10.3 10.6 10.3 10.7C10.2 10.8 10.2 10.8 10.2 10.9C10.2 11 10.2 11.1 10.3 11.1C10.4 11.2 10.4 11.2 10.5 11.2C10.6 11.2 10.7 11.2 10.7 11.1C10.8 11 10.8 10.9 10.8 10.9C10.8 10.8 10.7 10.7 10.7 10.7ZM13.6 16C13.3 16 13 16.1 12.8 16.3C12.6 16.5 12.5 16.8 12.5 17.1C12.5 17.4 12.6 17.7 12.8 17.9C13 18.1 13.3 18.2 13.6 18.2C13.9 18.2 14.2 18.1 14.4 17.9C14.6 17.7 14.7 17.4 14.7 17.1C14.7 16.8 14.6 16.5 14.4 16.3C14.2 16.1 13.9 16 13.6 16ZM13.8 16.9C13.7 16.8 13.6 16.8 13.6 16.8C13.5 16.8 13.4 16.8 13.4 16.9C13.3 17 13.3 17 13.3 17.1C13.3 17.2 13.3 17.3 13.4 17.3C13.5 17.4 13.6 17.4 13.6 17.4C13.7 17.4 13.8 17.4 13.8 17.3C13.9 17.2 13.9 17.2 13.9 17.1C13.9 17.1 13.9 17 13.8 16.9ZM13.6 12.9C13.3 12.9 13 13 12.8 13.2C12.6 13.4 12.5 13.7 12.5 14C12.5 14.3 12.6 14.6 12.8 14.8C13 15 13.3 15.1 13.6 15.1C13.9 15.1 14.2 15 14.4 14.8C14.6 14.6 14.7 14.3 14.7 14C14.7 13.7 14.6 13.4 14.4 13.2C14.2 13 13.9 12.9 13.6 12.9ZM13.8 13.8C13.7 13.7 13.6 13.7 13.6 13.7C13.5 13.7 13.4 13.7 13.4 13.8C13.3 13.9 13.3 13.9 13.3 14C13.3 14.1 13.3 14.2 13.4 14.2C13.5 14.3 13.6 14.3 13.6 14.3C13.7 14.3 13.8 14.3 13.8 14.2C13.9 14.1 13.9 14.1 13.9 14C13.9 14 13.9 13.9 13.8 13.8ZM13.6 9.7C13.3 9.7 13 9.8 12.8 10C12.6 10.2 12.5 10.5 12.5 10.8C12.5 11.1 12.6 11.4 12.8 11.6C13 11.8 13.3 11.9 13.6 11.9C13.9 11.9 14.2 11.8 14.4 11.6C14.6 11.4 14.7 11.1 14.7 10.8C14.7 10.5 14.6 10.2 14.4 10C14.2 9.9 13.9 9.7 13.6 9.7ZM13.8 10.7C13.7 10.6 13.6 10.6 13.6 10.6C13.5 10.6 13.4 10.6 13.4 10.7C13.3 10.8 13.3 10.8 13.3 10.9C13.3 11 13.3 11.1 13.4 11.1C13.5 11.2 13.6 11.2 13.6 11.2C13.7 11.2 13.8 11.2 13.8 11.1C13.9 11 13.9 10.9 13.9 10.9C13.9 10.8 13.9 10.7 13.8 10.7ZM16.8 9.7C16.5 9.7 16.2 9.8 16 10C15.8 10.2 15.7 10.5 15.7 10.8C15.7 11.1 15.8 11.4 16 11.6C16.2 11.8 16.5 11.9 16.8 11.9C17.1 11.9 17.4 11.8 17.6 11.6C17.8 11.4 17.9 11.1 17.9 10.8C17.9 10.5 17.8 10.2 17.6 10C17.4 9.9 17.1 9.7 16.8 9.7ZM17 10.7C16.9 10.6 16.8 10.6 16.8 10.6C16.8 10.6 16.6 10.6 16.6 10.7C16.5 10.8 16.5 10.8 16.5 10.9C16.5 11 16.5 11.1 16.6 11.1C16.7 11.2 16.8 11.2 16.8 11.2C16.8 11.2 17 11.2 17 11.1C17.1 11 17.1 10.9 17.1 10.9C17.1 10.8 17.1 10.7 17 10.7ZM16.8 12.9C16.5 12.9 16.2 13 16 13.2C15.8 13.4 15.7 13.7 15.7 14C15.7 14.3 15.8 14.6 16 14.8C16.2 15 16.5 15.1 16.8 15.1C17.1 15.1 17.4 15 17.6 14.8C17.8 14.6 17.9 14.3 17.9 14C17.9 13.7 17.8 13.4 17.6 13.2C17.4 13 17.1 12.9 16.8 12.9ZM17 13.8C16.9 13.7 16.8 13.7 16.8 13.7C16.8 13.7 16.6 13.7 16.6 13.8C16.5 13.9 16.5 13.9 16.5 14C16.5 14.1 16.5 14.2 16.6 14.2C16.7 14.3 16.8 14.3 16.8 14.3C16.8 14.3 17 14.3 17 14.2C17.1 14.1 17.1 14.1 17.1 14C17.1 14 17.1 13.9 17 13.8ZM7.1 5.4C7.1 5.8 6.8 6.1 6.4 6.1C6 6.1 5.7 5.8 5.7 5.4V4.4H4.4V7.6H19.6V4.4H18.2V5.4C18.2 5.8 17.9 6.1 17.5 6.1C17.1 6.1 16.8 5.8 16.8 5.4V4.4H14.5V5.4C14.5 5.8 14.2 6.1 13.8 6.1C13.4 6.1 13.1 5.8 13.1 5.4V4.4H10.8V5.4C10.8 5.8 10.5 6.1 10.1 6.1C9.7 6.1 9.4 5.8 9.4 5.4V4.4H7.1V5.4ZM4.4 8.4V19.6H19.6V8.4H4.4Z" fill="url(#paint0_linear)"/>
<defs>
<linearGradient id="paint0_linear" x1="-6.85094" y1="12.211" x2="17.6662" y2="11.9377" gradientUnits="userSpaceOnUse">
<stop stop-color="#D8BB58"/>
<stop offset="0.1464" stop-color="#ECD26E"/>
<stop offset="0.239" stop-color="#F4DB76"/>
<stop offset="0.4341" stop-color="#E9CC65"/>
<stop offset="0.8173" stop-color="#CEA53A"/>
<stop offset="0.8757" stop-color="#C99F33"/>
</linearGradient>
</defs>
</svg>
