<svg width="24" height="24" viewBox="0 0 24 24" fill="none" xmlns="http://www.w3.org/2000/svg">
<rect width="24" height="24" fill="url(#paint0_linear)"/>
<path fill-rule="evenodd" clip-rule="evenodd" d="M8.41103 5.18477L8.15094 4.92468C7.98574 4.75948 7.71862 4.75948 7.55343 4.92468L4.78379 7.70837L3.43412 6.3587C3.26893 6.19351 3.00181 6.19351 2.83661 6.3587L2.5238 6.67152C2.3586 6.83671 2.3586 7.10383 2.5238 7.26903L4.43232 9.17755C4.59751 9.34274 4.86463 9.34274 5.02983 9.17755L5.03686 9.17052L8.40752 5.78579C8.57623 5.61709 8.57623 5.34996 8.41103 5.18477ZM9.36356 7.68369H20.189C20.305 7.68369 20.3999 7.58879 20.3999 7.4728V6.62926C20.3999 6.51327 20.305 6.41837 20.189 6.41837H9.36356C9.24758 6.41837 9.15268 6.51327 9.15268 6.62926V7.4728C9.15268 7.58879 9.24758 7.68369 9.36356 7.68369ZM20.3999 12.2529V13.0965C20.3999 13.2124 20.305 13.3073 20.189 13.3073H9.36356C9.24758 13.3073 9.15268 13.2124 9.15268 13.0965V12.2529C9.15268 12.1369 9.24758 12.042 9.36356 12.042H20.189C20.305 12.042 20.3999 12.1369 20.3999 12.2529ZM20.3999 18.7201V17.8766C20.3999 17.7606 20.305 17.6657 20.189 17.6657H9.36356C9.24758 17.6657 9.15268 17.7606 9.15268 17.8766V18.7201C9.15268 18.8361 9.24758 18.931 9.36356 18.931H20.189C20.305 18.931 20.3999 18.8361 20.3999 18.7201ZM3.54308 18.1577C3.54308 17.4583 4.10896 16.8924 4.80839 16.8924C5.50783 16.8924 6.05965 17.4583 6.05965 18.1577C6.05965 18.8572 5.50783 19.423 4.80839 19.423C4.10896 19.423 3.54308 18.8572 3.54308 18.1577ZM8.165 10.5483L8.42509 10.8084C8.59029 10.9736 8.59029 11.2407 8.42861 11.4095L5.04389 14.7942L5.05092 14.8012C4.88572 14.9664 4.6186 14.9664 4.45341 14.8012L2.54489 12.8927C2.37969 12.7275 2.37969 12.4604 2.54489 12.2952L2.85067 11.9824C3.01587 11.8172 3.28299 11.8172 3.44818 11.9824L4.79785 13.332L7.56749 10.5483C7.73268 10.3831 7.99981 10.3831 8.165 10.5483Z" fill="white"/>
<defs>
<linearGradient id="paint0_linear" x1="-13.1346" y1="12.2814" x2="19.5549" y2="11.9169" gradientUnits="userSpaceOnUse">
<stop stop-color="#D8BB58"/>
<stop offset="0.1464" stop-color="#ECD26E"/>
<stop offset="0.239" stop-color="#F4DB76"/>
<stop offset="0.4341" stop-color="#E9CC65"/>
<stop offset="0.8173" stop-color="#CEA53A"/>
<stop offset="0.8757" stop-color="#C99F33"/>
</linearGradient>
</defs>
</svg>
