<svg width="90" height="90" viewBox="0 0 90 90" fill="none" xmlns="http://www.w3.org/2000/svg">
<ellipse cx="42.5" cy="43.1855" rx="42.5" ry="43.1855" fill="white"/>
<g clip-path="url(#clip0)">
<path d="M13.1205 63.7354C13.1205 62.625 13.2438 63.3653 12.9971 62.9951C12.9971 64.229 12.9971 63.4887 13.1205 63.7354Z" fill="url(#paint0_linear)"/>
<path d="M12.627 62.9955L12.9971 63.1188V62.8721L12.627 62.9955Z" fill="url(#paint1_linear)"/>
<path d="M13.3677 25.2388C13.2443 24.8686 12.9975 24.4984 12.8741 24.0049C12.8741 24.0049 12.8741 24.0049 12.8741 23.8815C11.7636 25.6089 10.8999 27.4597 10.1596 29.4339C8.67897 33.1355 7.93865 34.246 7.56849 39.1815C7.19833 43.5001 7.07494 45.721 8.18542 50.163C8.55558 51.6436 9.04913 52.6307 9.04913 53.7412C9.04913 54.4815 9.04913 54.1113 9.41929 54.7283C10.5298 56.0855 11.3935 59.2936 12.2572 61.021C12.7507 61.8847 13.2443 62.0081 13.7378 62.7484L13.2443 63.6121C13.3677 64.9694 14.6015 66.6968 16.2056 68.5476C16.329 68.5476 16.329 68.4242 16.4524 68.4242C16.9459 68.3009 17.5628 68.1775 18.0564 68.0541C18.0564 67.9307 17.933 67.8073 17.933 67.5605C18.4266 67.8073 18.4265 67.8073 18.4265 67.9307C18.6733 67.8073 18.9201 67.8073 19.1669 67.6839C19.4136 67.5605 19.6604 67.5605 19.9072 67.4371C20.2774 67.1904 20.6475 67.067 21.1411 66.9436C21.1411 66.8202 21.2645 66.5734 21.5112 66.4501C21.6346 66.4501 21.758 66.3267 21.8814 66.2033C22.0048 66.2033 22.0048 66.2033 22.1282 66.0799C22.3749 65.9565 22.6217 65.8331 22.6217 65.8331H22.7451C22.7451 65.8331 22.7451 65.8331 22.8685 65.8331C22.9919 65.8331 23.2386 65.7097 23.362 65.5863C23.4854 65.463 23.7322 65.3396 23.7322 65.3396C23.8556 65.3396 24.2257 65.0928 25.2128 64.4759C25.3362 64.3525 25.583 64.2291 25.7064 64.2291C25.8298 64.2291 25.8298 64.1057 25.8298 64.1057C25.8298 64.1057 25.9532 63.9823 26.1999 63.8589C26.4467 63.7355 26.5701 63.6121 26.5701 63.6121C26.5701 63.6121 26.5701 63.6121 26.5701 63.4888H26.6935C26.8169 63.4888 28.0507 62.3783 28.1741 62.2549L28.2975 62.1315C28.7911 62.0081 30.8886 59.0468 30.7653 58.6767C30.7653 58.6767 30.7653 58.5533 30.8886 58.5533C30.8886 58.5533 31.1354 58.0597 31.2588 57.5662C31.8757 55.4686 31.8757 54.7283 31.3822 52.5073C31.1354 51.5202 31.012 50.5331 30.8886 50.163C30.7653 49.7928 30.7653 49.546 30.7653 49.546C31.012 49.546 31.012 48.6823 30.8886 48.3122C30.7653 48.1888 30.1483 47.5718 29.2846 46.9549C27.6806 45.8444 27.6806 45.8444 27.187 45.2275C26.9403 44.9807 26.8169 44.7339 26.6935 44.7339C26.6935 44.7339 26.5701 44.4871 26.4467 44.3638C26.3233 44.2404 26.3233 44.117 26.1999 44.117C26.1999 44.117 26.0765 44.117 26.0765 43.9936C26.0765 43.8702 25.583 43.0065 25.2128 42.3896C25.0894 42.2662 24.9661 41.896 24.8427 41.6492C24.7193 41.4025 24.4725 40.7855 24.3491 40.4154C23.979 39.6751 23.7322 38.8113 23.1153 37.2073C22.8685 36.5904 22.7451 36.0968 22.6217 35.9734C22.6217 35.8501 22.3749 35.4799 22.2515 35.1097C21.758 33.6291 20.6475 31.038 19.9072 29.3105C19.7838 28.9404 19.537 28.4468 19.4136 28.2001C19.2903 27.9533 19.1669 27.5831 19.0435 27.5831C18.9201 27.4597 18.7967 27.213 18.7967 27.0896C18.6733 26.8428 18.5499 26.596 18.5499 26.596C18.5499 26.4726 18.4265 26.3492 18.3032 26.1025C18.1798 25.8557 18.0564 25.6089 18.0564 25.6089C18.0564 25.4855 17.8096 25.1154 17.5628 24.7452C17.3161 24.3751 17.0693 24.0049 17.0693 24.0049L16.9459 23.8815C16.9459 23.6347 15.3419 21.5371 15.2185 21.5371C15.0951 21.5371 15.0951 21.4138 15.0951 21.4138C15.0951 21.2904 14.6015 20.6734 14.3548 20.5501C14.3548 20.5501 14.2314 20.4267 13.9846 20.1799C13.1209 19.1928 10.283 17.4654 10.4064 17.9589C10.4064 18.0823 10.7766 18.4525 10.8999 18.5759C11.0233 18.6992 12.6274 20.9202 12.6274 21.0436C12.6274 21.167 12.7507 21.167 12.7507 21.167C12.8741 21.167 12.8741 21.2904 12.8741 21.2904C12.8741 21.4138 12.9975 21.6605 13.1209 21.7839C13.4911 22.4009 14.3548 24.0049 14.6016 24.8686C15.0951 25.9791 15.0951 25.9791 14.7249 26.596C14.6015 26.8428 14.4782 27.0896 14.2314 27.3363L14.108 27.213C13.7378 27.8299 13.3677 28.4468 12.9975 29.1871C12.3806 30.0509 12.1338 30.7912 11.7636 31.5315C11.1467 32.5186 10.5298 32.642 10.1596 33.6291C10.1596 33.7525 9.54268 36.467 9.54268 36.5904C9.54268 37.5775 9.66607 37.3307 9.66607 38.1944C9.66607 38.688 9.54268 39.0581 9.54268 40.0452C9.54268 40.292 9.54268 40.5388 9.54268 40.6621C9.29591 41.2791 9.17252 44.7339 9.41929 46.9549C9.54268 48.0654 9.66607 49.6694 10.0362 51.2734C7.19833 42.6363 8.80236 32.8888 13.3677 25.2388ZM9.78945 39.3049C9.78945 39.4283 9.78945 39.5517 9.78945 39.5517V39.3049Z" fill="url(#paint2_linear)"/>
<path d="M26.8166 12.5303C34.2198 8.82868 42.24 8.95207 50.2601 10.4327C55.4424 11.4198 53.8383 11.2964 57.6633 13.2706C61.7351 15.3682 64.2029 18.3295 67.4109 21.5376C68.5214 22.648 67.9045 22.1545 68.398 23.3884C66.4238 23.3884 66.4238 21.2908 63.2158 18.6997C57.7867 14.5045 49.273 10.4327 41.8698 10.4327C34.4666 10.4327 25.9529 13.6408 20.7706 18.5763C20.5238 18.823 20.2771 19.0698 20.0303 19.1932C20.2771 19.1932 20.6472 19.3166 20.894 19.44C21.0174 19.0698 21.5109 18.823 21.8811 18.9464C21.7577 18.9464 21.7577 19.0698 21.6343 19.0698C21.1408 19.3166 21.0174 19.6867 21.3875 19.6867C21.5109 19.6867 21.5109 19.6867 21.6343 19.8101C21.6343 19.8101 21.7577 19.9335 22.0045 19.9335C22.2513 19.9335 22.6214 20.0569 22.9916 20.3037C23.3617 20.4271 23.7319 20.5505 23.9787 20.6738C24.1021 20.6738 24.3488 20.7972 24.3488 20.7972C24.3488 20.7972 24.5956 20.9206 24.719 20.9206C24.8424 20.9206 25.4593 21.2908 26.0763 21.5376C26.6932 21.7843 27.1867 22.0311 27.3101 22.0311H27.4335C27.5569 22.1545 28.2972 22.5247 28.4206 22.5247H28.544C28.6674 22.648 29.4077 23.0182 29.5311 23.0182C29.5311 23.0182 29.6545 23.0182 29.6545 23.1416C29.6545 23.1416 29.9013 23.265 30.0246 23.3884C30.2714 23.3884 30.3948 23.5117 30.3948 23.6351L30.5182 23.7585C30.6416 23.7585 30.8883 23.8819 31.1351 24.0053C32.7392 24.7456 33.6029 25.1158 33.6029 24.9924C33.7263 24.9924 33.7263 24.9924 33.7263 25.1158C33.7263 25.1158 33.8496 25.2392 34.0964 25.3626C34.59 25.4859 36.8109 26.473 36.8109 26.5964L36.9343 26.7198C37.3045 26.7198 40.8827 29.3109 41.8698 30.298C42.7335 31.2851 43.4738 32.1488 43.4738 32.3956C43.4738 32.519 43.5972 32.519 43.7206 32.519C43.9674 32.519 43.9674 32.3956 43.4738 31.6553C42.9803 30.7916 42.3634 29.9279 41.3763 28.9408C40.8827 28.4472 40.5125 27.9537 40.3892 27.9537C40.3892 27.9537 40.1424 27.7069 39.7722 27.4601C39.6488 26.8432 39.6488 26.8432 40.019 26.8432C40.7593 26.8432 42.1166 27.09 42.8569 27.2134C43.1037 27.2134 43.3504 27.3367 43.4738 27.3367C43.5972 27.3367 43.7206 27.3367 43.844 27.3367C43.844 27.3367 44.0908 27.4601 44.3375 27.4601C44.5843 27.4601 44.9545 27.4601 45.2013 27.5835C46.065 27.8303 46.4351 27.8303 46.9287 27.9537C47.2988 28.0771 47.669 28.0771 47.7924 28.2005C48.0392 28.2005 48.5327 28.3238 48.9029 28.2005C49.6432 28.0771 49.7666 28.0771 50.2601 27.5835C50.6303 27.3367 50.8771 27.09 50.8771 27.09L51.0004 26.9666C51.3706 26.5964 52.1109 25.8561 52.7279 25.2392C53.098 24.869 53.4682 24.6222 53.4682 24.6222C53.5916 24.4988 54.2085 24.2521 54.3319 24.2521C54.4553 24.2521 54.3319 24.6222 53.3448 25.9795C51.8642 28.0771 51.8642 28.2005 52.3577 28.8174C52.6045 29.0642 52.7279 29.4343 52.7279 29.4343C52.7279 29.6811 53.2214 29.9279 53.3448 29.9279C53.4682 29.9279 53.8383 30.0513 54.2085 30.0513L54.9488 30.298L55.4424 29.9279C55.6892 29.6811 56.3061 28.9408 56.7996 28.3238C57.2932 27.7069 57.6633 27.09 57.7867 27.09L57.9101 26.9666C57.9101 26.8432 58.0335 26.8432 58.0335 26.9666C58.1569 27.09 58.0335 27.5835 57.6633 28.4472C57.54 28.694 57.4166 28.9408 57.4166 29.0642C57.4166 29.1876 57.2932 29.3109 57.1698 29.3109L57.0464 29.4343C57.0464 29.5577 56.923 29.8045 56.7996 30.0513C56.6763 30.298 56.5529 30.5448 56.5529 30.6682C56.5529 30.7916 56.5529 30.7916 56.4295 30.7916C56.4295 30.7916 56.1827 31.1617 56.0593 31.5319C55.8125 32.1488 55.6892 32.2722 55.8125 33.0126C55.9359 33.6295 56.0593 33.9997 56.7996 35.1101C57.2932 35.8505 57.6633 36.5908 57.7867 36.5908C57.9101 36.7142 57.9101 36.8376 57.9101 36.9609C57.9101 37.0843 58.0335 37.2077 58.1569 37.4545C58.2803 37.7013 58.4037 37.948 58.5271 38.0714C58.5271 38.1948 58.7738 38.565 59.0206 38.9351C59.3908 39.5521 59.7609 40.2924 60.1311 41.0327C60.2545 41.4029 60.2545 41.4029 60.1311 41.2795C60.0077 41.2795 59.8843 41.1561 59.8843 41.1561C59.7609 41.0327 58.2803 40.169 58.1569 40.169C58.0335 40.169 58.0335 40.169 58.0335 40.0456C57.9101 39.9222 57.1698 39.5521 56.0593 39.3053C54.3319 38.8117 53.5916 38.6884 53.5916 39.0585L53.715 39.1819C53.9617 39.1819 56.3061 39.9222 56.7996 40.2924C56.923 40.4158 57.0464 40.4158 57.1698 40.4158C57.4166 40.4158 61.365 43.2537 61.4883 43.5005L61.6117 43.6238C61.6117 43.6238 61.8585 43.7472 61.9819 43.994C62.1053 44.2408 62.3521 44.3642 62.4754 44.4875C62.5988 44.4875 62.7222 44.7343 62.7222 44.7343C62.8456 44.9811 63.0924 45.1045 63.5859 45.7214C63.8327 45.9682 63.9561 46.215 63.9561 46.215C63.9561 46.215 64.0795 46.4617 64.2029 46.5851C65.0666 47.4488 67.0408 49.6698 67.0408 49.7932L67.1642 49.9166C67.1642 49.9166 67.2875 50.04 67.4109 50.1634C67.7811 50.5335 68.5214 51.3972 68.6448 51.5206C68.6448 51.5206 68.7682 51.644 68.8916 51.7674C69.2617 52.1376 70.3722 53.3714 70.619 53.7416C70.7424 53.865 70.8658 54.1117 70.9892 54.1117C71.1125 54.2351 71.4827 54.7287 71.9762 55.3456C72.4698 55.9625 72.84 56.4561 72.84 56.4561C72.84 56.5795 73.0867 56.5795 73.2101 56.4561C73.2101 56.5795 73.3335 56.7029 73.3335 56.7029C73.5803 56.9496 73.8271 57.1964 74.0738 57.5666C74.8142 55.5924 75.3077 53.4948 75.6779 51.3972C76.9117 43.5005 74.8142 39.7988 74.8142 37.3311L73.8271 35.1101C73.7037 34.6166 73.4569 34.123 73.2101 33.3827C73.0867 33.1359 72.9633 32.6424 72.84 32.3956C72.5932 31.6553 71.8529 30.0513 71.2359 28.9408C71.6061 29.1876 71.8529 29.4343 72.3464 29.8045C72.9633 30.5448 72.7166 30.5448 73.4569 31.0384C74.0738 30.6682 73.8271 30.7916 74.444 30.6682V30.1747C71.7295 29.9279 72.4698 26.8432 70.7424 23.8819C69.7553 22.4013 67.5343 19.0698 66.4238 18.0827C65.8069 17.5892 65.5601 17.4658 64.9432 16.8488C62.3521 14.2577 64.573 16.1085 60.8714 13.2706C60.2545 12.7771 60.2545 12.6537 59.3908 12.2835C54.0851 9.93917 55.6892 9.81578 54.4553 10.8029L52.4811 9.93917C50.2601 9.07546 48.9029 9.07546 47.0521 8.7053L45.9416 8.33514C47.4222 8.33514 48.4093 8.58191 50.1367 8.58191C50.1367 8.58191 50.0134 8.45852 50.0134 8.58191L49.3964 8.33514C48.2859 8.21175 47.5456 8.33514 45.9416 7.96498C44.4609 7.7182 43.2271 6.97788 41.8698 6.85449L43.5972 8.33514C38.6617 8.33514 37.3045 7.96498 32.4924 9.32223C29.7779 10.0626 26.4464 11.6666 23.9787 13.0238C21.3875 14.3811 19.1666 16.1085 17.1924 18.2061C17.5625 18.3295 17.9327 18.5763 18.1795 18.823C20.894 15.9851 23.115 14.3811 26.8166 12.5303ZM42.3633 12.0367C42.1166 12.0367 41.8698 12.0367 41.4996 12.0367C41.2529 12.0367 40.5125 12.1601 39.6488 12.2835C38.2916 12.4069 37.1811 12.5303 36.194 12.7771C34.8367 13.0238 33.8496 13.1472 33.7263 13.1472C33.7263 13.1472 33.1093 13.394 32.6158 13.5174C31.0117 14.0109 29.2843 14.7513 27.6803 15.4916C26.94 15.8617 26.4464 16.1085 26.0763 16.3553C25.9529 16.4787 25.5827 16.7255 25.2125 16.8488C24.9658 16.9722 24.4722 17.219 24.2254 17.4658C23.9787 17.5892 23.7319 17.8359 23.6085 17.8359C23.4851 17.8359 23.4851 17.9593 23.4851 17.9593C23.4851 17.9593 23.3617 18.0827 23.115 18.2061C22.9916 18.3295 22.7448 18.3295 22.7448 18.4529C22.7448 18.4529 22.6214 18.5763 22.3746 18.6997C27.1867 13.1472 35.2069 12.0367 42.3633 12.0367ZM71.2359 27.9537C70.7424 28.4472 70.8658 28.3238 70.7424 28.694C70.4956 28.2005 70.2488 27.8303 70.1254 27.5835C70.0021 27.4601 69.8787 27.2134 69.7553 26.9666C69.6319 26.7198 69.2617 26.2263 68.8916 25.6093C68.8916 25.6093 68.8916 25.6093 68.8916 25.4859C70.4956 26.1029 69.3851 27.09 71.2359 27.9537ZM45.6948 8.58191C44.5843 8.58191 45.3246 8.58191 45.0779 8.33514C46.1884 8.33514 45.448 8.33514 45.6948 8.58191Z" fill="url(#paint3_linear)"/>
<path d="M76.4179 28.9407L77.2817 28.0769C73.7034 25.7326 75.0607 22.2777 73.0865 20.9205C73.2099 22.031 73.58 22.031 73.7034 23.0181C73.0865 22.5245 72.4696 21.5374 71.976 20.6737C68.7679 15.7382 68.151 17.3423 65.5599 14.7511C59.6373 8.70517 60.6244 11.5431 58.5268 9.56888C57.6631 8.95194 58.4034 9.19872 57.0462 8.82855C56.0591 8.58178 56.0591 8.95194 55.9357 7.96484C54.9486 8.08823 55.072 8.08823 54.8252 8.70517C55.4421 9.07533 55.9357 9.07533 56.7994 9.56888C58.7736 10.6794 63.7091 13.764 64.8196 15.2447C66.7937 17.7124 67.9042 16.3552 72.3462 24.4987C72.8397 25.3624 73.4567 26.5963 74.0736 28.0769C74.6905 29.5576 75.3075 31.285 75.3075 32.5189L75.1841 32.3955C74.8139 31.6552 74.6905 31.6552 74.197 31.4084C74.197 31.9019 74.3204 32.2721 74.3204 32.6423C74.4437 33.1358 74.5671 33.6294 74.6905 34.2463C74.6905 34.7398 74.6905 35.2334 74.6905 35.7269C74.6905 36.2205 74.6905 36.8374 74.6905 37.331C74.6905 37.4544 74.6905 37.5777 74.6905 37.7011V37.8245C74.6905 37.8245 74.6905 37.9479 74.8139 37.9479C74.8139 37.9479 74.8139 38.0713 74.9373 38.0713L75.0607 38.1947C75.1841 38.3181 75.1841 38.4415 75.3075 38.5648C75.3075 38.5648 75.3075 38.6882 75.4308 38.6882C75.4308 37.7011 75.3075 37.9479 75.3075 37.0842C76.1712 37.9479 75.6776 38.3181 76.9115 39.1818C76.9115 35.11 77.2817 37.331 76.9115 32.2721C77.405 32.6423 77.5284 33.1358 77.8986 33.8761C78.8857 33.1358 78.022 31.4084 77.405 30.4213L76.4179 28.9407Z" fill="url(#paint4_linear)"/>
<path d="M75.9244 64.5999C75.1841 64.1063 74.5672 63.7362 74.5672 63.7362C74.5672 63.7362 74.3204 63.7362 74.3204 63.6128C74.0736 63.366 72.593 62.8725 72.4696 62.8725C72.3462 62.8725 72.3462 62.8725 72.3462 62.7491C72.3462 62.6257 71.1123 62.2555 70.0018 62.0088C69.8784 62.0088 69.5083 61.8854 69.1381 61.762C68.768 61.6386 68.5212 61.6386 68.3978 61.6386C68.2744 61.6386 68.151 61.6386 68.151 61.6386C68.0276 61.6386 67.6575 61.5152 67.1639 61.3918C66.6704 61.2684 66.1768 61.2684 66.0535 61.1451C65.9301 61.1451 65.5599 61.0217 65.3131 61.0217C65.0664 61.0217 64.4494 60.8983 64.0793 60.8983C62.9688 60.7749 61.9817 60.6515 61.118 60.6515C60.6244 60.6515 59.7607 60.6515 59.1438 60.5281C58.5268 60.5281 57.293 60.5281 56.5526 60.4047C55.8123 60.4047 54.7018 60.4047 54.2083 60.4047C53.7147 60.4047 52.851 60.4047 52.2341 60.2813C51.7405 60.2813 51.0002 60.158 50.7534 60.158C50.5067 60.158 50.1365 60.0346 50.1365 60.0346C50.0131 60.0346 49.8897 59.9112 49.8897 60.0346C49.643 60.0346 47.7922 59.541 47.6688 59.4176C47.6688 59.4176 47.2986 59.2943 46.9284 59.1709C46.5583 59.0475 45.5712 58.4305 44.8309 57.8136C43.9672 57.1967 43.2268 56.7031 42.9801 56.7031C42.6099 56.7031 42.1164 56.9499 41.993 57.1967C41.8696 57.3201 41.1293 57.4434 40.7591 57.3201C40.5123 57.1967 38.5381 57.3201 37.9212 57.4434C37.6744 57.4434 37.1809 57.6902 36.6873 57.8136C36.1938 57.937 35.4534 58.3072 34.9599 58.5539C33.6026 59.1709 32.2454 60.158 32.2454 60.2813C32.2454 60.2813 32.2454 60.4047 32.122 60.4047C31.9986 60.4047 31.2583 61.2684 31.0115 61.5152C30.6413 62.0088 28.1736 64.3531 27.9268 64.3531C27.8034 64.3531 27.8034 64.4765 27.8034 64.4765C27.8034 64.5999 27.3099 64.9701 26.4462 65.4636C26.1994 65.587 25.8293 65.8338 25.7059 65.9572C25.5825 66.0805 25.3357 66.2039 25.2123 66.2039C24.9655 66.3273 24.7188 66.4507 24.5954 66.4507C24.472 66.5741 23.8551 66.8209 23.2381 67.0676C22.6212 67.3144 22.0042 67.5612 21.8809 67.5612C21.3873 67.808 20.1534 68.1781 18.6728 68.6717C18.1793 68.6717 17.6857 68.7951 17.1922 68.7951C15.5881 69.0418 10.776 70.3991 9.41877 71.1394C8.06151 71.8797 7.07442 72.3733 6.45748 72.7434C5.71716 73.237 3.49619 74.7176 3.12603 74.9644C3.00264 75.0878 2.75587 75.3346 2.50909 75.458C1.76877 76.0749 1.64538 76.1983 1.15183 76.6918C0.905059 76.9386 0.534899 77.3088 0.288124 77.5555C0.0413504 77.8023 -0.082036 78.0491 -0.205423 78.0491C-0.698972 78.4193 -2.91994 81.2572 -3.04333 81.6273C-3.04333 81.6273 -3.2901 81.9975 -3.53688 82.3676C-4.15381 83.3547 -5.63446 86.0692 -6.00462 86.933C-6.12801 87.3031 -6.25139 87.5499 -6.25139 87.5499V87.6733C-6.25139 87.7967 -6.25139 87.7967 -6.25139 87.7967C-6.25139 87.7967 -6.37478 88.0434 -6.49817 88.2902C-6.62155 88.537 -6.74494 88.7838 -6.74494 88.7838C-6.74494 88.7838 -6.86833 88.9072 -6.74494 88.9072C-6.74494 89.0305 -6.99171 89.7709 -6.99171 89.7709V89.8942C-6.99171 89.8942 -6.99171 90.2644 -7.1151 90.5112C-7.23849 90.758 -7.36188 91.2515 -7.36188 91.4983C-7.36188 91.7451 -7.48526 92.1152 -7.60865 92.362C-7.85542 93.4725 -8.1022 95.0765 -8.22559 97.0507C-8.22559 97.2975 -8.22559 97.9144 -8.22559 98.5313C-8.22559 103.22 -7.1151 107.539 -5.14091 111.24C-4.15381 113.214 -3.66026 113.831 -2.42639 115.435C-1.68607 116.422 0.0413504 118.15 1.02845 119.014C1.15183 119.137 1.39861 119.26 1.39861 119.384C1.52199 119.507 1.64538 119.507 1.64538 119.507C1.64538 119.507 1.76877 119.507 1.76877 119.631C1.76877 119.754 1.89216 119.877 2.13893 119.877C2.26232 120.001 2.50909 120.124 2.63248 120.247C2.75587 120.371 2.75587 120.371 2.63248 120.124C2.50909 120.001 2.50909 119.877 2.3857 119.877C2.01554 119.754 -0.082037 117.41 -1.56268 115.682C-1.93284 115.312 -2.91994 113.708 -3.2901 112.968C-5.2643 109.513 -6.62155 105.441 -6.86833 101.616C-6.86833 100.876 -6.99171 100.135 -6.99171 99.8886C-6.99171 99.6418 -6.99171 99.3951 -6.99171 99.2717C-6.99171 99.1483 -6.99171 99.0249 -6.99171 98.7781C-6.99171 98.5313 -6.99171 98.2846 -6.99171 98.0378C-6.99171 97.4209 -6.86833 96.9273 -6.86833 96.4338C-6.74494 95.4467 -6.49817 93.1023 -6.37478 92.8555C-6.37478 92.7322 -6.25139 92.2386 -6.12801 91.8684C-6.12801 91.7451 -6.00462 91.4983 -6.00462 91.4983C-6.00462 91.4983 -5.88123 91.3749 -6.00462 91.3749C-6.00462 91.2515 -5.01752 88.0434 -4.77075 87.6733C-4.77075 87.6733 -4.52397 87.3031 -4.40059 86.8096C-3.90704 85.8225 -3.04333 84.2184 -2.54978 83.2313C-2.303 82.8612 -2.05623 82.491 -2.05623 82.491C-1.93284 82.3676 -0.822361 80.7636 -0.698974 80.7636C-0.698974 80.7636 -0.205424 80.2701 0.164737 79.7765C1.64538 78.0491 3.98974 75.9515 5.71716 74.841C7.1978 73.9773 7.44458 73.7305 9.172 72.8668C10.4059 72.2499 13.2438 71.2628 14.9712 70.7692C15.9583 70.5225 16.9454 70.3991 17.9325 70.1523C20.1534 72.2499 22.6212 74.1007 24.2252 75.0878C27.5567 77.062 31.6284 78.1725 35.3301 79.4063C37.4276 80.1467 39.6486 80.2701 42.3631 80.1467C46.8051 80.0233 51.247 78.9128 55.1954 77.3088C57.7865 76.3217 60.1309 74.841 62.4752 73.1136C65.6833 70.6459 68.151 67.808 70.2486 64.5999C69.8784 64.5999 68.768 64.5999 68.151 64.4765C68.5212 63.983 68.5212 63.983 68.8913 63.983C69.1381 63.983 69.5083 63.983 69.7551 63.983C70.2486 63.983 70.8655 64.1063 71.976 64.2297C72.593 64.3531 72.7164 64.3531 73.5801 64.5999C73.9502 64.7233 74.197 64.7233 74.3204 64.7233C74.4438 64.7233 74.5672 64.7233 74.5672 64.8467L74.6906 64.9701C74.9373 64.9701 75.9244 65.2168 76.0478 65.3402L76.1712 65.4636C76.2946 65.4636 76.5414 65.587 76.9115 65.7104C77.2817 65.8338 77.5285 65.9572 77.6518 65.8338C78.022 66.3273 77.1583 65.4636 75.9244 64.5999ZM20.4002 70.5225C20.5236 70.5225 20.647 70.5225 20.647 70.5225L20.7704 70.6459C20.647 70.6459 20.5236 70.5225 20.4002 70.5225ZM21.1405 71.1394C22.1276 71.3862 21.6341 71.3862 22.251 71.8797C24.2252 73.3604 25.9526 74.3475 28.1736 75.2112C29.0373 75.5813 29.901 75.9515 30.6413 76.4451C27.5567 76.3217 22.1276 72.4967 21.1405 71.1394Z" fill="url(#paint5_linear)"/>
</g>
<defs>
<linearGradient id="paint0_linear" x1="-8.91946" y1="94.3592" x2="66.3163" y2="-11.5917" gradientUnits="userSpaceOnUse">
<stop stop-color="#D7BA59"/>
<stop offset="0.1464" stop-color="#EBD16F"/>
<stop offset="0.239" stop-color="#F3DA77"/>
<stop offset="0.4341" stop-color="#E8CB66"/>
<stop offset="0.8173" stop-color="#CDA438"/>
<stop offset="0.8757" stop-color="#C79D31"/>
</linearGradient>
<linearGradient id="paint1_linear" x1="-9.25019" y1="94.1245" x2="65.9858" y2="-11.8255" gradientUnits="userSpaceOnUse">
<stop stop-color="#D7BA59"/>
<stop offset="0.1464" stop-color="#EBD16F"/>
<stop offset="0.239" stop-color="#F3DA77"/>
<stop offset="0.4341" stop-color="#E8CB66"/>
<stop offset="0.8173" stop-color="#CDA438"/>
<stop offset="0.8757" stop-color="#C79D31"/>
</linearGradient>
<linearGradient id="paint2_linear" x1="-15.6721" y1="89.5635" x2="59.5628" y2="-16.3865" gradientUnits="userSpaceOnUse">
<stop stop-color="#D7BA59"/>
<stop offset="0.1464" stop-color="#EBD16F"/>
<stop offset="0.239" stop-color="#F3DA77"/>
<stop offset="0.4341" stop-color="#E8CB66"/>
<stop offset="0.8173" stop-color="#CDA438"/>
<stop offset="0.8757" stop-color="#C79D31"/>
</linearGradient>
<linearGradient id="paint3_linear" x1="0.647164" y1="101.152" x2="75.8821" y2="-4.79756" gradientUnits="userSpaceOnUse">
<stop stop-color="#D7BA59"/>
<stop offset="0.1464" stop-color="#EBD16F"/>
<stop offset="0.239" stop-color="#F3DA77"/>
<stop offset="0.4341" stop-color="#E8CB66"/>
<stop offset="0.8173" stop-color="#CDA438"/>
<stop offset="0.8757" stop-color="#C79D31"/>
</linearGradient>
<linearGradient id="paint4_linear" x1="7.30054" y1="105.877" x2="82.5353" y2="-0.0731093" gradientUnits="userSpaceOnUse">
<stop stop-color="#D7BA59"/>
<stop offset="0.1464" stop-color="#EBD16F"/>
<stop offset="0.239" stop-color="#F3DA77"/>
<stop offset="0.4341" stop-color="#E8CB66"/>
<stop offset="0.8173" stop-color="#CDA438"/>
<stop offset="0.8757" stop-color="#C79D31"/>
</linearGradient>
<linearGradient id="paint5_linear" x1="12.3507" y1="109.463" x2="87.5856" y2="3.51341" gradientUnits="userSpaceOnUse">
<stop stop-color="#D7BA59"/>
<stop offset="0.1464" stop-color="#EBD16F"/>
<stop offset="0.239" stop-color="#F3DA77"/>
<stop offset="0.4341" stop-color="#E8CB66"/>
<stop offset="0.8173" stop-color="#CDA438"/>
<stop offset="0.8757" stop-color="#C79D31"/>
</linearGradient>
<clipPath id="clip0">
<rect width="85" height="86.371" fill="white"/>
</clipPath>
</defs>
</svg>
