<svg width="78" height="70" viewBox="0 0 78 70" fill="none" xmlns="http://www.w3.org/2000/svg">
<path d="M61.8 64.1992L49.6 53.3992H34.5V51.8992H50.2L60.3 60.7992V51.8992H61.1C69.4 51.8992 76.2 45.0992 76.2 36.7992C76.2 33.8992 75.4 30.9992 73.8 28.5992C72.3 26.1992 70.1 24.2992 67.5 23.0992L68.1 21.6992C70.9 22.9992 73.3 25.0992 75 27.6992C76.7 30.3992 77.7 33.4992 77.7 36.6992C77.7 41.0992 76 45.2992 72.8 48.3992C69.9 51.2992 66 52.9992 61.8 53.1992V64.1992Z" fill="url(#paint0_linear)"/>
<path d="M12.9992 39.8998C12.7992 38.8998 12.6992 37.8998 12.6992 36.8998C12.6992 32.4998 14.3992 28.2998 17.5992 25.1998C20.6992 22.0998 24.8992 20.2998 29.2992 20.2998H56.3992V21.7998H29.2992C20.9992 21.7998 14.1992 28.5998 14.1992 36.8998C14.1992 37.7998 14.2992 38.7998 14.4992 39.6998L12.9992 39.8998Z" fill="url(#paint1_linear)"/>
<path d="M28.2996 41.5992C25.6996 41.5992 23.5996 39.4992 23.5996 36.8992C23.5996 34.2992 25.6996 32.1992 28.2996 32.1992C30.8996 32.1992 32.9996 34.2992 32.9996 36.8992C32.9996 39.4992 30.8996 41.5992 28.2996 41.5992ZM28.2996 33.6992C26.4996 33.6992 25.0996 35.0992 25.0996 36.8992C25.0996 38.6992 26.4996 40.0992 28.2996 40.0992C30.0996 40.0992 31.4996 38.6992 31.4996 36.8992C31.4996 35.0992 30.0996 33.6992 28.2996 33.6992Z" fill="url(#paint2_linear)"/>
<path d="M45.2 41.5992C42.6 41.5992 40.5 39.4992 40.5 36.8992C40.5 34.2992 42.6 32.1992 45.2 32.1992C47.8 32.1992 49.9 34.2992 49.9 36.8992C49.9 39.4992 47.8 41.5992 45.2 41.5992ZM45.2 33.6992C43.4 33.6992 42 35.0992 42 36.8992C42 38.6992 43.4 40.0992 45.2 40.0992C47 40.0992 48.4 38.6992 48.4 36.8992C48.4 35.0992 47 33.6992 45.2 33.6992Z" fill="url(#paint3_linear)"/>
<path d="M62.0994 41.5992C59.4994 41.5992 57.3994 39.4992 57.3994 36.8992C57.3994 34.2992 59.4994 32.1992 62.0994 32.1992C64.6994 32.1992 66.7994 34.2992 66.7994 36.8992C66.7994 39.4992 64.6994 41.5992 62.0994 41.5992ZM62.0994 33.6992C60.2994 33.6992 58.8994 35.0992 58.8994 36.8992C58.8994 38.6992 60.2994 40.0992 62.0994 40.0992C63.8994 40.0992 65.2994 38.6992 65.2994 36.8992C65.2994 35.0992 63.8994 33.6992 62.0994 33.6992Z" fill="url(#paint4_linear)"/>
<path d="M10.5996 63.5992H0.599609V46.1992H10.5996V63.5992ZM1.99961 61.9992H8.99961V47.6992H1.99961V61.9992Z" fill="url(#paint5_linear)"/>
<path d="M29.8998 51.3996H23.1998C21.5998 51.3996 20.2998 50.0996 20.2998 48.4996C20.2998 46.8996 21.5998 45.5996 23.1998 45.5996H29.8998C31.4998 45.5996 32.7998 46.8996 32.7998 48.4996C32.7998 50.0996 31.4998 51.3996 29.8998 51.3996ZM23.1998 47.0996C22.3998 47.0996 21.7998 47.6996 21.7998 48.4996C21.7998 49.2996 22.3998 49.8996 23.1998 49.8996H29.8998C30.6998 49.8996 31.2998 49.2996 31.2998 48.4996C31.2998 47.6996 30.6998 47.0996 29.8998 47.0996H23.1998Z" fill="url(#paint6_linear)"/>
<path d="M29.8998 55.5998H23.1998C21.5998 55.5998 20.2998 54.2998 20.2998 52.6998C20.2998 51.0998 21.5998 49.7998 23.1998 49.7998H29.8998C31.4998 49.7998 32.7998 51.0998 32.7998 52.6998C32.7998 54.2998 31.4998 55.5998 29.8998 55.5998ZM23.1998 51.3998C22.3998 51.3998 21.7998 51.9998 21.7998 52.7998C21.7998 53.5998 22.3998 54.1998 23.1998 54.1998H29.8998C30.6998 54.1998 31.2998 53.5998 31.2998 52.7998C31.2998 51.9998 30.6998 51.3998 29.8998 51.3998H23.1998Z" fill="url(#paint7_linear)"/>
<path d="M29.8998 59.8996H23.1998C21.5998 59.8996 20.2998 58.5996 20.2998 56.9996C20.2998 55.3996 21.5998 54.0996 23.1998 54.0996H29.8998C31.4998 54.0996 32.7998 55.3996 32.7998 56.9996C32.7998 58.5996 31.4998 59.8996 29.8998 59.8996ZM23.1998 55.5996C22.3998 55.5996 21.7998 56.1996 21.7998 56.9996C21.7998 57.7996 22.3998 58.3996 23.1998 58.3996H29.8998C30.6998 58.3996 31.2998 57.7996 31.2998 56.9996C31.2998 56.1996 30.6998 55.5996 29.8998 55.5996H23.1998Z" fill="url(#paint8_linear)"/>
<path d="M29.8998 64.1994H23.1998C21.5998 64.1994 20.2998 62.8994 20.2998 61.2994C20.2998 59.6994 21.5998 58.3994 23.1998 58.3994H29.8998C31.4998 58.3994 32.7998 59.6994 32.7998 61.2994C32.7998 62.8994 31.4998 64.1994 29.8998 64.1994ZM23.1998 59.8994C22.3998 59.8994 21.7998 60.4994 21.7998 61.2994C21.7998 62.0994 22.3998 62.6994 23.1998 62.6994H29.8998C30.6998 62.6994 31.2998 62.0994 31.2998 61.2994C31.2998 60.4994 30.6998 59.8994 29.8998 59.8994H23.1998Z" fill="url(#paint9_linear)"/>
<path d="M21.4996 63.3992C21.3996 63.3992 19.1996 63.1992 16.0996 62.5992C13.0996 61.9992 9.59961 61.1992 9.59961 61.1992L9.89961 59.6992C9.89961 59.6992 13.3996 60.4992 16.3996 61.0992C19.3996 61.6992 21.5996 61.8992 21.5996 61.8992L21.4996 63.3992Z" fill="url(#paint10_linear)"/>
<path d="M10.1994 48.3L9.39941 47C10.6994 46.1 14.2994 43.3 14.9994 41.3C15.4994 39.6 15.9994 37.6 16.3994 36.2C16.4994 35.7 16.7994 35.2 17.2994 35C17.7994 34.7 18.2994 34.7 18.7994 34.8C20.8994 35.4 22.1994 37.5 21.8994 39.6L21.4994 42.4C21.2994 43.7 21.7994 44.9 22.6994 45.8L22.7994 45.9L21.7994 47H21.6994C20.3994 45.8 19.6994 44.1 19.9994 42.3L20.3994 39.5C20.5994 38.1 19.6994 36.7 18.3994 36.3C18.1994 36.3 18.0994 36.3 18.0994 36.3C17.9994 36.3 17.8994 36.4 17.8994 36.6C17.5994 38 17.0994 40.1 16.4994 41.8C15.3994 44.8 10.3994 48.2 10.1994 48.3Z" fill="url(#paint11_linear)"/>
<path d="M46.5992 17.8C43.2992 17.8 40.6992 15.1 40.6992 11.9C40.6992 8.7 43.2992 6 46.5992 6C49.8992 6 52.4992 8.7 52.4992 11.9C52.4992 15.1 49.8992 17.8 46.5992 17.8ZM46.5992 7.5C44.1992 7.5 42.1992 9.5 42.1992 11.9C42.1992 14.3 44.1992 16.3 46.5992 16.3C48.9992 16.3 50.9992 14.3 50.9992 11.9C50.9992 9.5 48.9992 7.5 46.5992 7.5Z" fill="url(#paint12_linear)"/>
<path d="M62.0996 8.09961C59.8996 8.09961 58.0996 6.29961 58.0996 4.09961C58.0996 1.89961 59.8996 0.0996094 62.0996 0.0996094C64.2996 0.0996094 66.0996 1.89961 66.0996 4.09961C66.0996 6.29961 64.2996 8.09961 62.0996 8.09961ZM62.0996 1.49961C60.6996 1.49961 59.5996 2.59961 59.5996 3.99961C59.5996 5.39961 60.6996 6.49961 62.0996 6.49961C63.4996 6.49961 64.5996 5.39961 64.5996 3.99961C64.5996 2.59961 63.4996 1.49961 62.0996 1.49961Z" fill="url(#paint13_linear)"/>
<path d="M62.0996 25.0996C59.8996 25.0996 58.0996 23.2996 58.0996 21.0996C58.0996 18.8996 59.8996 17.0996 62.0996 17.0996C64.2996 17.0996 66.0996 18.8996 66.0996 21.0996C66.1996 23.2996 64.2996 25.0996 62.0996 25.0996ZM62.0996 18.4996C60.6996 18.4996 59.5996 19.5996 59.5996 20.9996C59.5996 22.3996 60.6996 23.4996 62.0996 23.4996C63.4996 23.4996 64.5996 22.3996 64.5996 20.9996C64.5996 19.6996 63.4996 18.4996 62.0996 18.4996Z" fill="url(#paint14_linear)"/>
<path d="M51.4326 13.9187L50.6709 15.2109L58.9413 20.0858L59.703 18.7936L51.4326 13.9187Z" fill="url(#paint15_linear)"/>
<path d="M58.8757 4.84989L50.8477 8.91699L51.5255 10.255L59.5535 6.18789L58.8757 4.84989Z" fill="url(#paint16_linear)"/>
<path d="M36.1994 11.8998C36.1994 11.2998 36.6994 10.7998 37.2994 10.7998C37.8994 10.7998 38.3994 11.2998 38.3994 11.8998C38.3994 12.4998 37.8994 12.9998 37.2994 12.9998C36.6994 12.9998 36.1994 12.4998 36.1994 11.8998ZM32.3994 11.8998C32.3994 11.2998 32.8994 10.7998 33.4994 10.7998C34.0994 10.7998 34.5994 11.2998 34.5994 11.8998C34.5994 12.4998 34.0994 12.9998 33.4994 12.9998C32.8994 12.9998 32.3994 12.4998 32.3994 11.8998ZM28.5994 11.8998C28.5994 11.2998 29.0994 10.7998 29.6994 10.7998C30.2994 10.7998 30.7994 11.2998 30.7994 11.8998C30.7994 12.4998 30.2994 12.9998 29.6994 12.9998C29.0994 12.9998 28.5994 12.4998 28.5994 11.8998ZM24.7994 11.8998C24.7994 11.2998 25.2994 10.7998 25.8994 10.7998C26.4994 10.7998 26.9994 11.2998 26.9994 11.8998C26.9994 12.4998 26.4994 12.9998 25.8994 12.9998C25.2994 12.9998 24.7994 12.4998 24.7994 11.8998ZM21.0994 11.8998C21.0994 11.2998 21.5994 10.7998 22.1994 10.7998C22.7994 10.7998 23.2994 11.2998 23.2994 11.8998C23.2994 12.4998 22.7994 12.9998 22.1994 12.9998C21.5994 12.9998 21.0994 12.4998 21.0994 11.8998ZM17.2994 11.8998C17.2994 11.2998 17.7994 10.7998 18.3994 10.7998C18.9994 10.7998 19.4994 11.2998 19.4994 11.8998C19.4994 12.4998 18.9994 12.9998 18.3994 12.9998C17.7994 12.9998 17.2994 12.4998 17.2994 11.8998ZM13.4994 11.8998C13.4994 11.2998 13.9994 10.7998 14.5994 10.7998C15.1994 10.7998 15.6994 11.2998 15.6994 11.8998C15.6994 12.4998 15.1994 12.9998 14.5994 12.9998C13.9994 12.9998 13.4994 12.4998 13.4994 11.8998ZM9.69942 11.8998C9.69942 11.2998 10.1994 10.7998 10.7994 10.7998C11.3994 10.7998 11.8994 11.2998 11.8994 11.8998C11.8994 12.4998 11.3994 12.9998 10.7994 12.9998C10.1994 12.9998 9.69942 12.4998 9.69942 11.8998ZM5.89941 11.8998C5.89941 11.2998 6.39941 10.7998 6.99941 10.7998C7.59941 10.7998 8.09941 11.2998 8.09941 11.8998C8.09941 12.4998 7.59941 12.9998 6.99941 12.9998C6.39941 12.9998 5.89941 12.4998 5.89941 11.8998Z" fill="url(#paint17_linear)"/>
<path d="M67.8998 68.8998C67.8998 68.2998 68.3998 67.7998 68.9998 67.7998C69.5998 67.7998 70.0998 68.2998 70.0998 68.8998C70.0998 69.4998 69.5998 69.9998 68.9998 69.9998C68.3998 69.9998 67.8998 69.4998 67.8998 68.8998ZM64.0998 68.8998C64.0998 68.2998 64.5998 67.7998 65.1998 67.7998C65.7998 67.7998 66.2998 68.2998 66.2998 68.8998C66.2998 69.4998 65.7998 69.9998 65.1998 69.9998C64.5998 69.9998 64.0998 69.4998 64.0998 68.8998ZM60.2998 68.8998C60.2998 68.2998 60.7998 67.7998 61.3998 67.7998C61.9998 67.7998 62.4998 68.2998 62.4998 68.8998C62.4998 69.4998 61.9998 69.9998 61.3998 69.9998C60.7998 69.9998 60.2998 69.4998 60.2998 68.8998ZM56.4998 68.8998C56.4998 68.2998 56.9998 67.7998 57.5998 67.7998C58.1998 67.7998 58.6998 68.2998 58.6998 68.8998C58.6998 69.4998 58.1998 69.9998 57.5998 69.9998C56.9998 69.9998 56.4998 69.4998 56.4998 68.8998ZM52.7998 68.8998C52.7998 68.2998 53.2998 67.7998 53.8998 67.7998C54.4998 67.7998 54.9998 68.2998 54.9998 68.8998C54.9998 69.4998 54.4998 69.9998 53.8998 69.9998C53.2998 69.9998 52.7998 69.4998 52.7998 68.8998ZM48.9998 68.8998C48.9998 68.2998 49.4998 67.7998 50.0998 67.7998C50.6998 67.7998 51.1998 68.2998 51.1998 68.8998C51.1998 69.4998 50.6998 69.9998 50.0998 69.9998C49.4998 69.9998 48.9998 69.4998 48.9998 68.8998ZM45.1998 68.8998C45.1998 68.2998 45.6998 67.7998 46.2998 67.7998C46.8998 67.7998 47.3998 68.2998 47.3998 68.8998C47.3998 69.4998 46.8998 69.9998 46.2998 69.9998C45.6998 69.9998 45.1998 69.4998 45.1998 68.8998ZM41.3998 68.8998C41.3998 68.2998 41.8998 67.7998 42.4998 67.7998C43.0998 67.7998 43.5998 68.2998 43.5998 68.8998C43.5998 69.4998 43.0998 69.9998 42.4998 69.9998C41.8998 69.9998 41.3998 69.4998 41.3998 68.8998ZM37.5998 68.8998C37.5998 68.2998 38.0998 67.7998 38.6998 67.7998C39.2998 67.7998 39.7998 68.2998 39.7998 68.8998C39.7998 69.4998 39.2998 69.9998 38.6998 69.9998C38.0998 69.9998 37.5998 69.4998 37.5998 68.8998ZM33.7998 68.8998C33.7998 68.2998 34.2998 67.7998 34.8998 67.7998C35.4998 67.7998 35.9998 68.2998 35.9998 68.8998C35.9998 69.4998 35.4998 69.9998 34.8998 69.9998C34.3998 69.9998 33.7998 69.4998 33.7998 68.8998Z" fill="url(#paint18_linear)"/>
<defs>
<linearGradient id="paint0_linear" x1="10.8577" y1="43.4475" x2="69.6986" y2="42.7806" gradientUnits="userSpaceOnUse">
<stop stop-color="#D8BB58"/>
<stop offset="0.1464" stop-color="#ECD26E"/>
<stop offset="0.239" stop-color="#F4DB76"/>
<stop offset="0.4341" stop-color="#E9CC65"/>
<stop offset="0.8173" stop-color="#CEA53A"/>
<stop offset="0.8757" stop-color="#C99F33"/>
</linearGradient>
<linearGradient id="paint1_linear" x1="-11.2167" y1="30.3296" x2="48.2761" y2="28.8505" gradientUnits="userSpaceOnUse">
<stop stop-color="#D8BB58"/>
<stop offset="0.1464" stop-color="#ECD26E"/>
<stop offset="0.239" stop-color="#F4DB76"/>
<stop offset="0.4341" stop-color="#E9CC65"/>
<stop offset="0.8173" stop-color="#CEA53A"/>
<stop offset="0.8757" stop-color="#C99F33"/>
</linearGradient>
<linearGradient id="paint2_linear" x1="18.4552" y1="37.0094" x2="31.2586" y2="36.8667" gradientUnits="userSpaceOnUse">
<stop stop-color="#D8BB58"/>
<stop offset="0.1464" stop-color="#ECD26E"/>
<stop offset="0.239" stop-color="#F4DB76"/>
<stop offset="0.4341" stop-color="#E9CC65"/>
<stop offset="0.8173" stop-color="#CEA53A"/>
<stop offset="0.8757" stop-color="#C99F33"/>
</linearGradient>
<linearGradient id="paint3_linear" x1="35.3556" y1="37.0094" x2="48.159" y2="36.8667" gradientUnits="userSpaceOnUse">
<stop stop-color="#D8BB58"/>
<stop offset="0.1464" stop-color="#ECD26E"/>
<stop offset="0.239" stop-color="#F4DB76"/>
<stop offset="0.4341" stop-color="#E9CC65"/>
<stop offset="0.8173" stop-color="#CEA53A"/>
<stop offset="0.8757" stop-color="#C99F33"/>
</linearGradient>
<linearGradient id="paint4_linear" x1="52.255" y1="37.0094" x2="65.0584" y2="36.8667" gradientUnits="userSpaceOnUse">
<stop stop-color="#D8BB58"/>
<stop offset="0.1464" stop-color="#ECD26E"/>
<stop offset="0.239" stop-color="#F4DB76"/>
<stop offset="0.4341" stop-color="#E9CC65"/>
<stop offset="0.8173" stop-color="#CEA53A"/>
<stop offset="0.8757" stop-color="#C99F33"/>
</linearGradient>
<linearGradient id="paint5_linear" x1="-4.87313" y1="55.1032" x2="8.74862" y2="55.0159" gradientUnits="userSpaceOnUse">
<stop stop-color="#D8BB58"/>
<stop offset="0.1464" stop-color="#ECD26E"/>
<stop offset="0.239" stop-color="#F4DB76"/>
<stop offset="0.4341" stop-color="#E9CC65"/>
<stop offset="0.8173" stop-color="#CEA53A"/>
<stop offset="0.8757" stop-color="#C99F33"/>
</linearGradient>
<linearGradient id="paint6_linear" x1="13.4589" y1="48.5676" x2="30.4769" y2="48.1586" gradientUnits="userSpaceOnUse">
<stop stop-color="#D8BB58"/>
<stop offset="0.1464" stop-color="#ECD26E"/>
<stop offset="0.239" stop-color="#F4DB76"/>
<stop offset="0.4341" stop-color="#E9CC65"/>
<stop offset="0.8173" stop-color="#CEA53A"/>
<stop offset="0.8757" stop-color="#C99F33"/>
</linearGradient>
<linearGradient id="paint7_linear" x1="13.4589" y1="52.7678" x2="30.4769" y2="52.3588" gradientUnits="userSpaceOnUse">
<stop stop-color="#D8BB58"/>
<stop offset="0.1464" stop-color="#ECD26E"/>
<stop offset="0.239" stop-color="#F4DB76"/>
<stop offset="0.4341" stop-color="#E9CC65"/>
<stop offset="0.8173" stop-color="#CEA53A"/>
<stop offset="0.8757" stop-color="#C99F33"/>
</linearGradient>
<linearGradient id="paint8_linear" x1="13.4589" y1="57.0676" x2="30.4769" y2="56.6586" gradientUnits="userSpaceOnUse">
<stop stop-color="#D8BB58"/>
<stop offset="0.1464" stop-color="#ECD26E"/>
<stop offset="0.239" stop-color="#F4DB76"/>
<stop offset="0.4341" stop-color="#E9CC65"/>
<stop offset="0.8173" stop-color="#CEA53A"/>
<stop offset="0.8757" stop-color="#C99F33"/>
</linearGradient>
<linearGradient id="paint9_linear" x1="13.4589" y1="61.3674" x2="30.4769" y2="60.9584" gradientUnits="userSpaceOnUse">
<stop stop-color="#D8BB58"/>
<stop offset="0.1464" stop-color="#ECD26E"/>
<stop offset="0.239" stop-color="#F4DB76"/>
<stop offset="0.4341" stop-color="#E9CC65"/>
<stop offset="0.8173" stop-color="#CEA53A"/>
<stop offset="0.8757" stop-color="#C99F33"/>
</linearGradient>
<linearGradient id="paint10_linear" x1="3.03232" y1="61.5926" x2="19.3577" y2="61.0022" gradientUnits="userSpaceOnUse">
<stop stop-color="#D8BB58"/>
<stop offset="0.1464" stop-color="#ECD26E"/>
<stop offset="0.239" stop-color="#F4DB76"/>
<stop offset="0.4341" stop-color="#E9CC65"/>
<stop offset="0.8173" stop-color="#CEA53A"/>
<stop offset="0.8757" stop-color="#C99F33"/>
</linearGradient>
<linearGradient id="paint11_linear" x1="2.06594" y1="41.6791" x2="20.3176" y2="41.478" gradientUnits="userSpaceOnUse">
<stop stop-color="#D8BB58"/>
<stop offset="0.1464" stop-color="#ECD26E"/>
<stop offset="0.239" stop-color="#F4DB76"/>
<stop offset="0.4341" stop-color="#E9CC65"/>
<stop offset="0.8173" stop-color="#CEA53A"/>
<stop offset="0.8757" stop-color="#C99F33"/>
</linearGradient>
<linearGradient id="paint12_linear" x1="34.2414" y1="12.0384" x2="50.3137" y2="11.8591" gradientUnits="userSpaceOnUse">
<stop stop-color="#D8BB58"/>
<stop offset="0.1464" stop-color="#ECD26E"/>
<stop offset="0.239" stop-color="#F4DB76"/>
<stop offset="0.4341" stop-color="#E9CC65"/>
<stop offset="0.8173" stop-color="#CEA53A"/>
<stop offset="0.8757" stop-color="#C99F33"/>
</linearGradient>
<linearGradient id="paint13_linear" x1="53.7214" y1="4.19341" x2="64.6179" y2="4.0719" gradientUnits="userSpaceOnUse">
<stop stop-color="#D8BB58"/>
<stop offset="0.1464" stop-color="#ECD26E"/>
<stop offset="0.239" stop-color="#F4DB76"/>
<stop offset="0.4341" stop-color="#E9CC65"/>
<stop offset="0.8173" stop-color="#CEA53A"/>
<stop offset="0.8757" stop-color="#C99F33"/>
</linearGradient>
<linearGradient id="paint14_linear" x1="53.7193" y1="21.1934" x2="64.621" y2="21.0718" gradientUnits="userSpaceOnUse">
<stop stop-color="#D8BB58"/>
<stop offset="0.1464" stop-color="#ECD26E"/>
<stop offset="0.239" stop-color="#F4DB76"/>
<stop offset="0.4341" stop-color="#E9CC65"/>
<stop offset="0.8173" stop-color="#CEA53A"/>
<stop offset="0.8757" stop-color="#C99F33"/>
</linearGradient>
<linearGradient id="paint15_linear" x1="54.4862" y1="18.4127" x2="55.5207" y2="16.6506" gradientUnits="userSpaceOnUse">
<stop stop-color="#D8BB58"/>
<stop offset="0.1464" stop-color="#ECD26E"/>
<stop offset="0.239" stop-color="#F4DB76"/>
<stop offset="0.4341" stop-color="#E9CC65"/>
<stop offset="0.8173" stop-color="#CEA53A"/>
<stop offset="0.8757" stop-color="#C99F33"/>
</linearGradient>
<linearGradient id="paint16_linear" x1="46.801" y1="11.8275" x2="57.3192" y2="5.58344" gradientUnits="userSpaceOnUse">
<stop stop-color="#D8BB58"/>
<stop offset="0.1464" stop-color="#ECD26E"/>
<stop offset="0.239" stop-color="#F4DB76"/>
<stop offset="0.4341" stop-color="#E9CC65"/>
<stop offset="0.8173" stop-color="#CEA53A"/>
<stop offset="0.8757" stop-color="#C99F33"/>
</linearGradient>
<linearGradient id="paint17_linear" x1="-11.887" y1="11.9256" x2="31.2159" y2="4.82529" gradientUnits="userSpaceOnUse">
<stop stop-color="#D8BB58"/>
<stop offset="0.1464" stop-color="#ECD26E"/>
<stop offset="0.239" stop-color="#F4DB76"/>
<stop offset="0.4341" stop-color="#E9CC65"/>
<stop offset="0.8173" stop-color="#CEA53A"/>
<stop offset="0.8757" stop-color="#C99F33"/>
</linearGradient>
<linearGradient id="paint18_linear" x1="13.9337" y1="68.9256" x2="61.7636" y2="60.1254" gradientUnits="userSpaceOnUse">
<stop stop-color="#D8BB58"/>
<stop offset="0.1464" stop-color="#ECD26E"/>
<stop offset="0.239" stop-color="#F4DB76"/>
<stop offset="0.4341" stop-color="#E9CC65"/>
<stop offset="0.8173" stop-color="#CEA53A"/>
<stop offset="0.8757" stop-color="#C99F33"/>
</linearGradient>
</defs>
</svg>
