<svg width="90" height="70" viewBox="0 0 90 70" fill="none" xmlns="http://www.w3.org/2000/svg">
<path d="M45 62.7998C38.7 62.7998 32.8 60.3998 28.4 55.8998C24 51.4998 21.5 45.5998 21.5 39.2998C21.5 32.9998 23.9 27.0998 28.4 22.6998C32.8 18.2998 38.7 15.7998 45 15.7998C51.3 15.7998 57.2 18.1998 61.6 22.6998C66 27.0998 68.5 32.9998 68.5 39.2998C68.5 45.5998 66.1 51.4998 61.6 55.8998C57.1 60.2998 51.3 62.7998 45 62.7998ZM45 17.5998C39.2 17.5998 33.7 19.8998 29.6 23.9998C25.5 28.0998 23.2 33.5998 23.2 39.3998C23.2 45.1998 25.5 50.6998 29.6 54.7998C33.7 58.8998 39.2 61.1998 45 61.1998C50.8 61.1998 56.3 58.8998 60.4 54.7998C64.5 50.6998 66.8 45.1998 66.8 39.3998C66.8 33.5998 64.5 28.0998 60.4 23.9998C56.3 19.8998 50.8 17.5998 45 17.5998Z" fill="url(#paint0_linear)"/>
<path d="M44.9996 56.7C35.3996 56.7 27.5996 48.9 27.5996 39.3C27.5996 29.7 35.3996 22 44.9996 22C54.5996 22 62.3996 29.8 62.3996 39.4H60.5996C60.5996 30.8 53.5996 23.8 44.9996 23.8C36.3996 23.8 29.3996 30.8 29.3996 39.4C29.3996 48 36.3996 55 44.9996 55V56.7Z" fill="url(#paint1_linear)"/>
<path d="M21.3994 21.3996C21.3994 20.6996 21.9994 20.0996 22.6994 20.0996C23.3994 20.0996 23.9994 20.6996 23.9994 21.3996C23.9994 22.0996 23.3994 22.6996 22.6994 22.6996C21.9994 22.6996 21.3994 22.0996 21.3994 21.3996ZM16.9994 21.3996C16.9994 20.6996 17.5994 20.0996 18.2994 20.0996C18.9994 20.0996 19.5994 20.6996 19.5994 21.3996C19.5994 22.0996 18.9994 22.6996 18.2994 22.6996C17.5994 22.6996 16.9994 22.0996 16.9994 21.3996ZM12.5994 21.3996C12.5994 20.6996 13.1994 20.0996 13.8994 20.0996C14.5994 20.0996 15.1994 20.6996 15.1994 21.3996C15.1994 22.0996 14.5994 22.6996 13.8994 22.6996C13.1994 22.6996 12.5994 22.0996 12.5994 21.3996ZM8.19942 21.3996C8.19942 20.6996 8.79941 20.0996 9.49941 20.0996C10.1994 20.0996 10.7994 20.6996 10.7994 21.3996C10.7994 22.0996 10.1994 22.6996 9.49941 22.6996C8.79941 22.6996 8.19942 22.0996 8.19942 21.3996ZM3.89941 21.3996C3.89941 20.6996 4.49942 20.0996 5.19942 20.0996C5.89942 20.0996 6.49941 20.6996 6.49941 21.3996C6.49941 22.0996 5.89942 22.6996 5.19942 22.6996C4.49942 22.6996 3.89941 22.0996 3.89941 21.3996Z" fill="url(#paint2_linear)"/>
<path d="M21.3994 57.3C21.3994 56.6 21.9994 56 22.6994 56C23.3994 56 23.9994 56.6 23.9994 57.3C23.9994 58 23.3994 58.6 22.6994 58.6C21.9994 58.6 21.3994 58 21.3994 57.3ZM16.9994 57.3C16.9994 56.6 17.5994 56 18.2994 56C18.9994 56 19.5994 56.6 19.5994 57.3C19.5994 58 18.9994 58.6 18.2994 58.6C17.5994 58.6 16.9994 58 16.9994 57.3ZM12.5994 57.3C12.5994 56.6 13.1994 56 13.8994 56C14.5994 56 15.1994 56.6 15.1994 57.3C15.1994 58 14.5994 58.6 13.8994 58.6C13.1994 58.6 12.5994 58 12.5994 57.3ZM8.19942 57.3C8.19942 56.6 8.79941 56 9.49941 56C10.1994 56 10.7994 56.6 10.7994 57.3C10.7994 58 10.1994 58.6 9.49941 58.6C8.79941 58.6 8.19942 58 8.19942 57.3ZM3.89941 57.3C3.89941 56.6 4.49942 56 5.19942 56C5.89942 56 6.49941 56.6 6.49941 57.3C6.49941 58 5.89942 58.6 5.19942 58.6C4.49942 58.6 3.89941 58 3.89941 57.3Z" fill="url(#paint3_linear)"/>
<path d="M83.2998 57.3C83.2998 56.6 83.8998 56 84.5998 56C85.2998 56 85.8998 56.6 85.8998 57.3C85.8998 58 85.2998 58.6 84.5998 58.6C83.8998 58.6 83.2998 58 83.2998 57.3ZM78.8998 57.3C78.8998 56.6 79.4998 56 80.1998 56C80.8998 56 81.4998 56.6 81.4998 57.3C81.4998 58 80.8998 58.6 80.1998 58.6C79.4998 58.6 78.8998 58 78.8998 57.3ZM74.4998 57.3C74.4998 56.6 75.0998 56 75.7998 56C76.4998 56 77.0998 56.6 77.0998 57.3C77.0998 58 76.4998 58.6 75.7998 58.6C75.0998 58.6 74.4998 58 74.4998 57.3ZM70.0998 57.3C70.0998 56.6 70.6998 56 71.3998 56C72.0998 56 72.6998 56.6 72.6998 57.3C72.6998 58 72.0998 58.6 71.3998 58.6C70.6998 58.6 70.0998 58 70.0998 57.3ZM65.7998 57.3C65.7998 56.6 66.3998 56 67.0998 56C67.7998 56 68.3998 56.6 68.3998 57.3C68.3998 58 67.7998 58.6 67.0998 58.6C66.2998 58.6 65.7998 58 65.7998 57.3Z" fill="url(#paint4_linear)"/>
<path d="M83.2998 21.3996C83.2998 20.6996 83.8998 20.0996 84.5998 20.0996C85.2998 20.0996 85.8998 20.6996 85.8998 21.3996C85.8998 22.0996 85.2998 22.6996 84.5998 22.6996C83.8998 22.6996 83.2998 22.0996 83.2998 21.3996ZM78.8998 21.3996C78.8998 20.6996 79.4998 20.0996 80.1998 20.0996C80.8998 20.0996 81.4998 20.6996 81.4998 21.3996C81.4998 22.0996 80.8998 22.6996 80.1998 22.6996C79.4998 22.6996 78.8998 22.0996 78.8998 21.3996ZM74.4998 21.3996C74.4998 20.6996 75.0998 20.0996 75.7998 20.0996C76.4998 20.0996 77.0998 20.6996 77.0998 21.3996C77.0998 22.0996 76.4998 22.6996 75.7998 22.6996C75.0998 22.6996 74.4998 22.0996 74.4998 21.3996ZM70.0998 21.3996C70.0998 20.6996 70.6998 20.0996 71.3998 20.0996C72.0998 20.0996 72.6998 20.6996 72.6998 21.3996C72.6998 22.0996 72.0998 22.6996 71.3998 22.6996C70.6998 22.6996 70.0998 22.0996 70.0998 21.3996ZM65.7998 21.3996C65.7998 20.6996 66.3998 20.0996 67.0998 20.0996C67.7998 20.0996 68.3998 20.6996 68.3998 21.3996C68.3998 22.0996 67.7998 22.6996 67.0998 22.6996C66.2998 22.6996 65.7998 22.0996 65.7998 21.3996Z" fill="url(#paint5_linear)"/>
<path d="M81.6998 70H8.2998C3.8998 70 0.299805 66.4 0.299805 62V16.7C0.299805 12.3 3.8998 8.7 8.2998 8.7H27.9998L30.4998 3.1C31.3998 1.2 33.2998 0 35.3998 0H54.6998C56.7998 0 58.5998 1.2 59.4998 3.1L61.9998 8.7H81.6998C86.0998 8.7 89.6998 12.3 89.6998 16.7V62C89.6998 66.4 86.0998 70 81.6998 70ZM8.2998 10.5C4.7998 10.5 1.99981 13.3 1.99981 16.8V62C1.99981 65.5 4.7998 68.3 8.2998 68.3H81.5998C85.0998 68.3 87.8998 65.5 87.8998 62V16.7C87.8998 13.2 85.0998 10.4 81.5998 10.4H60.7998L57.7998 3.7C57.1998 2.5 55.9998 1.7 54.5998 1.7H35.3998C33.9998 1.7 32.7998 2.5 32.1998 3.7L29.1998 10.4H8.2998V10.5Z" fill="url(#paint6_linear)"/>
<path d="M25.9002 10.4998H8.2002V3.2998H25.9002V10.4998ZM10.0002 8.6998H24.2002V4.9998H10.0002V8.6998Z" fill="url(#paint7_linear)"/>
<path d="M51.5998 13.1004H38.3998C35.8998 13.1004 33.7998 11.0004 33.7998 8.50039C33.7998 6.00039 35.8998 3.90039 38.3998 3.90039H51.5998C54.0998 3.90039 56.1998 6.00039 56.1998 8.50039C56.1998 11.0004 54.0998 13.1004 51.5998 13.1004ZM38.3998 5.70039C36.7998 5.70039 35.5998 7.00039 35.5998 8.50039C35.5998 10.1004 36.8998 11.3004 38.3998 11.3004H51.5998C53.1998 11.3004 54.3998 10.0004 54.3998 8.50039C54.3998 6.90039 53.0998 5.70039 51.5998 5.70039H38.3998Z" fill="url(#paint8_linear)"/>
<defs>
<linearGradient id="paint0_linear" x1="-4.2219" y1="39.8509" x2="59.795" y2="39.137" gradientUnits="userSpaceOnUse">
<stop stop-color="#D8BB58"/>
<stop offset="0.1464" stop-color="#ECD26E"/>
<stop offset="0.239" stop-color="#F4DB76"/>
<stop offset="0.4341" stop-color="#E9CC65"/>
<stop offset="0.8173" stop-color="#CEA53A"/>
<stop offset="0.8757" stop-color="#C99F33"/>
</linearGradient>
<linearGradient id="paint1_linear" x1="8.55446" y1="39.7568" x2="55.9542" y2="39.2268" gradientUnits="userSpaceOnUse">
<stop stop-color="#D8BB58"/>
<stop offset="0.1464" stop-color="#ECD26E"/>
<stop offset="0.239" stop-color="#F4DB76"/>
<stop offset="0.4341" stop-color="#E9CC65"/>
<stop offset="0.8173" stop-color="#CEA53A"/>
<stop offset="0.8757" stop-color="#C99F33"/>
</linearGradient>
<linearGradient id="paint2_linear" x1="-7.1008" y1="21.4301" x2="20.0781" y2="19.0871" gradientUnits="userSpaceOnUse">
<stop stop-color="#D8BB58"/>
<stop offset="0.1464" stop-color="#ECD26E"/>
<stop offset="0.239" stop-color="#F4DB76"/>
<stop offset="0.4341" stop-color="#E9CC65"/>
<stop offset="0.8173" stop-color="#CEA53A"/>
<stop offset="0.8757" stop-color="#C99F33"/>
</linearGradient>
<linearGradient id="paint3_linear" x1="-7.1008" y1="57.3305" x2="20.0781" y2="54.9875" gradientUnits="userSpaceOnUse">
<stop stop-color="#D8BB58"/>
<stop offset="0.1464" stop-color="#ECD26E"/>
<stop offset="0.239" stop-color="#F4DB76"/>
<stop offset="0.4341" stop-color="#E9CC65"/>
<stop offset="0.8173" stop-color="#CEA53A"/>
<stop offset="0.8757" stop-color="#C99F33"/>
</linearGradient>
<linearGradient id="paint4_linear" x1="54.7996" y1="57.3305" x2="81.9785" y2="54.9875" gradientUnits="userSpaceOnUse">
<stop stop-color="#D8BB58"/>
<stop offset="0.1464" stop-color="#ECD26E"/>
<stop offset="0.239" stop-color="#F4DB76"/>
<stop offset="0.4341" stop-color="#E9CC65"/>
<stop offset="0.8173" stop-color="#CEA53A"/>
<stop offset="0.8757" stop-color="#C99F33"/>
</linearGradient>
<linearGradient id="paint5_linear" x1="54.7996" y1="21.4301" x2="81.9785" y2="19.0871" gradientUnits="userSpaceOnUse">
<stop stop-color="#D8BB58"/>
<stop offset="0.1464" stop-color="#ECD26E"/>
<stop offset="0.239" stop-color="#F4DB76"/>
<stop offset="0.4341" stop-color="#E9CC65"/>
<stop offset="0.8173" stop-color="#CEA53A"/>
<stop offset="0.8757" stop-color="#C99F33"/>
</linearGradient>
<linearGradient id="paint6_linear" x1="-48.6265" y1="35.8207" x2="73.1323" y2="34.0867" gradientUnits="userSpaceOnUse">
<stop stop-color="#D8BB58"/>
<stop offset="0.1464" stop-color="#ECD26E"/>
<stop offset="0.239" stop-color="#F4DB76"/>
<stop offset="0.4341" stop-color="#E9CC65"/>
<stop offset="0.8173" stop-color="#CEA53A"/>
<stop offset="0.8757" stop-color="#C99F33"/>
</linearGradient>
<linearGradient id="paint7_linear" x1="-1.48656" y1="6.98422" x2="22.6068" y2="6.32376" gradientUnits="userSpaceOnUse">
<stop stop-color="#D8BB58"/>
<stop offset="0.1464" stop-color="#ECD26E"/>
<stop offset="0.239" stop-color="#F4DB76"/>
<stop offset="0.4341" stop-color="#E9CC65"/>
<stop offset="0.8173" stop-color="#CEA53A"/>
<stop offset="0.8757" stop-color="#C99F33"/>
</linearGradient>
<linearGradient id="paint8_linear" x1="21.5409" y1="8.60826" x2="52.0324" y2="7.78041" gradientUnits="userSpaceOnUse">
<stop stop-color="#D8BB58"/>
<stop offset="0.1464" stop-color="#ECD26E"/>
<stop offset="0.239" stop-color="#F4DB76"/>
<stop offset="0.4341" stop-color="#E9CC65"/>
<stop offset="0.8173" stop-color="#CEA53A"/>
<stop offset="0.8757" stop-color="#C99F33"/>
</linearGradient>
</defs>
</svg>
