<svg width="69" height="88" viewBox="0 0 69 88" fill="none" xmlns="http://www.w3.org/2000/svg">
<g opacity="0.9">
<g opacity="0.5">
<path opacity="0.5" d="M63.9004 29.3001C63.5004 29.3001 63.2004 29.3001 62.8004 29.4001C64.1004 28.9001 65.2004 28.4001 65.9004 27.7001C66.6004 27.0001 67.2004 25.9001 67.0004 25.7001C66.8004 25.2001 65.0004 25.3001 64.1004 25.5001C64.0004 25.5001 63.7004 25.6001 63.5004 25.6001C64.1004 25.1001 64.7004 24.6001 65.2004 23.9001C65.7004 23.1001 66.2004 21.5001 65.9004 21.3001C65.5004 20.9001 63.9004 21.4001 63.0004 21.8001C62.9004 21.8001 62.9004 21.8001 62.8004 21.9001C63.6004 21.2001 64.2004 20.3001 64.6004 19.6001C65.1004 18.5001 65.1004 17.2001 64.6004 16.4001C64.5004 16.3001 64.4004 16.2001 64.4004 16.2001C64.3004 16.2001 64.2004 16.2001 64.0004 16.3001C63.5004 16.8001 62.2004 18.1001 61.6004 18.7001C61.0004 19.3001 60.3004 19.9001 59.4004 20.6001C60.6004 19.2001 61.7004 17.6001 62.3004 16.5001C63.3004 14.6001 63.5004 11.6001 62.3004 10.9001C62.1004 10.8001 61.8004 10.7001 61.7004 10.8001C61.5004 10.8001 61.3004 10.9001 61.2004 11.2001C60.1004 13.2001 58.0004 16.9001 55.8004 19.7001C55.7004 19.6001 55.7004 19.5001 55.6004 19.3001L55.5004 19.2001L55.4004 19.4001C54.9004 20.7001 53.8004 22.3001 52.5004 23.2001C52.4004 23.0001 52.4004 22.8001 52.3004 22.6001L52.1004 22.2001L52.0004 22.5001C51.4004 23.6001 50.4004 24.4001 49.5004 25.3001C49.0004 25.7001 48.7004 26.1001 48.3004 26.5001C47.3004 27.6001 46.6004 28.4001 46.6004 29.6001C46.6004 30.6001 47.1004 31.0001 47.4004 31.4001C47.8004 31.8001 48.1004 32.1001 48.1004 32.7001C48.1004 33.1001 47.9004 33.5001 47.5004 33.9001C47.1004 34.3001 46.4004 34.7001 45.3004 34.9001C44.3004 34.9001 43.6004 34.5001 43.1004 33.7001C43.3004 33.7001 43.7004 33.6001 43.8004 33.3001C44.4004 32.9001 44.5004 32.2001 44.6004 31.7001C44.6004 31.2001 44.6004 30.7001 44.4004 30.4001L44.3004 30.3001C44.3004 30.3001 44.2004 30.3001 44.2004 30.4001C44.0004 30.8001 43.4004 31.0001 42.8004 31.0001C41.8004 31.0001 41.2004 30.5001 40.8004 30.0001C41.0004 30.1001 41.3004 30.1001 41.5004 30.1001C42.0004 30.1001 42.5004 29.9001 42.7004 29.5001C42.9004 29.3001 43.1004 28.9001 43.1004 28.5001C43.1004 28.4001 43.1004 28.4001 43.0004 28.4001H42.9004C42.7004 28.6001 42.3004 28.8001 41.9004 28.8001C40.9004 28.8001 40.2004 27.7001 40.1004 26.8001C40.1004 26.6001 40.1004 26.3001 40.1004 26.1001C40.2004 24.5001 41.2004 23.0001 42.6004 21.7001L42.7004 21.8001C42.8004 21.9001 43.1004 21.9001 43.3004 21.8001C43.8004 21.6001 44.3004 21.4001 44.6004 21.4001C45.6004 21.4001 46.3004 21.6001 46.6004 22.1001C46.8004 22.5001 47.0004 22.7001 46.8004 23.1001C46.8004 23.2001 46.8004 23.3001 46.7004 23.5001C47.1004 23.4001 47.5004 22.9001 47.5004 22.3001C47.5004 21.8001 47.1004 21.3001 46.5004 21.1001C46.4004 21.1001 46.4004 21.0001 46.3004 21.0001H46.4004C46.8004 21.1001 47.1004 21.4001 47.5004 21.6001C48.1004 22.0001 48.7004 22.3001 49.5004 22.3001C50.9004 22.3001 51.7004 21.1001 51.8004 20.1001C51.8004 20.0001 51.8004 20.0001 51.7004 20.0001C51.6004 20.0001 51.6004 20.0001 51.5004 20.1001C51.5004 20.5001 51.0004 21.0001 50.3004 21.0001C49.6004 21.0001 48.9004 20.8001 48.1004 20.5001C47.5004 20.3001 46.9004 20.0001 46.3004 20.0001C46.2004 20.0001 46.1004 20.0001 45.8004 20.0001C46.2004 19.9001 46.5004 19.8001 46.9004 19.6001C47.7004 19.4001 48.9004 19.5001 49.4004 20.2001L49.5004 20.3001C49.6004 20.2001 49.9004 20.1001 50.0004 19.8001C50.2004 19.4001 50.5004 19.0001 50.5004 18.4001C50.5004 17.7001 50.1004 17.1001 49.7004 16.7001C49.2004 16.3001 48.5004 16.1001 47.9004 16.1001C47.9004 15.9001 47.8004 15.7001 47.7004 15.6001C47.6004 15.5001 47.3004 15.5001 47.2004 15.5001C47.2004 15.4001 47.2004 15.3001 47.1004 15.3001C47.7004 15.2001 48.2004 15.2001 48.5004 15.1001C48.7004 15.0001 49.0004 15.0001 49.2004 14.9001C51.0004 14.3001 51.4004 13.3001 51.4004 12.7001C51.5004 11.9001 51.3004 11.4001 51.0004 10.9001C51.0004 10.5001 50.9004 10.2001 50.9004 9.7001C50.9004 9.3001 51.0004 9.1001 51.1004 9.0001L51.6004 9.2001C52.0004 9.3001 52.2004 9.4001 52.6004 9.6001C53.6004 10.0001 53.8004 10.7001 53.8004 11.0001C53.8004 11.7001 53.6004 12.1001 53.3004 12.6001C53.1004 13.0001 52.8004 13.3001 52.8004 14.0001C52.8004 14.7001 53.0004 15.2001 53.4004 15.6001C53.6004 16.0001 53.9004 16.2001 53.9004 16.6001C53.9004 17.0001 53.8004 17.2001 53.7004 17.4001C53.6004 17.6001 53.5004 17.8001 53.3004 17.9001C53.4004 17.9001 53.8004 17.8001 53.9004 17.8001C54.6004 17.4001 55.1004 17.0001 55.1004 16.2001C55.1004 15.7001 54.9004 15.5001 54.6004 15.2001C54.5004 15.0001 54.4004 14.8001 54.2004 14.6001V14.4001C54.6004 14.9001 55.0004 15.2001 55.5004 15.2001C55.7004 15.2001 56.0004 15.1001 56.1004 15.1001C56.2004 15.1001 56.3004 15.0001 56.5004 15.0001C56.6004 15.0001 56.7004 15.0001 56.9004 15.1001C57.0004 15.2001 57.0004 15.3001 57.0004 15.5001C57.0004 15.6001 56.9004 15.7001 56.8004 15.9001C56.9004 15.9001 57.0004 15.8001 57.3004 15.7001C57.8004 15.3001 57.9004 15.0001 57.9004 14.5001C57.9004 13.9001 57.5004 13.4001 56.9004 13.4001C56.7004 13.4001 56.5004 13.5001 56.4004 13.5001C56.3004 13.6001 56.2004 13.6001 55.9004 13.6001C55.6004 13.6001 55.7004 13.5001 55.7004 13.2001C55.7004 13.0001 55.9004 12.7001 56.2004 12.5001C56.6004 12.1001 57.0004 11.7001 57.0004 10.9001C57.0004 10.1001 56.3004 9.1001 54.4004 8.9001C54.0004 8.7001 53.7004 8.3001 53.4004 7.9001L52.9004 7.4001C52.7004 7.2001 51.9004 6.4001 51.2004 6.6001C51.0004 6.6001 50.7004 6.8001 50.5004 7.0001C50.1004 7.2001 49.8004 7.5001 49.3004 7.7001C49.2004 7.7001 49.1004 7.8001 48.9004 7.9001C48.5004 8.3001 48.5004 8.7001 48.5004 9.0001C48.5004 9.6001 48.9004 10.3001 49.1004 11.0001C49.3004 11.6001 49.6004 12.1001 49.6004 12.6001C49.7004 13.7001 48.9004 14.3001 46.8004 14.8001C46.8004 14.0001 47.0004 13.2001 47.2004 12.8001C47.3004 12.3001 47.6004 12.0001 47.6004 11.5001C47.6004 10.4001 46.6004 10.1001 45.7004 10.1001C45.7004 10.1001 45.6004 10.1001 45.6004 10.2001C45.6004 10.3001 45.6004 10.4001 45.6004 10.6001H45.2004C45.2004 10.5001 45.2004 10.2001 45.2004 10.1001C45.2004 10.1001 45.2004 10.0001 45.1004 10.0001H45.0004C45.1004 9.9001 45.2004 9.8001 45.2004 9.5001C45.2004 9.4001 45.1004 9.1001 45.0004 9.0001H45.1004H45.2004L45.1004 8.9001C45.1004 8.8001 45.0004 8.7001 45.0004 8.7001C45.1004 8.7001 45.2004 8.8001 45.2004 8.8001L45.3004 8.9001H45.4004C45.4004 8.9001 45.4004 8.9001 45.4004 8.8001V7.8001C45.4004 7.8001 45.4004 7.8001 45.4004 7.7001H45.3004C45.2004 7.7001 45.1004 7.8001 44.9004 7.9001C45.0004 7.8001 45.0004 7.7001 45.1004 7.5001C45.1004 7.5001 45.1004 7.5001 45.0004 7.5001H44.0004H43.9004L44.1004 7.7001C44.1004 7.8001 44.2004 7.9001 44.2004 7.9001C44.1004 7.9001 44.0004 7.8001 44.0004 7.8001L43.8004 7.7001H43.7004C43.7004 7.7001 43.7004 7.7001 43.7004 7.8001V8.8001V9.0001H43.8004L43.9004 8.9001C44.0004 8.9001 44.1004 8.8001 44.1004 8.8001C44.1004 8.9001 44.0004 9.0001 44.0004 9.0001L43.9004 9.1001C43.9004 9.1001 43.9004 9.1001 44.0004 9.1001H44.1004C44.0004 9.2001 43.9004 9.3001 43.9004 9.6001C43.9004 9.8001 44.0004 10.0001 44.1004 10.1001H44.0004C44.0004 10.1001 43.9004 10.1001 43.9004 10.2001C43.9004 10.3001 43.9004 10.6001 43.9004 10.7001H43.5004C43.5004 10.6001 43.5004 10.5001 43.5004 10.3001C43.5004 10.3001 43.5004 10.2001 43.4004 10.2001C42.6004 10.2001 41.5004 10.6001 41.5004 11.6001C41.5004 12.1001 41.6004 12.4001 41.9004 12.9001C42.1004 13.4001 42.3004 14.0001 42.3004 14.8001C41.8004 14.7001 41.5004 14.6001 41.2004 14.4001C39.5004 13.8001 38.1004 12.8001 37.0004 11.6001V10.5001C37.5004 9.7001 38.0004 8.7001 38.3004 7.7001C39.1004 5.3001 37.8004 4.3001 35.8004 3.9001C35.8004 3.9001 35.6004 3.9001 35.2004 4.0001V4.4001H34.7004V4.1001C34.6004 4.1001 34.6004 4.1001 34.5004 4.1001C35.0004 4.0001 35.1004 3.6001 35.1004 3.2001C35.1004 2.8001 35.0004 2.6001 34.7004 2.5001H35.1004C35.0004 2.3001 34.6004 1.9001 34.5004 1.7001C34.7004 1.7001 35.1004 2.2001 35.3004 2.3001V0.300098C35.1004 0.400098 34.7004 0.800098 34.5004 0.900098C34.5004 0.700098 35.0004 0.300098 35.1004 0.100098H34.1004H33.1004C33.2004 0.300098 33.6004 0.700098 33.7004 0.900098C33.5004 0.900098 33.1004 0.400098 32.9004 0.300098V2.2001C33.1004 2.1001 33.5004 1.7001 33.7004 1.6001C33.7004 1.8001 33.2004 2.2001 33.1004 2.4001H33.5004C33.3004 2.6001 33.1004 2.9001 33.1004 3.1001C33.1004 3.5001 33.3004 3.8001 33.6004 3.9001C33.5004 3.9001 33.5004 3.9001 33.4004 3.9001V4.4001H32.9004V4.2001C32.5004 4.1001 32.3004 4.2001 32.1004 4.3001C30.1004 4.8001 28.7004 5.7001 29.6004 8.1001C30.0004 8.9001 30.3004 10.0001 30.9004 10.9001V12.0001C29.8004 13.2001 28.4004 14.2001 26.7004 14.8001C26.5004 14.9001 26.1004 15.0001 25.6004 15.2001C25.6004 14.4001 25.8004 13.8001 26.0004 13.3001C26.1004 12.8001 26.4004 12.5001 26.4004 12.0001C26.5004 10.7001 25.6004 10.3001 24.6004 10.3001C24.6004 10.3001 24.5004 10.3001 24.5004 10.4001C24.5004 10.5001 24.5004 10.6001 24.5004 10.8001H24.1004C24.1004 10.7001 24.1004 10.4001 24.1004 10.3001C24.1004 10.3001 24.1004 10.2001 24.0004 10.2001H23.9004C24.0004 10.1001 24.1004 10.0001 24.1004 9.7001C24.1004 9.6001 24.0004 9.3001 23.9004 9.2001H24.0004H24.1004L23.9004 9.0001C23.9004 8.9001 23.8004 8.8001 23.8004 8.8001C23.9004 8.8001 24.0004 8.9001 24.0004 8.9001L24.2004 9.0001H24.3004C24.3004 9.0001 24.3004 9.0001 24.3004 8.9001V7.8001C24.3004 7.8001 24.3004 7.8001 24.3004 7.7001H24.2004C24.1004 7.7001 24.0004 7.8001 23.8004 7.9001C23.9004 7.8001 23.9004 7.7001 24.0004 7.5001C24.0004 7.5001 24.0004 7.5001 23.9004 7.5001H22.9004H22.8004L23.0004 7.7001C23.0004 7.8001 23.1004 7.9001 23.1004 7.9001C23.1004 8.0001 23.0004 7.9001 23.0004 7.9001L22.9004 7.8001H22.8004C22.8004 7.8001 22.8004 7.8001 22.8004 7.9001V8.9001V9.0001H22.9004L23.0004 8.9001C23.1004 8.9001 23.2004 8.8001 23.2004 8.8001C23.2004 8.9001 23.1004 9.0001 23.1004 9.0001L23.0004 9.1001C23.0004 9.1001 23.0004 9.1001 23.1004 9.1001H23.2004C23.1004 9.2001 23.0004 9.3001 23.0004 9.6001C23.0004 9.8001 23.1004 10.0001 23.2004 10.1001H23.1004C23.1004 10.1001 23.0004 10.1001 23.0004 10.2001C23.0004 10.3001 23.0004 10.6001 23.0004 10.7001H22.6004C22.6004 10.6001 22.6004 10.5001 22.6004 10.3001C22.6004 10.3001 22.6004 10.2001 22.5004 10.2001C21.7004 10.2001 20.6004 10.6001 20.6004 11.6001C20.6004 12.1001 20.7004 12.4001 21.0004 12.9001C21.2004 13.5001 21.5004 14.1001 21.4004 14.9001C19.4004 14.4001 18.5004 13.8001 18.6004 12.7001C18.6004 12.3001 18.8004 11.7001 19.1004 11.1001C19.5004 10.4001 19.7004 9.7001 19.7004 9.1001C19.7004 8.9001 19.7004 8.4001 19.3004 8.0001C19.2004 8.0001 19.0004 7.9001 18.9004 7.9001C18.4004 7.8001 18.1004 7.4001 17.7004 7.2001C17.3004 7.0001 17.1004 6.8001 17.0004 6.8001C16.3004 6.7001 15.7004 7.3001 15.3004 7.6001L14.8004 8.1001C14.6004 8.5001 14.2004 8.8001 13.8004 9.1001C11.9004 9.3001 11.2004 10.3001 11.2004 11.1001C11.2004 11.8001 11.7004 12.3001 12.0004 12.7001C12.2004 12.9001 12.5004 13.2001 12.5004 13.4001C12.5004 13.6001 12.4004 13.8001 12.3004 13.8001C12.1004 13.8001 11.9004 13.8001 11.8004 13.7001C11.7004 13.6001 11.6004 13.6001 11.3004 13.6001C10.7004 13.6001 10.3004 14.0001 10.3004 14.7001C10.3004 15.2001 10.5004 15.5001 10.9004 15.9001C11.0004 16.0001 11.1004 16.0001 11.4004 16.1001C11.3004 15.7001 11.3004 15.6001 11.3004 15.5001C11.3004 15.4001 11.3004 15.3001 11.4004 15.1001C11.5004 15.0001 11.6004 15.0001 11.8004 15.0001C11.9004 15.0001 12.0004 15.0001 12.2004 15.1001C12.4004 15.2001 12.6004 15.2001 12.8004 15.2001C13.3004 15.2001 13.9004 14.8001 14.1004 14.4001C14.1004 14.5001 14.1004 14.6001 14.1004 14.6001C14.1004 14.8001 13.9004 15.0001 13.7004 15.2001C13.5004 15.4001 13.2004 15.7001 13.2004 16.2001C13.2004 16.9001 13.7004 17.4001 14.4004 17.8001C14.5004 17.8001 14.9004 17.9001 15.0004 17.9001C14.9004 17.8001 14.8004 17.7001 14.6004 17.4001C14.5004 17.2001 14.4004 16.9001 14.4004 16.6001C14.4004 16.1001 14.6004 15.9001 14.9004 15.6001C15.1004 15.2001 15.5004 14.8001 15.5004 14.0001C15.5004 13.3001 15.3004 12.9001 15.0004 12.6001C14.8004 12.2001 14.5004 11.9001 14.5004 11.0001C14.5004 10.6001 14.6004 9.8001 15.7004 9.6001C16.1004 9.5001 16.3004 9.4001 16.7004 9.2001L17.1004 9.0001C17.2004 9.2001 17.3004 9.5001 17.3004 9.7001C17.3004 10.2001 17.2004 10.5001 16.9004 11.0001C16.7004 11.5001 16.5004 12.0001 16.5004 12.8001C16.5004 13.4001 16.9004 14.4001 18.7004 15.0001C18.9004 15.1001 19.2004 15.1001 19.4004 15.2001C19.8004 15.3001 20.2004 15.3001 20.8004 15.4001C20.8004 15.5001 20.7004 15.5001 20.7004 15.6001C20.6004 15.6001 20.3004 15.6001 20.2004 15.7001C20.1004 15.8001 20.0004 16.1001 20.0004 16.2001C19.6004 16.1001 18.9004 16.3001 18.4004 16.7001C17.8004 17.2001 17.6004 17.8001 17.6004 18.4001C17.6004 19.0001 17.7004 19.5001 18.1004 19.8001C18.2004 19.9001 18.3004 20.2001 18.6004 20.3001C18.6004 20.3001 18.6004 20.2001 18.7004 20.2001C19.2004 19.5001 20.3004 19.4001 21.2004 19.6001C21.6004 19.7001 21.9004 19.8001 22.3004 20.0001C22.2004 20.0001 21.9004 20.0001 21.8004 20.0001C21.2004 20.0001 20.6004 20.2001 20.0004 20.5001C19.3004 20.7001 18.6004 21.1001 17.8004 21.0001C17.1004 21.0001 16.6004 20.5001 16.5004 20.2001C16.5004 20.1001 16.4004 20.1001 16.3004 20.1001C16.2004 20.1001 16.2004 20.2001 16.2004 20.2001C16.2004 21.0001 17.0004 22.4001 18.5004 22.4001C19.3004 22.4001 19.9004 22.0001 20.5004 21.7001C20.9004 21.5001 21.2004 21.2001 21.6004 21.1001H21.7004C21.6004 21.1001 21.6004 21.1001 21.5004 21.2001C20.9004 21.4001 20.5004 21.9001 20.5004 22.4001C20.5004 23.0001 21.0004 23.5001 21.3004 23.6001C21.3004 23.5001 21.3004 23.4001 21.2004 23.2001C21.2004 22.8001 21.3004 22.6001 21.4004 22.2001C21.8004 21.7001 22.6004 21.5001 23.4004 21.5001C23.8004 21.5001 24.2004 21.6001 24.7004 21.9001C24.9004 22.0001 25.1004 22.0001 25.3004 21.9001C25.4004 21.9001 25.4004 21.8001 25.4004 21.8001C27.0004 23.1001 27.8004 24.7001 27.9004 26.2001C27.9004 26.4001 27.9004 26.8001 27.9004 26.9001C27.8004 28.0001 27.1004 28.9001 26.1004 28.9001C25.7004 28.9001 25.4004 28.8001 25.1004 28.5001H25.0004L24.9004 28.6001C24.9004 29.0001 25.0004 29.3001 25.3004 29.6001C25.5004 30.0001 26.0004 30.1001 26.5004 30.2001C26.7004 30.2001 27.0004 30.2001 27.2004 30.1001C26.7004 30.6001 26.1004 31.1001 25.2004 31.1001C24.6004 31.1001 24.0004 30.9001 23.8004 30.5001L23.7004 30.4001C23.7004 30.4001 23.6004 30.4001 23.6004 30.5001C23.4004 30.9001 23.2004 31.2001 23.4004 31.8001C23.4004 32.3001 23.6004 32.9001 24.2004 33.4001C24.4004 33.5001 24.7004 33.6001 24.9004 33.8001C24.4004 34.6001 23.7004 35.0001 22.7004 35.0001C21.6004 35.0001 20.9004 34.4001 20.5004 34.0001C20.1004 33.6001 19.9004 33.2001 19.9004 32.8001C19.9004 32.2001 20.3004 31.8001 20.6004 31.5001C21.1004 31.1001 21.6004 30.7001 21.4004 29.7001C21.4004 28.5001 20.7004 27.7001 19.7004 26.6001C19.3004 26.2001 19.0004 25.9001 18.5004 25.4001C17.7004 24.7001 16.7004 23.7001 16.0004 22.6001L15.9004 22.4001L16.0004 22.5001C15.9004 22.6001 15.8004 22.9001 15.8004 23.1001C14.6004 22.1001 13.5004 20.7001 12.9004 19.3001L12.8004 19.0001L12.7004 19.1001C12.6004 19.2001 12.5004 19.3001 12.5004 19.5001C10.2004 16.8001 8.00044 13.1001 6.90044 11.0001C6.80044 10.8001 6.70044 10.6001 6.50044 10.6001C6.30044 10.6001 6.10044 10.6001 5.90044 10.7001C4.70044 11.5001 4.90044 14.5001 5.90044 16.3001C6.50044 17.5001 7.60044 18.9001 8.80044 20.4001C8.00044 19.8001 7.30044 19.0001 6.70044 18.6001C6.00044 18.0001 4.70044 16.7001 4.30044 16.2001C4.20044 16.0001 4.10044 16.0001 4.00044 16.0001C3.90044 16.0001 3.80044 16.0001 3.80044 16.2001C3.30044 17.0001 3.30044 18.2001 3.80044 19.4001C4.20044 20.1001 4.80044 21.0001 5.60044 21.7001C5.50044 21.7001 5.50044 21.6001 5.40044 21.6001C4.70044 21.4001 2.90044 20.8001 2.50044 21.1001C2.30044 21.5001 2.70044 23.0001 3.20044 23.7001C3.70044 24.4001 4.30044 24.9001 4.90044 25.4001C4.70044 25.3001 4.40044 25.3001 4.30044 25.3001C3.50044 25.2001 1.70044 25.1001 1.40044 25.5001C1.30044 25.9001 1.80044 26.9001 2.50044 27.5001C3.20044 28.2001 4.30044 28.7001 5.60044 29.2001C5.10044 29.2001 4.80044 29.2001 4.40044 29.2001C3.60044 29.2001 1.80044 29.4001 1.60044 29.9001C1.50044 30.1001 1.80044 30.5001 2.00044 30.7001C2.20044 31.1001 3.20044 32.3001 5.10044 32.6001C5.00044 32.6001 4.90044 32.6001 4.90044 32.6001C3.80044 32.7001 2.40044 33.4001 2.40044 33.8001C2.40044 33.9001 2.60044 34.5001 3.20044 35.0001C3.40044 35.2001 3.70044 35.4001 4.00044 35.5001H3.80044C3.80044 35.5001 3.80044 35.5001 3.70044 35.6001C3.70044 35.6001 3.70044 35.6001 3.70044 35.7001L3.80044 36.0001C3.70044 36.1001 3.70044 36.1001 3.70044 36.2001V36.3001C3.70044 36.3001 3.70044 36.4001 3.80044 36.4001C4.00044 36.6001 4.00044 36.6001 4.00044 36.6001C4.00044 36.6001 4.00044 36.7001 3.90044 36.7001C3.90044 36.6001 3.80044 36.6001 3.70044 36.6001V36.5001C3.70044 36.5001 3.70044 36.4001 3.60044 36.4001H3.40044H3.20044C3.20044 36.4001 3.10044 36.4001 3.10044 36.5001V36.6001V36.7001L3.00044 36.6001C3.00044 36.6001 3.00044 36.6001 2.90044 36.6001C2.90044 36.6001 2.90044 36.6001 2.80044 36.6001H2.60044C2.50044 36.6001 2.50044 36.7001 2.50044 36.8001C2.40044 36.9001 2.40044 37.0001 2.40044 37.2001V37.3001C2.30044 37.3001 2.30044 37.2001 2.30044 37.2001H2.20044C2.20044 37.2001 2.10044 37.2001 2.10044 37.3001C2.10044 37.4001 2.10044 37.5001 2.10044 37.7001V37.8001L1.90044 38.0001C1.90044 38.1001 1.90044 38.1001 1.90044 38.2001C1.90044 38.2001 1.90044 38.3001 2.00044 38.3001C2.00044 38.3001 2.00044 38.3001 2.00044 38.4001V38.5001C2.00044 38.6001 2.10044 38.6001 2.10044 38.6001L2.00044 38.8001C2.00044 38.8001 2.00044 38.8001 2.00044 38.9001C2.00044 39.0001 2.20044 39.0001 2.20044 39.0001V39.1001C2.20044 39.1001 2.20044 39.2001 2.30044 39.2001C2.30044 39.2001 2.30044 39.2001 2.40044 39.2001V39.3001C2.40044 39.4001 2.50044 39.4001 2.50044 39.4001V39.5001L2.60044 39.6001C2.60044 39.6001 2.60044 39.6001 2.70044 39.6001C2.70044 39.6001 2.70044 39.6001 2.80044 39.6001C2.80044 39.6001 2.80044 39.6001 2.90044 39.6001C2.90044 39.6001 2.90044 39.6001 3.00044 39.6001L3.50044 40.1001C3.50044 40.1001 3.50044 40.1001 3.50044 40.2001C3.50044 40.2001 3.50044 40.2001 3.60044 40.2001C3.60044 40.2001 3.60044 40.2001 3.70044 40.3001C3.70044 40.3001 3.70044 40.4001 3.80044 40.4001V40.5001C3.80044 40.5001 3.80044 40.6001 3.90044 40.6001C3.90044 40.6001 3.90044 40.6001 4.00044 40.6001C4.00044 40.6001 4.00044 40.6001 4.10044 40.6001H4.20044H4.30044C4.30044 40.6001 4.30044 40.6001 4.40044 40.6001C4.50044 40.6001 4.50044 40.6001 4.60044 40.6001V40.5001C4.60044 40.5001 4.60044 40.5001 4.60044 40.4001C4.60044 40.4001 4.60044 40.4001 4.60044 40.5001C4.60044 40.6001 4.60044 40.6001 4.60044 40.7001L5.00044 41.1001C5.00044 41.1001 5.00044 41.1001 5.10044 41.2001H5.20044C5.30044 41.2001 5.30044 41.2001 5.40044 41.2001H5.50044H5.60044C5.50044 41.4001 5.40044 41.6001 5.40044 41.8001C5.40044 42.3001 5.60044 42.5001 6.10044 42.6001C6.00044 43.0001 6.10044 43.2001 6.60044 43.3001L10.6004 52.9001C10.5004 53.4001 10.6004 53.7001 11.0004 53.9001C10.9004 54.0001 10.9004 54.1001 10.9004 54.4001C11.1004 54.3001 11.4004 54.3001 11.4004 54.5001C11.5004 54.7001 11.0004 55.5001 11.6004 55.9001C11.5004 56.4001 11.7004 56.7001 12.2004 57.0001C12.2004 57.2001 12.4004 58.0001 12.4004 58.2001C12.2004 58.6001 11.4004 59.2001 11.6004 59.9001C11.7004 60.4001 11.8004 60.5001 12.2004 60.6001C12.1004 61.4001 12.6004 61.8001 13.3004 61.9001C13.3004 62.5001 13.9004 62.7001 14.3004 62.7001C14.7004 62.9001 14.8004 63.1001 15.1004 63.3001C14.7004 63.8001 15.0004 64.4001 15.7004 64.5001C15.8004 64.7001 16.1004 65.0001 16.4004 65.1001C16.6004 65.5001 17.0004 65.5001 17.2004 65.3001C17.3004 65.2001 17.7004 64.8001 17.4004 64.3001C17.5004 64.1001 17.5004 63.8001 17.4004 63.6001C17.6004 63.1001 17.4004 62.6001 17.2004 62.5001C17.2004 62.3001 17.1004 61.9001 17.1004 61.7001C17.6004 61.3001 18.3004 61.0001 18.5004 60.7001C19.8004 59.7001 21.4004 58.9001 23.0004 58.8001C23.5004 58.8001 24.2004 58.8001 24.7004 58.8001C25.4004 58.9001 26.4004 59.0001 27.0004 58.7001C27.1004 58.6001 27.2004 58.5001 27.2004 58.2001C27.1004 57.7001 26.6004 57.4001 26.5004 57.0001C26.5004 56.9001 26.4004 56.8001 26.4004 56.6001C26.6004 56.7001 26.9004 56.7001 27.1004 56.7001C27.8004 56.7001 28.7004 56.0001 28.7004 55.0001C28.6004 55.0001 28.5004 55.1001 28.5004 55.1001C28.1004 55.2001 27.5004 55.3001 27.1004 55.0001C26.7004 54.8001 26.5004 54.4001 26.5004 53.9001C26.5004 52.8001 27.5004 52.1001 28.4004 52.1001C29.6004 52.1001 31.2004 53.2001 31.2004 55.0001C31.2004 55.8001 30.6004 56.2001 30.1004 56.6001C29.6004 57.0001 29.0004 57.3001 28.9004 58.0001C28.9004 58.4001 28.9004 58.7001 28.9004 58.7001C28.9004 58.7001 29.1004 58.3001 29.4004 58.1001C29.6004 58.0001 30.0004 57.7001 30.5004 57.7001C30.6004 57.7001 30.7004 57.7001 31.0004 57.7001C30.4004 58.2001 29.6004 58.7001 28.6004 59.0001C27.5004 59.5001 26.6004 60.1001 26.0004 60.6001C25.3004 61.1001 24.8004 61.4001 24.3004 61.4001C23.9004 61.4001 23.7004 61.2001 23.7004 61.0001C23.6004 60.6001 23.7004 59.9001 23.9004 59.7001C23.8004 59.7001 23.5004 59.7001 23.3004 59.7001C22.8004 59.9001 22.0004 60.4001 22.0004 61.5001C22.0004 62.0001 22.1004 62.6001 22.8004 62.9001C22.4004 63.0001 22.1004 63.3001 21.8004 63.6001C21.4004 64.0001 21.3004 64.4001 21.3004 64.9001C21.3004 65.0001 21.3004 65.1001 21.3004 65.4001C21.4004 66.0001 21.7004 66.4001 21.9004 66.6001C22.1004 66.8001 22.3004 67.1001 22.3004 67.4001C22.3004 67.5001 22.3004 67.6001 22.3004 67.6001L22.2004 67.8001L22.4004 67.7001C23.0004 67.5001 23.1004 67.0001 23.2004 66.5001C23.3004 66.1001 23.3004 65.8001 23.6004 65.7001C23.6004 65.8001 23.6004 65.8001 23.6004 65.9001C23.6004 66.6001 23.8004 67.2001 24.2004 67.7001C24.7004 68.3001 25.3004 68.5001 26.0004 68.5001C26.8004 68.5001 27.3004 68.1001 27.8004 67.8001C28.3004 69.0001 29.2004 69.7001 30.6004 69.7001C31.2004 69.7001 31.8004 69.5001 32.3004 69.2001C32.5004 69.7001 32.8004 70.2001 33.1004 70.5001C33.3004 70.7001 33.6004 71.0001 33.8004 71.1001H33.9004H34.0004C34.7004 70.6001 35.2004 70.0001 35.6004 69.2001C36.1004 69.6001 36.7004 69.7001 37.3004 69.7001C38.1004 69.7001 38.9004 69.3001 39.5004 68.7001C39.7004 68.5001 40.0004 68.1001 40.1004 67.6001C40.6004 68.0001 41.1004 68.3001 41.9004 68.3001C42.6004 68.3001 43.2004 68.1001 43.7004 67.5001C44.1004 67.0001 44.3004 66.4001 44.3004 65.7001C44.3004 65.6001 44.3004 65.6001 44.3004 65.5001C44.5004 65.7001 44.7004 66.0001 44.7004 66.3001C44.8004 66.7001 44.8004 67.0001 45.1004 67.3001C45.2004 67.4001 45.7004 67.7001 45.8004 67.7001C45.7004 67.6001 45.7004 67.3001 45.7004 67.1001C45.7004 66.7001 45.8004 66.6001 46.1004 66.3001C46.4004 66.0001 46.6004 65.7001 46.7004 65.1001C46.7004 65.0001 46.7004 64.9001 46.7004 64.6001C46.7004 64.1001 46.6004 63.6001 46.2004 63.3001C46.0004 62.9001 45.6004 62.7001 45.2004 62.6001C45.9004 62.2001 46.0004 61.6001 46.0004 61.2001C46.0004 60.2001 45.4004 59.8001 44.8004 59.4001C44.6004 59.3001 44.3004 59.3001 44.0004 59.3001C44.4004 59.5001 44.5004 60.3001 44.2004 60.6001C44.1004 60.7001 44.0004 61.0001 43.6004 61.0001C43.1004 61.0001 42.6004 60.6001 41.9004 60.2001C41.2004 59.7001 40.3004 59.1001 39.3004 58.6001C38.3004 58.2001 37.5004 57.8001 36.9004 57.3001C37.0004 57.3001 37.1004 57.3001 37.4004 57.3001C37.9004 57.3001 38.2004 57.5001 38.5004 57.7001C38.7004 57.8001 39.0004 58.3001 39.0004 58.3001C39.0004 58.3001 39.0004 57.9001 39.0004 57.6001C38.9004 56.9001 38.3004 56.5001 37.8004 56.2001C37.2004 55.8001 36.7004 55.5001 36.7004 54.6001C36.7004 52.8001 38.4004 51.7001 39.5004 51.7001C40.5004 51.7001 41.4004 52.4001 41.4004 53.5001C41.4004 54.0001 41.2004 54.3001 40.8004 54.6001C40.3004 55.0001 39.7004 54.8001 39.4004 54.7001C39.4004 54.7001 39.3004 54.6001 39.2004 54.6001C39.2004 55.6001 40.0004 56.2001 40.8004 56.3001C41.2004 56.3001 41.5004 56.2001 41.9004 56.1001C41.9004 56.2001 41.9004 56.3001 41.9004 56.3001C41.8004 57.5001 41.2004 57.6001 41.4004 58.1001C41.8004 58.5001 43.8004 58.5001 44.4004 58.5001C45.4004 58.6001 46.2004 59.0001 47.2004 59.2001C48.3004 59.4001 49.4004 59.4001 50.3004 59.8001C50.9004 60.0001 51.7004 60.8001 52.2004 60.9001C52.7004 61.0001 53.0004 61.4001 53.5004 61.4001C54.1004 61.4001 54.2004 60.9001 54.9004 60.8001C55.4004 60.7001 56.0004 60.9001 56.3004 60.7001C56.7004 60.6001 56.8004 60.2001 57.0004 60.1001C57.4004 59.9001 58.0004 59.9001 58.3004 59.5001C58.4004 59.4001 58.5004 59.0001 58.5004 58.9001C59.2004 58.4001 59.8004 57.7001 60.1004 56.7001C60.2004 56.7001 60.5004 56.6001 60.5004 56.3001C60.5004 56.3001 60.5004 56.3001 60.5004 56.2001C60.7004 56.1001 60.9004 55.8001 60.9004 55.6001C60.9004 55.4001 60.8004 55.1001 60.5004 55.0001C60.5004 55.0001 60.5004 55.0001 60.5004 54.9001C60.5004 54.8001 60.4004 54.7001 60.4004 54.5001C60.2004 52.8001 58.8004 51.5001 57.3004 51.1001L57.2004 51.0001C57.0004 50.8001 56.7004 50.4001 56.7004 50.3001C56.9004 50.3001 57.4004 50.8001 57.7004 50.9001V49.0001C57.5004 49.2001 57.1004 49.6001 56.7004 49.6001C56.8004 49.4001 57.2004 48.9001 57.3004 48.6001H55.1004C55.3004 48.8001 55.7004 49.2001 55.7004 49.6001C55.5004 49.6001 55.0004 49.1001 54.7004 49.0001V51.2001C54.9004 51.0001 55.3004 50.6001 55.7004 50.6001C55.7004 50.8001 55.2004 51.3001 55.1004 51.6001H55.0004C53.3004 52.0001 52.0004 53.3001 51.8004 55.1001C51.7004 55.2001 51.6004 55.3001 51.6004 55.5001V55.6001C51.4004 55.7001 51.2004 56.0001 51.2004 56.3001C51.2004 56.5001 51.3004 56.8001 51.6004 56.9001C51.6004 56.9001 51.6004 56.9001 51.6004 57.0001C51.6004 57.2001 51.8004 57.4001 52.0004 57.4001C52.1004 57.6001 52.1004 57.8001 52.2004 58.0001C52.1004 58.6001 51.4004 59.0001 51.1004 59.0001C49.8004 59.1001 48.2004 58.6001 46.9004 58.2001C46.3004 58.0001 45.5004 57.7001 45.1004 57.1001C45.0004 57.0001 44.9004 56.6001 44.9004 56.1001C45.0004 56.3001 45.3004 56.5001 45.4004 56.6001L45.8004 56.8001L46.3004 56.7001C46.3004 56.6001 46.3004 56.5001 46.3004 56.3001V56.0001C46.5004 56.4001 47.0004 57.0001 47.7004 57.0001H48.1004L47.9004 56.9001C47.7004 56.7001 47.4004 56.2001 47.4004 55.6001C47.4004 55.4001 47.4004 55.2001 47.5004 55.0001C47.7004 55.4001 48.2004 55.7001 48.9004 55.7001C50.1004 55.7001 50.7004 54.5001 50.8004 54.0001C50.6004 54.5001 50.2004 54.5001 49.8004 54.6001C49.4004 54.6001 49.1004 54.4001 49.0004 53.8001C49.0004 53.6001 49.0004 53.3001 49.1004 53.0001C49.2004 52.6001 49.2004 52.0001 49.2004 51.4001C49.1004 50.3001 48.5004 49.7001 48.0004 49.4001C47.5004 49.0001 46.8004 48.8001 46.2004 48.8001C46.3004 48.7001 46.4004 48.6001 46.4004 48.4001L46.6004 48.0001L46.1004 48.2001C45.1004 48.4001 44.5004 48.3001 44.1004 48.1001C43.7004 47.9001 43.5004 47.5001 43.3004 47.1001C43.5004 47.2001 43.7004 47.2001 43.9004 47.3001L44.3004 47.4001L44.1004 47.0001C43.3004 45.7001 43.1004 44.0001 44.0004 42.3001C44.1004 42.3001 44.2004 42.2001 44.4004 42.1001C44.6004 42.5001 44.9004 42.6001 45.2004 42.7001C45.4004 42.8001 45.7004 42.8001 45.8004 43.1001L45.9004 43.2001L46.0004 43.1001L46.1004 43.0001C46.1004 44.3001 46.1004 45.5001 46.3004 45.9001C46.5004 46.4001 46.9004 46.6001 47.3004 46.9001C47.5004 47.0001 47.8004 47.1001 47.9004 47.4001H48.0004C48.2004 47.2001 48.4004 47.0001 48.6004 46.9001C49.0004 46.7001 49.2004 46.4001 49.3004 45.8001C49.4004 45.2001 49.2004 44.2001 48.9004 43.3001L48.8004 43.0001C48.8004 42.9001 48.9004 42.8001 48.9004 42.6001C49.3004 43.8001 50.0004 46.4001 50.3004 47.1001C50.5004 47.5001 50.8004 47.6001 51.1004 47.6001C51.3004 47.7001 51.7004 47.7001 51.9004 48.0001H52.0004C52.0004 48.0001 52.1004 48.0001 52.1004 47.9001C52.2004 47.7001 52.3004 47.5001 52.5004 47.3001C52.9004 46.8001 53.2004 46.3001 53.0004 45.6001C52.6004 44.6001 51.8004 42.8001 51.1004 41.5001L51.9004 43.2001L53.3004 45.8001C53.8004 46.6001 54.5004 46.6001 55.1004 46.8001L55.6004 46.9001C55.7004 46.9001 55.7004 46.9001 55.8004 46.8001C55.8004 46.6001 55.9004 46.4001 56.0004 46.2001C56.4004 45.7001 56.7004 45.1001 56.1004 44.0001C55.7004 43.4001 55.0004 42.6001 54.3004 41.6001L53.3004 40.0001C53.5004 40.2001 54.1004 41.0001 54.9004 41.7001C55.7004 42.7001 56.8004 43.9001 57.4004 44.6001C57.9004 45.1001 58.8004 45.2001 60.0004 44.7001C60.1004 44.7001 60.1004 44.6001 60.1004 44.6001V44.2001C60.1004 43.6001 60.2004 43.0001 59.5004 42.3001L59.4004 42.2001C60.0004 42.4001 60.7004 42.4001 61.1004 42.3001C61.5004 42.2001 61.8004 42.1001 61.9004 41.8001C62.0004 41.6001 62.0004 41.2001 61.9004 40.8001C61.8004 40.4001 61.7004 40.1001 61.4004 39.8001C62.2004 40.0001 63.0004 39.9001 63.3004 39.7001C63.8004 39.5001 64.1004 39.1001 64.3004 38.7001C64.4004 38.3001 64.3004 37.9001 64.1004 37.4001C63.9004 37.0001 63.5004 36.4001 62.7004 36.2001C63.2004 36.2001 63.5004 36.1001 63.9004 36.0001C64.4004 35.9001 64.9004 35.5001 65.1004 35.3001C65.7004 34.8001 65.9004 34.3001 65.9004 34.1001C65.9004 33.7001 64.5004 33.0001 63.4004 32.9001C63.3004 32.9001 63.3004 32.9001 63.2004 32.9001C65.1004 32.5001 66.1004 31.3001 66.3004 31.0001C66.4004 30.9001 66.7004 30.4001 66.7004 30.2001C66.4004 29.6001 64.7004 29.3001 63.9004 29.3001ZM3.80044 35.9001L4.00044 35.8001L3.80044 35.9001ZM3.80044 38.2001H3.70044C3.70044 38.1001 3.70044 38.1001 3.80044 38.2001C3.80044 38.1001 3.80044 38.1001 3.80044 38.2001C4.00044 38.1001 4.00044 38.1001 4.00044 38.0001C4.00044 38.0001 4.00044 38.0001 4.10044 38.0001C4.20044 38.0001 4.20044 38.1001 4.30044 38.1001V38.2001H4.20044V38.3001C4.00044 38.2001 3.80044 38.2001 3.80044 38.2001ZM4.40044 40.5001C4.40044 40.5001 4.30044 40.5001 4.40044 40.5001C4.30044 40.5001 4.30044 40.5001 4.30044 40.5001C4.30044 40.5001 4.30044 40.5001 4.20044 40.5001C4.20044 40.5001 4.20044 40.5001 4.10044 40.5001C4.10044 40.5001 4.00044 40.4001 3.90044 40.4001C3.90044 40.4001 3.90044 40.4001 4.00044 40.4001H4.10044C4.10044 40.4001 4.20044 40.4001 4.20044 40.3001C4.20044 40.3001 4.30044 40.3001 4.30044 40.2001C4.30044 40.3001 4.30044 40.3001 4.30044 40.4001C4.30044 40.2001 4.30044 40.3001 4.40044 40.5001C4.30044 40.3001 4.30044 40.3001 4.40044 40.5001C4.40044 40.3001 4.40044 40.5001 4.40044 40.5001ZM4.50044 37.1001C4.40044 37.2001 4.40044 37.2001 4.40044 37.2001C4.50044 37.0001 4.50044 37.0001 4.50044 37.1001C4.50044 37.0001 4.50044 37.0001 4.50044 37.1001C4.50044 37.0001 4.50044 37.0001 4.50044 37.1001C4.50044 37.1001 4.70044 37.1001 4.50044 37.1001ZM4.70044 36.5001C4.50044 36.5001 4.50044 36.5001 4.70044 36.5001C4.60044 36.5001 4.60044 36.4001 4.60044 36.3001V36.2001C4.60044 36.2001 4.60044 36.1001 4.50044 36.1001C4.40044 36.1001 4.40044 36.0001 4.10044 36.1001H4.20044C4.30044 36.1001 4.60044 36.2001 4.70044 36.2001V36.3001V36.4001C4.70044 36.4001 4.70044 36.4001 4.70044 36.5001ZM7.70044 43.0001C7.90044 42.6001 7.80044 42.3001 7.50044 42.2001V42.0001C7.90044 42.0001 8.30044 42.0001 8.70044 41.8001L8.60044 41.9001C8.00044 42.5001 8.00044 43.1001 8.00044 43.7001L7.70044 43.0001ZM24.2004 48.1001C23.8004 48.3001 23.1004 48.6001 22.2004 48.2001L21.7004 48.1001L21.9004 48.5001C22.0004 48.6001 22.1004 48.7001 22.1004 48.9001C21.5004 48.9001 20.8004 49.1001 20.3004 49.5001C19.8004 49.9001 19.2004 50.5001 19.1004 51.5001C19.0004 52.1001 19.1004 52.6001 19.2004 53.1001C19.2004 53.5001 19.3004 53.7001 19.3004 53.9001C19.2004 54.5001 18.8004 54.7001 18.5004 54.7001C18.1004 54.7001 17.9004 54.6001 17.5004 54.1001C17.6004 54.6001 18.2004 55.8001 19.4004 55.8001C20.1004 55.8001 20.5004 55.4001 20.8004 55.1001C20.8004 55.3001 20.9004 55.5001 20.9004 55.7001C20.9004 56.3001 20.7004 56.8001 20.4004 57.0001L20.2004 57.2001H20.6004C21.3004 57.2001 21.8004 56.6001 22.0004 56.2001V56.3001C22.0004 56.4001 22.0004 56.5001 22.0004 56.7001V56.9001L22.4004 56.7001C22.6004 56.5001 22.9004 56.3001 23.0004 56.1001C23.0004 56.3001 23.1004 56.6001 23.1004 56.8001C22.7004 57.0001 22.4004 57.3001 21.8004 57.5001C21.1004 57.9001 19.6004 58.5001 18.8004 58.6001C18.2004 58.7001 17.0004 58.4001 16.8004 57.4001C16.6004 56.4001 15.7004 56.2001 15.2004 56.8001C15.1004 56.7001 14.6004 56.6001 14.5004 56.9001C14.5004 56.9001 14.3004 56.5001 14.1004 56.3001C14.2004 55.8001 14.1004 55.3001 13.7004 55.1001C13.7004 54.3001 13.1004 54.1001 13.0004 53.9001C12.9004 53.7001 12.9004 53.5001 13.1004 53.4001C12.7004 53.2001 12.5004 53.2001 12.4004 53.2001C12.5004 52.8001 12.4004 52.4001 11.9004 52.2001L8.20044 44.5001C9.30044 44.9001 10.1004 44.7001 10.6004 44.3001C11.2004 43.6001 12.3004 42.5001 13.1004 41.4001C13.8004 40.6001 14.4004 40.0001 14.7004 39.7001L13.4004 41.4001C12.7004 42.4001 12.0004 43.2001 11.6004 43.8001C11.0004 44.9001 11.4004 45.5001 11.7004 46.0001C11.8004 46.2001 11.9004 46.4001 11.9004 46.6001C11.9004 46.7001 12.0004 46.7001 12.1004 46.7001L12.6004 46.6001C13.2004 46.5001 13.9004 46.5001 14.4004 45.6001L15.8004 43.0001L16.6004 41.3001C15.9004 42.7001 15.2004 44.4001 14.7004 45.4001C14.5004 46.1001 14.8004 46.6001 15.2004 47.1001C15.3004 47.3001 15.6004 47.5001 15.6004 47.7001C15.6004 47.7001 15.6004 47.8001 15.7004 47.8001H16.0004C16.4004 47.6001 16.6004 47.6001 16.8004 47.4001C17.2004 47.3001 17.4004 47.3001 17.6004 46.9001C18.0004 46.2001 18.7004 43.5001 19.0004 42.4001C19.1004 42.5001 19.1004 42.6001 19.1004 42.8001L19.0004 43.2001C18.8004 44.2001 18.5004 45.1001 18.6004 45.7001C18.7004 46.3001 19.1004 46.4001 19.3004 46.8001C19.5004 46.9001 19.7004 47.0001 19.9004 47.3001H20.0004H20.1004C20.3004 47.1001 20.6004 46.9001 20.7004 46.8001C21.1004 46.6001 21.4004 46.3001 21.7004 45.8001C21.9004 45.4001 21.9004 44.2001 21.9004 42.9001L22.0004 43.0001L22.1004 43.1001L22.2004 43.0001C22.3004 42.9001 22.6004 42.8001 22.8004 42.6001C23.0004 42.5001 23.4004 42.4001 23.6004 42.0001C23.7004 42.1001 23.8004 42.2001 24.0004 42.2001C24.8004 44.0001 24.8004 45.6001 23.9004 46.9001L23.7004 47.3001L24.1004 47.2001C24.3004 47.1001 24.5004 47.1001 24.7004 47.0001C24.9004 47.5001 24.5004 47.9001 24.2004 48.1001ZM34.1004 2.4001H34.0004H34.1004ZM34.1004 4.0001C34.0004 4.0001 34.0004 4.0001 34.0004 4.0001C34.0004 3.8001 34.1004 4.0001 34.1004 4.0001ZM27.9004 66.4001C27.8004 66.4001 27.7004 66.4001 27.5004 66.4001C27.0004 66.5001 26.8004 66.2001 26.7004 66.0001C26.6004 65.9001 26.6004 65.6001 26.6004 65.5001C26.6004 65.3001 26.6004 65.1001 26.7004 64.9001C27.1004 65.3001 27.4004 65.5001 28.0004 65.5001C27.9004 66.0001 27.9004 66.2001 27.9004 66.4001ZM30.7004 60.7001C29.9004 61.7001 29.1004 62.7001 28.5004 63.8001C28.5004 63.8001 28.4004 63.8001 28.4004 63.7001C28.2004 63.6001 28.0004 63.2001 28.0004 62.9001C28.0004 61.9001 29.4004 60.9001 30.4004 60.1001L31.0004 59.6001C31.5004 59.2001 32.0004 58.8001 32.3004 58.3001C31.8004 59.4001 31.2004 60.0001 30.7004 60.7001ZM33.3004 59.5001C33.2004 60.3001 32.9004 61.2001 32.8004 62.0001C32.4004 63.7001 32.0004 65.5001 32.0004 67.6001C32.0004 67.8001 32.0004 68.1001 32.0004 68.3001C31.5004 68.1001 31.2004 67.2001 31.2004 66.3001C31.2004 64.5001 31.8004 63.1001 32.4004 61.5001C32.8004 60.7001 33.0004 59.9001 33.2004 59.1001C33.2004 59.0001 33.3004 58.7001 33.3004 58.6001C33.4004 58.9001 33.4004 59.1001 33.3004 59.5001ZM36.6004 67.9001C36.5004 68.1001 36.4004 68.3001 36.2004 68.3001C36.2004 68.1001 36.2004 67.8001 36.2004 67.6001C36.2004 65.4001 35.8004 63.6001 35.4004 62.0001C35.2004 60.9001 34.9004 59.8001 34.8004 58.6001C35.0004 59.7001 35.4004 60.6001 35.8004 61.6001C36.4004 63.2001 37.0004 64.6001 37.0004 66.4001C37.0004 67.0001 36.9004 67.5001 36.6004 67.9001ZM41.5004 65.0001C41.6004 65.1001 41.6004 65.4001 41.6004 65.6001C41.6004 65.7001 41.6004 66.0001 41.5004 66.1001C41.4004 66.3001 41.1004 66.6001 40.7004 66.5001C40.6004 66.5001 40.5004 66.5001 40.3004 66.5001C40.3004 66.3001 40.3004 66.0001 40.2004 65.8001C40.8004 65.6001 41.3004 65.4001 41.5004 65.0001ZM37.2004 59.9001L37.8004 60.4001C38.8004 61.1001 40.2004 62.2001 40.2004 63.2001C40.2004 63.6001 40.1004 63.9001 39.8004 64.0001C39.8004 64.0001 39.7004 64.0001 39.7004 64.1001C39.1004 62.9001 38.4004 61.9001 37.5004 61.0001C36.9004 60.3001 36.3004 59.6001 35.9004 58.8001C36.3004 59.0001 36.8004 59.5001 37.2004 59.9001ZM37.2004 15.2001C37.2004 15.3001 37.2004 15.3001 37.2004 15.2001C37.3004 15.3001 37.3004 15.3001 37.3004 15.3001C37.9004 15.9001 38.6004 16.4001 39.6004 16.6001C39.0004 16.6001 38.4004 16.6001 37.9004 16.5001C37.8004 16.5001 37.7004 16.4001 37.5004 16.4001C37.6004 16.5001 37.6004 16.6001 37.7004 16.8001C38.1004 17.2001 38.4004 17.4001 38.8004 17.5001C38.0004 18.3001 36.8004 18.8001 35.4004 18.9001C35.2004 18.9001 35.0004 18.9001 34.8004 18.9001C34.9004 19.0001 35.0004 19.1001 35.2004 19.3001C35.6004 19.5001 36.2004 19.7001 36.6004 19.7001C35.6004 21.1001 34.3004 23.3001 34.0004 26.3001C33.5004 23.3001 32.3004 21.2001 31.4004 19.7001C32.0004 19.7001 32.5004 19.5001 32.8004 19.3001C32.9004 19.2001 33.0004 19.1001 33.2004 18.9001C33.0004 18.9001 32.8004 18.9001 32.6004 18.9001C31.3004 18.8001 30.1004 18.3001 29.2004 17.5001C29.7004 17.4001 30.0004 17.1001 30.3004 16.8001C30.4004 16.7001 30.4004 16.6001 30.5004 16.4001C30.4004 16.4001 30.3004 16.5001 30.1004 16.5001C29.6004 16.6001 29.0004 16.7001 28.4004 16.6001C29.4004 16.4001 30.1004 15.9001 30.7004 15.3001C30.8004 15.2001 30.8004 15.1001 30.9004 14.8001C31.0004 15.0001 30.8004 15.0001 30.7004 15.1001C29.9004 15.3001 29.1004 15.3001 28.2004 15.2001H27.5004C27.6004 15.2001 27.6004 15.2001 27.7004 15.2001C28.9004 15.0001 31.3004 14.1001 32.8004 12.7001C33.2004 12.7001 33.6004 12.7001 34.1004 12.7001C34.6004 12.7001 34.9004 12.7001 35.4004 12.7001C37.0004 14.3001 39.4004 15.0001 40.5004 15.2001C40.6004 15.2001 40.6004 15.2001 40.7004 15.2001H40.0004C38.9004 15.2001 38.2004 15.2001 37.5004 15.1001C37.4004 15.1001 37.1004 15.0001 37.0004 14.9001C37.0004 15.0001 37.1004 15.1001 37.2004 15.2001Z" fill="white"/>
</g>
<g opacity="0.5">
<path opacity="0.5" d="M0 85.2002V75.7002H3.1C4.3 75.7002 5 75.7002 5.4 75.8002C6 75.9002 6.4 76.3002 6.7 76.8002C7.1 77.3002 7.3 77.9002 7.3 78.6002C7.3 79.2002 7.2 79.7002 6.9 80.0002C6.6 80.3002 6.4 80.7002 6.1 81.0002C5.7 81.2002 5.5 81.4002 5.1 81.5002C4.6 81.6002 4 81.6002 3.1 81.6002H1.9V85.2002H0ZM1.9 77.3002V80.0002H3C3.7 80.0002 4.3 80.0002 4.6 79.9002C4.8 79.8002 5.1 79.7002 5.2 79.4002C5.3 79.2002 5.4 78.9002 5.4 78.7002C5.4 78.3002 5.3 78.1002 5 77.9002C4.8 77.7002 4.5 77.5002 4.3 77.4002C4.1 77.4002 3.6 77.3002 2.9 77.3002H1.9Z" fill="white"/>
<path opacity="0.5" d="M8 81.7001C8 81.1001 8.1 80.5001 8.5 79.9001C8.7 79.3001 9.2 78.9001 9.8 78.6001C10.4 78.4001 11 78.1001 11.6 78.1001C12.7 78.1001 13.5 78.5001 14.1 79.1001C14.8 79.8001 15.1 80.7001 15.1 81.6001C15.1 82.7001 14.7 83.5001 14.1 84.2001C13.4 84.9001 12.5 85.3001 11.6 85.3001C11 85.3001 10.4 85.2001 9.8 84.8001C9.2 84.6001 8.8 84.1001 8.5 83.6001C8.3 83.1001 8 82.5001 8 81.7001ZM9.9 81.8001C9.9 82.5001 10 83.0001 10.4 83.4001C10.8 83.8001 11.1 84.0001 11.6 84.0001C12.1 84.0001 12.4 83.8001 12.8 83.4001C13.2 83.0001 13.3 82.6001 13.3 81.8001C13.3 81.1001 13.2 80.6001 12.8 80.2001C12.4 79.8001 12.1 79.6001 11.6 79.6001C11.1 79.6001 10.8 79.8001 10.4 80.2001C10.1 80.6001 9.9 81.1001 9.9 81.8001Z" fill="white"/>
<path opacity="0.5" d="M22.4 80.3003L20.6 80.7003C20.5 80.3003 20.4 80.1003 20.2 79.9003C20 79.8003 19.7 79.7003 19.4 79.7003C18.9 79.7003 18.6 79.8003 18.3 80.2003C18 80.6003 18 80.9003 18 81.7003C18 82.5003 18.1 83.1003 18.4 83.4003C18.6 83.6003 19 83.9003 19.5 83.9003C19.9 83.9003 20.1 83.8003 20.3 83.7003C20.5 83.5003 20.7 83.2003 20.8 82.7003L22.6 83.1003C22.4 83.9003 22 84.5003 21.5 85.0003C21 85.4003 20.3 85.6003 19.3 85.6003C18.3 85.6003 17.5 85.2003 16.9 84.6003C16.3 83.9003 16 83.0003 16 81.9003C16 80.8003 16.4 79.9003 17 79.3003C17.6 78.7003 18.4 78.3003 19.4 78.3003C20.2 78.3003 21 78.5003 21.4 78.9003C21.8 79.0003 22.1 79.6003 22.4 80.3003Z" fill="white"/>
<path opacity="0.5" d="M23 78.3003H29.2V79.7003H26.9V85.1003H25.1V79.7003H23V78.3003Z" fill="white"/>
<path opacity="0.5" d="M29.7002 78.3003H31.6002L33.3002 83.2003L34.9002 78.3003H36.8002L34.4002 84.9003L33.9002 86.1003C33.8002 86.5003 33.5002 86.8003 33.4002 87.1003C33.3002 87.3003 33.0002 87.5003 32.9002 87.6003C32.7002 87.7003 32.5002 87.8003 32.2002 88.0003C31.8002 88.0003 31.7002 88.0003 31.4002 88.0003C31.0002 88.0003 30.7002 88.0003 30.3002 87.9003L30.2002 86.5003C30.4002 86.5003 30.8002 86.6003 30.9002 86.6003C31.4002 86.6003 31.6002 86.5003 31.9002 86.2003C32.1002 86.0003 32.3002 85.6003 32.4002 85.2003L29.7002 78.3003Z" fill="white"/>
<path opacity="0.5" d="M37.6996 78.3001H39.3996V79.3001C39.5996 78.9001 39.8996 78.7001 40.1996 78.5001C40.5996 78.3001 40.9996 78.1001 41.3996 78.1001C42.1996 78.1001 42.7996 78.5001 43.3996 79.1001C43.9996 79.7001 44.1996 80.5001 44.1996 81.7001C44.1996 82.9001 43.9996 83.7001 43.3996 84.3001C42.7996 84.9001 42.1996 85.3001 41.3996 85.3001C40.9996 85.3001 40.6996 85.2001 40.2996 85.1001C39.8996 85.0001 39.6996 84.7001 39.2996 84.4001V87.9001H37.5996V78.3001H37.6996ZM39.4996 81.7001C39.4996 82.4001 39.5996 83.0001 39.9996 83.4001C40.3996 83.8001 40.6996 84.0001 41.0996 84.0001C41.5996 84.0001 41.7996 83.9001 42.1996 83.5001C42.3996 83.1001 42.6996 82.7001 42.6996 81.8001C42.6996 81.1001 42.5996 80.6001 42.1996 80.2001C41.9996 79.8001 41.5996 79.7001 41.0996 79.7001C40.5996 79.7001 40.2996 79.8001 39.9996 80.2001C39.5996 80.5001 39.4996 80.9001 39.4996 81.7001Z" fill="white"/>
<path opacity="0.5" d="M45.8998 78.3003H47.6998V82.6003L50.4998 78.3003H52.2998V85.1003H50.4998V80.8003L47.5998 85.2003H45.7998V78.3003H45.8998Z" fill="white"/>
<path opacity="0.5" d="M55.9 82.4001V81.2001C56.3 81.2001 56.5 81.2001 56.6 81.1001C56.7 81.1001 56.8 81.0001 57 80.9001C57.1 80.8001 57.2 80.5001 57.2 80.3001C57.2 80.1001 57.1 79.9001 57 79.7001C56.9 79.5001 56.6 79.5001 56.3 79.5001C56.1 79.5001 55.8 79.5001 55.7 79.6001C55.6 79.7001 55.3 80.0001 55.2 80.3001L53.6 79.9001C53.7 79.3001 54.1 78.8001 54.6 78.6001C55.1 78.4001 55.7 78.1001 56.4 78.1001C57.2 78.1001 57.8 78.3001 58.3 78.7001C58.8 79.1001 59 79.5001 59 80.1001C59 80.5001 58.9 80.7001 58.8 80.9001C58.7 81.1001 58.3 81.4001 57.8 81.5001C58.3 81.6001 58.6 81.9001 59 82.1001C59.2 82.3001 59.4 82.7001 59.4 83.2001C59.4 83.7001 59.2 84.2001 58.7 84.6001C58.2 85.1001 57.5 85.2001 56.5 85.2001C54.8 85.2001 53.9 84.6001 53.5 83.3001L55.2 82.9001C55.4 83.6001 55.9 83.9001 56.5 83.9001C56.9 83.9001 57.1 83.8001 57.3 83.7001C57.5 83.6001 57.7 83.3001 57.7 83.1001C57.7 82.9001 57.6 82.6001 57.3 82.5001C57.1 82.4001 56.8 82.3001 56.5 82.3001H55.9V82.4001Z" fill="white"/>
<path opacity="0.5" d="M60.3002 78.3003H62.6002L64.3002 83.1003L66.0002 78.3003H68.3002V85.1003H66.7002V80.6003L65.0002 85.1003H63.4002L61.8002 80.6003V85.1003H60.2002C60.3002 85.1003 60.3002 78.3003 60.3002 78.3003Z" fill="white"/>
</g>
</g>
</svg>
