<svg width="58" height="63" viewBox="0 0 58 63" fill="none" xmlns="http://www.w3.org/2000/svg">
<path opacity="0.5" d="M55.2173 25.777C54.8653 25.777 54.6014 25.777 54.2495 25.865C55.3932 25.4251 56.3609 24.9853 56.9768 24.3694C57.5926 23.7536 58.1205 22.7858 57.9445 22.6099C57.7686 22.17 56.185 22.258 55.3932 22.4339C55.3052 22.4339 55.0413 22.5219 54.8653 22.5219C55.3932 22.082 55.9211 21.6421 56.3609 21.0263C56.8008 20.3225 57.2407 18.9149 56.9768 18.7389C56.6249 18.387 55.2173 18.8269 54.4255 19.1788C54.3375 19.1788 54.3375 19.1788 54.2495 19.2668C54.9533 18.6509 55.4812 17.8592 55.8331 17.2433C56.273 16.2756 56.273 15.1319 55.8331 14.4281C55.7451 14.3401 55.6571 14.2521 55.6571 14.2521C55.5692 14.2521 55.4812 14.2521 55.3052 14.3401C54.8653 14.78 53.7217 15.9237 53.1938 16.4515C52.6659 16.9794 52.0501 17.5072 51.2583 18.1231C52.314 16.8914 53.2818 15.4838 53.8096 14.516C54.6894 12.8445 54.8653 10.2052 53.8096 9.58936C53.6337 9.50138 53.3697 9.4134 53.2818 9.50138C53.1058 9.50138 52.9299 9.58936 52.8419 9.85329C51.8741 11.6128 50.0266 14.868 48.0912 17.3313C48.0032 17.2433 48.0032 17.1553 47.9152 16.9794L47.8272 16.8914L47.7393 17.0674C47.2994 18.2111 46.3316 19.6187 45.1879 20.4105C45.1 20.2345 45.1 20.0586 45.012 19.8826L44.836 19.5307L44.748 19.7946C44.2202 20.7624 43.3404 21.4662 42.5486 22.258C42.1087 22.6099 41.8448 22.9618 41.4929 23.3137C40.6131 24.2814 39.9973 24.9853 39.9973 26.041C39.9973 26.9207 40.4372 27.2726 40.7011 27.6245C41.053 27.9765 41.317 28.2404 41.317 28.7682C41.317 29.1202 41.141 29.4721 40.7891 29.824C40.4372 30.1759 39.8214 30.5278 38.8536 30.7037C37.9739 30.7037 37.358 30.3518 36.9181 29.648C37.0941 29.648 37.446 29.56 37.534 29.2961C38.0618 28.9442 38.1498 28.3284 38.2378 27.8885C38.2378 27.4486 38.2378 27.0087 38.0618 26.7448L37.9739 26.6568C37.9739 26.6568 37.8859 26.6568 37.8859 26.7448C37.7099 27.0967 37.1821 27.2726 36.6542 27.2726C35.7744 27.2726 35.2466 26.8328 34.8947 26.3929C35.0706 26.4809 35.3346 26.4809 35.5105 26.4809C35.9504 26.4809 36.3903 26.3049 36.5662 25.953C36.7422 25.777 36.9181 25.4251 36.9181 25.0732C36.9181 24.9853 36.9181 24.9853 36.8302 24.9853H36.7422C36.5662 25.1612 36.2143 25.3372 35.8624 25.3372C34.9827 25.3372 34.3668 24.3694 34.2788 23.5776C34.2788 23.4017 34.2788 23.1377 34.2788 22.9618C34.3668 21.5542 35.2466 20.2345 36.4782 19.0908L36.5662 19.1788C36.6542 19.2668 36.9181 19.2668 37.0941 19.1788C37.534 19.0028 37.9739 18.8269 38.2378 18.8269C39.1175 18.8269 39.7334 19.0028 39.9973 19.4427C40.1733 19.7946 40.3492 19.9706 40.1733 20.3225C40.1733 20.4105 40.1733 20.4984 40.0853 20.6744C40.4372 20.5864 40.7891 20.1465 40.7891 19.6187C40.7891 19.1788 40.4372 18.7389 39.9093 18.563C39.8214 18.563 39.8214 18.475 39.7334 18.475H39.8214C40.1733 18.563 40.4372 18.8269 40.7891 19.0028C41.317 19.3548 41.8448 19.6187 42.5486 19.6187C43.7803 19.6187 44.4841 18.563 44.5721 17.6832C44.5721 17.5952 44.5721 17.5952 44.4841 17.5952C44.3961 17.5952 44.3961 17.5952 44.3082 17.6832C44.3082 18.0351 43.8683 18.475 43.2524 18.475C42.6366 18.475 42.0208 18.299 41.317 18.0351C40.7891 17.8592 40.2612 17.5952 39.7334 17.5952C39.6454 17.5952 39.5574 17.5952 39.2935 17.5952C39.6454 17.5072 39.9093 17.4193 40.2612 17.2433C40.9651 17.0674 42.0208 17.1553 42.4607 17.7712L42.5486 17.8592C42.6366 17.7712 42.9005 17.6832 42.9885 17.4193C43.1645 17.0674 43.4284 16.7155 43.4284 16.1876C43.4284 15.5718 43.0765 15.0439 42.7246 14.692C42.2847 14.3401 41.6689 14.1641 41.141 14.1641C41.141 13.9882 41.053 13.8122 40.9651 13.7243C40.8771 13.6363 40.6131 13.6363 40.5252 13.6363C40.5252 13.5483 40.5252 13.4603 40.4372 13.4603C40.9651 13.3723 41.4049 13.3723 41.6689 13.2844C41.8448 13.1964 42.1087 13.1964 42.2847 13.1084C43.8683 12.5806 44.2202 11.7008 44.2202 11.1729C44.3082 10.4691 44.1322 10.0292 43.8683 9.58936C43.8683 9.23745 43.7803 8.97352 43.7803 8.53364C43.7803 8.18173 43.8683 8.00578 43.9563 7.9178L44.3961 8.09376C44.748 8.18173 44.924 8.26971 45.2759 8.44566C46.1557 8.79757 46.3316 9.4134 46.3316 9.67733C46.3316 10.2932 46.1557 10.6451 45.8917 11.085C45.7158 11.4369 45.4519 11.7008 45.4519 12.3166C45.4519 12.9325 45.6278 13.3723 45.9797 13.7243C46.1557 14.0762 46.4196 14.2521 46.4196 14.604C46.4196 14.9559 46.3316 15.1319 46.2436 15.3078C46.1557 15.4838 46.0677 15.6597 45.8917 15.7477C45.9797 15.7477 46.3316 15.6597 46.4196 15.6597C47.0354 15.3078 47.4753 14.9559 47.4753 14.2521C47.4753 13.8122 47.2994 13.6363 47.0354 13.3723C46.9475 13.1964 46.8595 13.0204 46.6835 12.8445V12.6685C47.0354 13.1084 47.3873 13.3723 47.8272 13.3723C48.0032 13.3723 48.2671 13.2844 48.3551 13.2844C48.4431 13.2844 48.531 13.1964 48.707 13.1964C48.795 13.1964 48.8829 13.1964 49.0589 13.2844C49.1469 13.3723 49.1469 13.4603 49.1469 13.6363C49.1469 13.7243 49.0589 13.8122 48.9709 13.9882C49.0589 13.9882 49.1469 13.9002 49.4108 13.8122C49.8507 13.4603 49.9387 13.1964 49.9387 12.7565C49.9387 12.2287 49.5868 11.7888 49.0589 11.7888C48.8829 11.7888 48.707 11.8767 48.619 11.8767C48.531 11.9647 48.4431 11.9647 48.1791 11.9647C47.9152 11.9647 48.0032 11.8767 48.0032 11.6128C48.0032 11.4369 48.1791 11.1729 48.4431 10.997C48.795 10.6451 49.1469 10.2932 49.1469 9.58936C49.1469 8.88554 48.531 8.00578 46.8595 7.82983C46.5076 7.65387 46.2436 7.30197 45.9797 6.95006L45.5398 6.51018C45.3639 6.33423 44.6601 5.63041 44.0442 5.80637C43.8683 5.80637 43.6044 5.98232 43.4284 6.15827C43.0765 6.33423 42.8126 6.59816 42.3727 6.77411C42.2847 6.77411 42.1967 6.86208 42.0208 6.95006C41.6689 7.30197 41.6689 7.65387 41.6689 7.9178C41.6689 8.44566 42.0208 9.0615 42.1967 9.67733C42.3727 10.2052 42.6366 10.6451 42.6366 11.085C42.7246 12.0527 42.0208 12.5806 40.1733 13.0204C40.1733 12.3166 40.3492 11.6128 40.5252 11.2609C40.6131 10.821 40.8771 10.5571 40.8771 10.1172C40.8771 9.14947 39.9973 8.88554 39.2055 8.88554C39.2055 8.88554 39.1175 8.88554 39.1175 8.97352C39.1175 9.0615 39.1175 9.14948 39.1175 9.32543H38.7656C38.7656 9.23745 38.7656 8.97352 38.7656 8.88554C38.7656 8.88554 38.7656 8.79757 38.6777 8.79757H38.5897C38.6777 8.70959 38.7656 8.62162 38.7656 8.35769C38.7656 8.26971 38.6777 8.00578 38.5897 7.9178H38.6777H38.7656L38.6777 7.82983C38.6777 7.74185 38.5897 7.65387 38.5897 7.65387C38.6777 7.65387 38.7656 7.74185 38.7656 7.74185L38.8536 7.82983H38.9416C38.9416 7.82983 38.9416 7.82983 38.9416 7.74185V6.86208C38.9416 6.86208 38.9416 6.86208 38.9416 6.77411H38.8536C38.7656 6.77411 38.6777 6.86208 38.5017 6.95006C38.5897 6.86208 38.5897 6.77411 38.6777 6.59816C38.6777 6.59816 38.6777 6.59816 38.5897 6.59816H37.7099H37.6219L37.7979 6.77411C37.7979 6.86208 37.8859 6.95006 37.8859 6.95006C37.7979 6.95006 37.7099 6.86208 37.7099 6.86208L37.534 6.77411H37.446C37.446 6.77411 37.446 6.77411 37.446 6.86208V7.74185V7.9178H37.534L37.6219 7.82983C37.7099 7.82983 37.7979 7.74185 37.7979 7.74185C37.7979 7.82983 37.7099 7.9178 37.7099 7.9178L37.6219 8.00578C37.6219 8.00578 37.6219 8.00578 37.7099 8.00578H37.7979C37.7099 8.09376 37.6219 8.18173 37.6219 8.44566C37.6219 8.62162 37.7099 8.79757 37.7979 8.88554H37.7099C37.7099 8.88554 37.6219 8.88554 37.6219 8.97352C37.6219 9.0615 37.6219 9.32543 37.6219 9.4134H37.27C37.27 9.32543 37.27 9.23745 37.27 9.0615C37.27 9.0615 37.27 8.97352 37.1821 8.97352C36.4783 8.97352 35.5105 9.32543 35.5105 10.2052C35.5105 10.6451 35.5985 10.909 35.8624 11.3489C36.0384 11.7888 36.2143 12.3166 36.2143 13.0204C35.7744 12.9325 35.5105 12.8445 35.2466 12.6685C33.751 12.1407 32.5193 11.2609 31.5516 10.2052V9.23745C31.9914 8.53364 32.4313 7.65387 32.6953 6.77411C33.3991 4.66267 32.2554 3.78291 30.4958 3.431C30.4958 3.431 30.3199 3.431 29.968 3.51898V3.87088H29.5281V3.60695C29.4401 3.60695 29.4401 3.60695 29.3521 3.60695C29.792 3.51898 29.88 3.16707 29.88 2.81516C29.88 2.46326 29.792 2.2873 29.5281 2.19933H29.88C29.792 2.02337 29.4401 1.67147 29.3521 1.49552C29.5281 1.49552 29.88 1.9354 30.056 2.02337V0.263844C29.88 0.35182 29.5281 0.703726 29.3521 0.791703C29.3521 0.61575 29.792 0.263844 29.88 0.0878906H29.0002H28.1205C28.2085 0.263844 28.5604 0.61575 28.6483 0.791703C28.4724 0.791703 28.1205 0.35182 27.9445 0.263844V1.9354C28.1205 1.84742 28.4724 1.49552 28.6483 1.40754C28.6483 1.58349 28.2085 1.9354 28.1205 2.11135H28.4724C28.2964 2.2873 28.1205 2.55123 28.1205 2.72719C28.1205 3.07909 28.2964 3.34302 28.5604 3.431C28.4724 3.431 28.4724 3.431 28.3844 3.431V3.87088H27.9445V3.69493C27.5926 3.60695 27.4167 3.69493 27.2407 3.78291C25.4812 4.22279 24.2495 5.01458 25.0413 7.12601C25.3932 7.82983 25.6571 8.79757 26.185 9.58936V10.5571C25.2173 11.6128 23.9856 12.4926 22.49 13.0204C22.314 13.1084 21.9621 13.1964 21.5222 13.3723C21.5222 12.6685 21.6982 12.1407 21.8741 11.7008C21.9621 11.2609 22.226 10.997 22.226 10.5571C22.314 9.4134 21.5222 9.0615 20.6425 9.0615C20.6425 9.0615 20.5545 9.0615 20.5545 9.14947C20.5545 9.23745 20.5545 9.32543 20.5545 9.50138H20.2026C20.2026 9.4134 20.2026 9.14947 20.2026 9.0615C20.2026 9.0615 20.2026 8.97352 20.1146 8.97352H20.0266C20.1146 8.88554 20.2026 8.79757 20.2026 8.53364C20.2026 8.44566 20.1146 8.18173 20.0266 8.09376H20.1146H20.2026L20.0266 7.9178C20.0266 7.82983 19.9387 7.74185 19.9387 7.74185C20.0266 7.74185 20.1146 7.82983 20.1146 7.82983L20.2906 7.9178H20.3785C20.3785 7.9178 20.3785 7.9178 20.3785 7.82983V6.86208C20.3785 6.86208 20.3785 6.86208 20.3785 6.77411H20.2906C20.2026 6.77411 20.1146 6.86208 19.9387 6.95006C20.0266 6.86208 20.0266 6.77411 20.1146 6.59816C20.1146 6.59816 20.1146 6.59816 20.0266 6.59816H19.1469H19.0589L19.2348 6.77411C19.2348 6.86208 19.3228 6.95006 19.3228 6.95006C19.3228 7.03804 19.2348 6.95006 19.2348 6.95006L19.1469 6.86208H19.0589C19.0589 6.86208 19.0589 6.86208 19.0589 6.95006V7.82983V7.9178H19.1469L19.2348 7.82983C19.3228 7.82983 19.4108 7.74185 19.4108 7.74185C19.4108 7.82983 19.3228 7.9178 19.3228 7.9178L19.2348 8.00578C19.2348 8.00578 19.2348 8.00578 19.3228 8.00578H19.4108C19.3228 8.09376 19.2348 8.18173 19.2348 8.44566C19.2348 8.62162 19.3228 8.79757 19.4108 8.88554H19.3228C19.3228 8.88554 19.2348 8.88554 19.2348 8.97352C19.2348 9.0615 19.2348 9.32543 19.2348 9.4134H18.8829C18.8829 9.32543 18.8829 9.23745 18.8829 9.0615C18.8829 9.0615 18.8829 8.97352 18.795 8.97352C18.0912 8.97352 17.1234 9.32543 17.1234 10.2052C17.1234 10.6451 17.2114 10.909 17.4753 11.3489C17.6513 11.8767 17.9152 12.4046 17.8272 13.1084C16.0677 12.6685 15.2759 12.1407 15.3639 11.1729C15.3639 10.821 15.5398 10.2932 15.8038 9.76531C16.1557 9.14948 16.3316 8.53364 16.3316 8.00578C16.3316 7.82983 16.3316 7.38994 15.9797 7.03804C15.8917 7.03804 15.7158 6.95006 15.6278 6.95006C15.1879 6.86208 14.924 6.51018 14.5721 6.33423C14.2202 6.15827 14.0442 5.98232 13.9563 5.98232C13.3404 5.89434 12.8126 6.4222 12.4607 6.68613L12.0208 7.12601C11.8448 7.47792 11.4929 7.74185 11.141 8.00578C9.46945 8.18173 8.85361 9.0615 8.85361 9.76531C8.85361 10.3811 9.2935 10.821 9.55743 11.1729C9.73338 11.3489 9.99731 11.6128 9.99731 11.7888C9.99731 11.9647 9.90933 12.1407 9.82136 12.1407C9.6454 12.1407 9.46945 12.1407 9.38147 12.0527C9.2935 11.9647 9.20552 11.9647 8.94159 11.9647C8.41373 11.9647 8.06183 12.3166 8.06183 12.9325C8.06183 13.3723 8.23778 13.6363 8.58968 13.9882C8.67766 14.0762 8.76564 14.0762 9.02957 14.1641C8.94159 13.8122 8.94159 13.7243 8.94159 13.6363C8.94159 13.5483 8.94159 13.4603 9.02957 13.2844C9.11754 13.1964 9.20552 13.1964 9.38147 13.1964C9.46945 13.1964 9.55743 13.1964 9.73338 13.2844C9.90933 13.3723 10.0853 13.3723 10.2612 13.3723C10.7011 13.3723 11.229 13.0204 11.4049 12.6685C11.4049 12.7565 11.4049 12.8445 11.4049 12.8445C11.4049 13.0204 11.229 13.1964 11.053 13.3723C10.8771 13.5483 10.6131 13.8122 10.6131 14.2521C10.6131 14.868 11.053 15.3078 11.6689 15.6597C11.7568 15.6597 12.1087 15.7477 12.1967 15.7477C12.1087 15.6597 12.0208 15.5718 11.8448 15.3078C11.7568 15.1319 11.6689 14.868 11.6689 14.604C11.6689 14.1641 11.8448 13.9882 12.1087 13.7243C12.2847 13.3723 12.6366 13.0204 12.6366 12.3166C12.6366 11.7008 12.4607 11.3489 12.1967 11.085C12.0208 10.7331 11.7568 10.4691 11.7568 9.67733C11.7568 9.32543 11.8448 8.62162 12.8126 8.44566C13.1645 8.35769 13.3404 8.26971 13.6923 8.09376L14.0442 7.9178C14.1322 8.09376 14.2202 8.35769 14.2202 8.53364C14.2202 8.97352 14.1322 9.23745 13.8683 9.67733C13.6923 10.1172 13.5164 10.5571 13.5164 11.2609C13.5164 11.7888 13.8683 12.6685 15.4519 13.1964C15.6278 13.2844 15.8917 13.2844 16.0677 13.3723C16.4196 13.4603 16.7715 13.4603 17.2994 13.5483C17.2994 13.6363 17.2114 13.6363 17.2114 13.7243C17.1234 13.7243 16.8595 13.7243 16.7715 13.8122C16.6835 13.9002 16.5956 14.1641 16.5956 14.2521C16.2436 14.1641 15.6278 14.3401 15.1879 14.692C14.6601 15.1319 14.4841 15.6597 14.4841 16.1876C14.4841 16.7155 14.5721 17.1553 14.924 17.4193C15.012 17.5072 15.0999 17.7712 15.3639 17.8592C15.3639 17.8592 15.3639 17.7712 15.4519 17.7712C15.8917 17.1553 16.8595 17.0674 17.6513 17.2433C18.0032 17.3313 18.2671 17.4193 18.619 17.5952C18.531 17.5952 18.2671 17.5952 18.1791 17.5952C17.6513 17.5952 17.1234 17.7712 16.5956 18.0351C15.9797 18.2111 15.3639 18.563 14.6601 18.475C14.0442 18.475 13.6043 18.0351 13.5164 17.7712C13.5164 17.6832 13.4284 17.6832 13.3404 17.6832C13.2524 17.6832 13.2524 17.7712 13.2524 17.7712C13.2524 18.475 13.9563 19.7067 15.2759 19.7067C15.9797 19.7067 16.5076 19.3548 17.0354 19.0908C17.3873 18.9149 17.6513 18.6509 18.0032 18.563H18.0912C18.0032 18.563 18.0032 18.563 17.9152 18.6509C17.3873 18.8269 17.0354 19.2668 17.0354 19.7067C17.0354 20.2345 17.4753 20.6744 17.7392 20.7624C17.7392 20.6744 17.7392 20.5864 17.6513 20.4105C17.6513 20.0586 17.7392 19.8826 17.8272 19.5307C18.1791 19.0908 18.8829 18.9149 19.5868 18.9149C19.9387 18.9149 20.2906 19.0028 20.7304 19.2668C20.9064 19.3548 21.0824 19.3548 21.2583 19.2668C21.3463 19.2668 21.3463 19.1788 21.3463 19.1788C22.7539 20.3225 23.4577 21.7301 23.5457 23.0498C23.5457 23.2257 23.5457 23.5776 23.5457 23.6656C23.4577 24.6333 22.8419 25.4251 21.9621 25.4251C21.6102 25.4251 21.3463 25.3372 21.0824 25.0732H20.9944L20.9064 25.1612C20.9064 25.5131 20.9944 25.777 21.2583 26.041C21.4343 26.3929 21.8741 26.4809 22.314 26.5688C22.49 26.5688 22.7539 26.5688 22.9299 26.4809C22.49 26.9207 21.9621 27.3606 21.1703 27.3606C20.6425 27.3606 20.1146 27.1847 19.9387 26.8328L19.8507 26.7448C19.8507 26.7448 19.7627 26.7448 19.7627 26.8328C19.5868 27.1847 19.4108 27.4486 19.5868 27.9765C19.5868 28.4163 19.7627 28.9442 20.2906 29.3841C20.4665 29.4721 20.7304 29.56 20.9064 29.736C20.4665 30.4398 19.8507 30.7917 18.9709 30.7917C18.0032 30.7917 17.3873 30.2638 17.0354 29.9119C16.6835 29.56 16.5076 29.2081 16.5076 28.8562C16.5076 28.3284 16.8595 27.9765 17.1234 27.7125C17.5633 27.3606 18.0032 27.0087 17.8272 26.1289C17.8272 25.0732 17.2114 24.3694 16.3316 23.4017C15.9797 23.0498 15.7158 22.7858 15.2759 22.346C14.5721 21.7301 13.6923 20.8504 13.0765 19.8826L12.9885 19.7067L13.0765 19.7946C12.9885 19.8826 12.9005 20.1465 12.9005 20.3225C11.8448 19.4427 10.8771 18.2111 10.3492 16.9794L10.2612 16.7155L10.1733 16.8034C10.0853 16.8914 9.99731 16.9794 9.99731 17.1553C7.97385 14.78 6.03837 11.5248 5.07062 9.67733C4.98265 9.50138 4.89467 9.32543 4.71872 9.32543C4.54276 9.32543 4.36681 9.32543 4.19086 9.4134C3.13514 10.1172 3.31109 12.7565 4.19086 14.3401C4.71872 15.3958 5.68646 16.6275 6.74218 17.9471C6.03837 17.4193 5.42253 16.7155 4.89467 16.3636C4.27883 15.8357 3.13514 14.692 2.78323 14.2521C2.69526 14.0762 2.60728 14.0762 2.5193 14.0762C2.43133 14.0762 2.34335 14.0762 2.34335 14.2521C1.90347 14.9559 1.90347 16.0116 2.34335 17.0674C2.69526 17.6832 3.22312 18.475 3.92693 19.0908C3.83895 19.0908 3.83895 19.0028 3.75097 19.0028C3.13514 18.8269 1.55156 18.299 1.19965 18.563C1.0237 18.9149 1.37561 20.2345 1.81549 20.8504C2.25537 21.4662 2.78323 21.9061 3.31109 22.346C3.13514 22.258 2.87121 22.258 2.78323 22.258C2.07942 22.17 0.495842 22.082 0.231913 22.4339C0.143936 22.7858 0.583819 23.6656 1.19965 24.1935C1.81549 24.8093 2.78323 25.2492 3.92693 25.6891C3.48705 25.6891 3.22312 25.6891 2.87121 25.6891C2.1674 25.6891 0.583819 25.865 0.407866 26.3049C0.319889 26.4809 0.583819 26.8328 0.759772 27.0087C0.935725 27.3606 1.81549 28.4163 3.48704 28.6803C3.39907 28.6803 3.31109 28.6803 3.31109 28.6803C2.34335 28.7682 1.11168 29.3841 1.11168 29.736C1.11168 29.824 1.28763 30.3518 1.81549 30.7917C1.99144 30.9677 2.25537 31.1436 2.5193 31.2316H2.34335C2.34335 31.2316 2.34335 31.2316 2.25537 31.3196C2.25537 31.3196 2.25537 31.3196 2.25537 31.4075L2.34335 31.6715C2.25537 31.7594 2.25537 31.7594 2.25537 31.8474V31.9354C2.25537 31.9354 2.25537 32.0234 2.34335 32.0234C2.5193 32.1993 2.5193 32.1993 2.5193 32.1993C2.5193 32.1993 2.5193 32.2873 2.43133 32.2873C2.43133 32.1993 2.34335 32.1993 2.25537 32.1993V32.1114C2.25537 32.1114 2.25537 32.0234 2.1674 32.0234H1.99144H1.81549C1.81549 32.0234 1.72751 32.0234 1.72751 32.1114V32.1993V32.2873L1.63954 32.1993C1.63954 32.1993 1.63954 32.1993 1.55156 32.1993C1.55156 32.1993 1.55156 32.1993 1.46358 32.1993H1.28763C1.19965 32.1993 1.19965 32.2873 1.19965 32.3753C1.11168 32.4633 1.11168 32.5512 1.11168 32.7272V32.8152C1.0237 32.8152 1.0237 32.7272 1.0237 32.7272H0.935725C0.935725 32.7272 0.847749 32.7272 0.847749 32.8152C0.847749 32.9031 0.847749 32.9911 0.847749 33.1671V33.2551L0.671796 33.431C0.671796 33.519 0.671796 33.519 0.671796 33.607C0.671796 33.607 0.671796 33.6949 0.759772 33.6949C0.759772 33.6949 0.759772 33.6949 0.759772 33.7829V33.8709C0.759772 33.9589 0.847749 33.9589 0.847749 33.9589L0.759772 34.1348C0.759772 34.1348 0.759772 34.1348 0.759772 34.2228C0.759772 34.3108 0.935725 34.3108 0.935725 34.3108V34.3987C0.935725 34.3987 0.935725 34.4867 1.0237 34.4867C1.0237 34.4867 1.0237 34.4867 1.11168 34.4867V34.5747C1.11168 34.6627 1.19965 34.6627 1.19965 34.6627V34.7507L1.28763 34.8386C1.28763 34.8386 1.28763 34.8386 1.37561 34.8386C1.37561 34.8386 1.37561 34.8386 1.46358 34.8386C1.46358 34.8386 1.46358 34.8386 1.55156 34.8386C1.55156 34.8386 1.55156 34.8386 1.63954 34.8386L2.07942 35.2785C2.07942 35.2785 2.07942 35.2785 2.07942 35.3665C2.07942 35.3665 2.07942 35.3665 2.1674 35.3665C2.1674 35.3665 2.1674 35.3665 2.25537 35.4545C2.25537 35.4545 2.25537 35.5424 2.34335 35.5424V35.6304C2.34335 35.6304 2.34335 35.7184 2.43133 35.7184C2.43133 35.7184 2.43133 35.7184 2.5193 35.7184C2.5193 35.7184 2.5193 35.7184 2.60728 35.7184H2.69526H2.78323C2.78323 35.7184 2.78323 35.7184 2.87121 35.7184C2.95919 35.7184 2.95919 35.7184 3.04716 35.7184V35.6304C3.04716 35.6304 3.04716 35.6304 3.04716 35.5424C3.04716 35.5424 3.04716 35.5424 3.04716 35.6304C3.04716 35.7184 3.04716 35.7184 3.04716 35.8064L3.39907 36.1583C3.39907 36.1583 3.39907 36.1583 3.48704 36.2463H3.57502C3.663 36.2463 3.663 36.2463 3.75097 36.2463H3.83895H3.92693C3.83895 36.4222 3.75097 36.5982 3.75097 36.7741C3.75097 37.214 3.92693 37.3899 4.36681 37.4779C4.27883 37.8298 4.36681 38.0058 4.80669 38.0938L8.32576 46.5395C8.23778 46.9794 8.32576 47.2433 8.67766 47.4193C8.58968 47.5073 8.58968 47.5952 8.58968 47.8592C8.76564 47.7712 9.02957 47.7712 9.02957 47.9471C9.11754 48.1231 8.67766 48.8269 9.20552 49.1788C9.11754 49.6187 9.2935 49.8826 9.73338 50.1465C9.73338 50.3225 9.90933 51.0263 9.90933 51.2023C9.73338 51.5542 9.02957 52.082 9.20552 52.6979C9.2935 53.1377 9.38147 53.2257 9.73338 53.3137C9.6454 54.0175 10.0853 54.3694 10.7011 54.4574C10.7011 54.9853 11.229 55.1612 11.5809 55.1612C11.9328 55.3372 12.0208 55.5131 12.2847 55.6891C11.9328 56.129 12.1967 56.6568 12.8126 56.7448C12.9005 56.9207 13.1645 57.1847 13.4284 57.2726C13.6043 57.6245 13.9563 57.6246 14.1322 57.4486C14.2202 57.3606 14.5721 57.0087 14.3082 56.5688C14.3961 56.3929 14.3961 56.1289 14.3082 55.953C14.4841 55.5131 14.3082 55.0732 14.1322 54.9853C14.1322 54.8093 14.0442 54.4574 14.0442 54.2814C14.4841 53.9295 15.0999 53.6656 15.2759 53.4017C16.4196 52.5219 17.8272 51.8181 19.2348 51.7301C19.6747 51.7301 20.2906 51.7301 20.7304 51.7301C21.3463 51.8181 22.226 51.9061 22.7539 51.6421C22.8419 51.5542 22.9299 51.4662 22.9299 51.2023C22.8419 50.7624 22.402 50.4985 22.314 50.1465C22.314 50.0586 22.226 49.9706 22.226 49.7946C22.402 49.8826 22.6659 49.8826 22.8419 49.8826C23.4577 49.8826 24.2495 49.2668 24.2495 48.387C24.1615 48.387 24.0736 48.475 24.0736 48.475C23.7217 48.563 23.1938 48.6509 22.8419 48.387C22.49 48.2111 22.314 47.8592 22.314 47.4193C22.314 46.4515 23.1938 45.8357 23.9856 45.8357C25.0413 45.8357 26.4489 46.8034 26.4489 48.387C26.4489 49.0908 25.9211 49.4427 25.4812 49.7946C25.0413 50.1465 24.5134 50.4105 24.4255 51.0263C24.4255 51.3782 24.4255 51.6421 24.4255 51.6421C24.4255 51.6421 24.6014 51.2902 24.8653 51.1143C25.0413 51.0263 25.3932 50.7624 25.8331 50.7624C25.9211 50.7624 26.009 50.7624 26.273 50.7624C25.7451 51.2023 25.0413 51.6421 24.1615 51.9061C23.1938 52.346 22.402 52.8738 21.8741 53.3137C21.2583 53.7536 20.8184 54.0175 20.3785 54.0175C20.0266 54.0175 19.8507 53.8416 19.8507 53.6656C19.7627 53.3137 19.8507 52.6979 20.0266 52.5219C19.9387 52.5219 19.6747 52.5219 19.4988 52.5219C19.0589 52.6979 18.3551 53.1377 18.3551 54.1055C18.3551 54.5454 18.4431 55.0732 19.0589 55.3372C18.707 55.4251 18.4431 55.6891 18.1791 55.953C17.8272 56.3049 17.7392 56.6568 17.7392 57.0967C17.7392 57.1847 17.7392 57.2726 17.7392 57.5366C17.8272 58.0644 18.0912 58.4163 18.2671 58.5923C18.4431 58.7682 18.619 59.0322 18.619 59.2961C18.619 59.3841 18.619 59.4721 18.619 59.4721L18.531 59.648L18.707 59.56C19.2348 59.3841 19.3228 58.9442 19.4108 58.5043C19.4988 58.1524 19.4988 57.8885 19.7627 57.8005C19.7627 57.8885 19.7627 57.8885 19.7627 57.9765C19.7627 58.5923 19.9387 59.1202 20.2906 59.56C20.7304 60.0879 21.2583 60.2638 21.8741 60.2638C22.578 60.2638 23.0178 59.9119 23.4577 59.648C23.8976 60.7037 24.6894 61.3196 25.9211 61.3196C26.4489 61.3196 26.9768 61.1436 27.4167 60.8797C27.5926 61.3196 27.8565 61.7594 28.1205 62.0234C28.2964 62.1993 28.5604 62.4633 28.7363 62.5512H28.8243H28.9123C29.5281 62.1114 29.968 61.5835 30.3199 60.8797C30.7598 61.2316 31.2876 61.3196 31.8155 61.3196C32.5193 61.3196 33.2231 60.9677 33.751 60.4398C33.9269 60.2638 34.1909 59.9119 34.2788 59.4721C34.7187 59.824 35.1586 60.0879 35.8624 60.0879C36.4783 60.0879 37.0061 59.9119 37.446 59.3841C37.7979 58.9442 37.9739 58.4163 37.9739 57.8005C37.9739 57.7125 37.9739 57.7125 37.9739 57.6246C38.1498 57.8005 38.3258 58.0644 38.3258 58.3284C38.4137 58.6803 38.4137 58.9442 38.6777 59.2081C38.7656 59.2961 39.2055 59.56 39.2935 59.56C39.2055 59.4721 39.2055 59.2081 39.2055 59.0322C39.2055 58.6803 39.2935 58.5923 39.5574 58.3284C39.8214 58.0644 39.9973 57.8005 40.0853 57.2726C40.0853 57.1847 40.0853 57.0967 40.0853 56.8328C40.0853 56.3929 39.9973 55.953 39.6454 55.6891C39.4695 55.3372 39.1175 55.1612 38.7656 55.0732C39.3815 54.7213 39.4695 54.1935 39.4695 53.8416C39.4695 52.9618 38.9416 52.6099 38.4137 52.258C38.2378 52.17 37.9739 52.17 37.7099 52.17C38.0618 52.346 38.1498 53.0498 37.8859 53.3137C37.7979 53.4017 37.7099 53.6656 37.358 53.6656C36.9181 53.6656 36.4783 53.3137 35.8624 52.9618C35.2466 52.5219 34.4548 51.9941 33.575 51.5542C32.6953 51.2023 31.9914 50.8504 31.4636 50.4105C31.5516 50.4105 31.6395 50.4105 31.9035 50.4105C32.3434 50.4105 32.6073 50.5864 32.8712 50.7624C33.0472 50.8504 33.3111 51.2902 33.3111 51.2902C33.3111 51.2902 33.3111 50.9383 33.3111 50.6744C33.2231 50.0586 32.6953 49.7067 32.2554 49.4427C31.7275 49.0908 31.2876 48.8269 31.2876 48.0351C31.2876 46.4515 32.7832 45.4838 33.751 45.4838C34.6307 45.4838 35.4225 46.0996 35.4225 47.0674C35.4225 47.5072 35.2466 47.7712 34.8947 48.0351C34.4548 48.387 33.9269 48.2111 33.663 48.1231C33.663 48.1231 33.575 48.0351 33.487 48.0351C33.487 48.9149 34.1909 49.4427 34.8947 49.5307C35.2466 49.5307 35.5105 49.4427 35.8624 49.3548C35.8624 49.4427 35.8624 49.5307 35.8624 49.5307C35.7744 50.5864 35.2466 50.6744 35.4225 51.1143C35.7744 51.4662 37.534 51.4662 38.0618 51.4662C38.9416 51.5542 39.6454 51.9061 40.5252 52.082C41.4929 52.258 42.4607 52.258 43.2524 52.6099C43.7803 52.7858 44.4841 53.4897 44.924 53.5776C45.3639 53.6656 45.6278 54.0175 46.0677 54.0175C46.5956 54.0175 46.6835 53.5776 47.2994 53.4897C47.7393 53.4017 48.2671 53.5776 48.531 53.4017C48.8829 53.3137 48.9709 52.9618 49.1469 52.8738C49.4988 52.6979 50.0266 52.6979 50.2906 52.346C50.3785 52.258 50.4665 51.9061 50.4665 51.8181C51.0824 51.3782 51.6102 50.7624 51.8741 49.8826C51.9621 49.8826 52.2261 49.7946 52.2261 49.5307C52.2261 49.5307 52.2261 49.5307 52.2261 49.4427C52.402 49.3548 52.578 49.0908 52.578 48.9149C52.578 48.7389 52.49 48.475 52.2261 48.387C52.2261 48.387 52.2261 48.387 52.2261 48.299C52.2261 48.2111 52.1381 48.1231 52.1381 47.9471C51.9621 46.4515 50.7304 45.3078 49.4108 44.9559L49.3228 44.868C49.1469 44.692 48.8829 44.3401 48.8829 44.2521C49.0589 44.2521 49.4988 44.692 49.7627 44.78V43.1084C49.5868 43.2844 49.2349 43.6363 48.8829 43.6363C48.9709 43.4603 49.3228 43.0204 49.4108 42.7565H47.4753C47.6513 42.9325 48.0032 43.2844 48.0032 43.6363C47.8272 43.6363 47.3873 43.1964 47.1234 43.1084V45.0439C47.2994 44.868 47.6513 44.516 48.0032 44.516C48.0032 44.692 47.5633 45.1319 47.4753 45.3958H47.3873C45.8917 45.7477 44.748 46.8914 44.5721 48.475C44.4841 48.563 44.3961 48.6509 44.3961 48.8269V48.9149C44.2202 49.0028 44.0442 49.2668 44.0442 49.5307C44.0442 49.7067 44.1322 49.9706 44.3961 50.0586C44.3961 50.0586 44.3961 50.0586 44.3961 50.1465C44.3961 50.3225 44.5721 50.4985 44.748 50.4985C44.836 50.6744 44.836 50.8504 44.924 51.0263C44.836 51.5542 44.2202 51.9061 43.9563 51.9061C42.8126 51.9941 41.4049 51.5542 40.2612 51.2023C39.7334 51.0263 39.0296 50.7624 38.6777 50.2345C38.5897 50.1465 38.5017 49.7946 38.5017 49.3548C38.5897 49.5307 38.8536 49.7067 38.9416 49.7946L39.2935 49.9706L39.7334 49.8826C39.7334 49.7946 39.7334 49.7067 39.7334 49.5307V49.2668C39.9093 49.6187 40.3492 50.1465 40.9651 50.1465H41.317L41.141 50.0586C40.9651 49.8826 40.7011 49.4427 40.7011 48.9149C40.7011 48.7389 40.7011 48.563 40.7891 48.387C40.9651 48.7389 41.4049 49.0029 42.0208 49.0029C43.0765 49.0029 43.6044 47.9471 43.6923 47.5072C43.5164 47.9471 43.1645 47.9471 42.8126 48.0351C42.4607 48.0351 42.1967 47.8592 42.1087 47.3313C42.1087 47.1553 42.1087 46.8914 42.1967 46.6275C42.2847 46.2756 42.2847 45.7477 42.2847 45.2199C42.1967 44.2521 41.6689 43.7243 41.229 43.4603C40.7891 43.1084 40.1733 42.9325 39.6454 42.9325C39.7334 42.8445 39.8214 42.7565 39.8214 42.5806L39.9973 42.2287L39.5574 42.4046C38.6777 42.5806 38.1498 42.4926 37.7979 42.3166C37.446 42.1407 37.27 41.7888 37.0941 41.4369C37.27 41.5248 37.446 41.5248 37.6219 41.6128L37.9739 41.7008L37.7979 41.3489C37.0941 40.2052 36.9181 38.7096 37.7099 37.214C37.7979 37.214 37.8859 37.126 38.0618 37.038C38.2378 37.3899 38.5017 37.4779 38.7656 37.5659C38.9416 37.6539 39.2055 37.6539 39.2935 37.9178L39.3815 38.0058L39.4695 37.9178L39.5574 37.8298C39.5574 38.9735 39.5574 40.0292 39.7334 40.3811C39.9093 40.821 40.2612 40.997 40.6131 41.2609C40.7891 41.3489 41.053 41.4369 41.141 41.7008H41.229C41.4049 41.5248 41.5809 41.3489 41.7568 41.2609C42.1087 41.085 42.2847 40.821 42.3727 40.2932C42.4607 39.7653 42.2847 38.8855 42.0208 38.0938L41.9328 37.8298C41.9328 37.7419 42.0208 37.6539 42.0208 37.4779C42.3727 38.5336 42.9885 40.821 43.2524 41.4369C43.4284 41.7888 43.6923 41.8768 43.9563 41.8768C44.1322 41.9647 44.4841 41.9647 44.6601 42.2287H44.748C44.748 42.2287 44.836 42.2287 44.836 42.1407C44.924 41.9647 45.012 41.7888 45.1879 41.6128C45.5398 41.1729 45.8038 40.7331 45.6278 40.1172C45.2759 39.2375 44.5721 37.6539 43.9563 36.5102L44.6601 38.0058L45.8917 40.2932C46.3316 40.997 46.9475 40.997 47.4753 41.1729L47.9152 41.2609C48.0032 41.2609 48.0032 41.2609 48.0912 41.1729C48.0912 40.997 48.1791 40.821 48.2671 40.6451C48.619 40.2052 48.8829 39.6773 48.3551 38.7096C48.0032 38.1817 47.3873 37.4779 46.7715 36.5982L45.8917 35.1905C46.0677 35.3665 46.5956 36.0703 47.2994 36.6861C48.0032 37.5659 48.9709 38.6216 49.4988 39.2375C49.9387 39.6773 50.7304 39.7653 51.7862 39.3254C51.8741 39.3254 51.8741 39.2375 51.8741 39.2375V38.8855C51.8741 38.3577 51.9621 37.8298 51.3463 37.214L51.2583 37.126C51.7862 37.302 52.402 37.302 52.7539 37.214C53.1058 37.126 53.3697 37.038 53.4577 36.7741C53.5457 36.5982 53.5457 36.2463 53.4577 35.8943C53.3697 35.5424 53.2818 35.2785 53.0178 35.0146C53.7217 35.1905 54.4255 35.1026 54.6894 34.9266C55.1293 34.7507 55.3932 34.3987 55.5692 34.0468C55.6571 33.6949 55.5692 33.343 55.3932 32.9031C55.2173 32.5512 54.8653 32.0234 54.1615 31.8474C54.6014 31.8474 54.8653 31.7594 55.2173 31.6715C55.6571 31.5835 56.097 31.2316 56.273 31.0556C56.8008 30.6158 56.9768 30.1759 56.9768 29.9999C56.9768 29.648 55.7451 29.0322 54.7774 28.9442C54.6894 28.9442 54.6894 28.9442 54.6014 28.9442C56.273 28.5923 57.1527 27.5366 57.3287 27.2726C57.4167 27.1847 57.6806 26.7448 57.6806 26.5688C57.4167 26.041 55.9211 25.777 55.2173 25.777ZM2.34335 31.5835L2.5193 31.4955L2.34335 31.5835ZM2.34335 33.607H2.25537C2.25537 33.519 2.25537 33.519 2.34335 33.607C2.34335 33.519 2.34335 33.519 2.34335 33.607C2.5193 33.519 2.5193 33.519 2.5193 33.431C2.5193 33.431 2.5193 33.431 2.60728 33.431C2.69526 33.431 2.69526 33.519 2.78323 33.519V33.607H2.69526V33.6949C2.5193 33.607 2.34335 33.607 2.34335 33.607ZM2.87121 35.6304C2.87121 35.6304 2.78323 35.6304 2.87121 35.6304C2.78323 35.6304 2.78323 35.6304 2.78323 35.6304C2.78323 35.6304 2.78323 35.6304 2.69526 35.6304C2.69526 35.6304 2.69526 35.6304 2.60728 35.6304C2.60728 35.6304 2.5193 35.5424 2.43133 35.5424C2.43133 35.5424 2.43133 35.5424 2.5193 35.5424H2.60728C2.60728 35.5424 2.69526 35.5424 2.69526 35.4545C2.69526 35.4545 2.78323 35.4545 2.78323 35.3665C2.78323 35.4545 2.78323 35.4545 2.78323 35.5424C2.78323 35.3665 2.78323 35.4545 2.87121 35.6304C2.78323 35.4545 2.78323 35.4545 2.87121 35.6304C2.87121 35.4545 2.87121 35.6304 2.87121 35.6304ZM2.95919 32.6392C2.87121 32.7272 2.87121 32.7272 2.87121 32.7272C2.95919 32.5512 2.95919 32.5512 2.95919 32.6392C2.95919 32.5512 2.95919 32.5512 2.95919 32.6392C2.95919 32.5512 2.95919 32.5512 2.95919 32.6392C2.95919 32.6392 3.13514 32.6392 2.95919 32.6392ZM3.13514 32.1114C2.95919 32.1114 2.95919 32.1114 3.13514 32.1114C3.04716 32.1114 3.04716 32.0234 3.04716 31.9354V31.8474C3.04716 31.8474 3.04716 31.7594 2.95919 31.7594C2.87121 31.7594 2.87121 31.6715 2.60728 31.7594H2.69526C2.78323 31.7594 3.04716 31.8474 3.13514 31.8474V31.9354V32.0234C3.13514 32.0234 3.13514 32.0234 3.13514 32.1114ZM5.77444 37.8298C5.95039 37.4779 5.86241 37.214 5.59848 37.126V36.9501C5.95039 36.9501 6.30229 36.9501 6.6542 36.7741L6.56622 36.8621C6.03837 37.3899 6.03836 37.9178 6.03836 38.4457L5.77444 37.8298ZM20.2906 42.3166C19.9387 42.4926 19.3228 42.7565 18.531 42.4046L18.0912 42.3166L18.2671 42.6685C18.3551 42.7565 18.4431 42.8445 18.4431 43.0204C17.9152 43.0204 17.2994 43.1964 16.8595 43.5483C16.4196 43.9002 15.8917 44.4281 15.8038 45.3078C15.7158 45.8357 15.8038 46.2756 15.8917 46.7155C15.8917 47.0674 15.9797 47.2433 15.9797 47.4193C15.8917 47.9471 15.5398 48.1231 15.2759 48.1231C14.924 48.1231 14.748 48.0351 14.3961 47.5952C14.4841 48.0351 15.012 49.0908 16.0677 49.0908C16.6835 49.0908 17.0354 48.7389 17.2994 48.475C17.2994 48.6509 17.3873 48.8269 17.3873 49.0029C17.3873 49.5307 17.2114 49.9706 16.9475 50.1465L16.7715 50.3225H17.1234C17.7392 50.3225 18.1791 49.7946 18.3551 49.4427V49.5307C18.3551 49.6187 18.3551 49.7067 18.3551 49.8826V50.0586L18.707 49.8826C18.8829 49.7067 19.1469 49.5307 19.2348 49.3548C19.2348 49.5307 19.3228 49.7946 19.3228 49.9706C18.9709 50.1465 18.707 50.4105 18.1791 50.5864C17.5633 50.9383 16.2436 51.4662 15.5398 51.5542C15.012 51.6421 13.9563 51.3782 13.7803 50.4985C13.6043 49.6187 12.8126 49.4427 12.3727 49.9706C12.2847 49.8826 11.8448 49.7946 11.7568 50.0586C11.7568 50.0586 11.5809 49.7067 11.4049 49.5307C11.4929 49.0908 11.4049 48.6509 11.053 48.475C11.053 47.7712 10.5252 47.5952 10.4372 47.4193C10.3492 47.2433 10.3492 47.0674 10.5252 46.9794C10.1733 46.8034 9.99731 46.8034 9.90933 46.8034C9.99731 46.4515 9.90933 46.0996 9.46945 45.9237L6.21432 39.1495C7.18206 39.5014 7.88587 39.3254 8.32576 38.9735C8.85361 38.3577 9.82136 37.3899 10.5252 36.4222C11.141 35.7184 11.6689 35.1905 11.9328 34.9266L10.7891 36.4222C10.1733 37.302 9.55743 38.0058 9.20552 38.5336C8.67766 39.5014 9.02957 40.0292 9.2935 40.4691C9.38147 40.6451 9.46945 40.821 9.46945 40.997C9.46945 41.085 9.55743 41.085 9.6454 41.085L10.0853 40.997C10.6131 40.909 11.229 40.909 11.6689 40.1172L12.9005 37.8298L13.6043 36.3342C12.9885 37.5659 12.3727 39.0615 11.9328 39.9413C11.7568 40.5571 12.0208 40.997 12.3727 41.4369C12.4607 41.6128 12.7246 41.7888 12.7246 41.9647C12.7246 41.9647 12.7246 42.0527 12.8126 42.0527H13.0765C13.4284 41.8768 13.6043 41.8768 13.7803 41.7008C14.1322 41.6128 14.3082 41.6128 14.4841 41.2609C14.836 40.6451 15.4519 38.2697 15.7158 37.302C15.8038 37.3899 15.8038 37.4779 15.8038 37.6539L15.7158 38.0058C15.5398 38.8855 15.2759 39.6773 15.3639 40.2052C15.4519 40.7331 15.8038 40.821 15.9797 41.1729C16.1557 41.2609 16.3316 41.3489 16.5076 41.6128H16.5956H16.6835C16.8595 41.4369 17.1234 41.2609 17.2114 41.1729C17.5633 40.997 17.8272 40.7331 18.0912 40.2932C18.2671 39.9413 18.2671 38.8856 18.2671 37.7419L18.3551 37.8298L18.4431 37.9178L18.531 37.8298C18.619 37.7419 18.8829 37.6539 19.0589 37.4779C19.2348 37.3899 19.5868 37.302 19.7627 36.9501C19.8507 37.038 19.9387 37.126 20.1146 37.126C20.8184 38.7096 20.8184 40.1172 20.0266 41.2609L19.8507 41.6128L20.2026 41.5248C20.3785 41.4369 20.5545 41.4369 20.7304 41.3489C20.9064 41.7888 20.5545 42.1407 20.2906 42.3166ZM29.0002 2.11135H28.9123H29.0002ZM29.0002 3.51898C28.9123 3.51898 28.9123 3.51898 28.9123 3.51898C28.9123 3.34302 29.0002 3.51898 29.0002 3.51898ZM23.5457 58.4163C23.4577 58.4163 23.3697 58.4163 23.1938 58.4163C22.7539 58.5043 22.578 58.2404 22.49 58.0644C22.402 57.9765 22.402 57.7125 22.402 57.6246C22.402 57.4486 22.402 57.2726 22.49 57.0967C22.8419 57.4486 23.1058 57.6246 23.6337 57.6246C23.5457 58.0644 23.5457 58.2404 23.5457 58.4163ZM26.009 53.4017C25.3052 54.2814 24.6014 55.1612 24.0736 56.129C24.0736 56.129 23.9856 56.129 23.9856 56.041C23.8096 55.953 23.6337 55.6011 23.6337 55.3372C23.6337 54.4574 24.8653 53.5776 25.7451 52.8738L26.273 52.4339C26.7129 52.082 27.1527 51.7301 27.4167 51.2902C26.9768 52.258 26.4489 52.7858 26.009 53.4017ZM28.2964 52.346C28.2085 53.0498 27.9445 53.8416 27.8565 54.5454C27.5046 56.041 27.1527 57.6245 27.1527 59.4721C27.1527 59.648 27.1527 59.9119 27.1527 60.0879C26.7129 59.9119 26.4489 59.1202 26.4489 58.3284C26.4489 56.7448 26.9768 55.5131 27.5046 54.1055C27.8565 53.4017 28.0325 52.6979 28.2085 51.9941C28.2085 51.9061 28.2964 51.6421 28.2964 51.5542C28.3844 51.8181 28.3844 51.9941 28.2964 52.346ZM31.1997 59.736C31.1117 59.9119 31.0237 60.0879 30.8478 60.0879C30.8478 59.9119 30.8478 59.648 30.8478 59.4721C30.8478 57.5366 30.4958 55.953 30.1439 54.5454C29.968 53.5776 29.7041 52.6099 29.6161 51.5542C29.792 52.5219 30.1439 53.3137 30.4958 54.1935C31.0237 55.6011 31.5516 56.8328 31.5516 58.4163C31.5516 58.9442 31.4636 59.3841 31.1997 59.736ZM35.5105 57.1847C35.5985 57.2726 35.5985 57.5366 35.5985 57.7125C35.5985 57.8005 35.5985 58.0644 35.5105 58.1524C35.4225 58.3284 35.1586 58.5923 34.8067 58.5043C34.7187 58.5043 34.6307 58.5043 34.4548 58.5043C34.4548 58.3284 34.4548 58.0644 34.3668 57.8885C34.8947 57.7125 35.3346 57.5366 35.5105 57.1847ZM31.7275 52.6979L32.2554 53.1377C33.1351 53.7536 34.3668 54.7213 34.3668 55.6011C34.3668 55.953 34.2788 56.2169 34.0149 56.3049C34.0149 56.3049 33.9269 56.3049 33.9269 56.3929C33.3991 55.3372 32.7832 54.4574 31.9914 53.6656C31.4636 53.0498 30.9357 52.4339 30.5838 51.7301C30.9357 51.9061 31.3756 52.346 31.7275 52.6979ZM31.7275 13.3723C31.7275 13.4603 31.7275 13.4603 31.7275 13.3723C31.8155 13.4603 31.8155 13.4603 31.8155 13.4603C32.3434 13.9882 32.9592 14.4281 33.839 14.604C33.3111 14.604 32.7832 14.604 32.3434 14.516C32.2554 14.516 32.1674 14.4281 31.9914 14.4281C32.0794 14.516 32.0794 14.604 32.1674 14.78C32.5193 15.1319 32.7832 15.3078 33.1351 15.3958C32.4313 16.0996 31.3756 16.5395 30.1439 16.6275C29.968 16.6275 29.792 16.6275 29.6161 16.6275C29.7041 16.7155 29.792 16.8034 29.968 16.9794C30.3199 17.1553 30.8477 17.3313 31.1997 17.3313C30.3199 18.563 29.1762 20.4984 28.9123 23.1377C28.4724 20.4984 27.4167 18.6509 26.6249 17.3313C27.1527 17.3313 27.5926 17.1553 27.8565 16.9794C27.9445 16.8914 28.0325 16.8034 28.2085 16.6275C28.0325 16.6275 27.8565 16.6275 27.6806 16.6275C26.5369 16.5395 25.4812 16.0996 24.6894 15.3958C25.1293 15.3078 25.3932 15.0439 25.6571 14.78C25.7451 14.692 25.7451 14.604 25.8331 14.4281C25.7451 14.4281 25.6571 14.516 25.4812 14.516C25.0413 14.604 24.5134 14.692 23.9856 14.604C24.8653 14.4281 25.4812 13.9882 26.009 13.4603C26.097 13.3723 26.097 13.2844 26.185 13.0204C26.273 13.1964 26.097 13.1964 26.009 13.2844C25.3052 13.4603 24.6014 13.4603 23.8096 13.3723H23.1938C23.2818 13.3723 23.2818 13.3723 23.3697 13.3723C24.4255 13.1964 26.5369 12.4046 27.8565 11.1729C28.2085 11.1729 28.5604 11.1729 29.0002 11.1729C29.4401 11.1729 29.7041 11.1729 30.1439 11.1729C31.5516 12.5806 33.663 13.1964 34.6307 13.3723C34.7187 13.3723 34.7187 13.3723 34.8067 13.3723H34.1909C33.2231 13.3723 32.6073 13.3723 31.9914 13.2844C31.9035 13.2844 31.6395 13.1964 31.5516 13.1084C31.5516 13.1964 31.6395 13.2844 31.7275 13.3723Z" fill="white"/>
</svg>
