<svg width="78" height="70" viewBox="0 0 78 70" fill="none" xmlns="http://www.w3.org/2000/svg">
<path d="M14.3 61.0004C10.8 61.0004 8 58.2004 8 54.7004V51.2004C8 47.7004 10.8 44.9004 14.3 44.9004C17.8 44.9004 20.6 47.7004 20.6 51.2004V54.7004C20.6 58.2004 17.7 61.0004 14.3 61.0004ZM14.3 46.4004C11.7 46.4004 9.5 48.6004 9.5 51.2004V54.7004C9.5 57.3004 11.7 59.5004 14.3 59.5004C16.9 59.5004 19.1 57.3004 19.1 54.7004V51.2004C19.1 48.6004 16.9 46.4004 14.3 46.4004Z" fill="url(#paint0_linear)"/>
<path d="M24.7999 70.0004H3.49994C2.59994 70.0004 1.89994 69.6004 1.39994 68.9004C0.899942 68.2004 0.799943 67.3004 1.19994 66.5004C1.99994 64.6004 3.09994 63.0004 4.29994 61.7004C6.09994 59.9004 8.29994 58.8004 10.7999 58.4004L10.9999 59.9004C8.79994 60.2004 6.89994 61.2004 5.29994 62.8004C3.89994 64.2004 2.99994 66.0004 2.49994 67.1004C2.39994 67.4004 2.39994 67.8004 2.59994 68.1004C2.79994 68.4004 3.09994 68.6004 3.49994 68.6004H24.7999C25.1999 68.6004 25.4999 68.4004 25.6999 68.1004C25.8999 67.8004 25.8999 67.4004 25.7999 67.1004C25.2999 65.9004 24.3999 64.2004 22.9999 62.8004C21.3999 61.2004 19.4999 60.2004 17.2999 59.9004L17.4999 58.4004C19.9999 58.8004 22.1999 59.9004 23.9999 61.7004C25.2999 63.0004 26.2999 64.6004 27.0999 66.5004C27.3999 67.3004 27.2999 68.2004 26.8999 68.9004C26.4999 69.6004 25.6999 70.0004 24.7999 70.0004Z" fill="url(#paint1_linear)"/>
<path d="M39.2004 61.0004C35.7004 61.0004 32.9004 58.2004 32.9004 54.7004V51.2004C32.9004 47.7004 35.7004 44.9004 39.2004 44.9004C42.7004 44.9004 45.5004 47.7004 45.5004 51.2004V54.7004C45.5004 58.2004 42.6004 61.0004 39.2004 61.0004ZM39.2004 46.4004C36.6004 46.4004 34.4004 48.6004 34.4004 51.2004V54.7004C34.4004 57.3004 36.6004 59.5004 39.2004 59.5004C41.8004 59.5004 44.0004 57.3004 44.0004 54.7004V51.2004C44.0004 48.6004 41.8004 46.4004 39.2004 46.4004Z" fill="url(#paint2_linear)"/>
<path d="M49.7003 70.0004H28.4003C27.5003 70.0004 26.8003 69.6004 26.3003 68.9004C25.8003 68.2004 25.7003 67.3004 26.1003 66.5004C26.9003 64.6004 28.0003 63.0004 29.2003 61.7004C31.0003 59.9004 33.2003 58.8004 35.7003 58.4004L35.9003 59.9004C33.7003 60.2004 31.8003 61.2004 30.2003 62.8004C28.8003 64.2004 27.9003 66.0004 27.4003 67.1004C27.3003 67.4004 27.3003 67.8004 27.5003 68.1004C27.7003 68.4004 28.0003 68.6004 28.4003 68.6004H49.7003C50.1003 68.6004 50.4003 68.4004 50.6003 68.1004C50.8003 67.8004 50.8003 67.4004 50.7003 67.1004C50.2003 65.9004 49.3003 64.2004 47.9003 62.8004C46.3003 61.2004 44.4003 60.2004 42.2003 59.9004L42.4003 58.4004C44.9003 58.8004 47.1003 59.9004 48.9003 61.7004C50.2003 63.0004 51.2003 64.6004 52.0003 66.5004C52.3003 67.3004 52.2003 68.2004 51.8003 68.9004C51.4003 69.6004 50.6003 70.0004 49.7003 70.0004Z" fill="url(#paint3_linear)"/>
<path d="M64.0998 61.0004C60.5998 61.0004 57.7998 58.2004 57.7998 54.7004V51.2004C57.7998 47.7004 60.5998 44.9004 64.0998 44.9004C67.5998 44.9004 70.3998 47.7004 70.3998 51.2004V54.7004C70.3998 58.2004 67.4998 61.0004 64.0998 61.0004ZM64.0998 46.4004C61.4998 46.4004 59.2998 48.6004 59.2998 51.2004V54.7004C59.2998 57.3004 61.4998 59.5004 64.0998 59.5004C66.6998 59.5004 68.8998 57.3004 68.8998 54.7004V51.2004C68.8998 48.6004 66.6998 46.4004 64.0998 46.4004Z" fill="url(#paint4_linear)"/>
<path d="M74.5997 70.0004H53.2998C52.3998 70.0004 51.6997 69.6004 51.1997 68.9004C50.6997 68.2004 50.5997 67.3004 50.9997 66.5004C51.7997 64.6004 52.8997 63.0004 54.0997 61.7004C55.8997 59.9004 58.0997 58.8004 60.5997 58.4004L60.7998 59.9004C58.5998 60.2004 56.6997 61.2004 55.0997 62.8004C53.6997 64.2004 52.7998 66.0004 52.2998 67.1004C52.1998 67.4004 52.1998 67.8004 52.3998 68.1004C52.5998 68.4004 52.8998 68.6004 53.2998 68.6004H74.5997C74.9997 68.6004 75.2997 68.4004 75.4997 68.1004C75.6997 67.8004 75.6997 67.4004 75.5997 67.1004C75.0997 65.9004 74.1998 64.2004 72.7998 62.8004C71.1998 61.2004 69.2997 60.2004 67.0997 59.9004L67.2998 58.4004C69.7998 58.8004 71.9998 59.9004 73.7998 61.7004C75.0998 63.0004 76.0998 64.6004 76.8997 66.5004C77.1997 67.3004 77.0997 68.2004 76.6997 68.9004C76.2997 69.6004 75.4997 70.0004 74.5997 70.0004Z" fill="url(#paint5_linear)"/>
<path d="M39.2004 34.3C35.3004 34.3 31.2004 33.4 27.1004 31.7C23.8004 30.3 20.5004 28.4 17.3004 26C11.8004 21.9 8.40039 17.9 8.30039 17.7L7.90039 17.2L8.30039 16.7C8.40039 16.5 11.8004 12.5 17.3004 8.4C20.4004 5.9 23.7004 4 27.0004 2.6C31.1004 0.9 35.2004 0 39.2004 0C43.1004 0 47.2004 0.9 51.3004 2.6C54.6004 4 57.9004 5.9 61.1004 8.3C66.6004 12.4 70.0004 16.4 70.1004 16.6L70.5004 17.1L70.1004 17.6C70.0004 17.8 66.6004 21.8 61.1004 25.9C57.9004 28.3 54.5004 30.2 51.3004 31.6C47.2004 33.4 43.1004 34.3 39.2004 34.3ZM9.70039 17.1C10.8004 18.3 13.8004 21.5 18.1004 24.7C21.2004 27 24.4004 28.9 27.6004 30.2C31.5004 31.9 35.4004 32.7 39.1004 32.7C42.8004 32.7 46.7004 31.9 50.6004 30.2C53.8004 28.9 57.0004 27 60.1004 24.7C64.4004 21.5 67.4004 18.3 68.5004 17.1C67.4004 15.9 64.4004 12.7 60.1004 9.5C57.0004 7.2 53.8004 5.3 50.6004 4C46.7004 2.3 42.8004 1.5 39.1004 1.5C35.4004 1.5 31.5004 2.3 27.6004 4C24.4004 5.3 21.2004 7.2 18.1004 9.5C13.8004 12.7 10.8004 15.9 9.70039 17.1Z" fill="url(#paint6_linear)"/>
<path d="M39.1996 30.2C31.9996 30.2 26.0996 24.3 26.0996 17.1C26.0996 9.9 31.8996 4 39.1996 4C46.3996 4 52.2996 9.9 52.2996 17.1C52.2996 24.3 46.3996 30.2 39.1996 30.2ZM39.1996 5.5C32.7996 5.5 27.5996 10.7 27.5996 17.1C27.5996 23.5 32.7996 28.7 39.1996 28.7C45.5996 28.7 50.7996 23.5 50.7996 17.1C50.7996 10.7 45.5996 5.5 39.1996 5.5Z" fill="url(#paint7_linear)"/>
<path d="M39.2002 20.5996C37.3002 20.5996 35.7002 19.0996 35.7002 17.0996C35.7002 15.1996 37.2002 13.5996 39.2002 13.5996C41.1002 13.5996 42.7002 15.0996 42.7002 17.0996C42.6002 18.9996 41.1002 20.5996 39.2002 20.5996ZM39.2002 15.1996C38.1002 15.1996 37.2002 16.0996 37.2002 17.1996C37.2002 18.2996 38.1002 19.1996 39.2002 19.1996C40.3002 19.1996 41.2002 18.2996 41.2002 17.1996C41.1002 16.0996 40.2002 15.1996 39.2002 15.1996Z" fill="url(#paint8_linear)"/>
<path d="M38.8999 24.8998C38.7999 24.2998 39.2999 23.6998 39.8999 23.6998C40.4999 23.5998 41.0999 24.0998 41.0999 24.6998C41.1999 25.2998 40.6999 25.8998 40.0999 25.8998H39.9999C39.4999 25.8998 38.9999 25.4998 38.8999 24.8998ZM35.9999 25.3998C35.3999 25.1998 35.0999 24.4998 35.3999 23.8998C35.5999 23.2998 36.2999 22.9998 36.7999 23.2998C37.3999 23.4998 37.6999 24.1998 37.3999 24.7998C37.1999 25.1998 36.7999 25.4998 36.3999 25.4998C36.1999 25.3998 36.0999 25.3998 35.9999 25.3998ZM42.5999 24.0998C42.1999 23.5998 42.3999 22.8998 42.8999 22.4998C43.3999 22.1998 44.0999 22.2998 44.4999 22.7998C44.7999 23.2998 44.6999 23.9998 44.1999 24.3998C43.9999 24.4998 43.7999 24.5998 43.5999 24.5998C43.0999 24.5998 42.7999 24.3998 42.5999 24.0998ZM32.4999 22.8998C32.0999 22.3998 32.0999 21.6998 32.5999 21.2998C33.0999 20.8998 33.7999 20.8998 34.1999 21.3998C34.5999 21.8998 34.5999 22.5998 34.0999 22.9998C33.8999 23.1998 33.5999 23.2998 33.3999 23.2998C32.9999 23.2998 32.6999 23.1998 32.4999 22.8998ZM45.3999 21.6998C44.8999 21.3998 44.5999 20.6998 44.8999 20.1998C45.1999 19.6998 45.8999 19.3998 46.3999 19.6998C46.8999 19.9998 47.1999 20.6998 46.8999 21.1998C46.6999 21.5998 46.2999 21.7998 45.8999 21.7998C45.7999 21.7998 45.5999 21.7998 45.3999 21.6998ZM30.5999 19.0998C30.4999 18.4998 30.7999 17.8998 31.3999 17.7998C31.9999 17.6998 32.5999 17.9998 32.6999 18.5998C32.7999 19.1998 32.4999 19.7998 31.8999 19.8998C31.7999 19.8998 31.6999 19.8998 31.5999 19.8998C31.1999 19.9998 30.6999 19.6998 30.5999 19.0998ZM45.6999 17.0998C45.6999 16.4998 46.1999 15.9998 46.7999 15.9998C47.3999 15.9998 47.8999 16.4998 47.8999 17.0998C47.8999 17.6998 47.3999 18.1998 46.7999 18.1998C46.1999 18.2998 45.6999 17.7998 45.6999 17.0998ZM31.3999 16.2998C30.7999 16.0998 30.3999 15.4998 30.5999 14.8998C30.7999 14.2998 31.3999 13.8998 31.9999 14.0998C32.5999 14.2998 32.9999 14.8998 32.7999 15.4998C32.6999 15.9998 32.1999 16.2998 31.6999 16.2998C31.5999 16.2998 31.4999 16.2998 31.3999 16.2998ZM45.0999 14.1998C44.7999 13.5998 45.0999 12.9998 45.5999 12.6998C46.1999 12.3998 46.7999 12.6998 47.0999 13.1998C47.3999 13.7998 47.0999 14.3998 46.5999 14.6998C46.3999 14.7998 46.2999 14.7998 46.0999 14.7998C45.5999 14.7998 45.1999 14.5998 45.0999 14.1998ZM32.6999 12.7998C32.1999 12.3998 32.1999 11.6998 32.5999 11.1998C32.9999 10.6998 33.6999 10.6998 34.1999 11.0998C34.6999 11.4998 34.6999 12.1998 34.2999 12.6998C34.0999 12.8998 33.7999 13.0998 33.4999 13.0998C33.1999 13.0998 32.8999 12.9998 32.6999 12.7998ZM42.9999 11.7998C42.4999 11.3998 42.3999 10.6998 42.6999 10.1998C43.0999 9.6998 43.7999 9.5998 44.2999 9.8998C44.7999 10.2998 44.8999 10.9998 44.5999 11.4998C44.3999 11.8998 43.9999 11.9998 43.6999 11.9998C43.3999 11.9998 43.1999 11.8998 42.9999 11.7998ZM35.4999 10.2998C35.2999 9.6998 35.5999 9.0998 36.1999 8.8998C36.7999 8.6998 37.3999 8.9998 37.5999 9.5998C37.7999 10.1998 37.4999 10.7998 36.8999 10.9998C36.7999 10.9998 36.5999 11.0998 36.4999 11.0998C36.0999 10.9998 35.6999 10.6998 35.4999 10.2998ZM40.0999 10.5998C39.4999 10.4998 39.0999 9.8998 39.0999 9.2998C39.1999 8.6998 39.7999 8.2998 40.3999 8.2998C40.9999 8.3998 41.3999 8.9998 41.3999 9.5998C41.2999 10.1998 40.7999 10.5998 40.2999 10.5998C40.1999 10.5998 40.0999 10.5998 40.0999 10.5998Z" fill="url(#paint9_linear)"/>
<path d="M64.6996 43.0002H63.1996V40.2002H15.0996V43.0002H13.5996V38.7002H64.6996V43.0002Z" fill="url(#paint10_linear)"/>
<path d="M39.9004 33.5H38.4004V43H39.9004V33.5Z" fill="url(#paint11_linear)"/>
<defs>
<linearGradient id="paint0_linear" x1="1.10434" y1="53.1392" x2="18.2672" y2="52.9894" gradientUnits="userSpaceOnUse">
<stop stop-color="#D8BB58"/>
<stop offset="0.1464" stop-color="#ECD26E"/>
<stop offset="0.239" stop-color="#F4DB76"/>
<stop offset="0.4341" stop-color="#E9CC65"/>
<stop offset="0.8173" stop-color="#CEA53A"/>
<stop offset="0.8757" stop-color="#C99F33"/>
</linearGradient>
<linearGradient id="paint1_linear" x1="-13.4518" y1="64.3364" x2="22.3809" y2="63.4298" gradientUnits="userSpaceOnUse">
<stop stop-color="#D8BB58"/>
<stop offset="0.1464" stop-color="#ECD26E"/>
<stop offset="0.239" stop-color="#F4DB76"/>
<stop offset="0.4341" stop-color="#E9CC65"/>
<stop offset="0.8173" stop-color="#CEA53A"/>
<stop offset="0.8757" stop-color="#C99F33"/>
</linearGradient>
<linearGradient id="paint2_linear" x1="26.0047" y1="53.1392" x2="43.1675" y2="52.9894" gradientUnits="userSpaceOnUse">
<stop stop-color="#D8BB58"/>
<stop offset="0.1464" stop-color="#ECD26E"/>
<stop offset="0.239" stop-color="#F4DB76"/>
<stop offset="0.4341" stop-color="#E9CC65"/>
<stop offset="0.8173" stop-color="#CEA53A"/>
<stop offset="0.8757" stop-color="#C99F33"/>
</linearGradient>
<linearGradient id="paint3_linear" x1="11.4486" y1="64.3364" x2="47.2813" y2="63.4298" gradientUnits="userSpaceOnUse">
<stop stop-color="#D8BB58"/>
<stop offset="0.1464" stop-color="#ECD26E"/>
<stop offset="0.239" stop-color="#F4DB76"/>
<stop offset="0.4341" stop-color="#E9CC65"/>
<stop offset="0.8173" stop-color="#CEA53A"/>
<stop offset="0.8757" stop-color="#C99F33"/>
</linearGradient>
<linearGradient id="paint4_linear" x1="50.9041" y1="53.1392" x2="68.067" y2="52.9894" gradientUnits="userSpaceOnUse">
<stop stop-color="#D8BB58"/>
<stop offset="0.1464" stop-color="#ECD26E"/>
<stop offset="0.239" stop-color="#F4DB76"/>
<stop offset="0.4341" stop-color="#E9CC65"/>
<stop offset="0.8173" stop-color="#CEA53A"/>
<stop offset="0.8757" stop-color="#C99F33"/>
</linearGradient>
<linearGradient id="paint5_linear" x1="36.348" y1="64.3364" x2="72.1807" y2="63.4298" gradientUnits="userSpaceOnUse">
<stop stop-color="#D8BB58"/>
<stop offset="0.1464" stop-color="#ECD26E"/>
<stop offset="0.239" stop-color="#F4DB76"/>
<stop offset="0.4341" stop-color="#E9CC65"/>
<stop offset="0.8173" stop-color="#CEA53A"/>
<stop offset="0.8757" stop-color="#C99F33"/>
</linearGradient>
<linearGradient id="paint6_linear" x1="-26.359" y1="17.5522" x2="58.8814" y2="15.8174" gradientUnits="userSpaceOnUse">
<stop stop-color="#D8BB58"/>
<stop offset="0.1464" stop-color="#ECD26E"/>
<stop offset="0.239" stop-color="#F4DB76"/>
<stop offset="0.4341" stop-color="#E9CC65"/>
<stop offset="0.8173" stop-color="#CEA53A"/>
<stop offset="0.8757" stop-color="#C99F33"/>
</linearGradient>
<linearGradient id="paint7_linear" x1="11.761" y1="17.4072" x2="47.4471" y2="17.0093" gradientUnits="userSpaceOnUse">
<stop stop-color="#D8BB58"/>
<stop offset="0.1464" stop-color="#ECD26E"/>
<stop offset="0.239" stop-color="#F4DB76"/>
<stop offset="0.4341" stop-color="#E9CC65"/>
<stop offset="0.8173" stop-color="#CEA53A"/>
<stop offset="0.8757" stop-color="#C99F33"/>
</linearGradient>
<linearGradient id="paint8_linear" x1="31.8693" y1="17.1817" x2="41.4037" y2="17.0754" gradientUnits="userSpaceOnUse">
<stop stop-color="#D8BB58"/>
<stop offset="0.1464" stop-color="#ECD26E"/>
<stop offset="0.239" stop-color="#F4DB76"/>
<stop offset="0.4341" stop-color="#E9CC65"/>
<stop offset="0.8173" stop-color="#CEA53A"/>
<stop offset="0.8757" stop-color="#C99F33"/>
</linearGradient>
<linearGradient id="paint9_linear" x1="21.0515" y1="17.3062" x2="44.6862" y2="17.0463" gradientUnits="userSpaceOnUse">
<stop stop-color="#D8BB58"/>
<stop offset="0.1464" stop-color="#ECD26E"/>
<stop offset="0.239" stop-color="#F4DB76"/>
<stop offset="0.4341" stop-color="#E9CC65"/>
<stop offset="0.8173" stop-color="#CEA53A"/>
<stop offset="0.8757" stop-color="#C99F33"/>
</linearGradient>
<linearGradient id="paint10_linear" x1="-14.3661" y1="40.9006" x2="54.0427" y2="31.8355" gradientUnits="userSpaceOnUse">
<stop stop-color="#D8BB58"/>
<stop offset="0.1464" stop-color="#ECD26E"/>
<stop offset="0.239" stop-color="#F4DB76"/>
<stop offset="0.4341" stop-color="#E9CC65"/>
<stop offset="0.8173" stop-color="#CEA53A"/>
<stop offset="0.8757" stop-color="#C99F33"/>
</linearGradient>
<linearGradient id="paint11_linear" x1="37.5795" y1="38.3614" x2="39.6228" y2="38.3578" gradientUnits="userSpaceOnUse">
<stop stop-color="#D8BB58"/>
<stop offset="0.1464" stop-color="#ECD26E"/>
<stop offset="0.239" stop-color="#F4DB76"/>
<stop offset="0.4341" stop-color="#E9CC65"/>
<stop offset="0.8173" stop-color="#CEA53A"/>
<stop offset="0.8757" stop-color="#C99F33"/>
</linearGradient>
</defs>
</svg>
