<svg width="80" height="77" viewBox="0 0 80 77" fill="none" xmlns="http://www.w3.org/2000/svg">
<path d="M42.8568 2.71398L50.8568 27.4759H76.952C78.6663 27.4759 79.9997 28.8092 79.9997 30.5235C79.9997 31.4759 79.4282 32.4283 78.6663 32.9997L57.5235 48.2378L65.5235 72.9997C66.0949 74.5235 65.1425 76.4283 63.6187 76.8092C62.8568 77.1902 61.7139 76.9997 60.952 76.4283L39.9997 60.9997L19.0473 76.4283C17.7139 77.3806 15.8092 77.1902 14.6663 75.6664C14.0949 74.714 13.9044 73.7616 14.2854 72.8092L22.2854 48.2378L1.14251 32.9997C-0.190826 32.0473 -0.571778 30.1426 0.380603 28.6187C1.14251 27.8568 2.09489 27.4759 3.04727 27.4759H29.1425L37.1425 2.71398C37.7139 1.19017 39.4282 0.237792 40.952 0.809221C41.9044 0.999697 42.6663 1.7616 42.8568 2.71398ZM45.7139 31.4759L39.9997 13.5711L34.2854 31.2854C33.9044 32.6187 32.7616 33.5711 31.2377 33.5711H12.5711L27.8092 44.6187C28.952 45.3806 29.333 46.714 28.952 48.0473L23.0473 65.9521L38.0949 54.9045C39.2377 54.1425 40.7616 53.9521 41.9044 54.9045L56.952 65.9521L51.0473 48.0473C50.6663 46.9045 51.0473 45.3806 52.1901 44.6187L67.4282 33.5711H48.952C47.6187 33.7616 46.2854 32.8092 45.7139 31.4759Z" fill="url(#paint0_linear)"/>
<defs>
<linearGradient id="paint0_linear" x1="-44.0114" y1="39.7214" x2="65.1539" y2="38.4439" gradientUnits="userSpaceOnUse">
<stop stop-color="#D8BB58"/>
<stop offset="0.1464" stop-color="#ECD26E"/>
<stop offset="0.239" stop-color="#F4DB76"/>
<stop offset="0.4341" stop-color="#E9CC65"/>
<stop offset="0.8173" stop-color="#CEA53A"/>
<stop offset="0.8757" stop-color="#C99F33"/>
</linearGradient>
</defs>
</svg>
