<svg width="77" height="80" viewBox="0 0 77 80" fill="none" xmlns="http://www.w3.org/2000/svg">
<path d="M42.0004 60.7615C43.1432 59.6186 45.2385 59.6186 46.3813 60.7615C48.667 63.0472 52.4766 63.0472 54.7623 60.7615C57.048 63.0472 60.8575 63.0472 63.1432 60.7615C64.2861 59.6186 66.3813 59.6186 67.5242 60.7615C68.667 61.9044 68.667 63.9996 67.5242 65.1424C66.9528 65.7139 66.3813 66.2853 65.6194 66.6663C61.6194 69.3329 56.4766 69.5234 52.2861 66.8567C48.2861 69.3329 43.3337 69.3329 39.3337 66.8567C35.3337 69.3329 30.3813 69.3329 26.3813 66.8567C22.3813 69.3329 17.4289 69.3329 13.4289 66.8567C9.42894 69.3329 4.28609 69.3329 0.476562 66.8567L5.04799 66.6663C4.28609 66.2853 3.71466 65.7139 3.14323 65.1424C2.00037 63.9996 2.00037 61.9044 3.14323 60.7615C4.28609 59.6186 6.38132 59.6186 7.52418 60.7615C9.8099 63.0472 13.6194 63.0472 15.9051 60.7615C18.1908 63.0472 22.0004 63.0472 24.2861 60.7615C35.9051 63.2377 39.7147 63.0472 42.0004 60.7615ZM54.3813 10.8567C61.2385 10.8567 66.9528 16.571 66.9528 23.4282C66.9528 30.2853 61.2385 35.9996 54.3813 35.9996C47.3337 35.9996 41.8099 30.2853 41.8099 23.4282C41.6194 16.571 47.3337 10.8567 54.3813 10.8567ZM44.667 11.2377L41.6194 7.99958C40.8575 7.23768 39.7147 7.23768 38.9528 7.99958C38.1908 8.76149 38.1908 9.90434 38.9528 10.6662L42.0004 13.9043C42.7623 14.6663 43.9051 14.6663 44.667 13.9043C45.4289 13.1424 45.4289 11.9996 44.667 11.2377ZM38.7623 21.7139C39.9051 21.7139 40.667 22.4758 40.667 23.6186C40.667 24.571 39.9051 25.5234 38.7623 25.5234H34.3813C33.4289 25.5234 32.4766 24.7615 32.4766 23.6186C32.4766 22.6663 33.2385 21.7139 34.3813 21.7139H38.7623ZM42.0004 33.1424L38.7623 36.3805C38.0004 37.1424 38.0004 38.2853 38.7623 39.0472C39.5242 39.8091 40.667 39.8091 41.4289 39.0472L44.667 35.9996C45.4289 35.2377 45.4289 34.0948 44.667 33.3329C43.9051 32.3805 42.7623 32.3805 42.0004 33.1424ZM52.4766 39.0472C52.4766 38.0948 53.2385 37.1424 54.3813 37.1424C55.3337 37.1424 56.2861 37.9044 56.2861 39.0472V43.4282C56.2861 44.3805 55.5242 45.3329 54.3813 45.3329C53.4289 45.3329 52.4766 44.571 52.4766 43.4282V39.0472ZM64.0956 35.8091L67.3337 39.0472C68.0956 39.8091 69.2385 39.8091 70.0004 39.0472C70.7623 38.2853 70.7623 37.1424 70.0004 36.3805L66.5718 33.1424C65.8099 32.3805 64.667 32.3805 63.9051 33.1424C63.3337 33.9043 63.3337 35.0472 64.0956 35.8091ZM69.8099 25.3329C68.8575 25.3329 67.9051 24.571 67.9051 23.4282C67.9051 22.4758 68.667 21.5234 69.8099 21.5234H74.1908C75.1432 21.5234 76.0956 22.2853 76.0956 23.4282C76.0956 24.3805 75.3337 25.3329 74.1908 25.3329H69.8099ZM66.5718 13.9043L69.8099 10.6662C70.5718 9.90434 70.5718 8.76149 69.8099 7.99958C69.048 7.23768 67.9051 7.23768 67.1432 7.99958L63.9051 11.2377C63.1432 11.9996 63.1432 13.1424 63.9051 13.9043C64.667 14.4758 66.0004 14.4758 66.5718 13.9043ZM56.2861 7.99958C56.2861 8.95196 55.5242 9.90434 54.3813 9.90434C53.4289 9.90434 52.4766 9.14244 52.4766 7.99958V3.61863C52.4766 2.66625 53.2385 1.71387 54.3813 1.71387C55.3337 1.71387 56.2861 2.47577 56.2861 3.61863V7.99958ZM54.3813 14.6662C49.4289 14.6662 45.4289 18.6663 45.4289 23.6186C45.4289 28.571 49.4289 32.3805 54.3813 32.3805C59.3337 32.3805 63.3337 28.3805 63.3337 23.4282C63.3337 18.6663 59.3337 14.6662 54.3813 14.6662ZM16.0956 76.3805C14.9528 75.2377 14.9528 73.1424 16.0956 71.9996C17.2385 70.8567 19.3337 70.8567 20.4766 71.9996C21.048 72.571 21.6194 72.952 22.3813 73.3329C22.7623 73.5234 23.1432 73.5234 23.5242 73.7139C23.9051 73.7139 24.2861 73.9044 24.667 73.9044C25.048 73.9044 25.4289 73.9044 25.8099 73.7139H26.0004C26.3813 73.7139 26.5718 73.5234 26.9528 73.3329H27.1432C27.5242 73.1424 27.7147 72.952 28.0956 72.7615C28.2861 72.571 28.667 72.3805 28.8575 71.9996C30.0004 70.8567 32.0956 70.8567 33.2385 71.9996C33.8099 72.571 34.3813 72.952 35.1432 73.3329C35.5242 73.5234 35.9051 73.5234 36.2861 73.7139C36.667 73.7139 37.048 73.9044 37.4289 73.9044C37.8099 73.9044 38.1908 73.9044 38.5718 73.7139H38.7623C39.1432 73.7139 39.3337 73.5234 39.7147 73.3329H39.9051C40.0956 73.1424 40.4766 72.952 40.8575 72.7615L41.048 72.571C41.2385 72.3805 41.4289 72.1901 41.8099 71.9996C42.9528 70.8567 45.048 70.8567 46.1908 71.9996L46.3813 72.1901C46.5718 72.3805 46.9528 72.571 47.1432 72.7615C47.5242 72.952 47.9051 73.1424 48.0956 73.3329C48.4766 73.5234 48.8575 73.5234 49.2385 73.7139C49.6194 73.7139 50.0004 73.9044 50.3813 73.9044C50.7623 73.9044 51.1432 73.9044 51.5242 73.7139H51.7147C52.0956 73.7139 52.2861 73.5234 52.667 73.3329H52.8575C53.048 73.1424 53.4289 72.952 53.8099 72.7615H54.0004C54.1908 72.571 54.5718 72.3805 54.7623 72.1901C55.9051 71.0472 58.0004 71.0472 59.1432 72.1901C60.2861 73.3329 60.2861 75.4282 59.1432 76.571C58.5718 77.1424 58.1909 77.5234 57.4289 77.9044L57.2385 78.0948C56.667 78.4758 56.0956 78.8567 55.3337 79.0472H55.1432C54.5718 79.2377 53.8099 79.6186 53.048 79.6186H52.667C52.2861 79.9996 51.3337 79.9996 50.5718 79.9996C49.8099 79.9996 48.8575 79.9996 48.0956 79.8091C47.3337 79.6186 46.5718 79.4282 45.8099 79.0472C45.2385 78.8567 44.667 78.4758 44.0956 78.2853C43.5242 78.6663 43.1432 78.8567 42.5718 79.0472H42.3813C41.8099 79.2377 41.048 79.6186 40.2861 79.6186H39.9051C39.3337 79.9996 38.5718 79.9996 37.6194 79.9996C36.8575 79.9996 35.9051 79.9996 35.1432 79.8091C34.3813 79.6186 33.6194 79.4282 32.8575 79.0472C32.2861 78.8567 31.7147 78.4758 31.1432 78.2853C30.5718 78.6663 30.1908 78.8567 29.6194 79.0472H29.4289C28.667 79.2377 28.0956 79.6186 27.3337 79.6186H26.9528C26.3813 79.9996 25.6194 79.9996 24.8575 79.9996C24.0956 79.9996 23.1432 79.9996 22.3813 79.8091C21.6194 79.6186 20.8575 79.4282 20.0956 79.0472C18.5718 78.4758 17.2385 77.5234 16.0956 76.3805Z" fill="url(#paint0_linear)"/>
<path d="M12.6662 53.5239C14.571 53.5239 16.0948 52.9524 17.6186 52C18.7614 51.2381 19.7138 50.2858 20.2852 49.1429H32.4757C32.8567 49.1429 33.2376 48.9524 33.6186 48.5715L36.4757 45.7143C37.0472 45.1429 37.0472 44 36.4757 43.4286L33.6186 40.5715C33.2376 40.1905 32.8567 40 32.4757 40H20.2852C19.5233 38.8572 18.571 37.9048 17.6186 37.1429C16.2852 36.1905 14.571 35.8096 12.8567 35.8096C10.3805 35.8096 8.28525 36.762 6.57096 38.4762C5.04715 40 3.9043 42.2858 3.9043 44.762C3.9043 47.2381 4.85668 49.3334 6.57096 51.0477C8.09477 52.381 10.3805 53.5239 12.6662 53.5239ZM8.85668 40.762C9.80906 39.8096 11.1424 39.2381 12.6662 39.2381C13.8091 39.2381 14.7614 39.6191 15.7138 40.1905C16.6662 40.762 17.2376 41.5239 17.8091 42.4762C17.9995 43.0477 18.7614 43.4286 19.3329 43.4286H31.9043L33.2376 44.762L31.9043 45.7143H19.3329C18.571 45.7143 17.9995 46.0953 17.8091 46.8572C17.4281 47.8096 16.6662 48.5715 15.9043 49.1429C14.9519 49.7143 13.9995 50.0953 12.8567 50.0953C11.3329 50.0953 9.99954 49.5239 9.04715 48.5715C8.09477 47.6191 7.52334 46.2858 7.52334 44.762C7.33287 43.0477 7.9043 41.7143 8.85668 40.762ZM12.8567 47.4286C14.3805 47.4286 15.7138 46.2858 15.7138 44.5715C15.7138 43.0477 14.571 41.7143 12.8567 41.7143C11.3329 41.7143 9.99954 43.0477 9.99954 44.5715C9.99954 46.0953 11.1424 47.4286 12.8567 47.4286Z" fill="url(#paint1_linear)"/>
<path d="M3.33312 10.0956C2.38074 9.71464 1.99979 8.57179 2.57122 7.6194C3.14265 6.66702 4.2855 6.47655 5.04741 6.8575C5.61884 7.23845 5.99979 7.42893 6.38074 7.42893C6.76169 7.61941 7.33312 7.80988 7.71407 7.80988C8.09503 7.80988 8.66646 7.80988 9.23788 7.80988C9.61884 7.80988 10.1903 7.6194 10.5712 7.6194C10.9522 7.42893 11.5236 7.42893 11.9046 7.23845C12.476 6.8575 12.8569 6.66702 13.2379 6.28607C13.6188 6.0956 13.9998 5.71464 14.1903 5.33369C14.5712 5.14321 14.7617 4.76226 15.1426 4.19083C15.7141 3.23845 16.8569 3.04798 17.6188 3.42893C17.9998 3.80988 18.3807 4.00036 18.9522 4.19083H19.1426C19.5236 4.38131 19.9046 4.38131 20.476 4.38131C20.8569 4.38131 21.4284 4.38131 21.9998 4.38131C22.3807 4.38131 22.9522 4.19083 23.3331 4.19083C23.7141 4.00036 24.2855 3.80988 24.6665 3.61941C25.0474 3.42893 25.6188 3.23845 25.8093 2.8575C26.1903 2.66702 26.5712 2.28607 26.7617 1.90512C27.1426 1.52417 27.3331 1.14321 27.5236 0.762263C28.095 -0.190118 29.2379 -0.380595 29.9998 0.000357747C30.9522 0.571786 31.1426 1.71464 30.7617 2.47655C30.3807 3.04798 29.9998 3.61941 29.6188 4.19083C29.2379 4.76226 28.6665 5.14321 28.095 5.71464C27.5236 6.0956 26.9522 6.47655 26.1903 6.8575C25.6188 7.23845 24.8569 7.42893 24.2855 7.6194C23.5236 7.80988 22.7617 8.00036 22.1903 8.00036C21.4284 8.00036 20.6665 8.00036 20.095 8.00036C19.3331 8.00036 18.7617 7.80988 18.1903 7.6194H17.2379L17.0474 7.80988C16.6665 8.38131 16.095 8.95274 15.5236 9.33369C14.9522 9.71464 14.3807 10.0956 13.6188 10.4765C13.0474 10.8575 12.2855 11.048 11.7141 11.2385C10.9522 11.4289 10.1903 11.6194 9.42836 11.6194C8.66646 11.6194 7.90455 11.6194 7.14265 11.6194C6.57122 11.4289 5.80931 11.2385 5.23788 11.048C4.47598 10.8575 3.90455 10.4765 3.33312 10.0956Z" fill="url(#paint2_linear)"/>
<defs>
<linearGradient id="paint0_linear" x1="-40.9078" y1="41.7746" x2="62.0909" y2="40.6652" gradientUnits="userSpaceOnUse">
<stop stop-color="#D8BB58"/>
<stop offset="0.1464" stop-color="#ECD26E"/>
<stop offset="0.239" stop-color="#F4DB76"/>
<stop offset="0.4341" stop-color="#E9CC65"/>
<stop offset="0.8173" stop-color="#CEA53A"/>
<stop offset="0.8757" stop-color="#C99F33"/>
</linearGradient>
<linearGradient id="paint1_linear" x1="-14.1558" y1="44.8744" x2="30.7785" y2="43.941" gradientUnits="userSpaceOnUse">
<stop stop-color="#D8BB58"/>
<stop offset="0.1464" stop-color="#ECD26E"/>
<stop offset="0.239" stop-color="#F4DB76"/>
<stop offset="0.4341" stop-color="#E9CC65"/>
<stop offset="0.8173" stop-color="#CEA53A"/>
<stop offset="0.8757" stop-color="#C99F33"/>
</linearGradient>
<linearGradient id="paint2_linear" x1="-13.3728" y1="5.85629" x2="25.6169" y2="4.80121" gradientUnits="userSpaceOnUse">
<stop stop-color="#D8BB58"/>
<stop offset="0.1464" stop-color="#ECD26E"/>
<stop offset="0.239" stop-color="#F4DB76"/>
<stop offset="0.4341" stop-color="#E9CC65"/>
<stop offset="0.8173" stop-color="#CEA53A"/>
<stop offset="0.8757" stop-color="#C99F33"/>
</linearGradient>
</defs>
</svg>
