<svg width="40" height="40" viewBox="0 0 40 40" fill="none" xmlns="http://www.w3.org/2000/svg">
<path d="M37.6323 27.6012C34.9673 27.6012 32.389 27.1678 29.984 26.3878C29.2257 26.1278 28.3807 26.3228 27.7957 26.9078L24.394 31.1762C18.2623 28.2512 12.5207 22.7262 9.46568 16.3778L13.6907 12.7812C14.2757 12.1745 14.449 11.3295 14.2107 10.5712C13.409 8.16616 12.9973 5.58783 12.9973 2.92283C12.9973 1.75283 12.0223 0.777832 10.8523 0.777832H3.35568C2.18568 0.777832 0.777344 1.29783 0.777344 2.92283C0.777344 23.0512 17.5257 39.7778 37.6323 39.7778C39.1707 39.7778 39.7773 38.4128 39.7773 37.2212V29.7462C39.7773 28.5762 38.8023 27.6012 37.6323 27.6012Z" fill="url(#paint0_linear)"/>
<defs>
<linearGradient id="paint0_linear" x1="-20.5664" y1="20.7351" x2="32.5541" y2="20.1428" gradientUnits="userSpaceOnUse">
<stop stop-color="#D8BB58"/>
<stop offset="0.1464" stop-color="#ECD26E"/>
<stop offset="0.239" stop-color="#F4DB76"/>
<stop offset="0.4341" stop-color="#E9CC65"/>
<stop offset="0.8173" stop-color="#CEA53A"/>
<stop offset="0.8757" stop-color="#C99F33"/>
</linearGradient>
</defs>
</svg>
