<svg width="40" height="38" viewBox="0 0 40 38" fill="none" xmlns="http://www.w3.org/2000/svg">
<path d="M36.25 14.2083H24.375V34.8333H36.25V14.2083ZM22.7084 3.16667H3.75004V34.8333H6.45837V30.4583C6.45837 29.625 7.08337 29 7.91671 29H18.5417C19.375 29 20 29.625 20 30.4583V34.8333H22.7084C22.7084 24.2083 22.7084 13.7917 22.7084 3.16667ZM28.3334 18.375C27.9167 18.375 27.5 17.9583 27.5 17.5417C27.5 17.125 27.9167 16.7083 28.3334 16.7083H32.5C32.9167 16.7083 33.3334 17.125 33.3334 17.5417C33.3334 17.9583 32.9167 18.375 32.5 18.375H28.3334ZM28.3334 22.9583C27.9167 22.9583 27.5 22.5417 27.5 22.125C27.5 21.7083 27.9167 21.2917 28.3334 21.2917H32.5C32.9167 21.2917 33.3334 21.7083 33.3334 22.125C33.3334 22.5417 32.9167 22.9583 32.5 22.9583H28.3334ZM28.3334 27.75C27.9167 27.75 27.5 27.3333 27.5 26.9167C27.5 26.5 27.9167 26.0833 28.3334 26.0833H32.5C32.9167 26.0833 33.3334 26.5 33.3334 26.9167C33.3334 27.3333 32.9167 27.75 32.5 27.75H28.3334ZM28.3334 32.5417C27.9167 32.5417 27.5 32.125 27.5 31.7083C27.5 31.2917 27.9167 30.875 28.3334 30.875H32.5C32.9167 30.875 33.3334 31.2917 33.3334 31.7083C33.3334 32.125 32.9167 32.5417 32.5 32.5417H28.3334ZM6.45837 7.54167C6.04171 7.54167 5.62504 7.125 5.62504 6.70833C5.62504 6.29167 6.04171 5.875 6.45837 5.875H10.625C11.0417 5.875 11.4584 6.29167 11.4584 6.70833C11.4584 7.125 11.0417 7.54167 10.625 7.54167H6.45837ZM15.8334 7.54167C15.4167 7.54167 15 7.125 15 6.70833C15 6.29167 15.4167 5.66667 15.8334 5.66667H20C20.4167 5.66667 20.8334 6.08333 20.8334 6.5C20.8334 6.91667 20.4167 7.54167 20 7.54167H15.8334ZM6.45837 12.3333C6.04171 12.3333 5.62504 11.9167 5.62504 11.5C5.62504 11.0833 6.04171 10.6667 6.45837 10.6667H10.625C11.0417 10.6667 11.4584 11.0833 11.4584 11.5C11.4584 11.9167 11.0417 12.3333 10.625 12.3333H6.45837ZM15.8334 12.3333C15.4167 12.3333 15 11.9167 15 11.5C15 11.0833 15.4167 10.6667 15.8334 10.6667H20C20.4167 10.6667 20.8334 11.0833 20.8334 11.5C20.8334 11.9167 20.4167 12.3333 20 12.3333H15.8334ZM6.45837 16.9167C6.04171 16.9167 5.62504 16.5 5.62504 16.0833C5.62504 15.6667 6.04171 15.25 6.45837 15.25H10.625C11.0417 15.25 11.4584 15.6667 11.4584 16.0833C11.4584 16.5 11.0417 16.9167 10.625 16.9167H6.45837ZM15.8334 16.9167C15.4167 16.9167 15 16.5 15 16.0833C15 15.6667 15.4167 15.25 15.8334 15.25H20C20.4167 15.25 20.8334 15.6667 20.8334 16.0833C20.8334 16.5 20.4167 16.9167 20 16.9167H15.8334ZM6.45837 21.7083C6.04171 21.7083 5.62504 21.2917 5.62504 20.875C5.62504 20.4583 6.04171 20.0417 6.45837 20.0417H10.625C11.0417 20.0417 11.4584 20.4583 11.4584 20.875C11.4584 21.2917 11.0417 21.7083 10.625 21.7083H6.45837ZM15.8334 21.7083C15.4167 21.7083 15 21.2917 15 20.875C15 20.4583 15.4167 20.0417 15.8334 20.0417H20C20.4167 20.0417 20.8334 20.4583 20.8334 20.875C20.8334 21.2917 20.4167 21.7083 20 21.7083H15.8334ZM6.45837 26.5C6.04171 26.5 5.62504 26.0833 5.62504 25.6667C5.62504 25.25 6.04171 24.8333 6.45837 24.8333H10.625C11.0417 24.8333 11.4584 25.25 11.4584 25.6667C11.4584 26.0833 11.0417 26.5 10.625 26.5H6.45837ZM15.8334 26.5C15.4167 26.5 15 26.0833 15 25.6667C15 25.25 15.4167 24.8333 15.8334 24.8333H20C20.4167 24.8333 20.8334 25.25 20.8334 25.6667C20.8334 26.0833 20.4167 26.5 20 26.5H15.8334ZM25.625 11.2917H37.7084C38.5417 11.2917 39.1667 11.9167 39.1667 12.75V36.2917C39.1667 37.125 38.5417 37.75 37.7084 37.75H24.1667H18.5417C17.7084 37.75 17.0834 37.125 17.0834 36.2917V31.9167H9.37504V36.2917C9.37504 37.125 8.75004 37.75 7.91671 37.75H2.29171C1.45837 37.75 0.833374 37.125 0.833374 36.2917V1.70833C0.833374 0.875 1.45837 0.25 2.29171 0.25H24.1667C25 0.25 25.625 0.875 25.625 1.70833V11.2917Z" fill="url(#paint0_linear)"/>
<defs>
<linearGradient id="paint0_linear" x1="-20.1455" y1="19.4397" x2="32.0666" y2="18.8445" gradientUnits="userSpaceOnUse">
<stop stop-color="#D8BB58"/>
<stop offset="0.1464" stop-color="#ECD26E"/>
<stop offset="0.239" stop-color="#F4DB76"/>
<stop offset="0.4341" stop-color="#E9CC65"/>
<stop offset="0.8173" stop-color="#CEA53A"/>
<stop offset="0.8757" stop-color="#C99F33"/>
</linearGradient>
</defs>
</svg>
