<svg width="63" height="35" viewBox="0 0 63 35" fill="none" xmlns="http://www.w3.org/2000/svg">
<path d="M37.9166 7.45837C37.9166 12.125 34.125 16.9167 30.6666 16.9167C27.2083 16.9167 23.6666 12.375 23.6666 7.70837C23.6666 3.04171 27.2083 0.708374 30.6666 0.708374C34.125 0.750041 37.9166 2.79171 37.9166 7.45837Z" fill="white"/>
<path d="M30.7916 24.75L24.4583 17.1666C24.4583 17.1666 23.9999 17.3333 23.7916 17.4166C18.6249 19.5833 15.0833 24.0833 15.0833 29.2916C15.0833 30.1666 15.1666 31 15.3749 31.8333C19.3749 33.6666 24.7499 34.7916 30.6666 34.7916C36.7499 34.7916 42.2916 33.5833 46.3333 31.6666C46.4999 30.875 46.5833 30.0833 46.5833 29.2916C46.5833 24.125 43.0833 19.625 37.9583 17.4583C37.7916 17.375 37.4583 17.25 37.4583 17.25L30.7916 24.75Z" fill="white"/>
<path d="M56.2916 8.87496C56.2916 12.0416 53.7083 15.3333 51.3333 15.3333C48.9583 15.3333 46.5416 12.25 46.5416 9.04163C46.5416 5.83329 48.9583 4.29163 51.3333 4.29163C53.7083 4.29163 56.2916 5.70829 56.2916 8.87496Z" fill="white"/>
<path d="M51.4583 20.6667L47.125 15.5C47.125 15.5 46.8333 15.625 46.6667 15.6667C43.1667 17.1667 40.75 20.2083 40.75 23.75C40.75 24.3333 40.8333 24.9167 40.9583 25.5C43.6667 26.75 47.3333 27.5417 51.375 27.5417C55.5417 27.5417 59.2917 26.7083 62.0417 25.4167C62.1667 24.875 62.2083 24.3333 62.2083 23.7917C62.2083 20.25 59.8333 17.2083 56.3333 15.7083C56.2083 15.6667 56 15.5833 56 15.5833L51.4583 20.6667Z" fill="white"/>
<path d="M15.8334 8.66671C15.8334 11.8334 13.25 15.125 10.875 15.125C8.50004 15.125 6.08337 12.0417 6.08337 8.83338C6.08337 5.62504 8.50004 4.08337 10.875 4.08337C13.25 4.08337 15.8334 5.45837 15.8334 8.66671Z" fill="white"/>
<path d="M10.9583 20.4583L6.625 15.2916C6.625 15.2916 6.33333 15.4166 6.16667 15.4583C2.66667 16.9583 0.25 20 0.25 23.5416C0.25 24.125 0.333333 24.7083 0.458333 25.2916C3.16667 26.5416 6.83333 27.3333 10.875 27.3333C15.0417 27.3333 18.7917 26.5 21.5417 25.2083C21.6667 24.6666 21.7083 24.125 21.7083 23.5833C21.7083 20.0416 19.3333 17 15.8333 15.5C15.7083 15.4583 15.5 15.375 15.5 15.375L10.9583 20.4583Z" fill="white"/>
</svg>
