<svg width="23" height="23" viewBox="0 0 23 23" fill="none" xmlns="http://www.w3.org/2000/svg">
<path d="M21.5955 15.8085C20.058 15.8085 18.5705 15.5585 17.183 15.1085C16.7455 14.9585 16.258 15.071 15.9205 15.4085L13.958 17.871C10.4205 16.1835 7.10801 12.996 5.34551 9.3335L7.78301 7.2585C8.12051 6.9085 8.22051 6.421 8.08301 5.9835C7.62051 4.596 7.38301 3.1085 7.38301 1.571C7.38301 0.895996 6.82051 0.333496 6.14551 0.333496H1.82051C1.14551 0.333496 0.333008 0.633496 0.333008 1.571C0.333008 13.1835 9.99551 22.8335 21.5955 22.8335C22.483 22.8335 22.833 22.046 22.833 21.3585V17.046C22.833 16.371 22.2705 15.8085 21.5955 15.8085Z" fill="#285C2D"/>
</svg>
