<svg width="40" height="39" viewBox="0 0 40 39" fill="none" xmlns="http://www.w3.org/2000/svg">
<path d="M8.99266 14.5955C9.25408 14.9441 9.55907 15.162 9.90764 15.3362C10.2562 15.4669 10.6048 15.5541 10.9969 15.5541C11.389 15.5541 11.7812 15.4669 12.1297 15.3362C12.4783 15.2055 12.8268 14.9441 13.0883 14.6391C13.3497 14.3341 13.524 13.8984 13.6547 13.3756C13.7854 12.8963 13.829 12.2427 13.829 11.5456C13.829 10.8049 13.7854 10.1514 13.6547 9.62852C13.524 9.10567 13.3061 8.66997 13.0883 8.32141C12.8268 7.97284 12.5219 7.71142 12.1297 7.58071C11.4326 7.31929 10.6048 7.31929 9.90764 7.58071C9.55907 7.71142 9.25408 7.97284 8.99266 8.32141C8.77481 8.66997 8.60052 9.0621 8.46981 9.62852C8.3391 10.1514 8.29553 10.7613 8.29553 11.5456C8.29553 12.2863 8.3391 12.8527 8.46981 13.3756C8.55695 13.8984 8.73124 14.2906 8.99266 14.5955Z" fill="white"/>
<path d="M26.9436 30.9781C27.205 31.3267 27.51 31.5445 27.8586 31.7188C28.2071 31.8495 28.5557 31.9367 28.9478 31.9367C29.34 31.9367 29.7321 31.8495 30.0807 31.7188C30.4292 31.5881 30.7778 31.3267 31.0392 31.0217C31.3006 30.7167 31.4749 30.281 31.6056 29.7581C31.7363 29.2789 31.8235 28.6253 31.8235 27.9282C31.8235 27.1875 31.7363 26.5339 31.6492 26.0111C31.5185 25.4882 31.3006 25.0525 31.0828 24.704C30.8214 24.3554 30.5164 24.094 30.1242 23.9633C29.4271 23.7019 28.5993 23.7019 27.9021 23.9633C27.5536 24.094 27.2486 24.3554 26.9872 24.704C26.7693 25.0525 26.595 25.4447 26.4643 26.0111C26.3336 26.5339 26.29 27.1439 26.29 27.8846C26.29 28.5817 26.3336 29.1917 26.4643 29.7146C26.5515 30.2374 26.7257 30.6296 26.9436 30.9781Z" fill="white"/>
<path d="M38.6205 23.6147C38.0976 22.3076 37.3569 21.1312 36.442 20.1726C35.4834 19.2141 34.3506 18.4298 33.087 17.907C31.7364 17.3406 30.255 17.0791 28.73 17.1227L37.5748 5.75084C38.2284 4.87943 38.3591 3.70303 37.8798 2.70091C37.4005 1.69879 36.3984 1.08881 35.2656 1.08881H30.4292C29.2964 1.08881 28.3379 1.35023 27.51 1.87307C26.9872 2.22164 26.5079 2.61377 26.1593 3.04947C26.1158 3.09305 26.0722 3.13662 26.0286 3.18019L21.2359 9.36718C21.1052 8.62649 20.9309 7.92936 20.6695 7.2758C20.1466 5.96869 19.4059 4.79229 18.491 3.83374C17.5324 2.87519 16.3996 2.09093 15.136 1.56808C13.8725 1.04524 12.4782 0.783813 11.0404 0.783813C9.55903 0.783813 8.20834 1.04524 6.9448 1.56808C5.68126 2.09093 4.54843 2.87519 3.63345 3.83374C2.71847 4.79229 1.97778 5.96869 1.45493 7.2758C0.975656 8.58292 0.714233 10.0207 0.714233 11.5457C0.714233 13.0707 0.975656 14.4649 1.45493 15.7285C1.97778 17.0356 2.71847 18.1684 3.63345 19.127C4.592 20.0855 5.68126 20.8262 6.9448 21.349C8.29548 21.9155 9.77688 22.1769 11.3454 22.1333L2.54419 33.418C1.89063 34.2895 1.75992 35.4659 2.2392 36.468C2.71847 37.4701 3.72059 38.0801 4.85342 38.0801H9.82045C10.779 38.0801 11.6504 37.8622 12.3911 37.4265C13.0447 37.078 13.6111 36.5987 14.0468 35.9887L18.8395 29.8453C18.9702 30.586 19.1445 31.3267 19.4495 32.0238C19.9724 33.3309 20.7131 34.4637 21.628 35.4223C22.5866 36.3808 23.6758 37.1215 24.9394 37.6444C26.2029 38.1672 27.5536 38.4286 29.035 38.4286C30.3857 38.4286 31.7364 38.1672 32.9563 37.6444C34.2199 37.1215 35.3527 36.3808 36.3113 35.4659C37.2698 34.5073 38.0105 33.418 38.5769 32.1109C39.1433 30.8038 39.4483 29.366 39.4483 27.7975C39.3612 26.3596 39.1433 24.9218 38.6205 23.6147ZM34.3942 4.40016L11.389 33.9845C11.2147 34.2023 10.9969 34.4202 10.6919 34.5509C10.4304 34.6816 10.1254 34.7687 9.73331 34.7687H5.63769L28.6429 5.22799C28.8171 5.01014 29.0786 4.79229 29.34 4.61801C29.6014 4.44373 29.95 4.35659 30.3857 4.35659H34.3942V4.40016ZM10.9969 4.09517C11.999 4.09517 12.9575 4.26945 13.8289 4.61801C14.7003 4.96657 15.441 5.48942 16.051 6.0994C16.661 6.75296 17.1838 7.53723 17.5324 8.40863C17.881 9.32361 18.0553 10.3693 18.0553 11.4586C18.0553 12.5478 17.8374 13.5499 17.4888 14.4214C17.0967 15.2928 16.5739 16.077 15.9203 16.7306C15.2667 17.3841 14.5261 17.8634 13.6546 18.212C12.7832 18.5605 11.9118 18.7348 10.9969 18.7348C9.95116 18.7348 9.03618 18.5605 8.16477 18.212C7.33694 17.8634 6.55267 17.3841 5.94268 16.7306C5.3327 16.077 4.80985 15.3363 4.46129 14.4214C4.11273 13.5499 3.93844 12.5478 3.93844 11.4586C3.93844 10.3257 4.11273 9.28004 4.46129 8.36506C4.80985 7.45009 5.28913 6.66582 5.94268 6.05583C6.55267 5.40228 7.29337 4.923 8.16477 4.57444C9.03618 4.31302 9.99473 4.09517 10.9969 4.09517ZM22.4994 24.8347C22.848 23.9197 23.3273 23.1354 23.9808 22.5254C24.5908 21.8719 25.3315 21.3926 26.2029 21.0441C27.0308 20.6955 27.9893 20.5212 29.035 20.5212C30.0807 20.5212 30.9957 20.6955 31.8671 21.0441C32.7385 21.3926 33.4792 21.9155 34.0892 22.5254C34.6992 23.179 35.1784 23.9633 35.5706 24.8347C35.9191 25.7497 36.0934 26.7953 36.0934 27.8846C36.0934 28.9739 35.8755 29.976 35.527 30.8474C35.1348 31.7624 34.612 32.5031 33.9585 33.1566C33.3049 33.8102 32.5642 34.2895 31.6928 34.638C30.8214 34.9866 29.95 35.1609 29.035 35.1609C27.9893 35.1609 27.0743 34.9866 26.2029 34.638C25.3315 34.2895 24.5908 33.8102 23.9808 33.1566C23.3708 32.5031 22.848 31.7624 22.4994 30.8474C22.1509 29.976 21.9766 28.9739 21.9766 27.8846C21.933 26.7518 22.1073 25.7061 22.4994 24.8347Z" fill="white"/>
</svg>
