<svg width="18" height="16" viewBox="0 0 18 16" fill="none" xmlns="http://www.w3.org/2000/svg">
<path d="M9 0.800049C10.6 0.800049 12 1.30005 13.2 2.10005C14.3 2.90005 15.2 4.00005 15.7 5.20005C16.3 5.30005 16.8 5.60005 17.2 6.00005C17.7 6.50005 18 7.20005 18 8.00005C18 8.80005 17.7 9.50005 17.2 10C16.8 10.4 16.3 10.7 15.7 10.8C15.2 12.1 14.3 13.1 13.2 13.9C12 14.7 10.6 15.2 9 15.2C7.4 15.2 6 14.7 4.8 13.9C3.7 13.1 2.8 12 2.3 10.8C1.7 10.7 1.2 10.4 0.8 10C0.3 9.50005 0 8.80005 0 8.00005C0 7.20005 0.3 6.50005 0.8 6.00005C1.2 5.60005 1.7 5.30005 2.3 5.20005C2.9 4.00005 3.8 2.90005 4.8 2.10005C6 1.30005 7.5 0.800049 9 0.800049ZM10.7 10.6C10.9 10.5 11.2 10.6 11.2 10.8C11.3 11 11.2 11.3 11 11.3C10.4 11.6 9.7 11.7 9 11.7C8.3 11.7 7.6 11.6 7 11.3C6.8 11.2 6.7 11 6.8 10.8C6.9 10.6 7.1 10.5 7.3 10.6C7.8 10.8 8.4 10.9 9 10.9C9.6 11 10.2 10.9 10.7 10.6ZM6.7 7.30005C7.1 7.30005 7.4 7.60005 7.4 8.00005C7.4 8.40005 7.1 8.70005 6.7 8.70005C6.3 8.70005 6 8.40005 6 8.00005C6 7.60005 6.3 7.30005 6.7 7.30005ZM11.3 7.30005C11.7 7.30005 12 7.60005 12 8.00005C12 8.40005 11.7 8.70005 11.3 8.70005C10.9 8.70005 10.6 8.40005 10.6 8.00005C10.6 7.60005 10.9 7.30005 11.3 7.30005ZM11.8 2.80005C11.8 2.90005 11.8 3.00005 11.8 3.10005C11.7 3.60005 11.5 4.00005 11.3 4.30005C11.2 4.50005 10.9 4.50005 10.7 4.40005C10.5 4.30005 10.5 4.00005 10.6 3.80005C10.9 3.50005 11 3.00005 11 2.50005C10.7 2.40005 10.3 2.30005 10 2.20005C10 3.00005 9.6 3.80005 9.1 4.40005C8.9 4.60005 8.7 4.60005 8.5 4.40005C8.3 4.20005 8.3 4.00005 8.5 3.80005C8.9 3.30005 9.2 2.70005 9.2 2.10005H9.1C8.8 2.10005 8.5 2.10005 8.3 2.20005C8 3.10005 7.5 3.80005 6.8 4.40005C6.6 4.50005 6.4 4.50005 6.2 4.40005C6.1 4.20005 6.1 4.00005 6.3 3.80005C6.7 3.40005 7.1 2.90005 7.3 2.40005C6.7 2.60005 6.1 2.90005 5.7 3.20005C4.7 3.90005 4 4.90005 3.6 6.10005C3.5 6.40005 3.3 6.50005 3 6.60005H2.9C2.5 6.60005 2.1 6.80005 1.9 7.00005C1.6 7.30005 1.5 7.60005 1.5 8.00005C1.5 8.40005 1.7 8.80005 1.9 9.00005C2.2 9.30005 2.5 9.40005 2.9 9.40005C3.2 9.40005 3.5 9.60005 3.6 9.90005C4 11.1 4.8 12.1 5.7 12.8C6.7 13.5 7.8 13.9 9.1 13.9C10.4 13.9 11.5 13.5 12.5 12.8C13.5 12.1 14.2 11.1 14.6 9.90005C14.7 9.60005 14.9 9.40005 15.2 9.40005C15.6 9.40005 15.9 9.20005 16.2 9.00005C16.5 8.70005 16.6 8.40005 16.6 8.00005C16.6 7.60005 16.4 7.30005 16.2 7.00005C16 6.70005 15.6 6.60005 15.3 6.60005C15 6.60005 14.7 6.40005 14.6 6.10005C14.2 4.90005 13.4 3.90005 12.5 3.20005C12.2 3.10005 12 3.00005 11.8 2.80005Z" fill="url(#paint0_linear)"/>
<defs>
<linearGradient id="paint0_linear" x1="-9.85094" y1="8.16889" x2="14.6645" y2="7.82717" gradientUnits="userSpaceOnUse">
<stop stop-color="#D8BB58"/>
<stop offset="0.1464" stop-color="#ECD26E"/>
<stop offset="0.239" stop-color="#F4DB76"/>
<stop offset="0.4341" stop-color="#E9CC65"/>
<stop offset="0.8173" stop-color="#CEA53A"/>
<stop offset="0.8757" stop-color="#C99F33"/>
</linearGradient>
</defs>
</svg>
