<svg width="19" height="22" viewBox="0 0 19 22" fill="none" xmlns="http://www.w3.org/2000/svg">
<path d="M8.99989 0.699951C11.4999 0.699951 13.6999 1.69995 15.3999 3.29995C18.3999 6.29995 18.8999 11.2 16.4999 14.8C15.4999 16.2 14.0999 17.4 12.4999 18.1L9.59989 21C9.29989 21.2999 8.79989 21.2999 8.49989 21L5.59989 18.1C3.99989 17.4 2.59989 16.3 1.59989 14.8C-0.800107 11.3 -0.400107 6.39995 2.69989 3.29995C4.29989 1.79995 6.49989 0.699951 8.99989 0.699951ZM8.99989 5.19995C10.1999 5.19995 11.3999 5.69995 12.1999 6.49995C12.9999 7.29995 13.4999 8.49995 13.4999 9.69995C13.4999 10.9 12.9999 12.1 12.1999 12.9C11.3999 13.7 10.2999 14.2 8.99989 14.2C7.79989 14.2 6.59989 13.7 5.79989 12.9C4.99989 12.1 4.49989 11 4.49989 9.69995C4.49989 8.49995 4.99989 7.29995 5.79989 6.49995C6.59989 5.69995 7.79989 5.19995 8.99989 5.19995ZM11.4999 7.19995C10.8999 6.59995 9.99989 6.19995 8.99989 6.19995C7.99989 6.19995 7.09989 6.59995 6.49989 7.19995C5.89989 7.79995 5.49989 8.69995 5.49989 9.69995C5.49989 10.7 5.89989 11.6 6.49989 12.2C7.09989 12.8 7.99989 13.2 8.99989 13.2C9.99989 13.2 10.8999 12.8 11.4999 12.2C12.0999 11.6 12.4999 10.7 12.4999 9.69995C12.5999 8.69995 12.1999 7.79995 11.4999 7.19995ZM14.2999 4.49995C12.9999 3.19995 11.0999 2.29995 8.99989 2.29995C6.89989 2.29995 5.09989 3.09995 3.69989 4.49995C1.19989 6.99995 0.899893 11 2.89989 13.9C3.69989 15.1 4.89989 16.1 6.29989 16.6C6.39989 16.6 6.49989 16.6999 6.59989 16.7999L8.99989 19.2999L11.3999 16.7999C11.4999 16.6999 11.5999 16.7 11.6999 16.6C13.0999 16.1 14.2999 15.1 15.0999 13.9C17.0999 11 16.7999 6.99995 14.2999 4.49995Z" fill="url(#paint0_linear)"/>
<defs>
<linearGradient id="paint0_linear" x1="-9.78551" y1="11.2031" x2="14.6916" y2="10.9641" gradientUnits="userSpaceOnUse">
<stop stop-color="#D8BB58"/>
<stop offset="0.1464" stop-color="#ECD26E"/>
<stop offset="0.239" stop-color="#F4DB76"/>
<stop offset="0.4341" stop-color="#E9CC65"/>
<stop offset="0.8173" stop-color="#CEA53A"/>
<stop offset="0.8757" stop-color="#C99F33"/>
</linearGradient>
</defs>
</svg>
