<svg width="42" height="42" viewBox="0 0 42 42" fill="none" xmlns="http://www.w3.org/2000/svg">
<path d="M21 9.3C24.2 9.3 27.2 10.6 29.3 12.7C31.4 14.8 32.7 17.7 32.7 21C32.7 24.2 31.4 27.2 29.3 29.3C27.2 31.4 24.2 32.7 21 32.7C17.8 32.7 14.8 31.4 12.7 29.3C10.6 27.2 9.3 24.2 9.3 21C9.3 17.8 10.6 14.8 12.7 12.7C14.8 10.6 17.8 9.3 21 9.3ZM11.8 9.5L8.4 6.2C7.8 5.6 6.7 5.6 6.1 6.2C5.5 6.8 5.5 7.9 6.1 8.5L9.4 11.8C10 12.4 11.1 12.4 11.7 11.8C12.4 11.2 12.4 10.1 11.8 9.5ZM6.3 19.4C7.2 19.4 8 20.1 8 21C8 21.9 7.3 22.6 6.4 22.6H1.6C0.7 22.6 0 21.9 0 21C0 20.1 0.7 19.4 1.6 19.4H6.3ZM9.5 30.2L6.2 33.5C5.6 34.1 5.6 35.2 6.2 35.8C6.8 36.4 7.9 36.4 8.5 35.8L11.8 32.5C12.4 31.9 12.4 30.8 11.8 30.2C11.1 29.6 10.1 29.6 9.5 30.2ZM19.4 35.7C19.4 34.8 20.1 34.1 21 34.1C21.9 34.1 22.6 34.8 22.6 35.7V40.4C22.6 41.3 21.9 42 21 42C20.1 42 19.4 41.3 19.4 40.4V35.7ZM30.2 32.5L33.5 35.8C34.1 36.4 35.2 36.4 35.8 35.8C36.4 35.2 36.4 34.1 35.8 33.5L32.5 30.2C31.9 29.6 30.8 29.6 30.2 30.2C29.6 30.9 29.6 31.9 30.2 32.5ZM35.7 22.6C34.8 22.6 34.1 21.9 34.1 21C34.1 20.1 34.8 19.4 35.7 19.4H40.4C41.3 19.4 42 20.1 42 21C42 21.9 41.3 22.6 40.4 22.6H35.7ZM32.5 11.8L35.8 8.5C36.4 7.9 36.4 6.9 35.8 6.2C35.2 5.6 34.1 5.6 33.5 6.2L30.2 9.5C29.6 10.1 29.6 11.2 30.2 11.8C30.8 12.4 31.9 12.4 32.5 11.8ZM22.6 6.4C22.6 7.2 21.9 8 21 8C20.1 8 19.4 7.3 19.4 6.4V1.6C19.4 0.7 20.1 0 21 0C21.9 0 22.6 0.7 22.6 1.6V6.4ZM27 15C25.5 13.5 23.3 12.5 21 12.5C18.7 12.5 16.5 13.5 15 15C13.5 16.5 12.5 18.7 12.5 21C12.5 23.3 13.5 25.5 15 27C16.5 28.5 18.7 29.5 21 29.5C23.3 29.5 25.5 28.5 27 27C28.5 25.5 29.5 23.3 29.5 21C29.5 18.7 28.5 16.5 27 15Z" fill="url(#paint0_linear)"/>
<defs>
<linearGradient id="paint0_linear" x1="-22.9855" y1="21.4924" x2="34.2211" y2="20.8545" gradientUnits="userSpaceOnUse">
<stop stop-color="#D8BB58"/>
<stop offset="0.1464" stop-color="#ECD26E"/>
<stop offset="0.239" stop-color="#F4DB76"/>
<stop offset="0.4341" stop-color="#E9CC65"/>
<stop offset="0.8173" stop-color="#CEA53A"/>
<stop offset="0.8757" stop-color="#C99F33"/>
</linearGradient>
</defs>
</svg>
