<svg width="40" height="34" viewBox="0 0 40 34" fill="none" xmlns="http://www.w3.org/2000/svg">
<path d="M38.9595 33.129C38.991 32.961 39.1415 32.7685 39.2045 32.604C39.2745 32.408 39.3305 32.2085 39.3655 32.0055C39.4355 31.6065 39.4355 31.1935 39.383 30.791C39.278 30.0035 38.9805 29.1635 38.529 28.5055C38.5045 28.4705 38.48 28.4355 38.4555 28.4005C37.4545 26.9935 36.457 25.583 35.372 24.239L35.3685 24.2355C34.8295 23.574 34.007 22.8495 33.6255 22.083C33.6045 22.0375 32.9675 21.033 32.852 20.837C32.8135 20.7775 32.775 20.7145 32.7575 20.697C32.7015 20.641 32.222 19.8675 32.194 19.8675C32.173 19.8675 31.4135 18.597 31.095 18.142C31.039 18.058 30.9235 17.827 30.8395 17.694C30.6295 17.372 30.556 17.2565 30.507 17.1585C30.486 17.113 30.2795 16.854 30.213 16.742C30.1465 16.637 30.0695 16.5495 30.0415 16.5495C30.0135 16.5495 29.9925 16.5285 29.9925 16.5005C29.9925 16.3605 28.3825 14.726 28.246 14.726C28.2355 14.726 28.1725 14.6805 28.113 14.628C27.8925 14.439 26.8845 13.8965 26.7515 13.8965C26.706 13.8965 26.6745 13.8685 26.6745 13.8405C26.6745 13.7005 27.0385 13.809 27.7805 14.1625C28.295 14.411 28.6205 14.6035 28.6555 14.684C28.666 14.712 28.701 14.7295 28.7325 14.7295C28.792 14.7295 29.457 15.2265 29.485 15.293C29.4955 15.321 29.5515 15.3665 29.6075 15.391C29.695 15.44 29.702 15.4225 29.6565 15.265C29.562 14.9115 29.4465 14.53 29.331 14.2045C29.2645 14.0225 29.198 13.823 29.1805 13.7635C29.163 13.704 29.121 13.5745 29.0755 13.4765C29.03 13.382 28.9985 13.277 28.9985 13.2455C28.9985 13.214 28.9775 13.1405 28.9425 13.0845C28.9145 13.0355 28.764 12.682 28.61 12.3005C28.379 11.7195 28.3335 11.555 28.3335 11.2505C28.3335 10.925 28.3545 10.8585 28.5365 10.5855C28.6485 10.421 28.757 10.2705 28.785 10.2635C28.806 10.253 28.8305 10.218 28.8305 10.1865C28.8305 10.155 28.9075 10.036 28.995 9.92049C29.0895 9.80499 29.1595 9.6825 29.1595 9.651C29.1595 9.61949 29.1805 9.59149 29.205 9.59149C29.233 9.59149 29.282 9.53549 29.3205 9.46549C29.352 9.39899 29.4325 9.266 29.492 9.17849C29.7125 8.84249 29.8175 8.57649 29.751 8.53099C29.7125 8.50999 29.6775 8.51349 29.667 8.54149C29.6565 8.57299 29.6285 8.59749 29.6005 8.59749C29.5725 8.59749 29.331 8.818 29.058 9.09099C28.7885 9.36049 28.456 9.65099 28.323 9.73149C28.253 9.77349 28.155 9.8785 28.0675 9.8645C28.022 9.8575 27.9835 9.833 27.945 9.81199C27.826 9.74549 27.7 9.68949 27.5705 9.64399C27.4655 9.60899 27.3535 9.57749 27.2765 9.50399C27.133 9.37099 27.0805 9.08049 27.0035 8.90549C26.9615 8.80749 26.93 8.73749 26.9545 8.63249C27.028 8.29999 27.4725 7.97449 27.6895 7.74699C28.2145 7.20099 28.3265 7.06099 28.253 7.03299C28.1865 7.01199 27.8785 7.09949 27.826 7.15549C27.8085 7.17649 27.637 7.28849 27.4375 7.40399C27.1155 7.59649 26.7025 7.88349 26.5135 8.04449C26.475 8.07249 26.4365 8.10049 26.419 8.10049C26.3035 8.10399 26.1145 8.32449 25.992 8.36999C25.775 8.45399 25.537 8.47149 25.3095 8.44349C24.963 8.40149 24.6375 8.26849 24.319 8.13549C23.801 7.91849 23.283 7.66999 22.744 7.52299C22.345 7.41449 21.883 7.12399 21.4665 7.12399C21.3405 7.09249 21.3405 7.09599 21.5225 7.33399C21.6275 7.46699 21.7255 7.58949 21.75 7.60349C21.7675 7.62099 21.932 7.85199 22.121 8.12849C22.4745 8.65349 22.73 9.12949 22.877 9.53899C23.031 9.96599 23.031 9.97999 22.9365 9.97999C22.8875 9.97999 22.849 9.94849 22.849 9.90299C22.849 9.79099 22.6005 9.34299 22.2505 8.81799C20.9835 6.92799 18.9745 5.93399 17.13 4.72649C15.0475 3.36149 12.9195 2.217 10.7215 1.055C8.98899 0.134495 6.73499 -0.439505 5.01999 0.876495C5.04449 0.869495 5.07249 0.858995 5.09699 0.851995C6.72799 0.305995 8.17699 0.676995 9.50699 1.80399C10.5115 2.65449 11.1345 3.8725 11.5405 5.12199C12.538 8.1775 12.426 11.87 14.106 14.6595C14.2985 14.9815 14.2985 14.9815 14.9285 15.622C15.2435 15.944 15.527 16.273 15.555 16.357C15.6145 16.5215 15.5235 16.8995 15.422 16.8995C15.3905 16.8995 15.3765 17.0045 15.4045 17.1865C15.5515 18.1665 15.5445 19.248 15.2015 20.186C14.764 21.383 13.7805 22.3175 12.678 22.951C11.516 23.616 10.1685 24.0745 8.86299 24.3475C7.63099 24.603 6.37799 24.7395 5.13899 24.939C4.07849 25.1105 3.00049 25.3695 2.12899 26.0345C1.96799 26.157 1.81749 26.29 1.67749 26.437C1.18049 26.9445 0.854993 27.578 0.567993 28.222C0.847993 27.907 1.05799 27.5325 1.33099 27.214C2.81849 25.478 5.01299 25.3205 7.13749 25.065C8.23649 24.932 9.64699 24.722 10.0425 24.6275C10.102 24.61 10.403 24.5505 10.7075 24.484C11.95 24.2145 13.1155 23.6965 14.141 22.9405C14.6275 22.5835 15.079 22.174 15.5935 21.8625C16.6575 21.2185 17.9805 21.019 19.188 21.3165C19.384 21.3655 19.615 21.432 19.818 21.376C20.0245 21.32 20.175 21.1275 20.413 21.208C20.4865 21.2395 20.8225 21.5335 21.155 21.866C22.135 22.832 23.2375 23.301 24.571 23.6055C27.3325 24.232 30.129 24.5575 32.7295 25.7475C34.049 26.353 35.2985 27.109 36.443 27.998C37.2165 28.6 38.011 29.3805 38.5115 30.2415C39.012 31.1025 39.145 32.0965 38.963 33.073C38.97 33.0765 38.9665 33.1045 38.9595 33.129Z" fill="url(#paint0_linear)"/>
<defs>
<linearGradient id="paint0_linear" x1="-20.6949" y1="17.0038" x2="32.222" y2="16.3096" gradientUnits="userSpaceOnUse">
<stop stop-color="#D8BB58"/>
<stop offset="0.1464" stop-color="#ECD26E"/>
<stop offset="0.239" stop-color="#F4DB76"/>
<stop offset="0.4341" stop-color="#E9CC65"/>
<stop offset="0.8173" stop-color="#CEA53A"/>
<stop offset="0.8757" stop-color="#C99F33"/>
</linearGradient>
</defs>
</svg>
