<svg width="40" height="34" viewBox="0 0 40 34" fill="none" xmlns="http://www.w3.org/2000/svg">
<path d="M38.9595 33.1293C38.991 32.9613 39.1415 32.7688 39.2045 32.6043C39.2745 32.4083 39.3305 32.2088 39.3655 32.0058C39.4355 31.6068 39.4355 31.1938 39.383 30.7913C39.278 30.0038 38.9805 29.1638 38.529 28.5058C38.5045 28.4708 38.48 28.4358 38.4555 28.4008C37.4545 26.9938 36.457 25.5833 35.372 24.2393L35.3685 24.2358C34.8295 23.5743 34.007 22.8498 33.6255 22.0833C33.6045 22.0378 32.9675 21.0333 32.852 20.8373C32.8135 20.7778 32.775 20.7148 32.7575 20.6973C32.7015 20.6413 32.222 19.8678 32.194 19.8678C32.173 19.8678 31.4135 18.5973 31.095 18.1423C31.039 18.0583 30.9235 17.8273 30.8395 17.6943C30.6295 17.3723 30.556 17.2568 30.507 17.1588C30.486 17.1133 30.2795 16.8543 30.213 16.7423C30.1465 16.6373 30.0695 16.5498 30.0415 16.5498C30.0135 16.5498 29.9925 16.5288 29.9925 16.5008C29.9925 16.3608 28.3825 14.7263 28.246 14.7263C28.2355 14.7263 28.1725 14.6808 28.113 14.6283C27.8925 14.4393 26.8845 13.8968 26.7515 13.8968C26.706 13.8968 26.6745 13.8688 26.6745 13.8408C26.6745 13.7008 27.0385 13.8093 27.7805 14.1628C28.295 14.4113 28.6205 14.6038 28.6555 14.6843C28.666 14.7123 28.701 14.7298 28.7325 14.7298C28.792 14.7298 29.457 15.2268 29.485 15.2933C29.4955 15.3213 29.5515 15.3668 29.6075 15.3913C29.695 15.4403 29.702 15.4228 29.6565 15.2653C29.562 14.9118 29.4465 14.5303 29.331 14.2048C29.2645 14.0228 29.198 13.8233 29.1805 13.7638C29.163 13.7043 29.121 13.5748 29.0755 13.4768C29.03 13.3823 28.9985 13.2773 28.9985 13.2458C28.9985 13.2143 28.9775 13.1408 28.9425 13.0848C28.9145 13.0358 28.764 12.6823 28.61 12.3008C28.379 11.7198 28.3335 11.5553 28.3335 11.2508C28.3335 10.9253 28.3545 10.8588 28.5365 10.5858C28.6485 10.4213 28.757 10.2708 28.785 10.2638C28.806 10.2533 28.8305 10.2183 28.8305 10.1868C28.8305 10.1553 28.9075 10.0363 28.995 9.92082C29.0895 9.80532 29.1595 9.68282 29.1595 9.65132C29.1595 9.61982 29.1805 9.59182 29.205 9.59182C29.233 9.59182 29.282 9.53582 29.3205 9.46582C29.352 9.39932 29.4325 9.26632 29.492 9.17882C29.7125 8.84282 29.8175 8.57682 29.751 8.53132C29.7125 8.51032 29.6775 8.51382 29.667 8.54182C29.6565 8.57332 29.6285 8.59782 29.6005 8.59782C29.5725 8.59782 29.331 8.81832 29.058 9.09132C28.7885 9.36082 28.456 9.65132 28.323 9.73182C28.253 9.77382 28.155 9.87882 28.0675 9.86482C28.022 9.85782 27.9835 9.83332 27.945 9.81232C27.826 9.74582 27.7 9.68982 27.5705 9.64432C27.4655 9.60932 27.3535 9.57782 27.2765 9.50432C27.133 9.37132 27.0805 9.08082 27.0035 8.90582C26.9615 8.80782 26.93 8.73782 26.9545 8.63282C27.028 8.30032 27.4725 7.97482 27.6895 7.74732C28.2145 7.20132 28.3265 7.06132 28.253 7.03332C28.1865 7.01232 27.8785 7.09982 27.826 7.15582C27.8085 7.17682 27.637 7.28882 27.4375 7.40432C27.1155 7.59682 26.7025 7.88382 26.5135 8.04482C26.475 8.07282 26.4365 8.10082 26.419 8.10082C26.3035 8.10432 26.1145 8.32482 25.992 8.37032C25.775 8.45432 25.537 8.47182 25.3095 8.44382C24.963 8.40182 24.6375 8.26882 24.319 8.13582C23.801 7.91882 23.283 7.67032 22.744 7.52332C22.345 7.41482 21.883 7.12432 21.4665 7.12432C21.3405 7.09282 21.3405 7.09632 21.5225 7.33432C21.6275 7.46732 21.7255 7.58982 21.75 7.60382C21.7675 7.62132 21.932 7.85232 22.121 8.12882C22.4745 8.65382 22.73 9.12982 22.877 9.53932C23.031 9.96632 23.031 9.98032 22.9365 9.98032C22.8875 9.98032 22.849 9.94882 22.849 9.90332C22.849 9.79132 22.6005 9.34332 22.2505 8.81832C20.9835 6.92832 18.9745 5.93432 17.13 4.72682C15.0475 3.36182 12.9195 2.21732 10.7215 1.05532C8.98899 0.134819 6.73499 -0.439181 5.01999 0.876819C5.04449 0.869819 5.07249 0.859319 5.09699 0.852319C6.72799 0.306319 8.17699 0.677319 9.50699 1.80432C10.5115 2.65482 11.1345 3.87282 11.5405 5.12232C12.538 8.17782 12.426 11.8703 14.106 14.6598C14.2985 14.9818 14.2985 14.9818 14.9285 15.6223C15.2435 15.9443 15.527 16.2733 15.555 16.3573C15.6145 16.5218 15.5235 16.8998 15.422 16.8998C15.3905 16.8998 15.3765 17.0048 15.4045 17.1868C15.5515 18.1668 15.5445 19.2483 15.2015 20.1863C14.764 21.3833 13.7805 22.3178 12.678 22.9513C11.516 23.6163 10.1685 24.0748 8.86299 24.3478C7.63099 24.6033 6.37799 24.7398 5.13899 24.9393C4.07849 25.1108 3.00049 25.3698 2.12899 26.0348C1.96799 26.1573 1.81749 26.2903 1.67749 26.4373C1.18049 26.9448 0.854993 27.5783 0.567993 28.2223C0.847993 27.9073 1.05799 27.5328 1.33099 27.2143C2.81849 25.4783 5.01299 25.3208 7.13749 25.0653C8.23649 24.9323 9.64699 24.7223 10.0425 24.6278C10.102 24.6103 10.403 24.5508 10.7075 24.4843C11.95 24.2148 13.1155 23.6968 14.141 22.9408C14.6275 22.5838 15.079 22.1743 15.5935 21.8628C16.6575 21.2188 17.9805 21.0193 19.188 21.3168C19.384 21.3658 19.615 21.4323 19.818 21.3763C20.0245 21.3203 20.175 21.1278 20.413 21.2083C20.4865 21.2398 20.8225 21.5338 21.155 21.8663C22.135 22.8323 23.2375 23.3013 24.571 23.6058C27.3325 24.2323 30.129 24.5578 32.7295 25.7478C34.049 26.3533 35.2985 27.1093 36.443 27.9983C37.2165 28.6003 38.011 29.3808 38.5115 30.2418C39.012 31.1028 39.145 32.0968 38.963 33.0733C38.97 33.0768 38.9665 33.1048 38.9595 33.1293Z" fill="#C4C4C4"/>
</svg>
