<svg width="40" height="40" viewBox="0 0 40 40" fill="none" xmlns="http://www.w3.org/2000/svg">
<path fill-rule="evenodd" clip-rule="evenodd" d="M37.5001 34.9987C37.5001 36.3787 36.3801 37.4987 35.0001 37.4987H28.5401L19.3301 28.1675L30.0001 17.4975L37.5001 24.9975V34.9987ZM5 37.499C3.62 37.499 2.5 36.379 2.5 34.999V33.8252L12.4313 24.9302L25.0013 37.499H5ZM10 5.00012C12.7613 5.00012 15 7.23887 15 10.0001C15 12.7614 12.7613 15.0001 10 15.0001C7.23875 15.0001 5 12.7614 5 10.0001C5 7.23887 7.23875 5.00012 10 5.00012ZM35 0H5C2.23875 0 0 2.23875 0 5V35C0 37.7612 2.23875 40 5 40H35C37.7612 40 40 37.7612 40 35V5C40 2.23875 37.7612 0 35 0ZM10 12.5002C11.38 12.5002 12.5 11.3802 12.5 10.0002C12.5 8.62018 11.38 7.50018 10 7.50018C8.62 7.50018 7.5 8.62018 7.5 10.0002C7.5 11.3802 8.62 12.5002 10 12.5002Z" fill="#285C2D"/>
</svg>
