<svg width="31" height="41" viewBox="0 0 31 41" fill="none" xmlns="http://www.w3.org/2000/svg">
<path d="M15.5184 40.0396C11.688 40.0259 7.98286 38.5803 5.04578 35.9536C3.70546 34.8212 2.61065 33.3921 1.83664 31.7646C1.06264 30.137 0.627806 28.3497 0.562059 26.5256C0.562059 26.3976 0.562059 26.3976 0.541466 25.8535V25.8096C0.34189 23.6305 0.591255 21.4312 1.27205 19.3661C1.95285 17.301 3.04857 15.4201 4.48227 13.8556C5.21458 13.0078 6.01037 12.2252 6.86173 11.5156L8.82932 9.86755L9.77474 12.2956C10.3422 13.854 11.17 15.2893 12.2179 16.5316C13.0317 17.4732 13.633 18.6013 13.9758 19.8296C15.0185 18.3196 14.8725 16.7416 14.1761 13.9856C12.8488 8.72955 13.1071 5.56555 18.1618 1.79555L20.5188 0.0395508L21.0805 2.98355C21.7664 6.23355 23.1942 9.25184 25.2366 11.7696L25.4406 12.0656C28.9227 17.1256 30.4747 20.4156 30.4747 26.5256C30.4079 28.3505 29.9716 30.1383 29.1959 31.7659C28.4203 33.3935 27.3237 34.8221 25.9817 35.9536C23.047 38.5781 19.3456 40.0236 15.5184 40.0396ZM7.4477 16.2236L7.36533 16.3196L7.28296 16.4156C6.17435 17.6247 5.33001 19.0809 4.8105 20.6798C4.291 22.2788 4.10922 23.9807 4.27821 25.6636V25.8636C4.29693 26.3496 4.29693 26.3496 4.29693 26.5356C4.36496 27.8397 4.70057 29.112 5.27999 30.2622C5.85942 31.4124 6.66848 32.4125 7.64989 33.1916C9.86885 35.1294 12.6467 36.188 15.5128 36.188C18.3788 36.188 21.1567 35.1294 23.3757 33.1916C24.3586 32.4116 25.1687 31.4101 25.7485 30.258C26.3283 29.1059 26.6636 27.8316 26.7305 26.5256C26.7305 21.5076 25.5941 18.9596 22.3947 14.2956L22.1906 13.9996C20.5665 11.822 19.2362 9.41183 18.2386 6.83955C16.9281 8.45355 17.046 10.0396 17.7949 13.0116C19.1222 18.2656 18.8639 21.4296 13.8092 25.1996L11.0553 27.2396L10.8475 23.7396C10.8885 22.0842 10.4035 20.4627 9.47146 19.1396C8.69083 18.2569 8.01145 17.278 7.4477 16.2236Z" fill="white"/>
</svg>
