<svg width="18" height="18" viewBox="0 0 18 18" fill="none" xmlns="http://www.w3.org/2000/svg">
<path fill-rule="evenodd" clip-rule="evenodd" d="M0.7 0H17.3C17.7 0 18 0.3 18 0.7V17.3C18 17.7 17.7 18 17.3 18H0.7C0.3 18 0 17.7 0 17.3V0.7C0 0.3 0.3 0 0.7 0ZM4.2 9.9C3.9 9.9 3.6 10 3.4 10.2C3.2 10.4 3 10.7 3 11C3 11.3 3.1 11.6 3.3 11.8C3.5 12 3.8 12.1 4.1 12.1C4.4 12.1 4.7 12 4.9 11.8C5.1 11.6 5.2 11.3 5.2 11C5.2 10.7 5.1 10.4 4.9 10.2C4.8 10 4.5 9.9 4.2 9.9ZM4.5 10.8C4.4 10.7 4.4 10.7 4.3 10.7C4.2 10.7 4.1 10.7 4.1 10.8C3.9 10.9 3.9 11 3.9 11C3.9 11.1 3.9 11.2 4 11.2C4.1 11.3 4.1 11.3 4.2 11.3C4.3 11.3 4.4 11.3 4.4 11.2C4.5 11.1 4.5 11.1 4.5 11C4.6 11 4.5 10.9 4.5 10.8ZM4.2 13C3.9 13 3.6 13.1 3.4 13.3C3.2 13.6 3 13.9 3 14.2C3 14.5 3.1 14.8 3.3 15C3.5 15.2 3.8 15.3 4.1 15.3C4.4 15.3 4.7 15.2 4.9 15C5.1 14.8 5.2 14.5 5.2 14.2C5.2 13.9 5.1 13.6 4.9 13.4C4.8 13.1 4.5 13 4.2 13ZM4.5 13.9C4.4 13.8 4.4 13.8 4.3 13.8C4.2 13.8 4.1 13.8 4.1 13.9C4 14 4 14 4 14.1C4 14.2 4 14.3 4.1 14.3C4.2 14.4 4.2 14.4 4.3 14.4C4.4 14.4 4.5 14.4 4.5 14.3C4.6 14.2 4.6 14.2 4.6 14.1C4.6 14.1 4.5 14 4.5 13.9ZM7.4 13C7.1 13 6.8 13.1 6.6 13.3C6.4 13.5 6.3 13.8 6.3 14.1C6.3 14.4 6.4 14.7 6.6 14.9C6.8 15.1 7.1 15.2 7.4 15.2C7.7 15.2 8 15.1 8.2 14.9C8.4 14.7 8.5 14.4 8.5 14.1C8.5 13.8 8.4 13.5 8.2 13.3C8 13.1 7.7 13 7.4 13ZM7.7 13.9C7.6 13.8 7.6 13.8 7.5 13.8C7.4 13.8 7.3 13.8 7.3 13.9C7.2 14 7.2 14 7.2 14.1C7.2 14.2 7.2 14.3 7.3 14.3C7.4 14.4 7.4 14.4 7.5 14.4C7.6 14.4 7.7 14.4 7.7 14.3C7.8 14.2 7.8 14.2 7.8 14.1C7.8 14.1 7.7 14 7.7 13.9ZM7.4 9.9C7.1 9.9 6.8 10 6.6 10.2C6.4 10.4 6.3 10.7 6.3 11C6.3 11.3 6.4 11.6 6.6 11.8C6.8 12 7.1 12.1 7.4 12.1C7.7 12.1 8 12 8.2 11.8C8.4 11.6 8.5 11.3 8.5 11C8.5 10.7 8.4 10.4 8.2 10.2C8 10 7.7 9.9 7.4 9.9ZM7.7 10.8C7.6 10.7 7.6 10.7 7.5 10.7C7.4 10.7 7.3 10.7 7.3 10.8C7.2 10.9 7.2 10.9 7.2 11C7.2 11.1 7.2 11.2 7.3 11.2C7.4 11.3 7.4 11.3 7.5 11.3C7.6 11.3 7.7 11.3 7.7 11.2C7.8 11.1 7.8 11.1 7.8 11C7.8 11 7.7 10.9 7.7 10.8ZM7.4 6.7C7.1 6.7 6.8 6.8 6.6 7C6.4 7.2 6.3 7.5 6.3 7.8C6.3 8.1 6.4 8.4 6.6 8.6C6.8 8.8 7.1 8.9 7.4 8.9C7.7 8.9 8 8.8 8.2 8.6C8.4 8.4 8.5 8.1 8.5 7.8C8.5 7.5 8.4 7.2 8.2 7C8 6.9 7.7 6.7 7.4 6.7ZM7.7 7.7C7.6 7.6 7.6 7.6 7.5 7.6C7.4 7.6 7.3 7.6 7.3 7.7C7.2 7.8 7.2 7.8 7.2 7.9C7.2 8 7.2 8.1 7.3 8.1C7.4 8.2 7.4 8.2 7.5 8.2C7.6 8.2 7.7 8.2 7.7 8.1C7.8 8 7.8 7.9 7.8 7.9C7.8 7.8 7.7 7.7 7.7 7.7ZM10.6 13C10.3 13 10 13.1 9.8 13.3C9.6 13.5 9.5 13.8 9.5 14.1C9.5 14.4 9.6 14.7 9.8 14.9C10 15.1 10.3 15.2 10.6 15.2C10.9 15.2 11.2 15.1 11.4 14.9C11.6 14.7 11.7 14.4 11.7 14.1C11.7 13.8 11.6 13.5 11.4 13.3C11.2 13.1 10.9 13 10.6 13ZM10.8 13.9C10.7 13.8 10.6 13.8 10.6 13.8C10.5 13.8 10.4 13.8 10.4 13.9C10.3 14 10.3 14 10.3 14.1C10.3 14.2 10.3 14.3 10.4 14.3C10.5 14.4 10.6 14.4 10.6 14.4C10.7 14.4 10.8 14.4 10.8 14.3C10.9 14.2 10.9 14.2 10.9 14.1C10.9 14.1 10.9 14 10.8 13.9ZM10.6 9.9C10.3 9.9 10 10 9.8 10.2C9.6 10.4 9.5 10.7 9.5 11C9.5 11.3 9.6 11.6 9.8 11.8C10 12 10.3 12.1 10.6 12.1C10.9 12.1 11.2 12 11.4 11.8C11.6 11.6 11.7 11.3 11.7 11C11.7 10.7 11.6 10.4 11.4 10.2C11.2 10 10.9 9.9 10.6 9.9ZM10.8 10.8C10.7 10.7 10.6 10.7 10.6 10.7C10.5 10.7 10.4 10.7 10.4 10.8C10.3 10.9 10.3 10.9 10.3 11C10.3 11.1 10.3 11.2 10.4 11.2C10.5 11.3 10.6 11.3 10.6 11.3C10.7 11.3 10.8 11.3 10.8 11.2C10.9 11.1 10.9 11.1 10.9 11C10.9 11 10.9 10.9 10.8 10.8ZM10.6 6.7C10.3 6.7 10 6.8 9.8 7C9.6 7.2 9.5 7.5 9.5 7.8C9.5 8.1 9.6 8.4 9.8 8.6C10 8.8 10.3 8.9 10.6 8.9C10.9 8.9 11.2 8.8 11.4 8.6C11.6 8.4 11.7 8.1 11.7 7.8C11.7 7.5 11.6 7.2 11.4 7C11.2 6.9 10.9 6.7 10.6 6.7ZM10.8 7.7C10.7 7.6 10.6 7.6 10.6 7.6C10.5 7.6 10.4 7.6 10.4 7.7C10.3 7.8 10.3 7.8 10.3 7.9C10.3 8 10.3 8.1 10.4 8.1C10.5 8.2 10.6 8.2 10.6 8.2C10.7 8.2 10.8 8.2 10.8 8.1C10.9 8 10.9 7.9 10.9 7.9C10.9 7.8 10.9 7.7 10.8 7.7ZM13.8 6.7C13.5 6.7 13.2 6.8 13 7C12.8 7.2 12.7 7.5 12.7 7.8C12.7 8.1 12.8 8.4 13 8.6C13.2 8.8 13.5 8.9 13.8 8.9C14.1 8.9 14.4 8.8 14.6 8.6C14.8 8.4 14.9 8.1 14.9 7.8C14.9 7.5 14.8 7.2 14.6 7C14.4 6.9 14.1 6.7 13.8 6.7ZM14 7.7C13.9 7.6 13.8 7.6 13.8 7.6C13.8 7.6 13.6 7.6 13.6 7.7C13.5 7.8 13.5 7.8 13.5 7.9C13.5 8 13.5 8.1 13.6 8.1C13.7 8.2 13.8 8.2 13.8 8.2C13.8 8.2 14 8.2 14 8.1C14.1 8 14.1 7.9 14.1 7.9C14.1 7.8 14.1 7.7 14 7.7ZM13.8 9.9C13.5 9.9 13.2 10 13 10.2C12.8 10.4 12.7 10.7 12.7 11C12.7 11.3 12.8 11.6 13 11.8C13.2 12 13.5 12.1 13.8 12.1C14.1 12.1 14.4 12 14.6 11.8C14.8 11.6 14.9 11.3 14.9 11C14.9 10.7 14.8 10.4 14.6 10.2C14.4 10 14.1 9.9 13.8 9.9ZM14 10.8C13.9 10.7 13.8 10.7 13.8 10.7C13.8 10.7 13.6 10.7 13.6 10.8C13.5 10.9 13.5 10.9 13.5 11C13.5 11.1 13.5 11.2 13.6 11.2C13.7 11.3 13.8 11.3 13.8 11.3C13.8 11.3 14 11.3 14 11.2C14.1 11.1 14.1 11.1 14.1 11C14.1 11 14.1 10.9 14 10.8ZM4.1 2.4C4.1 2.8 3.8 3.1 3.4 3.1C3 3.1 2.7 2.8 2.7 2.4V1.4H1.4V4.6H16.6V1.4H15.2V2.4C15.2 2.8 14.9 3.1 14.5 3.1C14.1 3.1 13.8 2.8 13.8 2.4V1.4H11.5V2.4C11.5 2.8 11.2 3.1 10.8 3.1C10.4 3.1 10.1 2.8 10.1 2.4V1.4H7.8V2.4C7.8 2.8 7.5 3.1 7.1 3.1C6.7 3.1 6.4 2.8 6.4 2.4V1.4H4.1V2.4ZM1.4 5.4V16.6H16.6V5.4H1.4Z" fill="url(#paint0_linear)"/>
<defs>
<linearGradient id="paint0_linear" x1="-9.85094" y1="9.21105" x2="14.6662" y2="8.93766" gradientUnits="userSpaceOnUse">
<stop stop-color="#D8BB58"/>
<stop offset="0.1464" stop-color="#ECD26E"/>
<stop offset="0.239" stop-color="#F4DB76"/>
<stop offset="0.4341" stop-color="#E9CC65"/>
<stop offset="0.8173" stop-color="#CEA53A"/>
<stop offset="0.8757" stop-color="#C99F33"/>
</linearGradient>
</defs>
</svg>
