<svg width="20" height="16" viewBox="0 0 20 16" fill="none" xmlns="http://www.w3.org/2000/svg">
<path d="M16.8999 8.3C17.3999 7.6 17.6999 6.8 17.6999 5.8C17.6999 3.6 15.8999 1.8 13.6999 1.8C12.7999 1.8 11.8999 2.1 11.2999 2.6C11.0999 2.7 10.9999 2.9 10.7999 3C10.5999 2.5 10.2999 2.1 9.8999 1.8C9.0999 1 7.9999 0.5 6.7999 0.5C5.5999 0.5 4.4999 1 3.6999 1.8C2.8999 2.6 2.3999 3.7 2.3999 4.9C2.3999 5.9 2.7999 6.9 3.3999 7.6C2.0999 8.9 0.899902 10.1 0.899902 12.2V13.6C0.899902 14 1.1999 14.3 1.5999 14.3H3.1999V14.8C3.1999 15.2 3.4999 15.5 3.8999 15.5H16.3999C16.7999 15.5 17.0999 15.2 17.0999 14.8V14.7V14.4H18.4999C18.8999 14.4 19.1999 14.1 19.1999 13.7V12.4C19.0999 10.5 18.0999 9.4 16.8999 8.3ZM12.0999 3.7C12.4999 3.4 13.0999 3.2 13.6999 3.2C15.0999 3.2 16.2999 4.4 16.2999 5.8C16.2999 6.5 15.9999 7.2 15.4999 7.7C15.0999 8.1 14.4999 8.4 13.8999 8.5C13.9999 8.2 13.9999 8 13.9999 7.7C13.9999 6.2 12.8999 4.8 11.4999 4.4C11.6999 4.1 11.8999 3.9 12.0999 3.7ZM10.6999 5.6C11.7999 5.6 12.6999 6.5 12.6999 7.6C12.6999 8.1 12.4999 8.6 12.0999 9C11.6999 9.4 11.1999 9.6 10.6999 9.6C9.5999 9.6 8.6999 8.7 8.6999 7.6C8.6999 6.5 9.5999 5.6 10.6999 5.6ZM4.6999 2.8C5.2999 2.2 5.9999 1.9 6.7999 1.9C7.5999 1.9 8.3999 2.2 8.8999 2.8C9.2999 3.2 9.5999 3.8 9.6999 4.4C8.2999 4.8 7.2999 6.1 7.2999 7.6C7.2999 7.7 7.2999 7.8 7.2999 7.8C7.0999 7.8 6.9999 7.8 6.7999 7.8C5.9999 7.8 5.1999 7.5 4.6999 6.9C4.1999 6.4 3.7999 5.6 3.7999 4.8C3.7999 4.1 4.1999 3.3 4.6999 2.8ZM4.5999 14.1V13.7V11.7C4.5999 11.5 4.3999 11.3 4.1999 11.3C3.9999 11.3 3.7999 11.5 3.7999 11.7V13H2.2999V12.3C2.2999 10.8 3.2999 9.8 4.3999 8.7H4.4999C5.3999 9.3 6.5999 9.5 7.5999 9.3H7.6999C7.7999 9.4 7.8999 9.6 7.8999 9.7C6.9999 10.6 6.0999 11.5 6.0999 13V14.1C6.0999 14.2 6.0999 14.2 6.0999 14.3H4.5999V14.1ZM13.7999 13.2H12.9999V12.5C12.9999 12.3 12.7999 12.1 12.5999 12.1C12.3999 12.1 12.1999 12.3 12.1999 12.5V14.1H9.2999V12.5C9.2999 12.3 9.0999 12.1 8.8999 12.1C8.6999 12.1 8.4999 12.3 8.4999 12.5V13.2H7.4999V12.8C7.4999 11.8 8.1999 11.1 8.8999 10.4C8.9999 10.5 9.1999 10.5 9.2999 10.6C9.6999 10.8 10.0999 10.8 10.5999 10.8C11.1999 10.8 11.7999 10.6 12.2999 10.3C13.0999 11 13.6999 11.7 13.6999 12.7V13.2H13.7999ZM17.6999 13H16.4999V11.9C16.4999 11.7 16.2999 11.5 16.0999 11.5C15.8999 11.5 15.6999 11.7 15.6999 11.9V14.1H15.1999C15.1999 14 15.1999 14 15.1999 13.9V12.8C15.1999 11.4 14.4999 10.6 13.6999 9.7C14.4999 9.7 15.1999 9.5 15.7999 9.1L15.8999 9.2C16.8999 10.2 17.7999 11 17.7999 12.4V13H17.6999Z" fill="url(#paint0_linear)"/>
<defs>
<linearGradient id="paint0_linear" x1="-9.11522" y1="8.17587" x2="15.809" y2="7.8368" gradientUnits="userSpaceOnUse">
<stop stop-color="#D8BB58"/>
<stop offset="0.1464" stop-color="#ECD26E"/>
<stop offset="0.239" stop-color="#F4DB76"/>
<stop offset="0.4341" stop-color="#E9CC65"/>
<stop offset="0.8173" stop-color="#CEA53A"/>
<stop offset="0.8757" stop-color="#C99F33"/>
</linearGradient>
</defs>
</svg>
