<svg width="39" height="36" viewBox="0 0 39 36" fill="none" xmlns="http://www.w3.org/2000/svg">
<path d="M15.8333 29.6667L19.7916 15.2917C18.5416 15.0834 17.4999 14.875 16.4583 14.875C14.9999 14.875 13.5416 15.0834 12.2916 15.5C11.8749 15.7084 11.2499 15.5 10.8333 15.0834C9.58328 14.0417 8.54161 13.2084 7.49995 12.5834C6.45828 11.9584 5.20828 11.3334 3.95828 10.9167C3.33328 10.7084 2.91661 9.87502 3.12494 9.25002C3.12494 9.04169 3.12494 9.04169 3.33328 8.83335C5.41661 5.50002 8.74994 2.79169 12.4999 1.33335C16.2499 -0.12498 20.2083 -0.333313 24.3749 0.708354C28.5416 1.75002 31.8749 4.04169 34.3749 7.16669C36.8749 10.2917 38.5416 14.25 38.7499 18.2084C38.7499 19.0417 38.1249 19.6667 37.2916 19.6667C37.0833 19.6667 37.0833 19.6667 36.8749 19.6667C35.6249 19.4584 34.1666 19.25 32.9166 19.25C31.6666 19.25 30.4166 19.4584 29.1666 19.875C28.7499 20.0834 28.1249 19.875 27.7083 19.4584C26.6666 18.4167 25.6249 17.5834 24.3749 16.75C23.3333 16.125 22.2916 15.7084 21.2499 15.2917L17.4999 29.6667C18.1249 29.875 18.7499 29.875 19.3749 30.0834C19.7916 30.2917 20.2083 30.2917 20.6249 30.5C21.2499 30.2917 22.0833 30.0834 22.7083 29.875C23.5416 29.6667 24.5833 29.6667 25.4166 29.6667C27.0833 29.6667 28.7499 29.875 30.4166 30.5C32.0833 31.125 33.5416 31.75 34.9999 32.7917C35.6249 33.2084 35.8333 34.25 35.2083 34.875C34.7916 35.5 33.7499 35.7084 33.1249 35.0834C32.0833 34.25 30.8333 33.625 29.3749 33.2084C28.1249 32.7917 26.6666 32.5834 25.2083 32.5834C24.7916 32.5834 24.5833 32.5834 24.3749 32.5834L24.5833 32.7917C25.2083 33.2084 25.4166 34.25 24.7916 34.875C24.3749 35.5 23.3333 35.7084 22.7083 35.0834C21.2499 34.0417 19.7916 33.2084 18.1249 32.7917C16.4583 32.1667 14.7916 31.9584 12.9166 31.9584C11.0416 31.9584 9.37494 32.1667 7.70828 32.7917C6.04161 33.4167 4.58328 34.0417 3.12494 35.0834C2.49995 35.5 1.66661 35.5 1.04161 34.875C0.624945 34.25 0.624945 33.4167 1.24994 32.7917C2.91661 31.5417 4.79161 30.7084 6.66661 30.0834C8.54161 29.4584 10.6249 29.0417 12.7083 29.0417C14.1666 29.4584 14.9999 29.4584 15.8333 29.6667ZM32.0833 9.04169C29.9999 6.54169 27.0833 4.45835 23.5416 3.62502C19.9999 2.79169 16.6666 3.00002 13.5416 4.04169C10.8333 5.08335 8.54161 6.75002 6.66661 9.04169C7.49994 9.25002 8.33328 9.66669 8.95828 10.0834C9.99994 10.7084 11.0416 11.5417 11.8749 12.375C13.3333 12.1667 14.5833 11.9584 16.0416 11.9584C17.7083 11.9584 19.3749 12.1667 21.0416 12.5834C22.7083 13 24.3749 13.625 25.6249 14.4584C26.8749 15.0834 27.9166 15.9167 28.9583 16.9584C30.2083 16.75 31.4583 16.5417 32.7083 16.5417C33.5416 16.5417 34.3749 16.5417 35.2083 16.75C35.2083 13.8334 33.9583 11.3334 32.0833 9.04169Z" fill="url(#paint0_linear)"/>
<defs>
<linearGradient id="paint0_linear" x1="-20.0445" y1="18.1741" x2="31.7112" y2="17.5547" gradientUnits="userSpaceOnUse">
<stop stop-color="#D8BB58"/>
<stop offset="0.1464" stop-color="#ECD26E"/>
<stop offset="0.239" stop-color="#F4DB76"/>
<stop offset="0.4341" stop-color="#E9CC65"/>
<stop offset="0.8173" stop-color="#CEA53A"/>
<stop offset="0.8757" stop-color="#C99F33"/>
</linearGradient>
</defs>
</svg>
